<svg version="1.2" xmlns="http://www.w3.org/2000/svg" viewBox="0 0 432 432" width="432" height="432"><style>.a{display:none;fill:#fff;stroke:#1d1d1b;stroke-miterlimit:10}.b{display:none;fill:#1d1d1b}.c{fill:#1d1d1b}</style><path class="a" d="m1703-200h-2200v-2200h2200z"/><path fill-rule="evenodd" class="b" d="m-432.7-1406c-14-22-22-47.6-24-73.5-2-25.8 2.5-51.7 12.9-75.4 9.2-21 23.4-39.9 40.3-55.3 17.6-16.1 38.1-28.5 60.1-37.6 23-9.4 47.5-14.4 72.3-15.5 28-1.2 56.1 2.5 83.1 9.7 23.5 6.2 46.2 15.2 67.9 26.1q-2.3-12.1-4.6-24.2-1.9-10.4-3.9-20.8c-0.8-4.1 1.1-7.9 5.2-9.2 3.7-1.2 8.5 1.3 9.2 5.2q0.8 3.8 1.5 7.6 3.1 16.5 6.3 33 2 10.4 3.9 20.8c0.4 2.1 0.3 3.9-0.7 5.8-0.8 1.4-2.9 3.2-4.5 3.4q-3.9 0.5-7.8 1.1-17 2.3-34.1 4.7-10.7 1.5-21.4 3c-2.2 0.3-3.9 0.2-5.8-0.8-1.8-0.9-2.9-2.6-3.5-4.5-0.5-1.8-0.1-4.1 0.8-5.7 0.8-1.5 2.8-3.3 4.5-3.5q3.9-0.5 7.7-1.1 17-2.3 34-4.7-0.7-0.3-1.3-0.6-4.4-2.1-8.8-4-2.4-1.1-4.7-2.1c0 0-0.1 0-0.2-0.1-0.3-0.1-0.7-0.2-0.8-0.3q-1.1-0.4-2.1-0.9c-12.5-5.1-25.2-9.5-38.2-13q-9.6-2.7-19.5-4.8-4.9-1-9.8-1.8-2.7-0.5-5.3-0.8-1.2-0.2-2.3-0.4-0.2 0-0.5 0c-0.1-0.1-0.3-0.1-0.5-0.1q0 0 0 0 0 0 0 0 0 0 0 0c-13.2-1.7-26.5-2.5-39.8-2.1q-10 0.3-19.9 1.4-1.3 0.1-2.6 0.3-0.3 0-0.4 0.1-0.5 0-1 0.1-2.2 0.3-4.4 0.7-4 0.6-8.1 1.5c-10.8 2.2-21.5 5.4-31.8 9.3q-2.1 0.8-4.1 1.7-0.4 0.1-0.7 0.3-0.8 0.3-1.6 0.7-3.8 1.6-7.6 3.5-7.4 3.6-14.6 7.8-7.1 4.3-13.8 9.1-1.8 1.3-3.6 2.6c-0.1 0.1-0.6 0.5-1 0.8-0.3 0.2-0.8 0.6-0.9 0.7q-3.3 2.6-6.4 5.3c-8.3 7.2-15.8 15.1-22.6 23.6q0 0.1-0.1 0.1-0.2 0.3-0.4 0.6-0.6 0.8-1.3 1.7-1.1 1.5-2.2 3.1-2.3 3.3-4.5 6.8-4.3 6.9-7.9 14.3-1 2-1.8 4-0.4 0.8-0.8 1.7-0.1 0.2-0.1 0.3-0.1 0.1-0.1 0.2 0 0.1-0.1 0.1 0 0.1 0 0.2 0 0 0-0.1c-1 2.6-2.1 5.2-3 7.9q-2.9 8.6-4.8 17.5-0.9 4.5-1.6 9c0 0.1-0.1 0.8-0.1 1.1q-0.1 1.1-0.3 2.3-0.2 2.2-0.4 4.3-0.7 9.1-0.4 18.2 0.2 4.6 0.7 9.1c0.1 1.6 0.1 3.3 0.5 4.9 0-0.1-0.2-1.4-0.1-0.5q0.1 0.6 0.2 1.2 0.2 1 0.3 2.1 1.5 9 4 17.8 2.4 8.6 5.8 16.8c0.2 0.3 0.5 1.1 0.6 1.4q0.5 1.1 1 2.2 0.9 1.9 1.9 3.8 2 4.1 4.3 8.1c3 5.1 6.3 10 9.8 14.7q0.1 0 0.1 0.1 0 0 0 0 0.2 0.3 0.5 0.6 0.7 0.9 1.5 1.8 1.2 1.6 2.6 3.1 2.8 3.3 5.8 6.4 6 6.2 12.7 11.7 0.9 0.7 1.8 1.4 0.2 0.2 0.5 0.4 0.1 0.1 0.3 0.2 1.6 1.2 3.2 2.4 3.5 2.5 7.1 4.9 7.3 4.6 15.1 8.5c2.4 1.2 4.9 2.4 7.4 3.4q0.2 0.1 0.5 0.2 0.4 0.2 0.8 0.3 1.1 0.5 2.1 0.9 1.9 0.7 3.8 1.4 8.1 2.9 16.6 4.9 3.6 0.9 7.4 1.5c-2.4-7.4-4.5-15-6.4-22.5-7.1-28.6-11.8-59.1-4.3-88.1 6-23.2 20.1-45.6 41.5-57.5 20.6-11.6 44.9-10.9 66.2-1.8 21.2 9 37.7 26.7 45.3 48.3 8.1 23.4 5.3 49.4-4.7 71.8-10 22.6-28.6 40.7-50.5 51.9-19.9 10.1-42.3 15.1-64.6 15q0.9 1.9 1.8 3.8c2.4 5 5.1 9.9 8.1 14.6q2.2 3.4 4.6 6.7 0.3 0.4 0.5 0.7c0.5 0.3 1 1.3 1.3 1.7q1.2 1.4 2.5 2.9c3.5 4 7.4 7.7 11.6 11.1q0.1 0.1 0.1 0.1 0.3 0.2 0.5 0.4 0.9 0.7 1.8 1.3 1.5 1.1 3.1 2.1 3.6 2.3 7.3 4.1 1.1 0.6 2.2 1.1c0.3 0.1 2.7 1.1 1 0.4 1.3 0.5 2.6 1 3.9 1.5q4.2 1.5 8.6 2.4 2.3 0.6 4.7 1 1 0.1 2 0.3 0.3 0 0.3 0 0.2 0 0.4 0 4.5 0.5 9 0.6 4.5 0.1 9-0.3 2.4-0.2 4.8-0.5 0.1 0 0.1 0c0.2 0 0.5-0.1 0.6-0.1q1.1-0.1 2.1-0.3c6.1-1 12-2.5 17.9-4.5q4.1-1.4 8.2-3.1c0.3-0.1 1.1-0.5 1.4-0.6q1.1-0.5 2.3-1 1.9-0.9 3.8-1.9c5.6-2.8 10.9-6.1 16.1-9.6q2.1-1.5 4.1-3 0.9-0.6 1.8-1.3c0.2-0.2 0.8-0.6 1.1-0.8q3.6-2.9 7.1-5.9c19.6-16.9 35.9-37.1 52-57.2 2.6-3.3 7.9-2.5 10.6 0 3.2 2.9 2.4 7.5 0 10.6-8.1 10.1-16.2 20.2-24.7 29.9-17.6 19.9-37.6 38.9-61.6 50.8-23.6 11.8-51 17.3-77.1 11.4-24.4-5.5-44-21.9-57.4-42.5-5.7-8.8-10.4-18.3-14.3-28-21.9-2.7-43.1-10-62-21.2-21.3-12.5-39.7-30-53.1-50.9zm197 129.3c0.2 0.1 0.5 0.1 0.8 0.1-0.2 0-0.8-0.1-0.8-0.1zm-86.7-140.9q0.4 5.4 1.1 10.7 0 0.1 0 0.2 0 0.1 0 0.3 0.1 0.5 0.2 1.1 0.2 1.4 0.4 2.8 0.4 2.5 0.9 5c1.2 7.1 2.8 14.1 4.6 21.1 2.4 9.5 5.1 19.1 8.4 28.4q4.5 0.2 9.1 0.1 4.4 0 8.8-0.4 2.3-0.2 4.7-0.4 1-0.2 2-0.3c0.9-0.1-0.5 0.1-0.5 0.1 0.3 0 0.8-0.1 1.2-0.2q8.7-1.3 17.2-3.7 4.2-1.2 8.4-2.7 2.2-0.8 4.3-1.7 0.4-0.2 0.8-0.3 0.9-0.4 1.8-0.8c5.3-2.4 10.4-5.1 15.3-8.3 2.4-1.5 5-3.1 7.2-5-1.2 1.1 0.3-0.3 0.7-0.6q1-0.7 1.8-1.5 1.6-1.3 3.1-2.7 3.3-2.9 6.2-6.1 1.6-1.7 3-3.4 0.7-0.8 1.3-1.5c0.4-0.5 1.4-1.6 0.4-0.5 1.8-2.1 3.3-4.6 4.8-7q2.2-3.5 4.2-7.3 1-2 1.9-4.1 0.4-0.9 0.8-1.8 0.2-0.2 0.2-0.2 0-0.2 0.1-0.3 1.5-3.9 2.8-8 1.2-4 2.1-8.2 0.5-2.2 0.8-4.4 0.2-0.8 0.3-1.5c0-0.3 0.1-0.6 0.1-0.9 0.7-5.6 0.8-11.1 0.4-16.7q-0.1-2.2-0.4-4.4 0-0.1 0-0.1 0-0.2-0.1-0.4-0.1-1-0.3-1.9-0.7-4.1-1.8-8.1c-0.8-2.7-1.7-5.3-2.8-7.9q0 0 0 0 0 0 0 0-0.1-0.4-0.3-0.8-0.5-1-1-2-0.7-1.7-1.6-3.2-1.9-3.4-4.1-6.5-0.6-0.8-1.2-1.6-0.1-0.2-0.2-0.3-0.1-0.1-0.2-0.2-1.1-1.4-2.3-2.7-2.5-2.9-5.4-5.4-1.5-1.4-3-2.7c-0.3-0.2-1.8-1.4-0.9-0.7 0.8 0.7-0.6-0.4-0.8-0.6-4.2-3-8.5-5.7-13.2-7.8q-0.9-0.5-1.8-0.9-0.2-0.1-0.3-0.1-0.1-0.1-0.3-0.1-1.6-0.7-3.3-1.3-3.6-1.2-7.2-2.1-2-0.5-4-0.8-0.9-0.2-1.7-0.3-0.2-0.1-0.3-0.1c-0.5 0.1-6.8-0.5-7.4-0.5q-3.8-0.1-7.5 0.3c-0.2 0-0.7 0.1-1.2 0.2 0.2-0.1 0.2-0.2-0.3-0.1q-0.2 0.1-0.4 0.1-0.1 0-0.1 0 0 0 0.1 0-0.3 0-0.6 0.1-1.7 0.3-3.4 0.7-3.7 0.8-7.2 2.1c-0.6 0.3-1.3 0.6-1.9 0.8 1.9-0.5-0.1 0-0.6 0.3q-1.8 0.8-3.5 1.7-3.6 1.9-7 4.3c-0.1 0.1-0.9 0.7-1.4 1 0.3-0.1 0.4-0.3-0.1 0.1q-0.1 0.1-0.2 0.2 0 0 0 0 0 0 0 0-0.3 0.3-0.7 0.5-1.4 1.3-2.9 2.6-3 2.7-5.7 5.9-0.7 0.8-1.4 1.6c-0.3 0.3-1.4 1.4-1.4 1.8 0 0 0.8-1.2 0.3-0.5q-0.3 0.5-0.6 0.9-0.6 0.8-1.2 1.6c-3.2 4.6-5.9 9.5-8.2 14.5-0.2 0.4-0.5 0.9-0.7 1.4q0 0-0.1 0.5-0.2 0.5-0.4 1-0.8 1.8-1.4 3.7-1.4 4-2.4 8-1.1 4.1-1.8 8.2-0.2 1.4-0.4 2.8-0.1 0.2-0.1 0.3-0.1 0.6-0.1 1.3-0.3 2.5-0.5 5c-0.6 7.1-0.5 14.2 0 21.3zm117.3-67.6c0.1 0.1 0.2 0.2 0.3 0.3q-0.1-0.2-0.3-0.3zm-45.1-26.1q-0.1 0-0.3-0.1c-1.1-0.1-0.1 0 0.3 0.1zm52 103c0 0.1-0.3 0.7-0.3 0.7 0.1-0.1 0.3-0.4 0.3-0.7z"/><path fill-rule="evenodd" class="b" d="m27.1-1421.3c-6-19.4-4-40.4 7-57.6 9.9-15.7 25.5-27.7 42.5-35q2.5-1.1 5.1-2.1c-1.8-7-3.1-14.2-3.8-21.5-1.8-18.4 0.6-37.5 6.9-55 6.3-17.8 16.4-34.3 30.3-47.2 13.6-12.7 30.4-21.5 48.6-25.3 18-3.7 37-3.2 54.5 2.6 18.1 5.9 33.9 17 44.9 32.6 11.2 15.9 16.5 36.1 13.3 55.4-3 18.4-15.1 33.7-30.6 43.4-15.5 9.7-33.7 14-51.6 16.4-21.1 2.8-42.6 2-63.8 3.8q-4.2 0.3-8.5 0.8-1.3 0.1-2.5 0.3-0.5 0-1 0.1c-0.1 0-0.2 0-0.3 0-0.1 0.1-0.3 0.1-0.3 0.1q-0.6 0.1-1.3 0.2-0.9 0.1-1.9 0.2-7.1 1.2-14 2.9 0.5 1.4 1.1 2.7 0.1 0.2 0.2 0.4 0 0.2 0.1 0.3 0 0.1 0 0.1 0.1 0.1 0.1 0.2 0 0 0-0.1 0.2 0.6 0.5 1.2 0.6 1.5 1.3 2.9 1.5 3.3 3.2 6.4 3.3 6.1 7.1 11.9 1.9 2.8 3.9 5.6 1 1.4 2.1 2.8 0.1 0.2 0.3 0.4 0.5 0.6 1 1.3c5.8 7.3 12.3 14 19.3 20.2q2.6 2.3 5.3 4.5c0.9 0.8 2 1.5 2.9 2.3q0.1 0.1 0.2 0.2 0.7 0.5 1.5 1.1 5.6 4.1 11.5 7.8 6.7 4.1 13.6 7.6 3.7 1.8 7.4 3.5 1.7 0.8 3.5 1.6 0 0 0 0 0.2 0.1 0.4 0.2 1 0.4 2 0.7c9.7 3.9 19.6 7.1 29.8 9.5q7.8 1.8 15.6 3.1 2 0.4 3.9 0.7 1.1 0.1 2.1 0.3 0.1 0 0.2 0 0.1 0 0.2 0 3.9 0.5 7.8 0.9c8.5 0.9 17.1 1.3 25.7 1.3q-16.3-10-32.5-20c-3.6-2.2-4.6-6.6-2.7-10.3 1.9-3.5 6.9-4.7 10.3-2.7q24.5 15.1 49 30.2c2 1.3 3.2 3.2 3.5 5.5 0.3 2.1-0.2 4.8-2 6.3q-5.7 4.6-11.4 9.2-19.8 16.1-39.5 32.1c-1.6 1.3-3.2 2.1-5.3 2.2-2 0.1-3.9-0.9-5.3-2.2-1.4-1.3-2.2-3.5-2.2-5.3 0-1.7 0.8-4.2 2.2-5.3q5.7-4.6 11.4-9.3 9.5-7.7 19.1-15.5-9.9-0.2-19.7-1.1c-21.6-2.1-43.1-6.7-63.4-14.8-19.5-7.7-37.7-18.2-53.7-31.9-14.6-12.5-27.2-27.7-36.6-44.5-3.6-6.3-6.7-13-9.3-19.8q-1.1 0.4-2.3 0.9-0.1 0-0.3 0.1-0.8 0.4-1.6 0.8-1.4 0.6-2.8 1.3-3.1 1.5-6.1 3.2-2.9 1.7-5.6 3.6-1.5 1-3 2-0.6 0.5-1.2 0.9-0.1 0.1-0.3 0.3c-3.5 2.7-6.7 5.8-9.7 9.1q-1.1 1.2-2.2 2.4-0.5 0.7-1.1 1.3 0 0.1 0 0.1c-1.3 1.8-2.6 3.6-3.7 5.5q-1.7 2.7-3.1 5.6-0.4 0.9-0.8 1.7 0 0.1 0 0.1-0.6 1.5-1.1 3-1 3.1-1.7 6.2c-0.3 1.2-0.5 2.3-0.7 3.5q0 0 0 0.1 0 0.1 0 0.2-0.1 1-0.2 2-0.3 3.7-0.1 7.4 0.1 1.9 0.3 3.9 0 0.1 0.1 0.3c0.2 0.2 0.2 1.7 0.3 1.9 0.8 5 2.3 9.8 4.1 14.5q0.2 0.6 0.4 1.1c0.1 0.2 0.4 1 0.5 1.1q0.8 1.8 1.6 3.4 1.7 3.5 3.6 6.8c2.7 4.5 5.6 8.8 8.7 13q0.4 0.4 0.7 0.8 0 0 0 0 0.5 0.7 1.1 1.4 1.2 1.5 2.4 2.9 2.4 3 5 5.8c6.7 7.3 13.8 14.1 21.3 20.6q2.8 2.5 5.8 4.8 1.5 1.3 3 2.5c0.1 0 0.4 0.2 0.6 0.4 0.1 0.1 0.9 0.7 1 0.8q5.9 4.5 12 8.6c8.2 5.6 16.7 10.6 25.5 15.2q6.6 3.4 13.3 6.5 1.8 0.8 3.6 1.6 0.8 0.3 1.5 0.6 0.2 0.1 0.3 0.2 0.1 0 0.3 0.1 3.3 1.4 6.7 2.7c9.2 3.5 18.6 6.5 28.2 9 9.6 2.5 19.3 4.5 29 5.8q0.5 0.1 0.9 0.2 0.8 0.1 1.6 0.2 1.6 0.2 3.3 0.3 3.8 0.4 7.5 0.7 7.4 0.6 14.8 0.8c4.2 0.1 7.3 3.3 7.5 7.5 0.2 4-3.6 7.5-7.5 7.5q-14.3-0.3-28.4-2.2c-19.8-2.6-39.3-7.3-58-14.3-18.8-7-36.9-15.9-53.7-26.8-16.7-10.8-32.2-23.5-46.1-37.8-14.7-15.2-28-32.8-34.4-53.2zm213.7 14.5q0.3 0 0.5 0.1c-0.1 0-0.3-0.1-0.5-0.1zm-144.8-113.7c15.1-3.8 30.8-5.3 46.4-6.1 11.5-0.6 22.9-0.8 34.4-1.5q6.5-0.3 13-1 1.7-0.2 3.4-0.4 0.1 0 0.4 0c0.1-0.1 1.1-0.2 1.3-0.2q3.2-0.5 6.4-1.1c8.3-1.5 16.6-3.7 24.5-6.8q0.7-0.3 1.3-0.5 0.3-0.1 0.5-0.2 1.4-0.7 2.8-1.3 2.8-1.4 5.4-2.9 2.6-1.5 5.1-3.2 1.1-0.7 2.1-1.5c0.2-0.1 0.4-0.3 0.5-0.4q0.5-0.4 1.1-0.8 2.3-2 4.3-4.1 1.2-1.1 2.2-2.3c0.6-0.6 1.2-1.9 1.9-2.3q0.1-0.1 0.1-0.2 0.4-0.5 0.8-1.1 0.9-1.3 1.7-2.6 1.6-2.6 3-5.5c0.1-0.2 0.2-0.5 0.3-0.8q0.2-0.5 0.5-1.1 0.5-1.5 0.9-2.9 1-3.1 1.5-6.3 0.2-0.8 0.3-1.5 0-0.2 0-0.5 0.2-1.6 0.3-3.2 0.1-3.3-0.1-6.6-0.1-1.6-0.3-3.3 0-0.2 0-0.5-0.1-0.6-0.2-1.2-0.6-3.3-1.5-6.5-0.8-3.2-2-6.3-0.4-1-0.8-1.9 0-0.1 0-0.2-0.7-1.5-1.4-3c-2-4-4.4-7.8-7-11.4q-0.2-0.3-0.5-0.6-0.4-0.6-0.9-1.2-1-1.1-2-2.3-2.2-2.4-4.7-4.7c-1.5-1.4-3.2-2.7-4.8-4.1 1.6 1.4 0 0-0.4-0.3q-0.6-0.4-1.2-0.8-1.3-0.9-2.7-1.8-5.3-3.4-11.1-6-0.3-0.1-0.6-0.3c-0.4-0.1-1-0.4-1.2-0.4q-1.3-0.6-2.7-1.1-3-1-6-1.9-3.2-0.9-6.4-1.5-1.6-0.3-3.2-0.6-0.8-0.1-1.7-0.3 0 0-0.1 0c-4.2-0.4-8.4-0.8-12.6-0.8q-3.2 0-6.4 0.2-1.7 0.1-3.4 0.3-0.8 0.1-1.5 0.2c-0.2 0-1 0.1-1.3 0.1-0.3 0.1-0.5 0.1-0.6 0.1q-0.8 0.1-1.5 0.2-1.6 0.3-3.1 0.6-3.2 0.7-6.3 1.5-3.1 0.8-6.1 1.9-1.7 0.5-3.3 1.1-0.7 0.3-1.4 0.6c-0.2 0-1 0.4-1 0.4q-0.1 0-0.1 0-0.4 0.2-0.7 0.3-0.7 0.3-1.4 0.7-1.4 0.6-2.8 1.4-2.9 1.4-5.6 3.1-2.8 1.6-5.4 3.5c-0.9 0.6-1.8 1.4-2.8 2q-0.1 0.1-0.2 0.1-0.5 0.5-1.1 1-5.1 4.2-9.6 9-2.4 2.5-4.5 5.2-0.6 0.6-1.1 1.3-0.1 0.1-0.1 0.1-1 1.3-2 2.7-3.8 5.3-6.9 11.1-1.6 2.9-3.1 5.9-0.7 1.6-1.4 3.3c-0.1 0.1-0.2 0.3-0.3 0.6q0 0.1-0.1 0.2-0.2 0.4-0.4 0.9c-3.2 8.2-5.6 16.8-7.1 25.6q-0.1 1-0.3 2 0 0.2 0 0.4c-0.2 1-0.3 2-0.4 3q-0.3 3.3-0.5 6.6-0.3 6.7 0.1 13.3 0.2 3.4 0.5 6.7 0.1 0.4 0.1 0.9c0.1 0.2 0.2 0.9 0.2 1.1q0.3 1.7 0.6 3.3 0.8 4.8 2 9.4zm124.4-125.2q0.2 0.1 0.2 0.1 0 0-0.2-0.1zm32.3 89q0.2-0.2 0.3-0.4c-0.3 0.2-0.9 1.2-0.3 0.4zm-213.6 105.9c0 0-0.1 0.3-0.1 0.6 0.1-0.3 0.1-0.6 0.1-0.6zm0 15q0-0.1 0-0.2 0 0.1 0 0.2z"/><path fill-rule="evenodd" class="b" d="m442.8-1479.9q76.5-1.5 153.1-3 21.7-0.4 43.3-0.8c4.1-0.1 7.5-3.4 7.5-7.5 0-4.1-3.4-7.4-7.5-7.5q-2.3 0-4.5-0.3c-0.2 0-1-0.1-1.2-0.2q-1.4-0.2-2.8-0.6c-1.6-0.4-3.1-0.9-4.6-1.5q-0.4-0.1-0.5-0.1-0.1-0.1-0.3-0.2-1.3-0.6-2.6-1.2-2.1-1.2-4.2-2.5-0.9-0.6-1.8-1.2-0.5-0.4-0.9-0.8-0.2-0.1-0.4-0.2c-2.5-2.2-4.9-4.5-7.1-7-0.2-0.2-0.9-1.2-1.2-1.5-0.1-0.1-0.3-0.4-0.3-0.4q-0.4-0.6-0.8-1.1-1.5-2.1-2.7-4.3-1.3-2.2-2.4-4.5-0.2-0.5-0.4-1 0 0 0 0 0-0.1-0.1-0.2-0.4-1.1-0.9-2.3c-1-3.1-1.8-6.3-2.3-9.6 0-0.2-0.1-0.6-0.1-0.7q0-0.6-0.1-1.2-0.1-1.4-0.2-2.8-0.1-2.8 0.1-5.6c0.6-13.7 6.7-28 15.4-39.3 4.3-5.6 10.2-11.3 16.1-16 5.2-4.1 12.5-8.6 19.1-12 14-7.3 29.2-12.5 45.1-16.2 16-3.7 33-5.4 48.9-1.1q2.6 0.7 5.1 1.6 1.3 0.4 2.5 0.9 0.5 0.2 1 0.4 0.1 0 0.1 0.1 0.1 0 0.2 0.1c3.2 1.4 6.4 3.1 9.3 5 1.2 0.7 3.3 2.2 3.8 2.6 0.6 0.5 2.7 2.3 3.8 3.3q1.8 1.7 3.3 3.5 0.9 0.9 1.7 1.9 0.5 0.8 1.1 1.5c4.1 6.1 6.1 11.3 7.4 18.8 0 0.3 0 0.5 0.1 0.5 0 0.1 0 0.2 0 0.6q0.1 1.3 0.2 2.7 0.2 2.9 0 5.8c-0.2 4.1-0.4 5.7-1.3 9.8-3.3 14.4-10.7 26.5-21 37.2-11.1 11.4-23.3 19.7-36.8 28.2q-5.1 3.1-10.2 6.2c-2.8 1.8-4.3 5.2-3.4 8.5 0.8 3 3.9 5.7 7.2 5.5q90.4-6.8 180.8-13.7 20.4-1.5 40.8-3.1-1 1.1-2 2.2-11.8 12.6-23.5 25.2-2.7 2.9-5.4 5.7c-2.6 2.9-3 7.8 0 10.6 2.9 2.7 7.8 3.1 10.6 0q7.4-7.9 14.8-15.8 11.7-12.6 23.5-25.2 2.7-2.9 5.3-5.7c2.6-2.8 3.2-7.9 0-10.6q-8.1-6.8-16.2-13.7-12.8-10.8-25.6-21.6-3-2.5-6-5c-1.5-1.3-3.2-2.2-5.3-2.2-1.8 0-4 0.9-5.3 2.2-2.5 2.8-3.2 7.9 0 10.6q8.1 6.9 16.2 13.7 8.8 7.4 17.6 14.7-84.6 6.4-169.1 12.8-11.2 0.9-22.4 1.7c20.5-14.4 38.8-31.6 47.4-56 5.7-16 6.1-33.8-0.8-49.6-6.3-14.6-19.2-25.8-33.7-32.1-17.5-7.6-36.3-8.5-55-5.8-18.3 2.7-36.3 8.4-53.2 15.9-31.1 13.7-59.6 39.1-66 74-2.9 16.4-0.7 33.4 8.1 47.7 3.4 5.4 7.6 10.4 12.4 14.7q-58.8 1.1-117.5 2.2-21.7 0.4-43.3 0.9c-4.1 0-7.5 3.3-7.5 7.5 0 4 3.4 7.5 7.5 7.5zm329.3-135.3q-0.1 0 0 0z"/><path class="b" d="m966.2-1372.6q-97.2 6.4-194.3 12.7-97.1 6.4-194.2 12.7-45.3 3-90.6 5.9 11.5-9.1 23-18.1 3.1-2.4 6.2-4.9c1.4-1.1 2.2-3.6 2.2-5.3 0-1.8-0.9-4-2.2-5.3-1.5-1.3-3.3-2.2-5.3-2.2-2.2 0.1-3.7 0.9-5.3 2.2q-8.5 6.7-16.9 13.3-13.3 10.5-26.7 21-3.1 2.5-6.1 4.9c-3.7 2.9-2.5 9.8 1.5 11.8q9.8 4.7 19.7 9.4 15.7 7.6 31.5 15.1 3.6 1.8 7.2 3.5c1.9 0.9 3.8 1.4 5.8 0.8 1.8-0.5 3.6-1.8 4.5-3.4 1.8-3.4 1.1-8.5-2.7-10.3q-9.8-4.7-19.7-9.5-8.3-4-16.7-8 87.9-5.7 175.8-11.5 97.1-6.3 194.2-12.7 54.5-3.5 109.1-7.1c3.9-0.2 7.6-3.2 7.5-7.5-0.2-3.8-3.4-7.7-7.5-7.5z"/><path fill-rule="evenodd" class="b" d="m1108.3-1434.8c-3-22.7-0.6-46.3 7.1-67.8 7.9-22.1 21.2-42.3 39.6-57 19.4-15.4 42.6-25.1 67.3-27.1 23-2 46.4 3.8 65.9 16.3 19.1 12.4 34.3 30.5 42.1 52 7.5 20.7 6.8 44.1-1.3 64.4-8.1 20.5-22.9 38.6-42.9 48.4-19.3 9.4-41.9 10.5-62.2 3.9-20-6.5-38-20.2-47.3-39.3-1.9-3.7-1-7.9 2.7-10.2 3.2-2.1 8.5-0.9 10.2 2.7q1.6 3.1 3.4 6.1 1 1.5 2 2.9 0.4 0.5 0.7 1 0 0 0-0.1 0 0.1 0.1 0.2 0.1 0.2 0.2 0.3 0.1 0.1 0.2 0.2 0 0 0 0c2.8 3.5 6 6.7 9.5 9.6 0.5 0.4 1.1 0.8 1.6 1.3q0 0 0.1 0.1 1.4 1 2.9 2 3 2 6.1 3.8c2.1 1.1 4.1 2 6.2 3q0.3 0.1 0.6 0.2 0.8 0.3 1.7 0.6 1.6 0.7 3.3 1.2 3.4 1.1 6.8 1.9 1.8 0.4 3.7 0.7 0.9 0.2 1.7 0.3c0.3 0.1 1 0.1 1.3 0.2 4.4 0.4 8.8 0.7 13.2 0.5q1.9-0.1 3.8-0.3c0.5-0.1 1-0.2 1.5-0.2q0.2 0 0.4-0.1 3.5-0.5 6.9-1.4 3.5-0.9 6.9-2.2 0.7-0.2 1.4-0.5c0.2-0.1 0.5-0.3 0.7-0.3q1.7-0.8 3.4-1.6 3.3-1.7 6.3-3.7 1.7-1.1 3.3-2.2 0.6-0.5 1.2-0.9 0.3-0.3 0.5-0.5c3.9-3.1 7.5-6.6 10.7-10.4q0.7-0.8 1.3-1.6c0.2-0.2 1.5-1.8 0.7-0.9-0.8 1 0.5-0.6 0.7-0.9q0.4-0.6 0.9-1.3 2.2-3.1 4.1-6.4 1.9-3.3 3.6-6.8 0.4-0.9 0.8-1.9 0.2-0.2 0.3-0.5 0.6-1.5 1.2-3c1.7-4.8 3.1-9.8 4-14.8 0.2-1.2 0.4-2.4 0.6-3.7-0.4 2.3 0 0.3 0-0.3q0.1-0.9 0.2-1.8 0.4-3.8 0.4-7.6 0-3.9-0.4-7.7-0.1-0.9-0.2-1.8 0-0.1 0-0.1 0-0.1 0-0.2 0-0.1 0-0.2-0.1-0.2-0.1-0.4 0 0.1 0 0.2-0.2-1.7-0.5-3.3c-1-5-2.5-10-4.4-14.8q-0.2-0.4-0.3-0.8c-0.3-0.5-0.5-1-0.7-1.5q-0.8-1.8-1.7-3.5-1.7-3.3-3.7-6.6-2-3.3-4.4-6.5-0.3-0.4-0.6-0.8-0.5-0.6-1-1.2-1.2-1.5-2.4-2.9c-3.4-3.9-7.1-7.5-11.1-10.8q-0.8-0.7-1.7-1.4-0.2-0.2-0.4-0.3c-0.1 0-2.8-2.1-3-2.3q-3.2-2.2-6.5-4.1-3.3-2.1-6.9-3.8-1.8-0.9-3.7-1.7-0.2-0.1-0.4-0.2 0 0 0 0 0 0 0 0-0.2-0.1-0.4-0.2c-0.3-0.2-0.5-0.2-0.5-0.1-0.3-0.2-0.6-0.4-0.8-0.4-4.8-1.9-9.7-3.4-14.7-4.5q-2.2-0.5-4.4-0.8-1-0.2-2-0.3-0.1-0.1-0.1-0.1-0.1 0-0.2 0-4.2-0.5-8.5-0.7c-5.5-0.2-11.1 0.1-16.6 0.8q0.1 0 0.1-0.1-0.1 0.1-0.2 0.1c-0.4 0-0.5 0.1-0.6 0.1q-0.1 0-0.2 0-1 0.1-2 0.3-2.1 0.4-4.1 0.8-4 0.8-8 1.9-4.1 1.2-8.1 2.7-2.1 0.7-4.1 1.6-0.1 0-0.2 0.1-0.2 0-0.4 0.1-1 0.4-1.9 0.9-7.7 3.5-14.8 8-3.5 2.3-6.8 4.8-0.3 0.2-0.6 0.4-0.1 0.1-0.1 0.1-0.8 0.7-1.7 1.3-1.6 1.3-3.1 2.7-6.3 5.5-11.7 11.9-1.3 1.6-2.7 3.3-0.1 0.1-0.2 0.2 0 0.1-0.1 0.2-0.6 0.8-1.2 1.6-2.3 3.2-4.5 6.6-4.3 7-7.8 14.5-0.4 1-0.9 2-0.1 0.2-0.2 0.4c-0.4 1.2-0.9 2.4-1.4 3.6q-1.5 3.8-2.7 7.8-2.4 7.7-3.9 15.7-0.4 2.1-0.7 4.3-0.2 0.9-0.3 1.8 0 0.2 0 0.4-0.5 4.1-0.8 8.2-0.6 8.2-0.2 16.4 0.2 4.1 0.7 8.3 0.1 1.1 0.2 2.2c0 0 0.1 0.2 0.1 0.4q0 0.1 0 0.1 0.3 2 0.6 4 1.4 8.1 3.7 15.9 1.2 4 2.6 7.9 0.7 1.9 1.4 3.7 0.4 1 0.7 1.9 0.1 0 0.1 0.1 0.1 0.2 0.2 0.4c4.2 9.9 9.6 19.2 15.9 28q1.2 1.7 2.6 3.5-0.1-0.1-0.2-0.3 0.2 0.3 0.4 0.6 0.6 0.8 1.2 1.6 2.6 3.2 5.3 6.2 5.4 6.1 11.3 11.6 3.1 2.8 6.2 5.4 1.5 1.3 3.1 2.6 0.8 0.6 1.5 1.2 0.2 0.1 0.4 0.3 0 0 0.1 0.1 6.6 5 13.6 9.4 6.8 4.2 13.9 7.9 3.7 1.8 7.4 3.5c1.3 0.6 2.6 1.4 3.9 1.7-1.9-0.5 0 0 0.5 0.2q1 0.4 1.9 0.8c9.6 3.8 19.5 6.7 29.6 8.8q3.7 0.7 7.5 1.3 1 0.2 2 0.3c0.3 0.1 0.9 0.1 1.2 0.1q-0.2 0-0.9 0c1.3 0.1 2.5 0.3 3.7 0.4q7.5 0.8 14.9 1c10 0.3 20.1-0.2 30-1.4q0.2-0.1 0.3-0.1 0 0 0 0c0.4 0 0.3 0 0 0q0.1 0 0.2 0 0.9-0.1 1.8-0.3 1.9-0.2 3.7-0.6 3.6-0.6 7.3-1.3 7.5-1.6 14.8-3.7 7.2-2.1 14.3-4.7 3.6-1.3 7.1-2.7 0.4-0.2 0.8-0.4 0.6-0.2 1.3-0.5 1.7-0.7 3.4-1.5c9.1-4.2 17.9-9 26.3-14.5q6.4-4.1 12.4-8.7 0.3-0.3 0.6-0.5 0.6-0.5 1.3-1 1.4-1.1 2.8-2.3 2.9-2.5 5.8-5c7.4-6.7 14.3-14 20.5-21.8q0.6-0.7 1.2-1.5 0.2-0.2 0.3-0.4 1.1-1.5 2.2-3 2.2-3 4.3-6.1 4.1-6.3 7.7-12.9 3.4-6.2 6.3-12.7 0.4-0.9 0.8-1.8 0-0.1 0.1-0.3 0.7-1.5 1.3-3.1 1.2-3.2 2.4-6.5c3.1-8.9 5.5-18.1 7.3-27.3q0.6-3.6 1.2-7.1 0.1-1 0.2-2c-0.1 0.6-0.1 0.9-0.1 1.1 0-0.3 0.1-1 0.1-1.3q0.3-1.7 0.4-3.4 0.8-7.1 1-14.3c0.3-9.6-0.1-19.3-1.3-28.9q-0.1-0.7-0.2-1.5 0-0.2-0.1-0.4-0.2-1.8-0.5-3.6-0.6-3.6-1.3-7.2-1.4-7.2-3.4-14.2-2-7.1-4.5-14.1-1.3-3.5-2.7-7-0.2-0.4-0.4-0.8c0-0.1-0.5-1.2-0.6-1.4q-0.7-1.6-1.4-3.2c-4.2-9.2-9.2-18.2-14.8-26.7q-2.2-3.3-4.5-6.5-1.1-1.5-2.2-3-0.6-0.8-1.2-1.6 0 0 0 0-0.2-0.2-0.3-0.4-4.9-6.2-10.2-12-7.2-7.9-15.2-14.9 0.7 7.8 1.4 15.6 1.1 13.1 2.2 26.3 1 10.9 1.9 21.8 0.4 4.5 0.8 9c0.3 4.2-3.7 7.4-7.5 7.5-1.9 0.1-4-0.9-5.3-2.2-1.5-1.4-2-3.2-2.2-5.3q0 0 0-0.1c-0.4-3.7-0.7-7.4-1-11.1q-1-11.4-1.9-22.7-1.2-13.2-2.3-26.3-0.9-11-1.9-21.9-0.4-4.5-0.8-9c-0.3-4.2 3.8-7.4 7.5-7.5q0.1 0 0.2 0c3.8-0.2 7.6-0.3 11.4-0.4q11.7-0.4 23.4-0.8 13.4-0.5 26.9-1 11.2-0.4 22.4-0.8 4.7-0.1 9.3-0.3c4.2-0.1 7.3 3.6 7.5 7.5 0.2 4.1-3.6 7.4-7.5 7.5q-0.1 0-0.2 0c-3.8 0.2-7.6 0.3-11.4 0.4q-11.6 0.4-23.3 0.8-13.5 0.5-27 1-6.5 0.2-13 0.4 8.4 7.4 16 15.7c14.7 15.9 27 34.1 36 53.9 8.8 19.4 14.4 39.8 17 61 2.3 20 1.5 40.4-2.3 60.2-3.8 19.6-10.7 38.6-20.4 56-10.2 18.4-23.8 35-39.6 48.9-15.9 14-33.9 25.5-53.3 34-20 8.7-40.9 14.4-62.6 16.8-21 2.4-42.4 1.3-63-3.3-21.8-4.9-42.8-14-61.4-26.4-19.4-12.9-36.4-29.4-49.4-48.7-13.1-19.5-21.4-41.6-24.4-64.8zm201.5 127.8c-0.2 0.1-0.5 0.1-0.7 0.1q0.3 0 0.7-0.1zm0 0q0 0 0 0 0 0 0 0 0 0 0 0 0 0 0 0zm-159.1-63.5q0 0 0.1 0-0.1 0-0.1 0zm169.2-128.2q0 0 0 0 0 0 0 0zm137.4 83q0 0.1 0 0.2 0-0.1 0-0.2zm0 0.2q-0.1 0-0.1 0 0 0 0.1 0zm-181.3-1.8q0.1-0.1 0.2-0.1c0.8-0.3 0.2-0.1-0.2 0.1zm11-135.6q-0.1-0.2-0.3-0.3c-0.9-0.7 0.2 0.3 0.3 0.3zm-154.7 48q0 0 0 0 0 0 0 0zm0 0q0 0 0 0 0 0 0 0zm337.2-4.2q0 0 0 0 0 0 0 0zm-34.2 131.3q-0.1 0.1-0.1 0.1 0 0 0.1-0.1zm-75.9 57.3q0 0 0 0 0 0 0 0zm-227.3-82q0-0.1 0-0.1 0 0 0 0.1zm-8.8-32.6q0 0 0 0 0 0 0 0zm137 22.1q0 0 0 0 0 0 0 0zm54.4-104.3q0.1 0.1 0.1 0.1 0 0-0.1-0.1z"/><g style="display:none"><path class="c" d="m-48.1-1025q1.1 6.1 2.3 12.3c-20.1-13.2-41.6-24-64.1-32.4-25.9-9.8-53.1-16-80.6-18.9-27.4-2.8-54.9-1.9-82.1 2.4-27 4.2-53.2 12.1-78.2 22.9-25 10.8-48.3 24.8-69.8 41.5q-3.9 3.1-7.8 6.2c-3 2.6-2.8 8.1 0 10.7 3.2 2.9 7.4 2.6 10.6 0q3.9-3.2 7.8-6.3 0.4-0.3 0.8-0.6 1-0.8 2-1.5 2.1-1.6 4.2-3.1 7.9-5.8 16.2-11c11.2-7 22.8-13.4 34.7-19q4.4-2 8.9-3.9c0.2-0.1 1.7-0.8 1.6-0.7q0.8-0.4 1.6-0.7 2.4-1 4.8-1.9 9.1-3.6 18.5-6.6c12.5-4.1 25.3-7.4 38.3-9.9q4.9-0.9 9.8-1.7 2.2-0.3 4.5-0.6c0.3-0.1 1.6-0.3 1.7-0.3q1-0.1 2-0.2 9.9-1.3 19.9-1.8c13.4-0.8 26.8-0.7 40.2 0.3q4.9 0.3 9.8 0.8 2.4 0.3 4.9 0.6 1.3 0.1 2.6 0.3 0.4 0.1 0.9 0.1 0 0 0 0 0.2 0 0.3 0.1c6.6 0.9 13.2 2 19.7 3.4 13.2 2.6 26.2 6.2 38.9 10.5q9.7 3.3 19.1 7.2 0.4 0.2 0.9 0.3c0.1 0.1 0.5 0.3 0.7 0.4q0.2 0 0.2 0 0.6 0.3 1.2 0.6 2.4 1 4.8 2.1 4.6 2.1 9.2 4.3c10.6 5.2 21 11.1 30.9 17.5q-10.9 1.5-21.8 3-2.9 0.4-5.8 0.8c-1.7 0.2-3.7 2-4.5 3.4-0.9 1.7-1.3 4-0.7 5.8 0.5 1.8 1.7 3.6 3.4 4.5 1.9 1 3.7 1.1 5.8 0.8q7.9-1.1 15.8-2.2 12.5-1.7 25-3.5 2.9-0.4 5.8-0.8c1.7-0.2 3.7-2 4.5-3.4 1-1.9 1.1-3.7 0.7-5.8q-1.4-7.6-2.9-15.2-2.3-12.2-4.6-24.3-0.5-2.9-1.1-5.7c-0.7-3.9-5.6-6.4-9.2-5.2-4.1 1.3-6 5.1-5.2 9.2q1.4 7.6 2.9 15.2z"/><path class="c" d="m-267.7-798.7c27.3 2.9 54.9 2 82-2.3 27-4.3 53.2-12.1 78.3-23 24.9-10.7 48.3-24.7 69.7-41.4q4-3.1 7.8-6.3c3-2.5 2.8-8 0-10.6-3.2-2.9-7.4-2.7-10.6 0q-3.8 3.2-7.8 6.2-0.4 0.4-0.7 0.7-1.1 0.7-2.1 1.5-2.1 1.6-4.1 3.1-8 5.7-16.3 11c-11.2 7-22.8 13.3-34.7 18.9q-4.4 2.1-8.8 4c-0.2 0.1-1.7 0.7-1.7 0.7q-0.8 0.3-1.6 0.7-2.3 0.9-4.7 1.9-9.2 3.6-18.5 6.6c-12.6 4.1-25.4 7.4-38.3 9.8q-4.9 1-9.9 1.7-2.2 0.4-4.4 0.7c-0.4 0-1.7 0.2-1.8 0.2q-1 0.2-2 0.3-9.9 1.2-19.8 1.8c-13.4 0.8-26.9 0.7-40.2-0.3q-4.9-0.4-9.8-0.9-2.5-0.2-4.9-0.5-1.3-0.2-2.6-0.3-0.5-0.1-1-0.2 0 0 0 0-0.1 0-0.3 0c-6.6-1-13.2-2.1-19.7-3.4-13.2-2.7-26.2-6.2-38.9-10.5q-9.6-3.3-19-7.2-0.5-0.2-0.9-0.4c-0.1 0-0.5-0.2-0.8-0.3q-0.1-0.1-0.2-0.1-0.6-0.2-1.2-0.5-2.4-1-4.8-2.1-4.6-2.1-9.2-4.4c-10.6-5.2-20.9-11-30.9-17.4q10.9-1.5 21.8-3 2.9-0.4 5.8-0.8c1.8-0.3 3.7-2.1 4.5-3.5 1-1.6 1.4-4 0.8-5.8-0.6-1.8-1.7-3.5-3.5-4.4-1.9-1.1-3.6-1.1-5.7-0.8q-7.9 1.1-15.8 2.2-12.5 1.7-25 3.4-3 0.4-5.9 0.9c-1.6 0.2-3.7 2-4.4 3.4-1 1.9-1.2 3.7-0.8 5.8q1.4 7.6 2.9 15.2 2.3 12.2 4.6 24.3 0.6 2.8 1.1 5.7c0.7 3.8 5.6 6.4 9.2 5.2 4.2-1.3 6.1-5.1 5.3-9.2q-1.5-7.6-2.9-15.3-1.2-6.1-2.4-12.2c20.1 13.2 41.7 24 64.1 32.4 26 9.7 53.1 16 80.7 18.8z"/></g><path fill-rule="evenodd" class="b" d="m280.8-1155c27.6-8.5 59.1-6.8 84.1 8.2 21.9 13.1 37 36.8 40.6 62 1.8 12.6 1.3 25.7-3 37.8-4.4 12.5-12.2 23.6-22.5 31.9-21.4 17.4-49.4 23.1-76.3 24.1-14.7 0.5-29.4-0.4-44-1.7-17.4-1.6-34.7-4.1-51.9-7.4q-4.6-0.9-9.2-1.9-0.2 6.6 0 13.2c0.2 8.4 0.9 16.8 1.8 25.2q0.4 3.2 0.8 6.5 0 0 0 0 0.1 1 0.3 2 0.2 1.3 0.4 2.7 0.9 6.4 2.1 12.8c3 16.5 6.9 32.9 11.3 49.2q6.7 24.2 15 48 4.2 11.7 8.7 23.2 2.4 5.9 4.8 11.8 0.4 0.9 0.8 1.8 0 0.1 0 0.2 0.1 0.1 0.1 0.1 0.3 0.8 0.6 1.5c6.9-23.8 14.3-47.4 20.7-71.3 1.1-4 5.3-6.1 9.2-5.2 4 0.9 6.3 5.4 5.3 9.2q-2.7 10-5.6 19.9c-7 24.4-14.7 48.6-21.2 73.2-1.3 4.7-6.9 6.8-11.1 4.5q-9.7-5.6-19.5-11.1-34.2-19.4-68.4-38.8c-3.6-2.1-4.5-6.8-2.7-10.3 1.9-3.6 6.9-4.6 10.3-2.7q9.7 5.5 19.5 11.1 25.2 14.3 50.3 28.6-3.5-8.3-6.8-16.7c-12.7-32-23.1-64.9-30.8-98.4-7.1-30.6-12-62.1-10.8-93.5-25.1-6.1-49.7-14.1-73.6-23.9-3.9-1.6-6.3-4.9-5.3-9.2 0.8-3.6 5.6-6.8 9.2-5.3q11.1 4.6 22.4 8.6c15.9 5.7 32 10.5 48.4 14.6 3-28.8 11.6-57.1 27.6-81.4 8-12.1 17.7-23.3 29.2-32.3 11.7-9.3 24.9-16.4 39.2-20.8zm3 14.8q-2.5 0.8-5 1.7-1.2 0.4-2.5 0.9-0.5 0.2-1 0.4 0 0.1 0 0.1c-3.1 1.3-6 2.7-8.9 4.3q-4.6 2.4-8.9 5.3-2.2 1.5-4.3 3.1-0.1 0.1-0.3 0.3-0.1 0-0.3 0.2-0.1 0-0.2 0.1 0 0-0.1 0 0.1 0 0.1 0-1 0.8-1.9 1.5c-5.2 4.3-10.1 9.1-14.6 14.2q-1.8 2-3.5 4.1c-0.3 0.4-0.7 1-1.1 1.4 0 0.1-0.2 0.2-0.3 0.4q-0.1 0.1-0.2 0.2 0 0 0 0 0 0 0 0-0.3 0.4-0.6 0.9-3.2 4.2-6 8.6c-3.6 5.7-6.9 11.7-9.8 17.9-0.7 1.4-1.2 3-1.9 4.4-0.1 0.1-0.2 0.3-0.3 0.5q0 0 0 0 0 0 0 0.1 0 0 0-0.1-0.3 0.7-0.5 1.3-0.4 1-0.8 2-1.9 4.9-3.5 10-3.2 9.9-5.2 20.2-1.1 5.2-1.8 10.4 0 0.2-0.1 0.4 0 0.1 0 0.3-0.1 0.8-0.2 1.6-0.2 1.5-0.3 3-0.2 1.7-0.4 3.4 16.6 3.6 33.4 6.2 3.2 0.4 6.4 0.9 0.1 0 0.2 0 0.7 0.1 1.4 0.2 1.4 0.2 2.8 0.3 6.1 0.8 12.3 1.4 12.5 1.3 25.1 1.9c12.8 0.6 25.6 0.5 38.3-1q0.6-0.1 1.3-0.2-0.1 0-0.1 0 0.1 0 0.1 0 0.1 0 0.2 0c0.8-0.1 0.7-0.1 0.4-0.1 0.6-0.1 1.4-0.2 1.6-0.2q2.3-0.3 4.7-0.8 4.6-0.8 9.2-2 4.5-1.1 8.9-2.6 2.3-0.8 4.5-1.6 0.9-0.4 1.8-0.7 0 0 0 0 0.4-0.2 0.9-0.4c5.5-2.5 10.8-5.5 15.7-9.2q0.1-0.1 0.2-0.1 0.3-0.3 0.7-0.6 0.8-0.6 1.6-1.3 1.7-1.5 3.3-3.1c2.2-2.1 4.1-4.4 6.1-6.8-1.4 1.7 0.2-0.3 0.5-0.8q0.7-0.9 1.3-1.9 1.1-1.7 2.1-3.4 1.1-2 2.1-4c0.3-0.5 0.5-1.1 0.8-1.7q0.1-0.3 0.2-0.6 1.5-4 2.5-8.2 0.6-2.2 0.9-4.4c0.1-0.6 0.2-1.3 0.3-2-0.5 2.5 0 0 0.1-0.6 0.6-5.6 0.4-11.2-0.2-16.8q-0.1-0.6-0.2-1.1-0.2-1-0.3-2-0.4-2-0.9-4-1-4.3-2.5-8.5-0.4-1.2-0.9-2.4-0.2-0.4-0.3-0.8c-0.1-0.1-0.3-0.6-0.4-0.8q-0.1-0.4-0.3-0.8-0.5-1-1-2-1.9-3.9-4.2-7.6-1.2-2-2.5-3.8-0.6-0.9-1.2-1.7c-0.2-0.2-0.3-0.4-0.5-0.7-1.8-2.1-3.6-4.2-5.6-6.2-2-2.1-4.3-4-6.5-5.9q-0.5-0.3-0.9-0.7-0.8-0.6-1.7-1.1-1.9-1.4-4-2.6-4.3-2.5-8.8-4.5-0.1-0.1-0.3-0.1 0.1 0 0.2 0c-0.3-0.1-0.7-0.3-1-0.4q-1.2-0.5-2.4-0.9-2.2-0.8-4.4-1.5-4.8-1.4-9.6-2.3-1.4-0.3-2.9-0.5-0.6-0.1-1.2-0.2c-1.4-0.2 0.3 0 0.4 0-0.6-0.2-1.9-0.2-2.6-0.2q-1.2-0.2-2.3-0.2c-6.8-0.6-13.5-0.4-20.2 0.4q-0.1 0.1-0.3 0.1 0.1 0 0.2-0.1c-0.4 0.1-0.7 0.1-1.1 0.2q-1.3 0.2-2.6 0.4-2.3 0.4-4.7 1-4.9 1-9.7 2.6zm-31.5 16.4q0 0 0 0 0 0 0 0zm49.6-20.6q0 0 0 0 0 0 0 0zm74.1 27.1q-0.1 0-0.1 0c0.3 0.4 0.6 0.7 0.1 0zm-0.4-0.4q0.1 0.1 0.1 0.1 0 0-0.1-0.1zm0 0q0 0 0 0 0 0 0 0zm11.7 68.7q0 0 0 0 0 0 0 0z"/><path fill-rule="evenodd" class="b" d="m790.2-1122.8c21.1-21.1 43-41.3 65.7-60.6q-21.5 2.9-43 5.7c-1.9 0.2-4-1-5.3-2.2-1.5-1.4-2.1-3.4-2.2-5.3-0.1-1.9 0.9-4 2.2-5.3 1.5-1.6 3.2-2 5.3-2.2q31.5-4.1 62.9-8.2c2-0.3 4 0.9 5.3 2.1 1.5 1.4 2.2 3.5 2.2 5.4q1.2 31.8 2.4 63.7c0.2 4.2-3.6 7.3-7.5 7.5-4.2 0.2-7.4-3.6-7.5-7.5q-0.8-22.6-1.7-45.1-5.4 4.5-10.7 9.1c-25.3 21.8-49.5 44.8-72.6 68.9-23.1 24.1-45 49.3-65.8 75.4q-3.9 4.9-7.8 9.9c-0.1 0.1-0.7 0.9-0.8 1q-0.2 0.3-0.5 0.6-1 1.4-2 2.7-1.8 2.4-3.6 4.7-1.9 2.6-3.8 5.1c6.3 4.8 12.6 9.7 18.8 14.7 23.4 18.8 46.1 40.7 57.7 69 5.6 13.9 7.5 29 5.3 43.8-2.1 14.4-9.1 27.8-18.5 38.8-9.6 11.1-22.2 19.6-36 24.3-13.9 4.7-29.2 4.9-43.3 0.8-27.6-8.1-51.3-31.9-56.9-60.5-7-35.4 11.5-69 30.6-97.3q10.5-15.5 21.5-30.6-40.7-30.8-81.4-61.6-45.1-34.2-90.3-68.4c-3.4-2.6-4.8-6.3-2.7-10.3 1.7-3.3 7.1-5.1 10.3-2.7q11.2 8.5 22.4 17 46.2 35 92.4 70 23 17.5 46.1 34.9 6 4.6 12.1 9.1 15.5-20.7 31.9-40.6c21.7-26.4 44.7-51.7 68.8-75.8zm-97.7 137.5q-1.1 1.4-2.1 2.9c-9.8 13.6-19.6 27.3-28.2 41.6-4.4 7.2-8.4 14.5-11.8 22.2 0 0.1-0.3 0.7-0.5 1.1-0.1 0.4-0.4 1.1-0.4 1.1q-0.5 1.2-1 2.4-1 2.8-1.9 5.6-2 5.8-3.2 11.9-0.4 1.7-0.6 3.5-0.2 0.7-0.3 1.4 0 0 0 0.1-0.3 2.9-0.5 5.8c-0.1 4.1 0 8.2 0.5 12.3q0 0.1 0 0.1 0 0.1 0 0.2 0.1 0.5 0.2 1 0.2 1.2 0.4 2.4 0.5 2.4 1.2 4.8 0.7 2.4 1.6 4.8c0.3 0.7 0.6 1.4 0.9 2.2-0.7-1.9 0.2 0.4 0.4 0.9q2.1 4.4 4.7 8.5c1 1.5 2 2.9 3.1 4.3q0.4 0.5 0.8 1 0.7 0.8 1.3 1.6 3.4 3.8 7.2 7.2 0.9 0.9 2 1.7 0.5 0.4 1 0.9 0.2 0.1 0.3 0.2c1.1 1 2.4 1.7 3.6 2.5q4.2 2.8 8.7 5 1.2 0.6 2.4 1.1 0.2 0.1 0.3 0.2 0.3 0.1 0.6 0.2 2.2 0.9 4.5 1.6 4.6 1.5 9.4 2.3c0.2 0 2.4 0.4 1.1 0.2-1.3-0.2 0.4 0 0.6 0q1 0.2 2.1 0.2 2.4 0.2 4.8 0.2 2.6 0 5.3-0.2 1.1-0.1 2.3-0.2 0.4-0.1 0.9-0.2 5-0.8 9.8-2.4c1.5-0.5 3.3-0.9 4.8-1.7-0.4 0.2-1.3 0.5-0.2 0.1q0.5-0.3 0.9-0.5 1.2-0.5 2.4-1.1 4.4-2.2 8.5-5 1.2-0.8 2.4-1.7 0.1-0.1 0.3-0.2 0.1-0.1 0.2-0.2 0.1-0.1 0.2-0.2 0.1 0 0.1 0 0 0 0 0 1.8-1.5 3.6-3.1 3.6-3.3 6.8-7 1-1.1 1.9-2.3 0 0 0 0 0.3-0.4 0.6-0.8 1.4-1.9 2.7-3.9 2.7-4.2 4.8-8.8 0.2-0.3 0.3-0.7 0.1-0.2 0.2-0.4 0.1-0.1 0.1-0.3 0 0 0.1 0 0 0-0.1 0 0.5-1.1 0.9-2.2 0.8-2.2 1.4-4.5 0.7-2.4 1.2-4.9 0.3-1.1 0.5-2.3 0-0.5 0.1-0.9c0.4-3.5 0.5-6.9 0.4-10.4q0-2.6-0.3-5.2-0.1-0.7-0.1-1.4-0.1-0.2-0.1-0.4c0-0.6-0.2-1.1-0.3-1.6q-0.8-5-2.4-9.9-0.8-2.6-1.7-5.1-0.4-1.1-0.9-2.2 0 0 0 0-0.2-0.5-0.4-1c-2.9-6.4-6.4-12.4-10.4-18.1q-1.6-2.2-3.2-4.3 0-0.1-0.1-0.2-0.3-0.4-0.6-0.8-0.8-1-1.6-2-3.4-4.1-7-8c-5-5.4-10.3-10.5-15.8-15.5-5.6-4.9-11.3-9.7-17.1-14.3q-2.1-1.7-4.3-3.4-0.5-0.4-1-0.8 0 0 0 0-1-0.7-2-1.5-3.6-2.8-7.3-5.5zm-45.7 127.4q0 0 0 0 0 0 0 0z"/><path fill-rule="evenodd" class="b" d="m1017.2-1003.4c1.4-8.6 3.4-17.1 5.9-25.4 10.6-34.5 30.5-66.2 56.8-91 25.1-23.6 56.9-42.9 91.4-47.6 16.3-2.2 33.5-1.8 49 4.2 16.6 6.6 29.7 18.7 36.4 35.4 7.4 18.1 6 39.6-0.9 57.7-7.7 20.1-20.9 37.1-35.2 53-13.6 15.1-28 29.4-41.4 44.8-6.7 7.8-12.1 14.5-17.8 22.7-5.7 8.2-10.8 16.7-15 25.7q-0.4 0.9-0.8 1.9c0-0.1-0.3 0.5-0.4 0.8-0.2 0.4-0.5 1.3-0.5 1.2q-0.3 0.6-0.5 1.3-1.2 2.9-2.2 5.9-2.1 6.3-3.5 12.8-0.8 3.4-1.3 6.9c-0.1 0.3-0.2 1.6-0.3 1.9q-0.2 1.5-0.3 3-0.7 6.4-0.5 12.9 0 3.2 0.3 6.5 0.2 1.7 0.4 3.4 0 0.1 0 0.1 0.1 0.8 0.2 1.6 1 6.2 2.9 12.1 0.9 3 2.1 5.9c0.1 0.1 0.7 1.7 0.9 2q0.6 1.4 1.3 2.7 1.6 3 3.4 5.8 0.8 1.2 1.7 2.5c0.2 0.2 1.3 1.7 1.3 1.7 2.7 3.3 5.7 6.4 9 9.2q0.8 0.7 1.6 1.4c-0.3-0.2-1-0.8 0.1 0.1q1.3 0.9 2.6 1.8 2.6 1.8 5.4 3.4 3.1 1.7 6.3 3.1c0.2 0.1 0.7 0.4 0.9 0.4q0.5 0.2 0.9 0.4 1.5 0.6 3 1.1 6.2 2.2 12.7 3.4 2 0.4 3.9 0.7c0.2 0 0.9 0.1 1 0.1q0.5 0.1 0.9 0.1 3.3 0.4 6.5 0.5 6.8 0.3 13.7-0.2 1.8-0.2 3.5-0.4 0.2 0 0.3 0 0.1-0.1 0.2-0.1 0.9-0.1 1.8-0.3 3.5-0.5 7-1.3 7.5-1.7 14.8-4.3c9-3.2 17.4-7.2 26.3-12.3 9-5.1 17.6-10.9 26-17 8.1-5.9 15.1-11.5 23.1-18.3q11.3-9.5 22-19.8c14.7-14 28.5-28.8 41.7-44.3 13.2-15.5 24.9-30.4 36.8-46.5 22.4-30.4 43.3-62 63.9-93.7q-19.5 13.4-39.1 26.8c-3.4 2.4-8.2 0.5-10.2-2.7-1.1-1.6-1.3-4-0.8-5.8 0.6-1.9 1.8-3.4 3.5-4.5q6.3-4.3 12.7-8.7 22.6-15.4 45.1-30.9c2.2-1.5 5.4-1.3 7.6 0 2.5 1.5 3.4 3.8 3.7 6.5q0.9 7.7 1.8 15.4 3.2 27 6.3 54.1c0.2 1.9-1 3.9-2.2 5.3-1.4 1.5-3.4 2.1-5.3 2.2-1.9 0.1-4-0.9-5.3-2.2-1.5-1.5-2-3.3-2.2-5.3q-0.9-7.7-1.8-15.4-1.4-12.1-2.8-24.2-4.7 7.2-9.4 14.5c-22.5 34.1-45.6 68-70.8 100.2-24.9 31.7-52.1 61.8-82.8 88.1-15.6 13.3-32.1 26.1-49.7 36.7-17.6 10.5-37 19.1-57.3 22.1-18.7 2.8-38.2 1.5-55.7-5.8-17.4-7.2-32.2-19.7-40.8-36.6-16.9-33.1-10.7-73.5 6.3-105.2 19.6-36.3 51.2-63.5 77.9-94.4 12.5-14.5 24.3-31.2 29.1-49.9q0.9-3.7 1.6-7.5 0-0.5 0.1-1.1c0-0.2 0.1-0.5 0.1-0.6q0.2-1.9 0.3-3.8 0.3-3.6 0.2-7.2-0.1-1.7-0.2-3.4-0.1-0.7-0.2-1.5c0.1 0.2-0.1-0.8-0.1-1.3-0.1-0.4-0.2-1.3-0.2-1.5q-0.2-0.9-0.4-1.8-0.3-1.5-0.7-2.9-0.8-3.4-2.1-6.7-0.1-0.3-0.3-0.6 0-0.1-0.1-0.4-0.4-0.8-0.8-1.6-0.7-1.4-1.4-2.7c-1-1.8-2.2-3.5-3.4-5.2q-0.1-0.1-0.1-0.2-0.1-0.1-0.2-0.2-0.5-0.6-1-1.2-0.8-1-1.8-2-1.8-1.9-3.8-3.7c-0.3-0.2-1.6-1.3-1.7-1.4q-0.9-0.7-1.9-1.3-2.2-1.5-4.5-2.8c-1.6-0.9-3.3-1.6-5-2.4q-0.1-0.1-0.1-0.1-0.6-0.2-1.1-0.4-1.4-0.5-2.8-1c-3.6-1.2-7.2-2-10.9-2.7q-0.9-0.1-1.8-0.3-0.1 0-0.3 0-1.2-0.1-2.3-0.3-2.8-0.2-5.6-0.3-6.1-0.2-12.1 0.2-1.6 0.2-3.2 0.3-0.8 0.1-1.6 0.2c-0.1 0-0.5 0.1-0.7 0.1q-2.6 0.4-5.3 0.9-6 1.1-11.9 2.8-5.7 1.6-11.2 3.8-0.9 0.3-1.8 0.7c-0.1 0.1-0.3 0.2-0.5 0.2q-1 0.5-2 0.9-2.8 1.3-5.6 2.7c-8 4-15.7 8.5-23.1 13.6q-2.9 2-5.7 4.1-1.1 0.8-2.3 1.6-0.1 0.1-0.2 0.2 0 0-0.2 0.2-0.7 0.5-1.4 1.1-5.1 4-9.9 8.4c-6.5 5.9-12.6 12.3-18.3 19q-2.3 2.7-4.5 5.5-0.3 0.3-0.6 0.7c-0.1 0.2-0.5 0.7-0.6 0.8q-1 1.3-1.9 2.6-4 5.4-7.6 11c-4.7 7.4-9 15.1-12.7 23.1q-1.5 3-2.8 6.1-0.1 0.1-0.1 0.3 0 0-0.1 0.2-0.3 0.8-0.7 1.6-0.5 1.3-1 2.6-2.4 6.3-4.4 12.6c-2.7 8.6-4.7 17.3-6.2 26.1-0.6 4.1-5.6 6-9.2 5.2-4.2-1-5.9-5.4-5.2-9.2zm128.4 81.4q0 0 0 0 0 0 0 0z"/><path class="b" d="m4-603.2c-0.1-5.1-4.7-8.3-9.5-7.2q-10.9 2.3-21.8 4.6-17.4 3.7-34.8 7.4-4 0.8-8 1.7c-3.8 0.8-6.4 5.5-5.2 9.2 1.3 4.1 5.1 6.1 9.2 5.3q10.9-2.4 21.9-4.7 10.9-2.3 21.9-4.7-4.9 5.9-10.1 11.4c-6.5 6.8-13.2 13.3-20.5 19.2q-1.1 1-2.3 1.9c-0.2 0.1-1.3 1-1.6 1.3q-2.3 1.7-4.7 3.4-4.9 3.5-10.1 6.6-4.9 3.1-10.1 5.7c-3.2 1.7-6.7 3.7-10.2 4.8 2.1-0.7-0.5 0.2-1 0.4q-1.1 0.4-2.3 0.9-2.8 1.1-5.6 2.1-5 1.7-10 3.1c-3.7 1-7.3 2-11 2.7q-1.5 0.3-2.9 0.5-0.7 0.2-1.4 0.3c-0.1 0-0.4 0-0.7 0q0.2 0 0.6 0c-2 0.1-4 0.4-5.9 0.6q-6 0.4-12 0.2-2.7-0.2-5.4-0.4-1.5-0.1-3-0.3c-0.1 0-0.3-0.1-0.5-0.1-0.5 0-1-0.2-1.5-0.2q-5.8-1-11.4-2.6-2.7-0.7-5.3-1.7-1.3-0.4-2.5-0.9-0.8-0.3-1.5-0.6-0.1 0-0.2 0 0 0 0 0c-1.8-0.5-3.6-1.6-5.2-2.5q-2.6-1.3-5-2.8-2.4-1.4-4.6-3-0.5-0.4-1.1-0.8-0.1-0.1-0.3-0.2c-0.7-0.5-1.5-1.2-2.2-1.8q-4.3-3.7-7.9-8.1-0.3-0.4-0.7-0.8 0 0 0-0.1-0.1 0-0.1 0-0.7-1-1.5-2.1-1.7-2.4-3.1-5.1-1.3-2.3-2.4-4.7c-0.1-0.2-0.2-0.5-0.2-0.7q-0.4-0.8-0.7-1.6-0.7-1.9-1.3-3.8c-1.5-4.8-2.5-9.7-3.5-14.7-1.9-9.8-3.2-19.8-6.2-29.4-2.8-9.1-7.1-17.3-13.3-24.5-5.2-6.2-11.9-11.3-18.9-15.2-14.6-8.1-31.7-11.5-48.3-10.8-39.9 1.6-73.2 27.2-101.8 52.6q-5.3 4.8-10.6 9.6c-2.9 2.6-2.9 8 0 10.6 3.1 2.9 7.5 2.8 10.6 0 7.4-6.7 14.8-13.4 22.5-19.8q2.9-2.4 5.8-4.8 1.3-1.1 2.7-2.1c-0.1 0 0.6-0.5 0.9-0.7 0.3-0.3 1.2-0.9 1.3-1q6-4.6 12.2-8.7 6.2-4 12.7-7.6 2.9-1.6 5.9-3 1.5-0.8 3.1-1.5 0.9-0.4 1.8-0.8 0.4-0.1 0.5-0.2 0.3-0.1 0.5-0.2c4.4-1.8 8.9-3.3 13.4-4.6q2.9-0.8 5.8-1.4 1.4-0.2 2.7-0.5 0.8-0.1 1.6-0.2c0.1 0 0.3-0.1 0.5-0.1 3.8-0.8 8-0.7 11.8-0.7 3.9 0 8.1 0 12 0.8-2.2-0.4 0.8 0.1 1.3 0.2q1.3 0.2 2.7 0.5 3.1 0.6 6.3 1.5 2.6 0.7 5.1 1.6 1.4 0.5 2.8 1c0.4 0.2 0.8 0.3 1.2 0.5-1.9-0.9 0.3 0.2 0.7 0.3q5.1 2.4 9.9 5.6 1.1 0.8 2.3 1.6 0.2 0.2 0.3 0.2 0.3 0.3 0.7 0.6 2.2 1.8 4.2 3.8 2 2 3.9 4.3c0 0 0.1 0.2 0.3 0.3 0.1 0.3 0.4 0.6 0.4 0.6q1 1.3 1.8 2.7 1.6 2.5 3 5.2 0.7 1.3 1.3 2.7c0.1 0.3 0.2 0.6 0.3 0.8q0.4 1.1 0.8 2.2c3.3 9.5 4.8 19.5 6.6 29.3 1.8 10 4.1 19.8 8.6 29 7 14.4 19.5 26 33.8 33.2 14.8 7.5 31.4 11.1 47.9 11.2 15.9 0 31.4-3.8 46.2-9.3 14.8-5.4 28.8-12.8 41.5-22.1 15.5-11.3 29.1-24.7 41.4-39.4q0.3 18.7 0.6 37.4 0.2 8.3 0.3 16.6c0.1 3.9 3.4 7.7 7.5 7.5 4-0.2 7.6-3.3 7.5-7.5q-0.5-29.2-0.9-58.4-0.2-8.3-0.3-16.6z"/><g style="display:none"><path class="c" d="m384.4-699.8q-2.2-2.8-4.4-5.6c-1.1-1.4-3.6-2.2-5.3-2.2-1.9 0-4.1 0.8-5.3 2.2-1.3 1.4-2.3 3.3-2.2 5.3 0.1 2.1 0.9 3.7 2.2 5.3q6 7.7 11.9 15.4 5.8 7.3 11.5 14.7c-18.8-3.1-37.9-4-57-2.6-20 1.5-39.9 5.3-59.1 11.3-19.3 6-38 14.2-55.5 24.4-17.4 10.1-33.6 22.2-48.3 35.9-14.6 13.8-27.6 29.4-38.5 46.4q-1.9 3.1-3.8 6.2c-2 3.4-0.9 8.4 2.7 10.3 3.6 1.9 8.1 0.9 10.2-2.7q5.7-9.5 12.2-18.4 0.8-1.1 1.6-2.1 0.4-0.6 0.8-1.1c0.1-0.1 0.3-0.4 0.5-0.6 0.1-0.2 0.2-0.3 0.3-0.4q0.4-0.5 0.8-1 0.8-1.1 1.7-2.2 3.5-4.3 7.2-8.4c9.7-10.9 20.4-20.9 31.9-30q0.5-0.3 0.9-0.6 1.1-0.9 2.2-1.7 2.3-1.7 4.6-3.3 4.4-3.3 9.1-6.3 9.1-6 18.8-11.2 9.6-5.2 19.7-9.6 1.1-0.4 2.2-0.9 0.1 0 0.1-0.1 0.7-0.3 1.4-0.5 2.5-1.1 5.1-2.1 5.1-1.9 10.4-3.7c13.8-4.7 28.1-8.2 42.6-10.5q2.1-0.3 4.3-0.6c16.1-2.1 32.4-2.7 48.6-1.5q6.7 0.5 13.4 1.3 3.2 0.5 6.5 1-0.2 0.2-0.4 0.3-13 9.1-26 18.2-3 2.1-6 4.3c-1.6 1.1-2.9 2.5-3.4 4.4-0.5 1.8-0.3 4.2 0.7 5.8 2.1 3.2 6.9 5.1 10.3 2.7q8.2-5.7 16.3-11.4 13-9.1 26-18.2 3-2.1 6-4.2c2-1.4 3.2-3.1 3.6-5.5 0.3-2.6-0.6-4.4-2.1-6.3q-6-7.7-12-15.4-9.5-12.2-19-24.5z"/><path fill-rule="evenodd" class="c" d="m307.1-572.1q-4.1-4.5-8.1-9c-2.8-3.1-2.9-7.5 0-10.6 2.6-2.9 7.9-2.9 10.6 0q1.3 1.5 2.6 2.9 9.3 10.2 18.6 20.4c1.4 1.5 2.1 3.3 2.2 5.3 0.1 1.7-0.8 4.2-2.2 5.3q-1.5 1.3-3.1 2.6-10.9 8.9-21.8 17.9c-1.6 1.3-3.2 2.1-5.3 2.2-2 0.1-3.8-0.9-5.3-2.2-1.4-1.3-2.2-3.5-2.2-5.3 0-1.7 0.8-4.1 2.2-5.3q1.6-1.3 3.1-2.6 4.1-3.3 8.1-6.6-6.5-0.2-12.9 0.6c-7.7 1.2-15.2 3.2-22.3 6.2-5.1 2.2-10.1 4.8-14.8 7.8q-3.3 2-6.4 4.4-0.2 0.1-0.4 0.2 0 0.1 0 0.1-0.8 0.6-1.5 1.2-1.5 1.2-2.9 2.4-5.9 5.1-10.9 11-1.4 1.6-2.7 3.2-0.2 0.2-0.3 0.3-0.4 0.7-0.9 1.3-2.4 3.2-4.5 6.6-3.8 6.2-6.8 13c-2.7 6.8-4.7 14-5.8 21.3q0 0.2 0 0.5c-0.3 2.1-0.8 3.7-2.2 5.3-1.4 1.4-3.4 2.1-5.3 2.2-1.9 0.1-4.1-0.9-5.4-2.2-1.2-1.2-2.4-3.5-2.1-5.3q2-18 10.1-34.3c9.1-18.1 23.6-33.6 40.8-44.4 17.1-10.8 37.5-17 57.8-16.4zm-58.1 34.8q0 0 0 0 0 0 0 0zm0 0c0 0 0.4-0.3 0.7-0.5q-0.4 0.2-0.7 0.5z"/></g><g style="display:none"><path class="c" d="m762.8-625.8c-3.7-1.1-8.3 1.3-9.2 5.2-0.9 4 1.2 8.1 5.2 9.2q8.8 2.6 17.5 5.1 14 4.1 27.9 8.1 3.2 1 6.4 1.9c1.8 0.5 4.2 0.2 5.8-0.8 1.5-1 3.1-2.6 3.4-4.5q1.2-8.2 2.4-16.5 2-13.2 3.9-26.4 0.4-3.1 0.9-6.1c0.3-2.1 0.3-3.9-0.8-5.8-0.9-1.6-2.7-3-4.5-3.4-1.9-0.5-4-0.4-5.8 0.7-1.5 1-3.1 2.6-3.4 4.5q-1.2 8.3-2.4 16.5-1.1 7.5-2.2 15.1c-13.3-20.3-30.2-38.1-50.1-51.9-10.1-7-21-12.8-32.4-17.4-11.7-4.7-23.9-7.7-36.4-9.2-24.9-3.2-50.6 0.7-73.5 11-22.1 9.9-40.6 26.8-52.6 47.8-5.8 10.1-10.2 21.3-12.6 32.7-2.6 12.1-3.1 24.5-1.4 36.8q0.5 4 1.4 8c0.9 3.9 5.5 6.5 9.3 5.3 4-1.3 6.2-5.2 5.2-9.3q-0.8-3.5-1.3-7.2c-0.9-7.6-0.9-15.3 0-22.9 1.3-8.6 3.6-16.9 6.9-24.9q3-7 7-13.5 2-3.4 4.3-6.6 1-1.5 2.1-2.9 0.3-0.3 0.5-0.6 0.7-0.8 1.3-1.6 5.1-6.2 11.1-11.5 1.4-1.2 2.8-2.4 0.8-0.6 1.6-1.3 0.4-0.3 0.8-0.6-0.2 0.2-0.4 0.3 0.1 0 0.2-0.1 3.4-2.6 7-4.9c5.1-3.2 10.5-6 16.1-8.4 9.7-4 19.8-6.7 30.2-8.2 11.3-1.4 22.8-1.4 34.2 0 11.5 1.7 22.7 4.8 33.5 9.2 11.8 5.1 23 11.7 33.2 19.5-0.1-0.1-0.1-0.1-0.1-0.1 0.3 0.1 0.5 0.4 0.8 0.6q0.1 0.1 0 0 0.1 0 0.1 0.1 1 0.8 2 1.6 1.9 1.5 3.7 3.1 3.8 3.3 7.4 6.7 7.2 7 13.6 14.7 1.9 2.2 3.6 4.4 0 0 0 0 0.4 0.5 0.7 1 0.9 1.1 1.7 2.2 2.4 3.3 4.7 6.8-12.5-3.6-24.9-7.3-3.2-0.9-6.4-1.8z"/><path class="c" d="m921.3-612.2c-0.9-3.9-5.5-6.5-9.2-5.3-4 1.3-6.2 5.2-5.3 9.3q0.8 3.5 1.4 7.2c0.9 7.6 0.8 15.3-0.1 22.9-1.2 8.6-3.6 16.9-6.8 24.9q-3.1 7-7 13.5-2.1 3.4-4.3 6.6-1.1 1.5-2.2 2.9-0.3 0.3-0.5 0.6-0.7 0.8-1.3 1.6-5.1 6.2-11.1 11.5-1.4 1.2-2.8 2.4-0.8 0.6-1.6 1.3-0.4 0.3-0.7 0.6 0.2-0.2 0.3-0.3-0.1 0-0.2 0.1-3.4 2.6-7 4.9c-5.1 3.2-10.5 6-16 8.4-9.7 4-19.9 6.7-30.2 8.2-11.4 1.4-22.9 1.4-34.3 0-11.5-1.7-22.7-4.8-33.5-9.2-11.8-5.1-22.9-11.7-33.2-19.5 0.1 0.1 0.2 0.2 0.2 0.1-0.3-0.1-0.6-0.4-0.8-0.6q-0.2-0.1-0.1 0 0 0-0.1-0.1-1-0.8-1.9-1.6-1.9-1.5-3.8-3.1-3.8-3.3-7.4-6.7-7.2-7-13.6-14.7-1.8-2.2-3.6-4.4 0 0 0 0-0.4-0.5-0.7-1-0.8-1.1-1.6-2.2-2.5-3.3-4.8-6.8 12.5 3.7 25 7.3 3.1 0.9 6.3 1.8c3.8 1.1 8.4-1.3 9.2-5.2 1-4-1.2-8.1-5.2-9.2q-8.7-2.6-17.5-5.1-13.9-4.1-27.9-8.1-3.2-1-6.4-1.9c-1.7-0.5-4.2-0.2-5.7 0.8-1.6 1-3.2 2.6-3.5 4.5q-1.2 8.2-2.4 16.5-1.9 13.2-3.8 26.5-0.5 3-0.9 6c-0.3 2.1-0.4 3.9 0.7 5.8 0.9 1.6 2.7 3 4.5 3.4 1.9 0.5 4.1 0.4 5.8-0.7 1.5-1 3.2-2.6 3.4-4.5q1.2-8.2 2.4-16.5 1.1-7.5 2.2-15.1c13.3 20.3 30.2 38.1 50.2 51.9 10.1 7.1 20.9 12.8 32.3 17.4 11.7 4.7 23.9 7.7 36.4 9.2 25 3.2 50.7-0.6 73.6-11 22-9.9 40.6-26.8 52.6-47.8 5.8-10.1 10.1-21.2 12.6-32.7 2.6-12.1 3.1-24.5 1.4-36.8q-0.6-4-1.5-8z"/></g><path class="b" d="m1085-636.2c24.9 20.8 52.1 38.8 81.1 53.5 30.2 15.3 62.2 27.1 95.2 34.9 36 8.4 73.1 12.2 110 11.2 36.9-1 73.9-6.6 109.3-17q1.8-0.5 3.5-1.1-7.6 10.9-15.3 21.7-2 2.8-4 5.7c-1.1 1.5-1.2 4-0.8 5.7 0.5 1.8 1.8 3.7 3.5 4.5 3.8 2 7.8 0.7 10.2-2.7q5.5-7.7 11-15.4 8.7-12.3 17.4-24.7 2-2.8 4-5.6c2.2-3.1 0.8-8.7-2.7-10.3q-8.2-3.6-16.4-7.3-13-5.8-26.1-11.7-3-1.3-6-2.6c-1.9-0.9-3.7-1.4-5.8-0.8-1.7 0.5-3.6 1.8-4.5 3.5-0.9 1.7-1.3 3.8-0.7 5.7 0.5 1.8 1.7 3.7 3.4 4.5q8.2 3.7 16.4 7.3 7.9 3.6 15.8 7.1c-15.2 4.7-30.7 8.5-46.3 11.5-17.8 3.4-34.3 5.4-52.7 6.4-17.9 1.1-35.8 1-53.7-0.3-18.3-1.2-34.7-3.4-52.6-7-17.3-3.5-34.3-8-51-13.7q-11.3-3.8-22.2-8.2-2.6-1-5.2-2.1c-0.1 0-0.3-0.1-0.5-0.2q-0.6-0.3-1.2-0.5-1.4-0.6-2.8-1.2-5.5-2.4-10.9-5c-14.4-6.8-28.4-14.4-41.9-22.7q-10-6.3-19.8-13-4.9-3.5-9.7-7-2.3-1.7-4.5-3.4c-2-1.5-1.9-1.4-3.9-3-24.9-19.5-47.6-41.8-67.5-66.4q-1.9-2.4-3.8-4.7-0.4-0.6-0.9-1.2c0-0.1-0.2-0.3-0.4-0.5q-0.8-1.1-1.6-2.2c-2.4-3.1-6.6-5-10.3-2.7-3.1 2-5.2 6.9-2.7 10.3 19.8 26 42.4 49.8 67.6 70.7z"/><path fill-rule="evenodd" class="b" d="m-262.9-302.9c17.4-11.1 35.7-20.5 54.7-28.6q-5.7-2-11.5-3.7c-10-3-20.2-5.3-30.5-7q-3.9-0.7-7.8-1.3c-0.1 0-0.3 0-0.5 0q-0.1 0-0.1 0-0.9-0.2-1.7-0.3-1.9-0.2-3.8-0.4-7.9-0.9-15.8-1.3-15.6-0.8-31.2 0-7.9 0.4-15.8 1.3-1.9 0.2-3.8 0.4-1 0.1-2 0.3-0.1 0-0.1 0-0.1 0-0.2 0-0.4 0.1-0.8 0.1 10.1 5.8 20.3 11.6 9.9 5.7 19.8 11.3c3.7 2.1 4.6 6.7 2.7 10.3-1.9 3.6-6.8 4.6-10.3 2.7q-3.6-2.1-7.2-4.1-15.7-9-31.3-17.9-9.9-5.7-19.8-11.3c-4.3-2.4-4.9-8.4-1.6-11.8q5.4-5.5 10.8-11.1 18.8-19.4 37.6-38.8c2.9-3 7.6-2.7 10.6 0 3 2.8 2.7 7.8 0 10.6q-5.4 5.6-10.8 11.2-10.9 11.2-21.8 22.4 11.1-1.4 22.2-2.1c21.8-1.3 43.7-0.1 65.3 3.5 20.5 3.4 40.5 9.3 59.7 17.4 13.2-4.7 26.6-8.6 40.2-11.7 4.1-0.9 7.9 1.3 9.2 5.3 1.2 3.7-1.4 8.3-5.2 9.2q-12.5 2.8-24.6 6.5c13.2 7.2 25.8 15.6 37.4 25.2 15.7 13.1 29.4 28.5 40.8 45.5 11.3 16.8 20.2 35.4 26.3 54.9 5.9 19.2 9 39.6 8.5 59.7-0.5 19.9-4.4 39.7-11.7 58.2-7.4 18.8-17.7 36-30.7 51.5-12.6 14.9-27.7 27.9-44.4 38-17.2 10.5-36.4 17.9-56.2 21.6-21.1 3.9-42.5 4-63.6 0.6-20.5-3.3-40.5-10.2-58.7-20.3-18.2-10.2-34.8-23.8-47.8-40.1-13.3-16.7-23.5-36-27.8-57.1-4.5-22.2-2-45 5.6-66.2 8-22 20.4-41.7 34.6-60.1 12.7-16.4 26.9-31.6 42.3-45.6 15.7-14.2 32.6-27.1 50.5-38.5zm-70-40.6c-0.2 0-0.5 0-0.7 0.1 0 0 0.5-0.1 0.7-0.1zm106 37.2c-18 9.3-35.3 20.1-51.5 32.3q-1.6 1.2-3.2 2.4-0.1 0.1-0.1 0.2-0.1 0-0.1 0-0.8 0.6-1.6 1.3-2.9 2.3-5.8 4.6-6 4.9-11.7 10-11.3 10.1-21.7 21.1-10.5 11.1-20 23.1-1.2 1.5-2.3 3c-0.2 0.1-0.3 0.3-0.4 0.5q-0.7 0.9-1.3 1.7-2.4 3.2-4.7 6.5-4.9 6.8-9.2 13.9-4.3 7-8 14.3-1.9 3.6-3.6 7.4-0.4 1-0.8 2-0.2 0.3-0.3 0.7 0 0-0.1 0-0.6 1.7-1.3 3.4c-2 5.1-3.7 10.3-5.1 15.6q-0.9 3.8-1.7 7.6-0.4 2.1-0.7 4.2-0.2 1-0.3 1.9 0 0.3-0.1 0.6c-0.6 5.3-0.9 10.7-0.7 16q0.1 3.8 0.5 7.6c0.1 0.6 0.4 1.6 0.3 2.2q0 0.1 0 0.2 0.3 1.8 0.6 3.6 1.4 7.3 3.6 14.4 1.2 3.6 2.6 7.1c0.1 0.3 0.5 1.7 0.7 1.8 0 0-0.5-1.3-0.2-0.5q0.2 0.5 0.5 1 0.6 1.6 1.4 3.1 3.2 6.9 7.2 13.3 2 3.2 4.1 6.2 1.1 1.6 2.3 3.2 0.6 0.8 1.2 1.6 0 0.1 0.1 0.1 0 0.1 0.1 0.2c6.3 7.9 13.3 15.2 21 21.8q1.5 1.3 3.1 2.5 0.6 0.6 1.3 1.1 0 0 0.1 0.1 0 0 0.1 0.1 3 2.3 6.1 4.5 6.1 4.2 12.6 7.8 6.6 3.8 13.4 6.9 1.8 0.8 3.6 1.6 0.1 0 0.2 0 0.1 0.1 0.1 0.1 0.8 0.3 1.5 0.6 3.6 1.4 7.1 2.7c9.4 3.3 19.2 5.8 29 7.4q1.9 0.3 3.9 0.6c0.2 0.1 1 0.2 1.2 0.2 0.3 0 0.6 0.1 0.7 0.1q3.7 0.5 7.5 0.8 7.4 0.6 14.8 0.5 7.6 0 15.1-0.7 2-0.2 3.9-0.4 0.8-0.1 1.7-0.2c0.3 0 2-0.2 0.9-0.1-1.2 0.2 0.4-0.1 0.7-0.1q0.4-0.1 0.8-0.1 0.8-0.1 1.7-0.3 1.8-0.3 3.6-0.6c9.8-1.8 19.4-4.5 28.7-8q1.6-0.6 3.2-1.3c0.2-0.1 1.8-0.8 1.2-0.5 0.3-0.1 0.6-0.2 0.7-0.3q3.2-1.4 6.4-3 6.3-3 12.2-6.6 6.1-3.7 11.9-7.8 1.4-1 2.7-2c0.2-0.2 1.8-1.4 1-0.7-0.9 0.6 0.4-0.4 0.7-0.6q2.7-2.2 5.4-4.5c7.2-6.1 13.8-12.8 19.9-19.9q2.2-2.6 4.3-5.3 0 0 0 0c0.1-0.2 0.3-0.4 0.5-0.6q0.4-0.6 0.9-1.3 1-1.3 2-2.7 4.1-5.7 7.7-11.7 3.7-6.1 6.8-12.4 1.6-3.1 3-6.2 0.4-1 0.8-1.9c0.1-0.3 0.8-1.9 0.3-0.8-0.4 1 0.4-0.9 0.5-1.1q0.3-0.7 0.6-1.5c3.4-8.7 6.1-17.7 8-26.9q0.7-3.4 1.3-6.8 0.3-1.9 0.6-3.8 0 0 0-0.1 0-0.1 0-0.3 0.1-0.8 0.2-1.6 0.8-7.2 1-14.4 0.2-7.3-0.3-14.6-0.2-3.5-0.5-7-0.2-1.9-0.5-3.8-0.1-1-0.2-1.9 0 0.2 0 0.3 0-0.2 0-0.5c-1.4-9.5-3.6-19-6.4-28.3q-2.2-6.9-4.8-13.6-0.7-1.8-1.4-3.6-0.1-0.1-0.1-0.2c-0.4-0.5-0.6-1.3-0.8-1.8q-1.4-3.2-2.9-6.4c-4.3-8.9-9.1-17.4-14.6-25.5q-2-3.1-4.2-6.1-1-1.5-2.1-2.9-0.6-0.8-1.2-1.5 0-0.1 0-0.1-0.1-0.1-0.1-0.2-4.6-5.8-9.5-11.3c-6.5-7.3-13.5-14-20.9-20.2q-1.5-1.3-3-2.5c-0.4-0.3-2.8-1.7-2.8-2.2q-0.2-0.1-0.5-0.3-0.8-0.6-1.6-1.2-1.5-1.2-3.1-2.3-6.3-4.5-12.9-8.5c-7.6-4.7-15.5-8.9-23.7-12.6q-6.2 2.3-12.4 4.8c-0.7 0.3-1.4 0.5-2.1 0.9q0.1-0.1 0.1-0.1-0.2 0.1-0.4 0.2-1.7 0.7-3.4 1.5-3.4 1.5-6.8 3-7 3.3-13.8 6.8zm155.4 134.4q0 0 0 0 0 0 0 0zm-260.7 150.9c0 0-0.3-0.2-0.5-0.4 0.2 0.2 0.4 0.4 0.5 0.4zm34.8 20.3c0.1 0 0.4 0.2 0.6 0.2-0.2-0.1-0.6-0.2-0.6-0.2zm226.1-126.8q0-0.4 0.1-0.7c-0.1 0.3-0.1 0.7-0.1 0.7zm-13.1-90.8q0 0 0 0c-0.2-0.5-0.1-0.3 0 0zm0 0.1q0 0.1 0.1 0.1-0.1 0-0.1-0.1zm0-0.1q0 0.1 0 0.1 0 0 0-0.1zm-26.1-44.4c0 0 0.3 0.3 0.4 0.5-0.1-0.2-0.3-0.5-0.4-0.5zm-35.6-35.6q-0.1-0.1-0.2-0.2c0 0.2 1.1 0.9 0.2 0.2zm-236.4 195.7q0 0 0 0.1 0-0.1 0-0.1zm0-0.2c0-0.3-0.1-0.5 0 0q0 0 0 0zm0 0.2q0-0.1 0-0.2 0 0.1 0 0.2z"/><path fill-rule="evenodd" class="b" d="m-47.2 204.2c2.7 11.8 2.8 23.9 1 35.8-3.5 23-15.1 44.9-31.1 61.6-16.5 17.1-38.3 28.2-60.7 35.3-18.1 5.7-37.1 9-56.1 10q4.9 2.3 9.8 4.6 8.6 4 17.2 8c3.8 1.8 4.4 7 2.7 10.3-0.9 1.6-2.8 3-4.5 3.5-2 0.5-3.9 0.1-5.8-0.8q-3.1-1.5-6.3-3-13.8-6.4-27.6-12.9-8.6-4-17.2-8c-4.5-2.1-4.6-8.6-1.5-11.8q2.7-2.8 5.4-5.5 11.9-12.1 23.8-24.3 7.5-7.6 15-15.2c2.9-2.9 7.6-2.7 10.6 0 3 2.8 2.8 7.9 0 10.7q-2.7 2.7-5.4 5.5-11.9 12.1-23.8 24.1 4.8-0.1 9.6-0.4 4.1-0.2 8.2-0.6 2.2-0.2 4.4-0.5 1-0.1 2.1-0.3 0.1 0 0.2 0 0.2 0 0.5-0.1 8.5-1.1 16.8-3c11.1-2.4 21.9-5.8 32.4-10 0.3-0.2 1-0.5 1.3-0.6q1-0.4 1.9-0.9 1.9-0.8 3.8-1.7 3.6-1.8 7.2-3.8c4.7-2.6 9.3-5.6 13.7-8.8q0.6-0.4 1.1-0.9c0.7-0.5-0.4 0.3-0.4 0.4 0.5-0.2 1.1-0.9 1.5-1.3q1.6-1.2 3-2.5 3.2-2.7 6.1-5.7 2.8-2.9 5.3-6 0.8-0.9 1.5-1.7 0.4-0.5 0.7-0.9 0.1-0.1 0.1-0.2 0.1-0.1 0.2-0.2 0.3-0.4 0.6-0.9 0.6-0.8 1.2-1.6 4.8-6.7 8.5-14 1-2 1.9-3.9 0.4-0.8 0.7-1.6c0.3-0.6 0.9-1.9 0.3-0.6 1.2-2.4 2-5.2 2.8-7.8 1.7-5.1 3-10.4 3.8-15.7q0-0.2 0-0.4 0.1-0.1 0.1-0.4 0-0.1 0-0.2 0-0.1 0-0.1 0 0 0 0 0.1-0.8 0.2-1.7 0.2-1.8 0.3-3.6 0.2-4.1 0.1-8.1 0-2.1-0.2-4.2c-0.1-1.2-0.5-2.5-0.4-3.7 0 0.5 0.1 0.9 0 0.1q0-0.1 0-0.2 0-0.1 0-0.1 0 0 0 0-0.1-0.4-0.2-0.8-0.1-0.9-0.3-1.7-0.3-1.9-0.8-3.8-0.9-4-2.3-7.9-0.4-1.1-0.8-2.2c-0.1-0.2-0.8-1.5-0.7-1.7q0-0.2-0.1-0.3-0.4-0.9-0.8-1.7c-2.2-4.7-4.8-9.1-7.7-13.3q-0.7-0.8-1.3-1.7-0.1-0.2-0.2-0.3-0.1 0-0.1-0.1-1.2-1.5-2.4-2.9-2.5-3-5.3-5.7-2.6-2.7-5.5-5.2-1.5-1.4-3.1-2.7-0.7-0.6-1.5-1.2-0.3-0.2-0.6-0.5c-0.7-0.5 0.4 0.4 0.4 0.4 0.2-0.3-12.1-8.4-13.2-9.1q-6.9-4.1-14.1-7.7-3.6-1.7-7.2-3.4-1.9-0.8-3.9-1.7-0.1 0-0.3-0.1 0 0-0.3-0.1-0.9-0.4-1.8-0.8c-22.9-9.3-47-16.1-71.1-21.3q-10.1-2.2-20.3-3.9-2.7-0.5-5.4-0.9-1.3-0.2-2.5-0.3c-0.3-0.1-1.3-0.2-1.6-0.2q-4.8-0.7-9.7-1.2c-13.7-1.3-27.5-1.8-41.3-1.1q-5 0.3-10 0.7-2.7 0.3-5.4 0.6-1.2 0.2-2.5 0.3 0 0 0 0-0.6 0.1-1.2 0.2c-6.4 0.9-12.8 2.1-19.1 3.6q-7.8 1.9-15.4 4.5-3.7 1.3-7.4 2.7-1.9 0.8-3.9 1.6-0.3 0.1-0.6 0.2-0.9 0.4-1.8 0.8c-9.8 4.4-19.2 9.6-28 15.7q-3.4 2.3-6.6 4.8-0.3 0.2-0.3 0.2-0.2 0.2-0.4 0.3-0.8 0.6-1.5 1.2-1.4 1.2-2.8 2.4-6.2 5.2-11.8 11-2.6 2.8-5.2 5.8-1.3 1.5-2.6 3.1-0.6 0.8-1.2 1.6-0.1 0-0.1 0.1-0.1 0-0.1 0.1c-3.2 4.2-6.2 8.6-8.9 13.2q-1.9 3.3-3.7 6.8-0.9 1.8-1.8 3.7-0.4 0.9-0.8 1.7c0 0.2-0.2 0.6-0.3 0.9-0.1 0.2-0.3 0.6-0.3 0.6q-0.2 0.6-0.4 1.1-0.4 0.9-0.7 1.8-0.7 1.7-1.3 3.4-1.3 3.8-2.3 7.7c-1.1 4-5.3 6.1-9.3 5.2-3.9-0.9-6.2-5.4-5.2-9.2q2.1-7.7 5.2-15c8.7-20.8 22.6-39.2 39.8-53.9 17.5-15 37.9-26.4 59.8-33.9 25.1-8.6 52.1-11.6 78.5-10.8 29 0.8 57.7 6 85.6 13.4 23.4 6.3 46.8 13.7 68.5 24.6 19.9 10.1 38.5 23.7 51.3 42.2 6.4 9.2 11.1 19.7 13.6 30.6zm-85.4-65.8q-0.3-0.2-0.7-0.3c0.2 0.1 0.5 0.2 0.7 0.3zm72 96.8q0 0 0 0 0 0 0 0zm-72-96.8q0 0 0 0 0 0 0 0zm67.1 57.7q0-0.2-0.1-0.4c0.1 0.3 0.4 1 0.1 0.4z"/><path class="b" d="m191.4-266.8q-23.7 46.4-47.3 92.7-23.6 46.3-47.2 92.7-13.3 26.1-26.6 52.2c-1.8 3.5-1.1 8.3 2.7 10.3 3.4 1.8 8.3 1.1 10.2-2.7q23.6-46.3 47.2-92.7 23.7-46.3 47.3-92.6 8.2-16.1 16.4-32.2 8 51.1 16.1 102.1 2.8 17.6 5.6 35.3c0.4 2.9 3.6 5 6.2 5.4 2.9 0.4 6-1 7.5-3.6q33.8-59.2 67.7-118.4 33.7-59 67.5-118 15.1-26.5 30.3-53 2.7 17.7 5.4 35.5 1.2 8 2.5 16c0.2 1.7 2 3.6 3.4 4.5 1.6 0.9 4 1.3 5.8 0.7 1.8-0.6 3.6-1.7 4.5-3.4 1-1.9 1.1-3.7 0.7-5.8q-4.2-28-8.5-55.9-1.3-8-2.5-16c-0.3-2.2-2.4-4-4.3-4.8-2.2-1-4.6-0.9-6.7 0.3q-24.5 14-49 28-7 3.9-13.9 7.9c-3.4 1.9-4.9 6.9-2.7 10.3 2.2 3.4 6.6 4.7 10.2 2.6q19.6-11.1 39.1-22.2-28.5 49.8-57 99.6-33.7 59-67.5 118.1-13.7 24-27.4 48-8.3-51.9-16.5-103.8-2.7-17.6-5.5-35.3c-0.5-2.8-3.7-5-6.3-5.3-2.8-0.4-6.1 0.9-7.4 3.5z"/><path fill-rule="evenodd" class="b" d="m476-127.8c-9.7 26-18.4 52.3-27.2 78.6-1.4 3.9-5.1 6.1-9.3 5.2-3.8-0.9-6.4-5.5-5.2-9.2q3.3-9.8 6.6-19.6c9-26.8 18.2-53.6 28.6-79.9 10.1-26 21.3-51.7 34.3-76.3 11.4-21.8 24.5-42.7 39.9-62 15.2-18.9 32.8-35.9 52.9-49.5 19.6-13.1 41.8-22.4 65-26.6 23.2-4.2 47.4-3.9 70.1 3.1 22.4 6.9 42.4 20.1 57.4 38.2 15.1 18.3 25.2 40.3 30.8 63.3 6.3 25.7 6.9 52.3 4.2 78.5-2.6 25.6-8 50.7-13.8 75.6q14.1-16 28.2-32.1c2.7-3.1 7.7-2.6 10.6 0 1.4 1.3 2.2 3.5 2.2 5.3 0 2.1-0.9 3.8-2.2 5.3q-4.9 5.5-9.7 11-16.8 19.2-33.6 38.3c-3 3.4-9.8 2.7-11.8-1.5q-13.2-28.9-26.5-57.8c-0.9-1.9-1.2-3.7-0.8-5.8 0.5-1.9 1.9-3.4 3.5-4.4 1.6-1.1 4-1.3 5.8-0.8 1.6 0.4 3.7 1.8 4.4 3.4q7.9 17 15.7 34 0.9-3.9 1.8-7.8c3.1-13.8 6.1-27.8 8.4-41.8q0.8-5.2 1.6-10.5 0-0.2 0-0.4 0-0.1 0-0.2 0.1-0.7 0.2-1.4 0.2-1.3 0.3-2.6 0.3-2.5 0.6-5.1 1.1-10.5 1.5-21.1 0.4-10.6-0.2-21.2-0.2-4.3-0.7-8.7-0.2-2.1-0.4-4.3c0-0.1-0.1-0.6-0.2-1 0.1 0.2-0.1-1.3-0.2-1.6-1.6-11.2-4.2-22.2-7.9-32.9q-1.4-4-2.9-7.8-0.3-0.6-0.5-1.1 0-0.1 0-0.1-0.4-0.8-0.7-1.6-0.8-1.8-1.7-3.6-3.5-7.5-7.9-14.6-2.2-3.5-4.6-6.8-1.2-1.7-2.4-3.3-0.2-0.4-0.5-0.7-0.6-0.7-1.2-1.5c-3.6-4.3-7.4-8.4-11.6-12.1-2-1.9-4.1-3.6-6.2-5.3q-0.4-0.3-0.8-0.7-0.8-0.6-1.7-1.1-1.6-1.2-3.3-2.3-6.8-4.5-14.3-8-1-0.5-2.1-0.9c-0.2-0.1-0.7-0.4-1-0.5 0 0 1.3 0.6 0.5 0.2q-1.8-0.7-3.7-1.4-3.8-1.4-7.7-2.6-7.9-2.3-16-3.6-1.2-0.2-2.5-0.4-0.1 0-0.1 0-0.2 0-0.4 0-2-0.2-4-0.4-4.1-0.4-8.2-0.5-8.4-0.3-16.7 0.4-2.1 0.2-4.3 0.4-1 0.1-2 0.3 0 0-0.2 0-0.1 0-0.4 0-4.1 0.6-8.2 1.4-8.3 1.6-16.4 4.1-4 1.2-8 2.6-2.1 0.8-4.3 1.7-0.9 0.3-1.9 0.7c-0.4 0.2-2.3 0.9-0.6 0.3-5.2 1.8-10.3 4.7-15.1 7.3-5 2.8-9.9 5.9-14.6 9.1q-3.6 2.5-7.1 5.1-0.6 0.5-1.2 0.9 0 0-0.1 0.1c-0.2 0.1-0.4 0.3-0.5 0.4q-0.4 0.3-0.7 0.5-1.7 1.4-3.3 2.7c-9 7.5-17.5 15.7-25.3 24.4q-5.9 6.5-11.3 13.4-0.7 0.9-1.4 1.8-0.3 0.4-0.6 0.8-1.3 1.7-2.5 3.4-2.7 3.5-5.2 7.2c-13.8 19.7-25.5 40.9-36 62.6q-4.5 9.3-8.7 18.8-2.1 4.7-4.1 9.4-1 2.3-2 4.7c-0.1 0.2-0.7 1.5-0.8 1.7q-0.4 1-0.8 2c-5.3 12.8-10.3 25.8-15.1 38.8zm156.4-215.1q0 0 0 0 0 0 0 0zm76.2-10.9q-0.3 0-0.5-0.1c0.1 0.1 0.3 0.1 0.5 0.1z"/><path class="b" d="m1547.7-312.9c-4.2 0.2-7.4 3.3-7.5 7.5q-0.7 18.6-1.5 37.3c-16.6-31.7-43-57.7-73.7-75.9-33.3-19.7-71.4-30.5-110-31.9-44.4-1.6-88.4 8.6-129.1 25.9-40.7 17.3-77.6 42.2-111.2 70.8-33.3 28.3-63.2 60.4-91.6 93.6q-3.8 4.3-7.5 8.7 0.1-0.7 0.2-1.5 1.7-16.1 3.4-32.3 0.4-3.7 0.8-7.4c0.1-1.8-1-4.1-2.2-5.3-1.3-1.3-3.5-2.3-5.3-2.2-2 0.1-4 0.7-5.3 2.2-1.5 1.5-2 3.2-2.2 5.3q-1.1 10.1-2.2 20.2-1.6 16.2-3.3 32.3-0.4 3.7-0.8 7.4c-0.4 3.8 3.7 8 7.5 7.5q11-1.3 22-2.6 17.4-2.2 34.9-4.3 4-0.5 8-0.9c2.1-0.3 3.8-0.7 5.3-2.2 1.3-1.3 2.3-3.5 2.2-5.3-0.1-2-0.7-4-2.2-5.4-1.4-1.2-3.4-2.4-5.3-2.1q-11 1.3-22 2.6-10.6 1.3-21.2 2.6c26.3-30.9 53.7-61.1 83.8-88.3 31.5-28.6 65.9-53.7 104.4-72.5 37.5-18.3 79.2-30.4 120.8-31.8 10.6-0.4 21.2-0.1 31.7 0.9q3.3 0.3 6.5 0.7 0.6 0.1 1.2 0.1c0.2 0.1 0.6 0.1 0.7 0.1q1.9 0.3 3.8 0.6 6.8 1.1 13.6 2.6c9 2 17.8 4.6 26.4 7.6q3.1 1.1 6.2 2.3 1.4 0.6 2.8 1.2 0.8 0.3 1.5 0.6c0.3 0.1 0.4 0.2 0.5 0.2 0.1 0 0.2 0.1 0.5 0.2q6.4 2.8 12.6 5.9c8 4.1 15.8 8.6 23.2 13.6q2.9 2 5.7 4 1.2 0.9 2.5 1.8 0.6 0.5 1.2 1 0.3 0.2 0.4 0.3 0.2 0.1 0.5 0.4c3.6 2.8 7.1 5.8 10.5 8.8 13.6 12.4 24 25 33.1 40.5q1.6 2.8 3.1 5.6-16.4-2.8-32.8-5.7c-2-0.3-3.9-0.3-5.7 0.8-1.6 0.9-3.1 2.7-3.5 4.5-0.8 3.6 1.1 8.5 5.3 9.2q27.6 4.8 55.2 9.6c2.4 0.4 4.5 0.2 6.5-1.4 1.9-1.4 2.9-3.4 3-5.8q1-27.4 2.1-54.7c0.1-3.9-3.6-7.7-7.5-7.5z"/><path fill-rule="evenodd" class="c" d="m419.7 90.3c-1.1 6.3-2.9 12.4-5.3 18.3-10.4 25.4-30.2 46.9-55.2 58.5-6.8 3.1-14 5.6-21.2 7.2q0 7.7-1 15.3c-1.6 13.3-5.1 25.9-10.7 38.1-5.7 12.7-13.4 24.3-22.3 34.9-17.7 21-40.8 37.5-65.6 49.2-29.3 13.7-60.9 20.8-93 23.9-31.7 3-63.6 2.2-95.4 0.4q19.7 14 39.4 27.9c3.4 2.5 4.7 6.4 2.7 10.3-0.9 1.6-2.7 3-4.5 3.4-1.7 0.5-4.3 0.3-5.8-0.7q-6.7-4.8-13.4-9.5-23.4-16.6-46.8-33.1c-2.2-1.6-3.7-3.7-3.7-6.5 0-2.6 1.5-5.2 3.7-6.5q7.3-4.2 14.5-8.4 25.7-14.8 51.3-29.6c3.6-2.1 8.1-0.7 10.3 2.7 2.1 3.4 0.7 8.3-2.7 10.2q-7.3 4.2-14.5 8.4-14.3 8.3-28.6 16.5 7.4 0.4 14.9 0.7c16.4 0.7 32.9 1 49.3 0.6q12.4-0.4 24.8-1.4 6-0.5 12.1-1.2 1.7-0.3 3.4-0.5 0.4 0 0.8-0.1c0.2 0 0.8-0.1 1-0.1q3-0.4 5.9-0.9c15.3-2.4 30.6-5.9 45.3-10.9q4.6-1.5 9.2-3.3 2.4-1 4.9-2c0.1 0 0.5-0.2 0.7-0.3 0.1 0 0.3-0.1 0.3-0.1q1-0.5 2-0.9 9-4 17.5-8.7 8.7-4.9 17-10.6 2-1.4 4-2.9 0.9-0.7 1.8-1.3 0.4-0.4 0.9-0.7c0.2-0.1 0.3-0.2 0.3-0.3 2.5-1.8 4.8-3.8 7.2-5.8q7.3-6.4 13.9-13.6 3.2-3.5 6.2-7.3c0.3-0.3 1-1.4 1.4-1.9-0.2 0.3-0.3 0.6 0.2 0q0-0.1 0.1-0.2 0 0 0 0 0 0 0 0 0.3-0.3 0.5-0.6 1.5-2 2.9-4c3.7-5.2 7-10.7 9.9-16.3q1.1-2.2 2.2-4.4 0.5-1.2 1-2.3c0.1-0.3 0.4-1.1 0.6-1.7 0 0.1 0.1 0.1 0.4-0.5q0 0 0 0 0 0 0 0 0 0 0 0 0.2-0.7 0.5-1.3 0.4-0.9 0.7-1.9 0.8-1.9 1.4-3.9c1.9-5.5 3.3-11.2 4.3-16.9 0.3-1.5 0.5-3 0.7-4.4-0.4 2.2 0 0.1 0-0.5q0.2-1.1 0.3-2.2 0.4-4.3 0.5-8.6 0-0.8 0-1.5-2.2 0.1-4.5 0.2c-13.7 0.3-27.6-2.2-40.4-7.1-13.3-5.1-25.5-12.5-36-22.2-10.7-9.8-20-22.3-24-36.3-2.2-7.6-2.8-16-0.5-23.6 2.3-7.3 7.2-13.6 13.7-17.7 11.3-7.1 26.3-6.6 38.7-2.7 12.3 3.8 23.6 11.2 32.9 20 8.8 8.4 16.1 18.4 21.5 29.2 6.7 13.4 11 28 12.8 42.9q3.5-0.9 7-2.1 2.4-0.8 4.7-1.7 0.4-0.2 0.9-0.4 0 0 0 0 1-0.4 1.9-0.9c5.7-2.6 11.2-5.8 16.3-9.4q1-0.7 1.9-1.5c0.1 0 0.7-0.4 0.8-0.6q1.8-1.4 3.5-2.9 3.6-3.1 6.9-6.6 3.3-3.3 6.2-7 0.2-0.3 0.5-0.6 0-0.1 0.1-0.1 0.7-1 1.4-2 1.3-1.8 2.6-3.7 2.6-4 4.8-8.2 1.1-2.1 2.1-4.3 0.5-1 0.9-1.9 0.1-0.3 0.3-0.6 0-0.2 0.1-0.3c2.4-5.9 4.1-11.9 5.3-18.1 0.8-4.1 5.5-6.1 9.2-5.2 4.2 0.9 6 5.4 5.2 9.2zm-105.2 127.4q0 0 0 0 0 0 0 0zm7.8-56.2q-0.1-0.5-0.1-1-0.1-0.8-0.2-1.5c0-0.1-0.1-0.4-0.1-0.6q-0.1-0.5-0.1-1.1-0.3-1.9-0.7-3.9-0.8-4.3-1.9-8.6-1.1-4.1-2.5-8.2-0.8-2.2-1.6-4.3-0.3-0.9-0.7-1.8-0.1-0.3-0.2-0.5c-0.2-0.1-3.4-7.2-3.7-7.8q-2-3.8-4.2-7.3c-1.5-2.4-3.1-4.7-4.8-6.9q0-0.1 0-0.1-0.3-0.3-0.6-0.7-0.7-0.8-1.3-1.6-1.3-1.6-2.7-3.1-2.9-3.2-6.1-6-1.6-1.5-3.2-2.9-0.7-0.5-1.5-1.1c-0.2-0.1-0.4-0.3-0.4-0.3-4.7-3.5-9.7-6.5-15-9q0 0-0.1 0-0.3-0.1-0.6-0.3-1.1-0.4-2.2-0.8-2-0.7-4.1-1.2-2.2-0.6-4.4-1-0.5-0.1-0.9-0.2 0.1 0.1 0.1 0c0 0-0.3 0-0.6 0-0.4-0.1-0.3-0.1-0.2-0.1-0.5 0-1.1-0.1-1.2-0.1-2.9-0.2-5.7-0.2-8.6 0.1q-0.5 0.1-1 0.1-1 0.2-1.9 0.5c-1.2 0.3-2.3 0.7-3.5 1.1q-0.5 0.2-0.9 0.4-0.9 0.5-1.6 0.9c-0.3 0.2-1.3 1.1-1.7 1.2q-0.1 0.1-0.3 0.3-0.9 0.7-1.7 1.6-0.3 0.3-0.6 0.7c-0.9 1 0.4-0.4 0.3-0.4-0.3-0.1-2.3 3.8-2.5 4.2q0 0 0 0c-0.2 0.5-0.4 0.9-0.5 1.3q-0.3 1.1-0.6 2.2-0.1 0.4-0.1 0.8c0.1 0.6-0.2 1.8-0.2 2.4-0.1 1.7 0 3.3 0.2 5q0 0 0 0.1 0.1 0.5 0.2 1.1 0.2 1.2 0.5 2.3 0.6 2.6 1.5 5.1 0.3 0.7 0.6 1.4c0 0.1 0.2 0.4 0.2 0.6 0.2 0.3 0.3 0.6 0.3 0.6q0.3 0.5 0.5 1.1c1.5 3 3.3 5.9 5.2 8.7q0.8 1.1 1.6 2.2 0.3 0.4 0.6 0.8 0 0 0 0.1 1.4 1.6 2.8 3.3 3.2 3.7 6.7 7 1.8 1.6 3.6 3.2 0.9 0.7 1.7 1.4 0.5 0.4 1 0.8c2.5 1.8 5 3.6 7.6 5.2q4.1 2.6 8.5 4.8 2.2 1.1 4.4 2.1 0.5 0.2 1 0.4c0.3 0.2 0.5 0.2 0.5 0.3q0.8 0.2 1.5 0.5c6 2.3 12.1 4.1 18.4 5.3q1.4 0.2 2.7 0.4 0.5 0.1 1 0.2c1.4 0.1 2.8 0.3 4.3 0.4q4.7 0.4 9.4 0.4 2.3-0.1 4.7-0.2zm-36.1-69c0.1 0.2 0.2 0.2 0.2 0.2 0 0-0.1 0-0.2-0.2zm-48.5-9q-0.1 0.1-0.2 0.1c0.3-0.2 1-0.8 0.2-0.1zm-6.5 11.2q0 0 0 0c-0.2 1.1 0 0.4 0 0zm72.5 66.2q-0.1-0.1-0.1-0.1 0 0 0.1 0.1zm10.5-30.9q-0.1-0.2-0.2-0.4c-0.4-1.2 0.1 0.1 0.2 0.4z"/><path fill-rule="evenodd" class="b" d="m913.1 70.9c-1.9 3.6-6.9 4.7-10.3 2.7q-2.2-1.3-4.4-2.6-7.8-4.5-15.6-9.1c2.8 12 4.2 24.4 3.2 36.7-1 12.5-4.2 24.8-10.5 35.6-6.2 10.5-15 19.3-25.4 25.6-22 13.3-50.7 15.2-74.4 5.1-1.4 9.1-4.1 17.9-8.1 26.3-10.1 21.3-28.5 38-50.6 46-19.9 7.2-42 7-61.8 0-3.5 13.4-9.6 26.1-17.6 37.2-17.8 24.7-44.6 42.5-74.9 46.8-32.3 4.6-65.3-4.1-90.6-24.7-3.3-2.7-2.5-7.9 0-10.6 2.9-3.2 7.5-2.5 10.6 0q0.7 0.6 1.4 1.1 0.1 0.1 0.1 0.1 0 0 0.1 0.1c0.8 0.6 1.6 1.2 2.5 1.8q2.5 1.7 5.1 3.4 5 3.1 10.4 5.7 1.4 0.6 2.8 1.2 0.2 0.1 0.3 0.1 0.1 0.1 0.2 0.1 0.6 0.3 1.1 0.5 2.9 1.1 5.8 2.1 5.8 1.9 11.8 3.2 2.8 0.6 5.7 1.1c0.3 0 2 0.3 2 0.3q0.9 0.1 1.8 0.2 5.5 0.6 11 0.6 5.4 0.1 10.7-0.4 1.5-0.2 3.1-0.3c0.2-0.1 0.8-0.2 0.9-0.2q0.2 0 0.4 0 2.4-0.4 4.8-0.9 5.4-1.1 10.7-2.7 2.7-0.9 5.4-1.9 1.1-0.5 2.2-0.9 0 0 0 0 0 0 0.1 0 0.5-0.3 1-0.5c6.3-2.8 12.2-6.2 17.8-10.2q1.1-0.8 2.3-1.7c0.1 0 0.2-0.1 0.3-0.2 0.3-0.2 0.7-0.5 0.7-0.5q1.8-1.5 3.5-3 4-3.4 7.5-7.2 3.6-3.8 6.9-7.8 0-0.1 0.1-0.2 0-0.1 0.1-0.2 0.3-0.4 0.7-0.9 0.7-0.9 1.3-1.9 1.4-2 2.8-4 2.8-4.4 5.2-9 1.2-2.5 2.3-5c0.4-0.7 0.7-1.4 1-2.1-0.7 1.7 0.1-0.4 0.3-0.9 2.6-6.4 4.4-13.1 5.6-19.9 0.4-2.3 2.4-4.1 4.4-4.9 2.3-1 4.4-0.7 6.6 0.4q1.2 0.5 2.3 1 0.2 0.1 0.3 0.2 0.3 0.1 0.6 0.2 2.2 0.9 4.4 1.6 4.4 1.5 8.9 2.4 2.1 0.5 4.3 0.8c0.6 0.1 2.3 0.4 0.8 0.2q1.1 0.1 2.2 0.2 4.6 0.5 9.2 0.4 4.1 0 8.2-0.4 0.6-0.1 1.3-0.1 0 0 0-0.1c0.3 0 1.2-0.1 1.4-0.1q2-0.4 4-0.8 3.9-0.8 7.7-2 2.1-0.6 4.2-1.4 0.9-0.3 1.8-0.6 0.4-0.2 0.8-0.4 0.1 0 0.2-0.1c0.3-0.1 0.6-0.2 0.7-0.3q0.4-0.1 0.8-0.3 1-0.5 2-1 1.7-0.8 3.4-1.8 3.5-1.9 6.7-4.2 0.9-0.6 1.7-1.2c0.2-0.2 0.6-0.5 0.7-0.6q1.3-1 2.4-2 3-2.5 5.7-5.3c1.8-1.8 3.4-3.8 5.1-5.8q0.1-0.1 0.1-0.2 0.2-0.2 0.3-0.4 0.6-0.7 1.1-1.5 1.1-1.5 2.2-3.2 2-3.1 3.8-6.4 1-1.8 1.9-3.7 0.3-0.8 0.7-1.6c0.1-0.2 0.4-0.9 0.5-1.2 0.1-0.1 0.1-0.3 0.1-0.3q0.2-0.4 0.4-0.9 0.3-0.8 0.6-1.6 0.7-1.9 1.2-3.7 1.2-3.6 2-7.2 0.4-2 0.7-4.1c0.1-0.5 0.4-1.2 0.3-1.8 0 0.1-0.2 1.4-0.1 0.6q0.1-0.5 0.1-0.9 0.5-3.9 0.5-7.8c0.1-5.5 6.4-9.5 11.3-6.4q2.5 1.5 5.1 2.9 1.3 0.6 2.7 1.2c0 0.1 0.2 0.2 0.5 0.3 0.2 0 0.5 0.2 0.6 0.2q5.1 2.1 10.4 3.3c1.9 0.5 3.8 0.8 5.7 1.1q0.2 0 0.3 0.1 0.4 0 0.9 0.1 1.3 0.1 2.7 0.2 5.5 0.4 11.1 0.1 1.5-0.1 3-0.3c0.5-0.1 2.8-0.1 0.9-0.1 1.5 0 3.1-0.5 4.6-0.8q4.9-1 9.6-2.7 1.3-0.4 2.5-0.9 0.4-0.2 0.9-0.4 0 0 0 0c1.4-0.7 2.8-1.3 4.2-2q4.5-2.3 8.5-5.2 0.3-0.2 0.6-0.4c0-0.1 0.2-0.2 0.4-0.4q0.1 0 0.2-0.1-0.1 0.1-0.2 0.1 0 0 0.1 0 0.6-0.6 1.3-1.1 1.4-1.2 2.8-2.5 2.6-2.5 4.9-5.2c0.4-0.5 0.8-1.2 1.3-1.6q0.1-0.2 0.3-0.3 1-1.5 2-3 2.1-3.2 3.8-6.6 0.4-0.9 0.8-1.9 0.2-0.3 0.3-0.6 0 0.1 0 0.1 0 0 0-0.1 0.1-0.2 0.2-0.4c0.2-0.4 0.1-0.6 0-0.4 0.3-0.9 0.9-1.8 1.1-2.6q1.4-3.8 2.3-7.7 0.5-2.2 0.9-4.5 0.1-1 0.3-2 0-0.1 0-0.2 0-0.1 0.1-0.4 0.5-4.6 0.6-9.2 0.1-4.7-0.3-9.5-0.2-2.7-0.5-5.4 0-0.3-0.1-0.6c0-0.2 0-0.4 0-0.5q0 0 0 0 0-0.1-0.1-0.2 0.1 0.1 0.1 0.1-0.2-1.2-0.4-2.5-0.6-3.7-1.4-7.4-2.2 4.4-4.4 8.8-3.3 6.6-6.6 13.3c-1.9 3.7-6.9 4.4-10.3 2.6-1.6-0.8-2.9-2.7-3.4-4.4-0.6-2.1-0.1-4 0.8-5.8q1.2-2.5 2.4-4.9 5.2-10.5 10.4-21.1 3.3-6.6 6.6-13.2c1.8-3.6 6.9-4.6 10.2-2.7q2.2 1.3 4.4 2.6 15.9 9.4 31.7 18.7c3.6 2.1 4.6 6.6 2.7 10.2zm-47.3 49.4q0 0 0 0 0 0 0 0zm-17.4 22.6q0 0 0 0 0 0 0 0zm-289.1 163.8q-0.3 0-0.6 0 0.4 0 0.6 0zm299-173.7q0.1-0.1 0.2-0.2c-0.3 0.4-0.7 0.9-0.2 0.2z"/><path fill-rule="evenodd" class="b" d="m1431.7-56.8c-30.7-19.5-67.8-25.3-103.7-25-18 0.1-35.9 1.7-53.8 3.8-20.2 2.5-40.3 5.4-60.1 9.9-36.5 8.3-71.8 22.2-101.5 45.3-13.7 10.6-25.8 23.1-35.7 37.3-10.2 14.8-17.6 31.6-22.1 49.1-9.2 35.5-7.1 73.4 1.9 108.7 9.9 38.3 27.4 74.1 46.1 108.7 4.5 8.4 9.1 16.7 13.7 24.9 1.9 3.5 6.9 4.9 10.2 2.7 3.5-2.2 4.7-6.6 2.7-10.2-9.3-16.8-18.6-33.6-27.2-50.8-8.7-17.5-16-33.5-22.5-51.5-6.1-17.3-11-35.1-13.7-53.3q-0.1-0.7-0.2-1.4 0-0.3 0-0.4 0-0.1 0-0.2-0.3-1.6-0.4-3.2-0.4-3.2-0.7-6.5-0.6-6.6-0.8-13.3c-0.2-8.8 0.1-17.5 1-26.3q0.1-1.6 0.3-3.2 0.1-0.8 0.2-1.6 0.1-0.1 0.1-0.3 0.4-3.1 1-6.3 1.2-6.5 2.8-12.9 1.7-6.3 3.9-12.5 1-2.9 2.1-5.7 0.3-0.8 0.6-1.6c0.1-0.1 0.1-0.3 0.2-0.4q0.7-1.6 1.4-3.1c3.5-7.7 7.7-15.1 12.6-22.1q1.6-2.4 3.4-4.7 0.1-0.1 0.2-0.2 0-0.1 0-0.1 0.6-0.7 1.1-1.4 1.1-1.3 2.1-2.6 4-4.7 8.2-9 4.3-4.4 8.9-8.4 2.3-2.1 4.6-4 1.2-1 2.4-1.9 0.5-0.5 1.1-0.9 0.2-0.2 0.4-0.3 0.1-0.1 0.2-0.2c6.7-4.9 13.6-9.6 20.8-13.8 7.2-4.2 14.6-7.9 22.2-11.3q0.8-0.3 1.6-0.7c0.1 0 0.3-0.1 0.4-0.2q1.4-0.5 2.7-1.1 3.7-1.5 7.5-2.9 6.7-2.4 13.6-4.6c18.6-5.8 37.7-9.8 56.9-12.9 17.6-2.8 35.3-5 53.9-6.3 17.5-1.3 35.2-1.7 52.7 0q3 0.2 6 0.6 0.9 0.1 1.8 0.2c0 0 0.2 0 0.4 0.1q1.6 0.2 3.2 0.4 6.3 1 12.5 2.4c8.5 1.9 16.8 4.4 24.8 7.6 0.3 0.1 1.8 0.7 1.8 0.7q1.3 0.6 2.5 1.2 3.1 1.4 6.1 2.9 5.5 2.9 10.8 6.3 2.3 1.5 4.5 3 1.2 0.8 2.2 1.6 0.5 0.4 1 0.7 0.2 0.2 0.4 0.3c2.9 2.3 5.7 4.7 8.4 7.2 5.1 4.8 9.8 9.9 14.1 15.4 0.2 0.4 0.9 1.3 1.1 1.5q0.8 1 1.5 2.1 1.7 2.3 3.2 4.7 3.1 4.6 5.7 9.4 2.7 4.7 5 9.6 1.1 2.5 2.2 5 0.2 0.4 0.4 0.8 0 0.1 0 0.2 0.6 1.4 1.2 2.8c2.7 6.9 5 14.1 6.9 21.4 1.8 7.1 3.2 14.4 4.2 21.7q0 0 0.1 0 0 0.7 0.1 1.3 0.2 1.4 0.3 2.8 0.4 2.9 0.6 5.8 0.4 5.5 0.6 11.1 0.3 11.2-0.6 22.4-0.4 5.3-1.1 10.5c0 0.4-0.2 1.9-0.3 2.1q-0.1 1.2-0.3 2.4-0.6 3.4-1.2 6.8c-3.5 18-8.9 35.6-15.6 52.6q-1.2 3-2.4 6-0.1 0.2-0.2 0.4 0 0-0.1 0.2-0.4 0.9-0.8 1.8-0.7 1.7-1.5 3.4-2.7 6.2-5.7 12.4c-4 8.3-8.3 16.5-12.8 24.5-9 16.3-18.8 32-28.9 47.6q-3 4.6-6 9.2-0.7-10.6-1.3-21.1-0.1-3.1-0.3-6.1c-0.2-3.9-3.3-7.7-7.5-7.5-3.9 0.2-7.8 3.3-7.5 7.5q0.5 8.3 0.9 16.6 0.8 13.2 1.6 26.5 0.1 3 0.3 6c0.2 2.4 1 4.4 3 5.9 1.7 1.3 4.3 2.2 6.5 1.4q7.7-3 15.5-6 12.3-4.8 24.6-9.5 2.9-1.1 5.7-2.2c1.9-0.8 3.5-1.7 4.5-3.5 0.9-1.6 1.3-4 0.8-5.8-1.2-3.5-5.4-6.7-9.3-5.2q-7.7 3-15.4 6-4.1 1.6-8.2 3.1c17.5-26.6 34.4-53.8 48.1-82.6 15.7-33.1 27.5-68.5 30.1-105.2 2.1-30.8-2.2-62.6-14-91.3-11.8-28.8-30.9-54.3-57.5-71.2zm-366.3 144q0 0 0 0 0 0 0 0z"/></svg>