<svg version="1.2" xmlns="http://www.w3.org/2000/svg" viewBox="0 0 830 844" width="830" height="844"><style>.a{display:none;fill:#fedd78}.b{opacity:.6;mix-blend-mode:soft-light;fill:#fefefe}.c{fill:#e6e7e8}.d{fill:none;stroke:#3a3f63;stroke-linecap:round;stroke-linejoin:round;stroke-width:2}.e{fill:#fefefe}.f{fill:#ee5282}.g{fill:none;stroke:#3d4368;stroke-linecap:round;stroke-linejoin:round;stroke-width:2}.h{fill:#cbd9e2}.i{fill:#dfcfd8}.j{fill:#41486e}.k{fill:#3a3f63}.l{fill:#8bbfe7;stroke:#3a3f63;stroke-linecap:round;stroke-linejoin:round;stroke-width:2}.m{fill:#243542}.n{fill:#5363ad}.o{fill:#a9c7d7}.p{fill:#fed03e}.q{fill:#3d4368}.r{mix-blend-mode:soft-light;fill:#f5fbfd}.s{fill:#ceccad}.t{fill:#bed0da}.u{fill:#c4a3b4}.v{fill:#d0dae0}.w{fill:#bbd7e5}.x{fill:#c0cdd4}.y{fill:#fed03e;stroke:#3d4368;stroke-linecap:round;stroke-linejoin:round;stroke-width:2}.z{fill:#a5c8da}.A{fill:#dde6eb}.B{fill:#8bbfe7}.C{fill:#acbbc4}.D{fill:#cccdcf}.E{fill:#e2d3bd}</style><path class="a" d="m830.4 844h-830.4v-844.2h830.4z"/><path class="b" d="m520.5 339.9c0 124.2-100.6 224.8-224.8 224.8-124.2 0-224.8-100.6-224.8-224.8 0-124.2 100.6-224.8 224.8-224.8 124.2 0 224.8 100.6 224.8 224.8z"/><path class="b" d="m759.2 513.4c0 124.1-100.6 224.8-224.8 224.8-124.2 0-224.8-100.7-224.8-224.8 0-124.2 100.6-224.8 224.8-224.8 124.2 0 224.8 100.6 224.8 224.8z"/><path class="c" d="m296.4 247.3c0 43.1-35 78-78.1 78-43.1 0-78-34.9-78-78 0-43.1 34.9-78 78-78 43.1 0 78.1 34.9 78.1 78z"/><path class="d" d="m296.4 247.3c0 43.1-35 78-78.1 78-43.1 0-78-34.9-78-78 0-43.1 34.9-78 78-78 43.1 0 78.1 34.9 78.1 78z"/><path class="e" d="m265.7 249.5c0 26.5-21.4 47.9-47.8 47.9-26.5 0-47.9-21.4-47.9-47.9 0-26.4 21.4-47.8 47.9-47.8 26.4 0 47.8 21.4 47.8 47.8z"/><path class="f" d="m270.9 249.1c0 29.3-23.8 53.1-53.1 53.1-29.4 0-53.2-23.8-53.2-53.1 0-29.3 23.8-53.1 53.2-53.1 29.3 0 53.1 23.8 53.1 53.1z"/><path class="d" d="m270.9 249.1c0 29.3-23.8 53.1-53.1 53.1-29.4 0-53.2-23.8-53.2-53.1 0-29.3 23.8-53.1 53.2-53.1 29.3 0 53.1 23.8 53.1 53.1z"/><path class="e" d="m262.3 249.1c0 24.6-19.9 44.5-44.5 44.5-24.6 0-44.6-19.9-44.6-44.5 0-24.6 20-44.5 44.6-44.5 24.6 0 44.5 19.9 44.5 44.5z"/><path class="g" d="m262.3 249.1c0 24.6-19.9 44.5-44.5 44.5-24.6 0-44.6-19.9-44.6-44.5 0-24.6 20-44.5 44.6-44.5 24.6 0 44.5 19.9 44.5 44.5z"/><g style="mix-blend-mode:multiply"><path fill-rule="evenodd" class="h" d="m262.2 249.1c0 24.6-19.9 44.5-44.4 44.5-24.6 0-44.5-19.9-44.5-44.5 0-24.6 19.9-44.5 44.5-44.5 24.5 0 44.4 19.9 44.4 44.5zm-5.2 0c0-21.6-17.6-39.2-39.2-39.2-21.7 0-39.2 17.6-39.2 39.2 0 21.7 17.5 39.2 39.2 39.2 21.6 0 39.2-17.5 39.2-39.2z"/></g><g style="mix-blend-mode:multiply"><path fill-rule="evenodd" class="i" d="m270.8 249.1c0 29.3-23.7 53.1-53 53.1-29.3 0-53.1-23.8-53.1-53.1 0-29.3 23.8-53.1 53.1-53.1 29.3 0 53 23.8 53 53.1zm-3.7 0c0-27.2-22.1-49.3-49.3-49.3-27.3 0-49.3 22.1-49.3 49.3 0 27.2 22 49.3 49.3 49.3 27.2 0 49.3-22.1 49.3-49.3z"/></g><path class="j" d="m217.8 219.4c-0.6 0-1.1-0.5-1.1-1.1v-8.5c0-0.6 0.5-1.1 1.1-1.1 0.6 0 1.1 0.5 1.1 1.1v8.5c0 0.6-0.5 1.1-1.1 1.1z"/><path class="j" d="m217.8 289.5c-0.6 0-1.1-0.5-1.1-1.1v-8.5c0-0.6 0.5-1.1 1.1-1.1 0.6 0 1.1 0.5 1.1 1.1v8.5c0 0.6-0.5 1.1-1.1 1.1z"/><path class="j" d="m187 250.2h-8.5c-0.6 0-1.1-0.5-1.1-1.1 0-0.6 0.5-1.1 1.1-1.1h8.5c0.6 0 1.1 0.5 1.1 1.1 0 0.6-0.5 1.1-1.1 1.1z"/><path class="j" d="m257 250.2h-8.5c-0.6 0-1.1-0.5-1.1-1.1 0-0.6 0.5-1.1 1.1-1.1h8.5c0.6 0 1.1 0.5 1.1 1.1 0 0.6-0.5 1.1-1.1 1.1z"/><path class="k" d="m246.3 248.3v0.5h-29.2v-0.5z"/><path class="k" d="m221.2 248.6c0-2.1-1.6-3.7-3.7-3.7q-0.4 0-0.9 0.1l-11.4-18-2.3 1.4 11.5 18.2c-0.3 0.6-0.5 1.2-0.5 2 0 1.8 1.3 3.3 3 3.6v25.8h1.6v-25.9c1.6-0.4 2.7-1.8 2.7-3.5z"/><path class="c" d="m486.7 162.4c0 43.1-34.9 78.1-78 78.1-43.1 0-78.1-35-78.1-78.1 0-43.1 35-78 78.1-78 43.1 0 78 34.9 78 78z"/><path class="d" d="m486.7 162.4c0 43.1-34.9 78.1-78 78.1-43.1 0-78.1-35-78.1-78.1 0-43.1 35-78 78.1-78 43.1 0 78 34.9 78 78z"/><path class="c" d="m457.9 202.9h-100.6v-82.2h100.6z"/><path class="d" d="m457.9 202.9h-100.6v-82.2h100.6z"/><g style="mix-blend-mode:multiply"><path class="h" d="m453.1 120.6c0.2 5.5 0.3 49.2 0.5 56.5 0.1 3.8 0.3 16.7-2.1 19.3-2.4 2.4-8.9 1.8-13.1 1.7-5.6-0.1-81.1-0.6-81.1-0.6v5.4h100.6v-82.2z"/></g><path class="f" d="m457.9 145.3v-24.6h-100.6v24.6z"/><path class="d" d="m457.9 145.3v-24.6h-100.6v24.6z"/><g style="mix-blend-mode:multiply"><path class="i" d="m454.7 120.7c-0.1 2.5 0.4 14-1.2 16.5-1.8 2.8-5.2 2.9-8.3 3.1-5.9 0.3-64.6-0.1-87.9-0.2v5.2h100.6v-24.6z"/></g><path class="l" d="m367.7 123.4c-1.5 0-2.7-1.2-2.7-2.7 0-1.6 1.3-2.8 2.8-2.8 1.4 0 2.7 1.2 2.8 2.7h1.7c-0.1-2.4-2.1-4.5-4.5-4.5-2.5 0-4.5 2.1-4.5 4.6 0 2.4 1.9 4.4 4.3 4.5q0 0 0.1 0c0.4 0 0.8-0.4 0.8-0.8 0-0.5-0.3-0.9-0.8-1z"/><path class="l" d="m377.9 123.4c-1.4 0-2.6-1.2-2.6-2.7 0-1.6 1.2-2.8 2.8-2.8 1.4 0 2.6 1.2 2.8 2.7h1.7c-0.1-2.4-2.2-4.5-4.5-4.5-2.5 0-4.6 2.1-4.6 4.6 0 2.4 1.9 4.4 4.4 4.5q0 0 0 0c0.5 0 0.9-0.4 0.9-0.8 0-0.5-0.4-0.9-0.9-1z"/><path class="l" d="m388.2 123.4c-1.5 0-2.7-1.2-2.7-2.7 0-1.6 1.3-2.8 2.8-2.8 1.5 0 2.7 1.2 2.8 2.7h1.7c-0.1-2.4-2.1-4.5-4.5-4.5-2.5 0-4.5 2.1-4.5 4.6 0 2.4 1.9 4.4 4.3 4.5q0 0 0.1 0c0.4 0 0.8-0.4 0.8-0.8 0.1-0.5-0.3-0.9-0.8-1z"/><path class="l" d="m447.2 123.5c1.4 0 2.6-1.3 2.6-2.8 0-1.5-1.2-2.8-2.8-2.8-1.4 0-2.6 1.3-2.8 2.8h-1.7c0.1-2.4 2.2-4.5 4.5-4.5 2.5 0 4.6 2 4.6 4.5 0 2.5-1.9 4.4-4.4 4.6q0 0 0 0c-0.5 0-0.9-0.4-0.9-0.9 0-0.5 0.4-0.9 0.9-0.9z"/><path class="l" d="m436.9 123.5c1.5 0 2.7-1.3 2.7-2.8 0-1.5-1.3-2.8-2.8-2.8-1.4 0-2.7 1.3-2.8 2.8h-1.7c0.1-2.4 2.1-4.5 4.5-4.5 2.5 0 4.5 2 4.5 4.5 0 2.5-1.9 4.4-4.3 4.6q0 0-0.1 0c-0.4 0-0.8-0.4-0.8-0.9-0.1-0.5 0.3-0.9 0.8-0.9z"/><path class="l" d="m426.6 123.5c1.5 0 2.7-1.3 2.7-2.8 0-1.5-1.2-2.8-2.8-2.8-1.4 0-2.7 1.3-2.8 2.8h-1.7c0.1-2.4 2.2-4.5 4.5-4.5 2.5 0 4.5 2 4.5 4.5 0 2.5-1.9 4.4-4.3 4.6q0 0 0 0c-0.5 0-0.9-0.4-0.9-0.9 0-0.5 0.4-0.9 0.8-0.9z"/><path class="l" d="m373.9 162.8h-10.2v-9h10.2z"/><path class="l" d="m389.1 162.8h-10.2v-9h10.2z"/><path class="l" d="m404.3 162.8h-10.2v-9h10.2z"/><path class="l" d="m419.6 162.8h-10.2v-9h10.2z"/><path class="l" d="m434.8 162.8h-10.2v-9h10.2z"/><path class="l" d="m450 162.8h-10.1v-9h10.1z"/><path class="l" d="m373.9 178.1h-10.2v-9h10.2z"/><path class="l" d="m389.1 178.1h-10.2v-9h10.2z"/><path class="l" d="m404.3 178.1h-10.2v-9h10.2z"/><path class="l" d="m419.6 178.1h-10.2v-9h10.2z"/><path class="l" d="m434.8 178.1h-10.2v-9h10.2z"/><path class="l" d="m450 178.1h-10.1v-9h10.1z"/><path class="l" d="m373.8 193.9h-10.2v-9h10.2z"/><path class="l" d="m389 193.9h-10.1v-9h10.1z"/><path class="l" d="m404.3 193.9h-10.2v-9h10.2z"/><path class="l" d="m419.5 193.9h-10.2v-9h10.2z"/><path class="l" d="m434.8 193.9h-10.2v-9h10.2z"/><path class="l" d="m450 193.9h-10.2v-9h10.2z"/><g style="mix-blend-mode:multiply"><path class="h" d="m363.7 159v3.8h10.2v-3.8z"/><path class="h" d="m378.9 159v3.8h10.2v-3.8z"/><path class="h" d="m394.1 159v3.8h10.2v-3.8z"/><path class="h" d="m409.4 159v3.8h10.2v-3.8z"/><path class="h" d="m424.6 159v3.8h10.2v-3.8z"/><path class="h" d="m439.9 159v3.8h10.1v-3.8z"/></g><g style="mix-blend-mode:multiply"><path class="h" d="m363.7 174.2v3.9h10.2v-3.9z"/><path class="h" d="m378.9 174.2v3.9h10.2v-3.9z"/><path class="h" d="m394.1 174.2v3.9h10.2v-3.9z"/><path class="h" d="m409.4 174.2v3.9h10.2v-3.9z"/><path class="h" d="m424.6 174.2v3.9h10.2v-3.9z"/><path class="h" d="m439.9 174.2v3.9h10.1v-3.9z"/></g><g style="mix-blend-mode:multiply"><path class="h" d="m363.6 190v3.9h10.2v-3.9z"/><path class="h" d="m378.9 190v3.9h10.1v-3.9z"/><path class="h" d="m394.1 190v3.9h10.2v-3.9z"/><path class="h" d="m409.3 190v3.9h10.2v-3.9z"/><path class="h" d="m424.6 190v3.9h10.2v-3.9z"/><path class="h" d="m439.8 190v3.9h10.2v-3.9z"/></g><path class="c" d="m673.8 247.3c0 43.1-34.9 78-78 78-43.2 0-78.1-34.9-78.1-78 0-43.1 34.9-78 78.1-78 43.1 0 78 34.9 78 78z"/><path class="d" d="m673.8 247.3c0 43.1-34.9 78-78 78-43.2 0-78.1-34.9-78.1-78 0-43.1 34.9-78 78.1-78 43.1 0 78 34.9 78 78z"/><path class="f" d="m602.7 206.7c0 0 4.9-15.1 15.5-15.1 0 0-0.8 16 3.3 20.8z"/><path class="d" d="m602.7 206.7c0 0 4.9-15.1 15.5-15.1 0 0-0.8 16 3.3 20.8z"/><g style="mix-blend-mode:multiply"><path class="i" d="m612.3 197.2c1.3-2.2 2.9-4.2 4.9-5.5-10 0.9-14.5 15-14.5 15l5.8 1.8c0.3-4 1.4-7.6 3.8-11.3z"/></g><path class="d" d="m544.5 244.6c0 0-5.3-4.9-12.6-1-7.3 3.9-0.2 9.7 3.9 6.5 4.2-3.3-1-12.5-12.7-9.3"/><path class="m" d="m628 233.8c0 1.9-1.6 3.5-3.5 3.5-1.9 0-3.5-1.6-3.5-3.5 0-2 1.6-3.5 3.5-3.5 1.9 0 3.5 1.5 3.5 3.5z"/><path class="f" d="m652.5 236.4c0 0-8.4 2.1-9.2 0-8.1-20.3-24.4-31.4-48.8-31.4-34.4 0-52.1 19-51.7 42.5 0.3 21.1 12.2 31.7 18.7 36.7 3.2 2.4 1.6 15.3 1.6 15.3h19.3c0 0 0-8.5 1-10 1.2-1.6 10.7-1.4 11.9-0.1 1.7 1.9 1 10.1 1 10.1h19.8c0 0-0.8-9.9 1.6-13.1 2.5-3.4 18.6-1.7 25.3-27.6 0.6-2.3 9.5-1 9.5-1z"/><path class="d" d="m652.5 236.4c0 0-8.4 2.1-9.2 0-8.1-20.3-24.4-31.4-48.8-31.4-34.4 0-52.1 19-51.7 42.5 0.3 21.1 12.2 31.7 18.7 36.7 3.2 2.4 1.6 15.3 1.6 15.3h19.3c0 0 0-8.5 1-10 1.2-1.6 10.7-1.4 11.9-0.1 1.7 1.9 1 10.1 1 10.1h19.8c0 0-0.8-9.9 1.6-13.1 2.5-3.4 18.6-1.7 25.3-27.6 0.6-2.3 9.5-1 9.5-1z"/><path class="k" d="m628.1 233.4c0 2.2-1.7 3.9-3.9 3.9-2.2 0-4-1.7-4-3.9 0-2.2 1.8-4 4-4 2.2 0 3.9 1.8 3.9 4z"/><path class="d" d="m575.7 213.3c3.1-1.1 10.8-3.4 20.8-1.7"/><g style="mix-blend-mode:multiply"><path class="i" d="m569.1 296.4c0 0 1.6-12.9-1.6-15.3-6.5-5-18.4-15.6-18.7-36.7-0.3-13.9 5.8-26.2 18-34-16.1 7.3-24.3 21.2-24 37.2 0.4 21.1 12.2 31.7 18.8 36.7 3.1 2.4 1.6 15.3 1.6 15.3h19.2c0 0 0-1.4 0.1-3.2z"/></g><g style="mix-blend-mode:multiply"><path class="i" d="m602.3 296.4c0 0 0.9-11.5-13.5-7.9 2.9-0.1 5.9 0.3 6.6 1 1.7 1.9 0.9 10.1 0.9 10.1h19.8c0 0-0.1-1.3-0.1-3.2z"/></g><path class="n" d="m656.2 246.9c0 6-1.7 10.9-3.7 10.9-2.1 0-3.8-4.9-3.8-10.9 0-6 1.7-10.8 3.8-10.8 2 0 3.7 4.8 3.7 10.8z"/><path class="d" d="m656.2 246.9c0 6-1.7 10.9-3.7 10.9-2.1 0-3.8-4.9-3.8-10.9 0-6 1.7-10.8 3.8-10.8 2 0 3.7 4.8 3.7 10.8z"/><g style="mix-blend-mode:multiply"><path class="o" d="m654.6 255.3c-2 0-3.7-4.8-3.7-10.8 0-3.3 0.5-6.2 1.3-8.2-1.9 0.4-3.4 5.1-3.4 10.8 0 6 1.7 10.8 3.7 10.8 0.9 0 1.8-1 2.4-2.6q-0.1 0-0.3 0z"/></g><path class="c" d="m211.9 431.5c0 43.1-34.9 78.1-78 78.1-43.1 0-78.1-35-78.1-78.1 0-43.1 35-78 78.1-78 43.1 0 78 34.9 78 78z"/><path class="d" d="m211.9 431.5c0 43.1-34.9 78.1-78 78.1-43.1 0-78.1-35-78.1-78.1 0-43.1 35-78 78.1-78 43.1 0 78 34.9 78 78z"/><path class="p" d="m184.8 429.5c0 28.7-23.3 52-52 52-28.7 0-51.9-23.3-51.9-52 0-28.7 23.2-52 51.9-52 28.7 0 52 23.3 52 52z"/><path class="g" d="m184.8 429.5c0 28.7-23.3 52-52 52-28.7 0-51.9-23.3-51.9-52 0-28.7 23.2-52 51.9-52 28.7 0 52 23.3 52 52z"/><path class="q" d="m172.3 429.5c0 21.8-17.7 39.4-39.5 39.4-21.7 0-39.4-17.6-39.4-39.4 0-21.8 17.7-39.4 39.4-39.4 21.8 0 39.5 17.6 39.5 39.4z"/><path class="p" d="m134.2 425.4c-4-0.2-8.7-1.2-8.7-4.6 0-3.8 2.7-6 7.3-6 4 0 7.3 2.7 7.3 6h11.7c0-6.7-6-12.3-14-13.9v-4.5h-9.9v4.4c-8.4 1.4-14 6.8-14 14 0 7.2 7.6 12.3 19.4 13 5.7 0.3 6.8 1.9 6.8 4.6 0 2.7-3.4 6-7.3 6-4 0-7.3-2.7-7.3-6h-11.6c0 6.7 6 12.3 14 13.9v4.2h9.9v-4.2c7.8-1.8 14-7.5 14-13.9 0-7.7-6.4-12.4-17.6-13z"/><path class="r" d="m166.4 389.9c-6.6-5.3-11.2-7.4-11.2-7.4 0 0-56.1 79.1-59.5 83.3 2.4 2.4 6.3 5.5 9.2 7.4 1.9-3.2 61.5-83.3 61.5-83.3z"/><path class="r" d="m175.4 399.7c0 0-1.5-2.9-5-6.6 0 0-57 77.4-60.5 82.6 5.1 2.6 7.3 3 7.3 3z"/><path class="c" d="m774.6 431.5c0 43.1-35 78.1-78.1 78.1-43.1 0-78-35-78-78.1 0-43.1 34.9-78 78-78 43.1 0 78.1 34.9 78.1 78z"/><path class="d" d="m774.6 431.5c0 43.1-35 78.1-78.1 78.1-43.1 0-78-35-78-78.1 0-43.1 34.9-78 78-78 43.1 0 78.1 34.9 78.1 78z"/><path class="c" d="m746 481.2h-96.6v-98.3h96.6z"/><path class="d" d="m746 481.2h-96.6v-98.3h96.6z"/><path class="p" d="m668.4 418.8h-14.2v-4.2h14.2z"/><path class="g" d="m668.4 418.8h-14.2v-4.2h14.2z"/><path class="p" d="m686.4 418.8h-14.2v-4.2h14.2z"/><path class="g" d="m686.4 418.8h-14.2v-4.2h14.2z"/><path class="l" d="m704.4 418.8h-14.2v-4.2h14.2z"/><path class="l" d="m722.4 418.8h-14.2v-4.2h14.2z"/><path class="l" d="m740.4 418.8h-14.2v-4.2h14.2z"/><path class="f" d="m664.2 435.4h-9.7v-9.7h9.7z"/><path class="d" d="m664.2 435.4h-9.7v-9.7h9.7z"/><path class="f" d="m679.5 435.4h-9.7v-9.7h9.7z"/><path class="d" d="m679.5 435.4h-9.7v-9.7h9.7z"/><path class="f" d="m694.8 435.4h-9.7v-9.7h9.7z"/><path class="d" d="m694.8 435.4h-9.7v-9.7h9.7z"/><path class="l" d="m710.1 435.4h-9.6v-9.7h9.6z"/><path class="l" d="m725.4 435.4h-9.6v-9.7h9.6z"/><path class="l" d="m740.7 435.4h-9.6v-9.7h9.6z"/><path class="f" d="m664.2 448.4h-9.7v-9.7h9.7z"/><path class="d" d="m664.2 448.4h-9.7v-9.7h9.7z"/><path class="f" d="m679.5 448.4h-9.7v-9.7h9.7z"/><path class="d" d="m679.5 448.4h-9.7v-9.7h9.7z"/><path class="f" d="m694.8 448.4h-9.7v-9.7h9.7z"/><path class="d" d="m694.8 448.4h-9.7v-9.7h9.7z"/><path class="l" d="m710.1 448.4h-9.6v-9.7h9.6z"/><path class="l" d="m725.4 448.4h-9.6v-9.7h9.6z"/><path class="l" d="m740.7 448.4h-9.6v-9.7h9.6z"/><path class="f" d="m664.2 461.4h-9.7v-9.6h9.7z"/><path class="d" d="m664.2 461.4h-9.7v-9.6h9.7z"/><path class="f" d="m679.5 461.4h-9.7v-9.6h9.7z"/><path class="d" d="m679.5 461.4h-9.7v-9.6h9.7z"/><path class="f" d="m694.8 461.4h-9.7v-9.6h9.7z"/><path class="d" d="m694.8 461.4h-9.7v-9.6h9.7z"/><path class="l" d="m710.1 461.4h-9.6v-9.6h9.6z"/><path class="l" d="m725.4 461.4h-9.6v-9.6h9.6z"/><path class="l" d="m740.7 461.4h-9.6v-9.6h9.6z"/><path class="l" d="m664.2 474.4h-9.7v-9.6h9.7z"/><path class="l" d="m679.5 474.4h-9.7v-9.6h9.7z"/><path class="l" d="m694.8 474.4h-9.7v-9.6h9.7z"/><path class="l" d="m710.1 474.4h-9.6v-9.6h9.6z"/><path class="l" d="m725.4 474.4h-9.6v-9.6h9.6z"/><path class="l" d="m740.7 474.4h-9.6v-9.6h9.6z"/><g style="mix-blend-mode:multiply"><path class="s" d="m654.2 416.5v2.3h14.2v-2.3z"/><path class="s" d="m672.2 416.5v2.3h14.2v-2.3z"/><path class="t" d="m690.2 416.5v2.3h14.2v-2.3z"/><path class="t" d="m708.2 416.5v2.3h14.2v-2.3z"/><path class="t" d="m726.2 416.5v2.3h14.2v-2.3z"/></g><g style="mix-blend-mode:multiply"><path class="u" d="m654.5 430.5v4.9h9.7v-4.9z"/></g><g style="mix-blend-mode:multiply"><path class="u" d="m669.8 430.5v4.9h9.7v-4.9z"/></g><g style="mix-blend-mode:multiply"><path class="u" d="m685.1 430.5v4.9h9.7v-4.9z"/></g><g style="mix-blend-mode:multiply"><path class="t" d="m700.5 430.5v4.9h9.6v-4.9z"/></g><g style="mix-blend-mode:multiply"><path class="t" d="m715.8 430.5v4.9h9.6v-4.9z"/></g><g style="mix-blend-mode:multiply"><path class="t" d="m731.1 430.5v4.9h9.6v-4.9z"/></g><g style="mix-blend-mode:multiply"><path class="u" d="m654.5 443.9v4.5h9.7v-4.5z"/></g><g style="mix-blend-mode:multiply"><path class="u" d="m669.8 443.9v4.5h9.7v-4.5z"/></g><g style="mix-blend-mode:multiply"><path class="u" d="m685.1 443.9v4.5h9.7v-4.5z"/></g><g style="mix-blend-mode:multiply"><path class="t" d="m700.5 443.9v4.5h9.6v-4.5z"/></g><g style="mix-blend-mode:multiply"><path class="t" d="m715.8 443.9v4.5h9.6v-4.5z"/></g><g style="mix-blend-mode:multiply"><path class="t" d="m731.1 443.9v4.5h9.6v-4.5z"/></g><g style="mix-blend-mode:multiply"><path class="u" d="m654.5 456.7v4.7h9.7v-4.7z"/></g><g style="mix-blend-mode:multiply"><path class="u" d="m669.8 456.7v4.7h9.7v-4.7z"/></g><g style="mix-blend-mode:multiply"><path class="u" d="m685.1 456.7v4.7h9.7v-4.7z"/></g><g style="mix-blend-mode:multiply"><path class="t" d="m700.5 456.7v4.7h9.6v-4.7z"/></g><g style="mix-blend-mode:multiply"><path class="t" d="m715.8 456.7v4.7h9.6v-4.7z"/></g><g style="mix-blend-mode:multiply"><path class="t" d="m731.1 456.7v4.7h9.6v-4.7z"/></g><g style="mix-blend-mode:multiply"><path class="t" d="m654.5 469.9v4.5h9.7v-4.5z"/></g><g style="mix-blend-mode:multiply"><path class="t" d="m669.8 469.9v4.5h9.7v-4.5z"/></g><g style="mix-blend-mode:multiply"><path class="t" d="m685.1 469.9v4.5h9.7v-4.5z"/></g><g style="mix-blend-mode:multiply"><path class="t" d="m700.5 469.9v4.5h9.6v-4.5z"/></g><g style="mix-blend-mode:multiply"><path class="t" d="m715.8 469.9v4.5h9.6v-4.5z"/></g><g style="mix-blend-mode:multiply"><path class="t" d="m731.1 469.9v4.5h9.6v-4.5z"/></g><g style="mix-blend-mode:multiply"><path class="h" d="m736.8 382.9c0.6 6.9 0.3 13.9 0.1 20.9-0.2 8.2-0.2 16.5-0.2 24.7 0 8.2 0 16.5-0.1 24.7-0.1 3.8-0.2 7.7-0.2 11.5 0.1 1.9 0 5.1-1 6.1-1.6 1.6-7.6 2.1-18 2.3-7.8 0.1-52.2 0-68 0v8.1h96.6v-98.3z"/></g><path class="j" d="m746 409v-26.1h-96.6v26.1z"/><path class="d" d="m746 409v-26.1h-96.6v26.1z"/><path class="l" d="m740.9 405.3v-18.7h-86.5v18.7z"/><g style="mix-blend-mode:multiply"><path class="v" d="m737.3 382.9c0 0.9 0.9 10.1-0.1 13.6-0.9 3.2-3.6 4.4-6.8 4.6-4.5 0.3-9 0.4-13.6 0.4 0 0-65.3-0.9-67.4-0.9v8.4h96.6v-26.1z"/></g><path class="c" d="m673.8 614.3c0 43.1-34.9 78-78 78-43.2 0-78.1-34.9-78.1-78 0-43.1 34.9-78 78.1-78 43.1 0 78 34.9 78 78z"/><path class="d" d="m673.8 614.3c0 43.1-34.9 78-78 78-43.2 0-78.1-34.9-78.1-78 0-43.1 34.9-78 78.1-78 43.1 0 78 34.9 78 78z"/><path class="f" d="m623 658.7c-0.4 1.9-2.2 3.1-4 2.7l-69.5-14.9c-1.8-0.4-3-2.2-2.6-4.1l12-55.8c0.4-1.8 2.2-3 4-2.6l69.5 14.9c1.8 0.4 3 2.2 2.6 4z"/><path class="d" d="m623 658.7c-0.4 1.9-2.2 3.1-4 2.7l-69.5-14.9c-1.8-0.4-3-2.2-2.6-4.1l12-55.8c0.4-1.8 2.2-3 4-2.6l69.5 14.9c1.8 0.4 3 2.2 2.6 4z"/><path class="n" d="m652.7 616.5h-83.6v-42.6l83.5-0.1z"/><path class="d" d="m652.7 616.5h-83.6v-42.6l83.5-0.1z"/><path class="l" d="m646.2 587.6c-3.8 0-6.9-3.1-6.9-6.8q0-1.3 0.4-2.3h-57.2q0.4 1 0.4 2.2c0 3.8-3 6.8-6.8 6.8-1.2 0.1-2.3-0.2-3.2-0.8v16.5c0.9-0.5 2-0.8 3.2-0.8 3.8 0 6.8 3 6.8 6.8q0 1.5-0.5 2.7h57.5q-0.6-1.2-0.6-2.7c0-3.7 3.1-6.8 6.9-6.8q1.4 0 2.7 0.6v-16q-1.3 0.6-2.7 0.6z"/><path class="n" d="m631.3 587.8l-12.9 0.1c-2-2.4-5-3.8-8.2-3.8-3.3 0-6.3 1.4-8.3 3.8h-12.9c-3.9 0-7.1 3.1-7.1 7.1 0 3.9 3.2 7.1 7.1 7.1h12.9c2 2.3 5 3.7 8.3 3.7 3.3 0 6.2-1.4 8.2-3.8h12.9c3.9 0 7.1-3.1 7.1-7.1 0-3.9-3.2-7.1-7.1-7.1z"/><path class="d" d="m631.3 587.8l-12.9 0.1c-2-2.4-5-3.8-8.2-3.8-3.3 0-6.3 1.4-8.3 3.8h-12.9c-3.9 0-7.1 3.1-7.1 7.1 0 3.9 3.2 7.1 7.1 7.1h12.9c2 2.3 5 3.7 8.3 3.7 3.3 0 6.2-1.4 8.2-3.8h12.9c3.9 0 7.1-3.1 7.1-7.1 0-3.9-3.2-7.1-7.1-7.1z"/><path class="l" d="m618.4 594.8c0 4.5-3.6 8.1-8 8.1-4.5 0-8.1-3.6-8.1-8 0-4.5 3.6-8.1 8.1-8.1 4.4 0 8 3.6 8 8z"/><g style="mix-blend-mode:multiply"><path fill-rule="evenodd" class="w" d="m618.4 594.8c0 4.5-3.6 8.1-8 8.1-4.5 0-8.1-3.6-8.1-8 0-4.5 3.6-8.1 8.1-8.1 4.4 0 8 3.6 8 8zm-2.9 0c0-2.8-2.3-5.1-5.1-5.1-2.8 0-5.1 2.3-5.1 5.2 0 2.8 2.3 5.1 5.1 5.1 2.8 0 5.1-2.3 5.1-5.2z"/></g><path class="l" d="m638.3 594.8c0 3.8-3 6.8-6.8 6.8-3.7 0.1-6.8-3-6.8-6.8 0-3.7 3-6.8 6.8-6.8 3.8 0 6.8 3.1 6.8 6.8z"/><path class="k" d="m631.8 594.1c-0.6 0-1.4-0.2-1.4-0.7 0-0.6 0.5-1 1.2-1 0.7 0 1.2 0.5 1.2 1h1.9c0-1.1-1-2-2.3-2.3v-0.7h-1.6v0.7c-1.4 0.2-2.3 1.1-2.3 2.3 0 1.2 1.3 2 3.2 2.1 0.9 0.1 1.1 0.3 1.1 0.8 0 0.4-0.6 0.9-1.2 0.9-0.6 0-1.2-0.4-1.2-0.9h-1.9c0 1 1 2 2.3 2.2v0.7h1.6v-0.7c1.3-0.3 2.3-1.2 2.3-2.2 0-1.3-1.1-2.1-2.9-2.2z"/><path class="l" d="m595.6 594.8c0 3.8-3.1 6.8-6.8 6.8-3.8 0-6.8-3-6.8-6.8 0-3.8 3-6.8 6.8-6.8 3.7 0 6.8 3 6.8 6.8z"/><path class="k" d="m589.1 594.1c-0.7 0-1.4-0.2-1.4-0.8 0-0.6 0.4-0.9 1.2-0.9 0.6 0 1.2 0.4 1.2 0.9h1.9c0-1-1-2-2.3-2.2v-0.7h-1.6v0.7c-1.4 0.2-2.3 1.1-2.3 2.2 0 1.2 1.2 2.1 3.1 2.2 1 0 1.2 0.3 1.2 0.7 0 0.4-0.6 1-1.2 1-0.7 0-1.2-0.5-1.2-1h-1.9c0 1.1 1 2 2.3 2.3v0.7h1.6v-0.7c1.3-0.3 2.3-1.3 2.3-2.3 0-1.2-1.1-2-2.9-2.1z"/><g style="mix-blend-mode:multiply"><path class="x" d="m644.7 573.8c-0.1 4.8 0.9 26.5-0.3 31.3-0.6 2.6-2.3 4.1-5.1 4.3-4.5 0.4-59.3-0.4-70.2-0.4v7.5h83.6l-0.1-42.7z"/></g><path class="f" d="m616.7 661.9c-0.4 1.8-2.2 3-4 2.6l-69.5-14.9c-1.8-0.4-3-2.2-2.6-4l12-55.9c0.3-1.8 2.2-3 4-2.6l69.4 14.9c1.9 0.4 3.1 2.2 2.7 4z"/><path class="d" d="m616.7 661.9c-0.4 1.8-2.2 3-4 2.6l-69.5-14.9c-1.8-0.4-3-2.2-2.6-4l12-55.9c0.3-1.8 2.2-3 4-2.6l69.4 14.9c1.9 0.4 3.1 2.2 2.7 4z"/><path class="f" d="m629.1 640.5c-0.3 1.3-1.4 2.2-2.4 2l-27.3-5.9c-1.1-0.2-1.7-1.4-1.4-2.7l2-9.2c0.2-1.4 1.3-2.2 2.4-2l27.2 5.8c1.1 0.3 1.7 1.5 1.4 2.8z"/><path class="d" d="m629.1 640.5c-0.3 1.3-1.4 2.2-2.4 2l-27.3-5.9c-1.1-0.2-1.7-1.4-1.4-2.7l2-9.2c0.2-1.4 1.3-2.2 2.4-2l27.2 5.8c1.1 0.3 1.7 1.5 1.4 2.8z"/><path class="y" d="m611.4 631.9c-0.6 2.5-3.1 4.2-5.6 3.6-2.6-0.5-4.2-3-3.6-5.6 0.5-2.5 3-4.1 5.5-3.6 2.6 0.6 4.2 3.1 3.7 5.6z"/><path class="c" d="m296.4 608.2c0 43.2-35 78.1-78.1 78.1-43.1 0-78-34.9-78-78.1 0-43.1 34.9-78 78-78 43.1 0 78.1 34.9 78.1 78z"/><path class="d" d="m296.4 608.2c0 43.2-35 78.1-78.1 78.1-43.1 0-78-34.9-78-78.1 0-43.1 34.9-78 78-78 43.1 0 78.1 34.9 78.1 78z"/><path class="l" d="m256.2 632.9c5.3 30.3-18.8 33.3-38.2 33.3-19.4 0-40.9-5.9-36.4-34.9 3-19.7 14.3-52.7 36.6-52.7 22.2 0 34.6 34.7 38 54.3z"/><g style="mix-blend-mode:multiply"><path class="z" d="m256.2 632.9c-3.2-18-13.8-48.8-32.8-53.6q0.5 0.7 0.9 1.5c4.1 7.1 8.1 14.4 11 22 4.9 12.8 7.4 27.6 1.9 40.7-4.8 11.6-15.4 18.4-27.7 19.4-5.3 0.5-11.1 0-16.3-1.8 7 3.9 16.1 5.1 24.8 5.1 19.4 0 43.5-3 38.2-33.3z"/></g><path class="l" d="m210.4 579.7c0 0-13.8-9.8-11.8-26.8 2.5-20.1 15.2 11.9 32.3-5.9 11.9-12.4 5.5 27.9-5.3 32.6z"/><g style="mix-blend-mode:multiply"><path class="z" d="m234 544.7c0 7.4-0.5 15.6-5.2 21.3-5.7 7-16 9.8-24.6 7.4 3.1 4.1 6.2 6.3 6.2 6.3l15.2-0.1c9.7-4.2 15.9-37.1 8.4-34.9z"/></g><path class="p" d="m232.1 580.6c0 1-0.8 1.9-1.9 1.9h-25.7c-1 0-1.9-0.9-1.9-1.9v-2.6c0-1.1 0.9-1.9 1.9-1.9h25.7c1.1 0 1.9 0.8 1.9 1.9z"/><path class="g" d="m232.1 580.6c0 1-0.8 1.9-1.9 1.9h-25.7c-1 0-1.9-0.9-1.9-1.9v-2.6c0-1.1 0.9-1.9 1.9-1.9h25.7c1.1 0 1.9 0.8 1.9 1.9z"/><path class="q" d="m220.3 620c-3.7-0.2-8.1-1.1-8.1-4.3 0-3.6 2.5-5.6 6.8-5.6 3.8 0 6.8 2.5 6.8 5.6h11c0-6.3-5.6-11.5-13.2-13.1v-4.1h-9.2v4c-7.9 1.4-13.2 6.4-13.2 13.2 0 6.8 7.2 11.6 18.2 12.2 5.4 0.3 6.4 1.8 6.4 4.3 0 2.5-3.1 5.6-6.8 5.6-3.8 0-6.8-2.5-6.8-5.6h-11c0 6.3 5.6 11.5 13.2 13.1v3.9h9.2v-4c7.4-1.6 13.2-7 13.2-13 0-7.2-6-11.6-16.5-12.2z"/><path class="c" d="m486.7 681.4c0 43.1-34.9 78-78 78-43.1 0-78.1-34.9-78.1-78 0-43.1 35-78.1 78.1-78.1 43.1 0 78 35 78 78.1z"/><path class="d" d="m486.7 681.4c0 43.1-34.9 78-78 78-43.1 0-78.1-34.9-78.1-78 0-43.1 35-78.1 78.1-78.1 43.1 0 78 35 78 78.1z"/><path class="p" d="m452.3 731.8h-88.7v-65.4h88.7z"/><path class="g" d="m452.3 731.8h-88.7v-65.4h88.7z"/><path class="n" d="m452.1 665.7h-88.7l44.6-38.3z"/><path class="d" d="m452.1 665.7h-88.7l44.6-38.3z"/><g style="mix-blend-mode:multiply"><path class="x" d="m441 665.7c-7.4-7.6-14.9-15.2-23.3-21.5-4.5-3.4-9.6-7.1-15.4-7.6-1.7-0.2-3.4-0.2-5.1 0.1l10.8-9.3 44.1 38.3z"/></g><path class="c" d="m441 708.6h-66.9v-84.8h58.1l8.8 9z"/><path class="d" d="m441 708.6h-66.9v-84.8h58.1l8.8 9z"/><g style="mix-blend-mode:multiply"><path class="A" d="m437.7 629.5c0 1.4 0.3 56.2 0.2 61 0 2.4 0.2 10.9-0.4 12.7-0.4 1-1.1 1.7-2.3 1.9-1.7 0.2-42.5 0.2-61.1 0.2v3.3h66.9v-75.8z"/></g><path class="B" d="m435 676.2h-54.8v-3.5h54.8z"/><path class="d" d="m435 676.2h-54.8v-3.5h54.8z"/><path class="B" d="m435 684.3h-54.8v-3.5h54.8z"/><path class="d" d="m435 684.3h-54.8v-3.5h54.8z"/><path class="B" d="m435 692.3h-54.8v-3.5h54.8z"/><path class="d" d="m435 692.3h-54.8v-3.5h54.8z"/><path class="B" d="m435 700.4h-54.8v-3.6h54.8z"/><path class="d" d="m435 700.4h-54.8v-3.6h54.8z"/><g style="mix-blend-mode:multiply"><path class="z" d="m380.2 674.7v1.5h54.8v-1.5z"/><path class="z" d="m380.2 682.8v1.5h54.8v-1.5z"/><path class="z" d="m380.2 690.7v1.6h54.8v-1.6z"/><path class="z" d="m380.2 698.6v1.8h54.8v-1.8z"/></g><path class="d" d="m434.5 668.7h-53.9v-20.7h53.9z"/><path class="d" d="m400.4 650.4v17.9"/><path class="j" d="m434.5 652.5h-53.9v-4.6h53.9z"/><path class="d" d="m434.5 652.5h-53.9v-4.6h53.9z"/><g style="mix-blend-mode:multiply"><path class="C" d="m380.6 650.1v2.4h53.9v-2.4z"/></g><path class="j" d="m400.9 642.9h-17.5v-0.9h17.5z"/><path class="j" d="m400.9 633.6h-17.5v-0.9h17.5z"/><path fill-rule="evenodd" class="j" d="m394.5 640.8c0.1 0.3-0.1 0.7-0.4 0.8-0.3 0.1-0.6 0-0.7-0.3l-0.9-2.1h-2.9l-0.8 2.1c-0.1 0.2-0.3 0.4-0.6 0.4q-0.1 0-0.2-0.1c-0.3-0.1-0.4-0.5-0.3-0.8l1-2.4q0 0 0 0l1.6-4c0.1-0.2 0.3-0.3 0.6-0.3h0.4c0.2 0 0.5 0.1 0.6 0.3l1.6 4zm-2.5-2.8l-0.9-2.3-1 2.3z"/><path class="j" d="m400.5 634.2c-0.3-0.2-0.7-0.2-0.9 0.1l-1.8 2.5-1.7-2.5c-0.2-0.3-0.6-0.3-0.9-0.1-0.3 0.1-0.3 0.5-0.2 0.8l2 2.9-2.1 2.8c-0.2 0.3-0.1 0.7 0.1 0.9q0.2 0.1 0.4 0.1c0.2 0 0.4-0.1 0.5-0.3l1.8-2.5 1.7 2.5c0.1 0.2 0.3 0.3 0.5 0.3q0.2 0 0.3-0.1c0.3-0.2 0.4-0.6 0.2-0.9l-1.9-2.8 2.1-2.9c0.2-0.3 0.1-0.6-0.1-0.8z"/><path class="j" d="m388.3 635.3c0.3 0 0.6-0.2 0.6-0.6 0-0.3-0.3-0.6-0.6-0.6h-4.2c-0.4 0-0.6 0.3-0.6 0.6 0 0.4 0.2 0.6 0.6 0.6h1.5v5.7c0 0.3 0.2 0.6 0.6 0.6 0.3 0 0.6-0.3 0.6-0.6v-5.7z"/><path class="l" d="m430.9 641.7h-26.5v-5.9h26.5z"/><g style="mix-blend-mode:multiply"><path class="z" d="m404.4 639.1v2.6h26.5v-2.6z"/></g><path class="D" d="m432.2 623.7l-0.1 9.1h8.9z"/><path class="d" d="m432.2 623.7l-0.1 9.1h8.9z"/><path class="p" d="m363.6 731.8h88.7l-44.4-32.8z"/><path class="g" d="m363.6 731.8h88.7l-44.4-32.8z"/><path class="p" d="m363.6 666.4v65.4l44.3-32.7z"/><path class="g" d="m363.6 666.4v65.4l44.3-32.7z"/><path class="p" d="m452.1 666.4v65.4l-44.2-32.7z"/><path class="g" d="m452.1 666.4v65.4l-44.2-32.7z"/><g style="mix-blend-mode:multiply"><path class="E" d="m444.9 671.3c0 1.9 0.3 39.8 0 43.1-0.4 3.9-2.1 7.2-6.1 8.4-4.1 1.3-61.2 0.3-75.2 0.2v8.8h88.7v-65.4l-3.6 2.3z"/></g><path class="c" d="m524.1 556.6h-220.1v-279.2h191.2l28.9 29.7z"/><path class="d" d="m524.1 556.6h-220.1v-279.2h191.2l28.9 29.7z"/><g style="mix-blend-mode:multiply"><path class="A" d="m513.3 296.2c-0.1 4.6 0.9 185 0.7 201 0 7.6 0.7 35.7-1.6 41.5-1.3 3.6-3.6 5.7-7.3 6.3-5.8 0.9-140 0.7-201.1 0.7v10.9h220.1v-249.5z"/></g><path class="D" d="m495 277.3l-0.1 29.7 29.2 0.1z"/><path class="d" d="m495 277.3l-0.1 29.7 29.2 0.1z"/><path class="j" d="m486 342.9h-151.2v-2.8h151.2z"/><path class="j" d="m486 309h-151.2v-2.9h151.2z"/><path class="d" d="m500.1 450.1h-177.5v-88.6h177.5z"/><path class="d" d="m387.7 369.2v80.8"/><path class="j" d="m500.1 376.2h-177.6v-15.3h177.6z"/><path class="d" d="m500.1 376.2h-177.6v-15.3h177.6z"/><g style="mix-blend-mode:multiply"><path class="C" d="m322.5 368.4v7.8h177.6v-7.8z"/></g><path class="d" d="m323 399h176.7"/><path class="d" d="m323 423.9h176.7"/><path class="B" d="m413.1 471.9h-84.3v-9.6h84.3z"/><path class="d" d="m413.1 471.9h-84.3v-9.6h84.3z"/><g style="mix-blend-mode:multiply"><path class="z" d="m328.8 467.6v4.3h84.3v-4.3z"/></g><path class="B" d="m413.1 491h-84.3v-9.5h84.3z"/><path class="d" d="m413.1 491h-84.3v-9.5h84.3z"/><g style="mix-blend-mode:multiply"><path class="z" d="m328.8 486.9v4.1h84.3v-4.1z"/></g><path class="B" d="m413.1 510.2h-84.3v-9.6h84.3z"/><path class="d" d="m413.1 510.2h-84.3v-9.6h84.3z"/><g style="mix-blend-mode:multiply"><path class="z" d="m328.8 506v4.2h84.3v-4.2z"/></g><path class="B" d="m493.9 529.4h-165.1v-9.6h165.1z"/><path class="d" d="m493.9 529.4h-165.1v-9.6h165.1z"/><g style="mix-blend-mode:multiply"><path class="z" d="m328.8 525.2v4.2h165.1v-4.2z"/></g><path class="B" d="m439.9 480.1h-17.4v-17.3h17.4z"/><path class="d" d="m439.9 480.1h-17.4v-17.3h17.4z"/><path class="B" d="m466.3 480.1h-17.3v-17.3h17.3z"/><path class="d" d="m466.3 480.1h-17.3v-17.3h17.3z"/><path class="B" d="m492.8 480.1h-17.3v-17.3h17.3z"/><path class="d" d="m492.8 480.1h-17.3v-17.3h17.3z"/><g style="mix-blend-mode:multiply"><path class="z" d="m422.5 472v8.1h17.4v-8.1z"/><path class="z" d="m449 472v8.1h17.3v-8.1z"/><path class="z" d="m475.5 472v8.1h17.3v-8.1z"/></g><path class="B" d="m439.9 509.3h-17.4v-17.3h17.4z"/><path class="d" d="m439.9 509.3h-17.4v-17.3h17.4z"/><path class="B" d="m466.3 509.3h-17.3v-17.3h17.3z"/><path class="d" d="m466.3 509.3h-17.3v-17.3h17.3z"/><path class="B" d="m492.8 509.3h-17.3v-17.3h17.3z"/><path class="d" d="m492.8 509.3h-17.3v-17.3h17.3z"/><g style="mix-blend-mode:multiply"><path class="z" d="m422.5 500.9v8.4h17.4v-8.4z"/><path class="z" d="m449 500.9v8.4h17.3v-8.4z"/><path class="z" d="m475.5 500.9v8.4h17.3v-8.4z"/></g><path fill-rule="evenodd" class="j" d="m372.1 334.2c0.4 1-0.1 2.2-1.1 2.6-1 0.4-2.1-0.1-2.6-1.1l-2.7-6.7h-9.5l-2.7 6.7c-0.3 0.8-1.1 1.2-1.9 1.2q-0.3 0-0.7-0.1c-1-0.4-1.5-1.6-1.1-2.6l3.3-8q0 0 0 0l5.3-13c0.3-0.8 1-1.2 1.8-1.2h1.5c0.8 0 1.5 0.4 1.8 1.2l5.4 13q0 0 0 0zm-8.1-9.2l-3.1-7.5-3.1 7.5z"/><path class="j" d="m391.9 312.3c-0.9-0.7-2.1-0.5-2.8 0.4l-6.1 8.4-5.7-8.4c-0.6-0.9-1.8-1.1-2.7-0.5-0.9 0.6-1.2 1.9-0.6 2.8l6.5 9.5-6.9 9.3c-0.7 0.9-0.5 2.2 0.4 2.8q0.6 0.4 1.2 0.4c0.6 0 1.2-0.3 1.6-0.8l6-8.2 5.6 8.1c0.3 0.6 1 0.9 1.6 0.9q0.6 0 1.1-0.3c0.9-0.6 1.2-1.9 0.5-2.8l-6.3-9.3 7-9.6c0.7-0.9 0.5-2.1-0.4-2.7z"/><path class="j" d="m351.7 316.1c1.1 0 2-0.9 2-2 0-1.1-0.9-2-2-2h-13.8c-1.1 0-2 0.9-2 2 0 1.1 0.9 2 2 2h4.9v18.5c0 1.1 0.9 2 2 2 1.1 0 2-0.9 2-2v-18.5z"/><path class="c" d="m484.6 569.3h-170.3v-216.2h148l22.3 23z"/><path class="d" d="m484.6 569.3h-170.3v-216.2h148l22.3 23z"/><g style="mix-blend-mode:multiply"><path class="A" d="m476.3 367.7c0 3.5 0.7 143.2 0.6 155.6-0.1 5.9 0.5 27.7-1.2 32.2-1.1 2.7-2.8 4.3-5.7 4.8-4.5 0.7-108.4 0.5-155.7 0.6v8.4h170.3v-193.2z"/></g><path class="B" d="m469.3 486.8h-139.7v-8.9h139.7z"/><path class="d" d="m469.3 486.8h-139.7v-8.9h139.7z"/><path class="B" d="m469.3 507.3h-139.7v-8.9h139.7z"/><path class="d" d="m469.3 507.3h-139.7v-8.9h139.7z"/><path class="B" d="m469.3 527.8h-139.7v-8.9h139.7z"/><path class="d" d="m469.3 527.8h-139.7v-8.9h139.7z"/><path class="B" d="m469.3 548.3h-139.7v-9h139.7z"/><path class="d" d="m469.3 548.3h-139.7v-9h139.7z"/><g style="mix-blend-mode:multiply"><path class="z" d="m329.6 482.9v3.9h139.7v-3.9z"/><path class="z" d="m329.6 503.5v3.8h139.7v-3.8z"/><path class="z" d="m329.6 523.6v4.2h139.7v-4.2z"/><path class="z" d="m329.6 543.7v4.6h139.7v-4.6z"/></g><path class="d" d="m468.2 467.6h-137.4v-52.6h137.4z"/><path class="d" d="m381.2 420.9v45.7"/><path class="j" d="m468.2 426.4h-137.5v-11.9h137.5z"/><path class="d" d="m468.2 426.4h-137.5v-11.9h137.5z"/><g style="mix-blend-mode:multiply"><path class="C" d="m330.7 420.3v6.1h137.5v-6.1z"/></g><path class="j" d="m382.4 401.9h-44.5v-2.3h44.5z"/><path class="j" d="m382.4 378.1h-44.5v-2.2h44.5z"/><path fill-rule="evenodd" class="j" d="m366.1 396.6c0.3 0.8-0.1 1.7-0.8 2-0.8 0.3-1.7-0.1-2.1-0.9l-2.1-5.2h-7.3l-2.1 5.2c-0.3 0.6-0.9 1-1.5 1q-0.3 0-0.5-0.1c-0.8-0.3-1.2-1.2-0.9-2l2.5-6.2q0 0 0 0l4.2-10.1c0.2-0.5 0.8-0.9 1.4-0.9h1.1c0.6 0 1.2 0.4 1.4 0.9l4.2 10.1zm-6.3-7.1l-2.4-5.9-2.4 5.9z"/><path class="j" d="m381.4 379.6c-0.7-0.5-1.7-0.4-2.2 0.3l-4.7 6.5-4.4-6.4c-0.5-0.7-1.4-0.9-2.1-0.4-0.7 0.4-0.9 1.4-0.4 2.1l5 7.4-5.4 7.2c-0.5 0.7-0.3 1.7 0.4 2.2q0.4 0.3 0.9 0.3c0.5 0 0.9-0.2 1.2-0.7l4.7-6.3 4.3 6.3c0.3 0.4 0.7 0.7 1.2 0.7q0.5 0 0.9-0.3c0.7-0.5 0.9-1.4 0.4-2.1l-4.9-7.3 5.4-7.3c0.5-0.7 0.4-1.7-0.3-2.2z"/><path class="j" d="m350.3 382.6c0.9 0 1.6-0.7 1.6-1.5 0-0.9-0.7-1.6-1.6-1.6h-10.7c-0.8 0-1.5 0.7-1.5 1.6 0 0.8 0.7 1.5 1.5 1.5h3.8v14.3c0 0.9 0.7 1.6 1.6 1.6 0.8 0 1.5-0.7 1.5-1.6v-14.3z"/><path class="l" d="m458.9 398.8h-67.4v-15.1h67.4z"/><g style="mix-blend-mode:multiply"><path class="z" d="m391.5 392.2v6.6h67.4v-6.6z"/></g><path class="D" d="m462.1 353v23l22.5 0.1z"/><path class="d" d="m462.1 353v23l22.5 0.1z"/></svg>