<svg version="1.2" xmlns="http://www.w3.org/2000/svg" viewBox="0 0 1330 1038" width="1330" height="1038"><defs><linearGradient id="P" gradientUnits="userSpaceOnUse"/><linearGradient id="g1" x2="1" href="#P" gradientTransform="matrix(308.785,0,0,308.787,879.328,455.283)"><stop stop-color="#96cbff"/><stop offset="1" stop-color="#59f"/></linearGradient><linearGradient id="g2" x2="1" href="#P" gradientTransform="matrix(229.369,-23.564,23.564,229.369,261.19,305.244)"><stop stop-color="#96cbff"/><stop offset="1" stop-color="#59f"/></linearGradient><clipPath clipPathUnits="userSpaceOnUse" id="cp1"><path d="m166.84 661.57v9.76h616.24v-9.76z"/></clipPath><clipPath clipPathUnits="userSpaceOnUse" id="cp2"><path d="m699.33 726.98l1.07-0.51-4.84-10.26-2.72 1.27 4.11 8.71c0.45 0.97 1.41 1.25 2.38 0.79z"/></clipPath><clipPath clipPathUnits="userSpaceOnUse" id="cp3"><path d="m689.27 718.44l10.68-1.99-1.74-8.75-10.59 2.41z"/></clipPath></defs><style>.a{display:none;fill:#fcfcfc}.b{fill:url(#g1)}.c{fill:url(#g2)}.d{fill:#64a4ff}.e{fill:#bbd070}.f{fill:#97a43c}.g{fill:#48753a}.h{fill:#dbd8e3}.i{fill:#323657}.j{fill:#eea987}.k{fill:#e8734d}.l{fill:#c4c1cc}.m{fill:#efaa88}.n{fill:#eea886}.o{fill:#16202e}.p{fill:#a77860}.q{fill:#4da8f2}.r{fill:#ffc955}.s{fill:#96cbff}.t{fill:#95caff}.u{fill:#94c9ff}.v{fill:#93c9ff}.w{fill:#92c8ff}.x{fill:#91c7ff}.y{fill:#90c6ff}.z{fill:#8fc6ff}.A{fill:#8ec5ff}.B{fill:#8dc4ff}.C{fill:#8cc3ff}.D{fill:#8bc2ff}.E{fill:#8ac2ff}.F{fill:#89c1ff}.G{fill:#88c0ff}.H{fill:#87bfff}.I{fill:#86bfff}.J{fill:#85beff}.K{fill:#84bdff}.L{fill:#83bcff}.M{fill:#82bbff}.N{fill:#81bbff}.O{fill:#80baff}.P{fill:#7fb9ff}.Q{fill:#7eb8ff}.R{fill:#7db7ff}.S{fill:#7cb7ff}.T{fill:#7bb6ff}.U{fill:#7ab5ff}.V{fill:#79b4ff}.W{fill:#78b4ff}.X{fill:#77b3ff}.Y{fill:#76b2ff}.Z{fill:#74b1ff}.a0{fill:#73b0ff}.a1{fill:#72b0ff}.a2{fill:#71afff}.a3{fill:#70aeff}.a4{fill:#6fadff}.a5{fill:#6eadff}.a6{fill:#6dacff}.a7{fill:#6cabff}.a8{fill:#6baaff}.a9{fill:#6aa9ff}.aa{fill:#69a9ff}.ab{fill:#68a8ff}.ac{fill:#67a7ff}.ad{fill:#66a6ff}.ae{fill:#65a6ff}.af{fill:#64a5ff}.ag{fill:#63a4ff}.ah{fill:#62a3ff}.ai{fill:#61a2ff}.aj{fill:#60a2ff}.ak{fill:#5fa1ff}.al{fill:#5ea0ff}.am{fill:#5d9fff}.an{fill:#5c9eff}.ao{fill:#5b9eff}.ap{fill:#5a9dff}.aq{fill:#599cff}.ar{fill:#589bff}.as{fill:#579bff}.at{fill:#569aff}.au{fill:#59f}.av{fill:#cfa345}.aw{fill:#6069a8}.ax{fill:#202338}.ay{fill:#464240}.az{fill:#eb4747}.aA{fill:#5f8cc9}.aB{fill:#5e5853}.aC{fill:#91887f}.aD{fill:#eddad3}.aE{fill:#6e6760}.aF{fill:#807066}.aG{fill:#ffcb55}.aH{fill:#cf8c6c}.aI{fill:#3b3f66}.aJ{fill:#555c94}.aK{fill:#354c70}.aL{fill:#deb135}.aM{fill:#f2c344}.aN{fill:#d9d0c4}.aO{fill:#ffd255}.aP{fill:#3c5780}.aQ{fill:#c48a6f}.aR{fill:#db9c7c}.aS{fill:#293b57}.aT{fill:#e3f2ff}.aU{fill:#ebebeb}.aV{fill:#162d40}.aW{fill:#1d3b54}.aX{fill:#d1c0ba}.aY{fill:#fae6de}.aZ{fill:#54281a}.b0{fill:#366e9c}.b1{fill:#5c544d}.b2{fill:#3c4145}.b3{fill:#fccca2}.b4{fill:#e2d2ca}.b5{fill:#f25f54}.b6{fill:#c98462}.b7{fill:#de9d7d}.b8{fill:#252e3b}.b9{fill:#5fa0ff}.ba{fill:#5189db}.bb{fill:#c2bebc}.bc{fill:#d6d6d6}.bd{fill:#e8e8e8}.be{fill:#c2c2c2}</style><path class="a" d="m1329.5 1038h-1329.5v-1037.2h1329.5z"/><path fill-rule="evenodd" class="b" d="m1161.8 699.9l-40.2 39.5-21.5-14.5c-10.9 6.2-22.4 10.8-34.2 13.8l-5.4 25.4-28.2-0.3-28.2-0.3-4.9-25.5c-11.8-3.1-23.2-7.9-34-14.4l-21.7 14.2-19.8-20.2-19.7-20.1 14.5-21.5c-6.2-10.8-10.8-22.3-13.8-34.2l-25.4-5.3 0.3-28.3 0.3-28.2 25.5-4.9c3.1-11.8 7.9-23.2 14.4-33.9l-14.2-21.8 20.2-19.7 20.1-19.8 21.5 14.6c10.8-6.3 22.3-10.9 34.2-13.8l5.3-25.4 28.3 0.2 28.2 0.3 4.9 25.5c11.8 3.2 23.2 8 33.9 14.4l21.8-14.1 19.7 20.1 19.8 20.1-14.6 21.5c6.3 10.9 10.9 22.4 13.8 34.2l25.4 5.4-0.2 28.2-0.3 28.2-25.5 4.9c-3.2 11.8-8 23.2-14.4 34zm-79.7-40.9c27.3-26.8 27.7-70.6 0.9-97.8-26.7-27.3-70.5-27.7-97.8-1-27.3 26.8-27.7 70.6-0.9 97.9 26.7 27.3 70.5 27.7 97.8 0.9z"/><path fill-rule="evenodd" class="c" d="m489.7 465.4l-13.4 16.2-13.5 16.2-17.1-9.1c-7.5 5.4-15.7 9.7-24.3 12.8l-2.1 19.3-20.9 1.9-21 2-5.6-18.6c-9-1.4-17.9-4.1-26.3-8.1l-15.1 12.2-16.2-13.5-16.2-13.4 9.2-17.1c-5.5-7.5-9.8-15.8-12.9-24.3l-19.3-2.1-1.9-21-2-20.9 18.6-5.6c1.4-9 4.1-17.9 8.1-26.3l-12.2-15.1 13.5-16.2 13.4-16.2 17.1 9.1c7.5-5.4 15.8-9.7 24.3-12.8l2.1-19.3 21-2 20.9-1.9 5.6 18.6c9 1.4 17.9 4.1 26.3 8.1l15.1-12.2 16.2 13.4 16.2 13.5-9.1 17.1c5.4 7.5 9.7 15.8 12.8 24.3l19.3 2.1 2 21 1.9 20.9-18.6 5.6c-1.4 9-4.1 17.9-8.1 26.3zm-62.3-24.2c18.3-22 15.2-54.6-6.7-72.8-22-18.2-54.6-15.2-72.8 6.8-18.2 22-15.2 54.5 6.8 72.7 22 18.3 54.5 15.2 72.7-6.7z"/><path class="d" d="m1100.1 874.7h-1.7v-125.8c0-27.9-22.8-50.7-50.8-50.7h-129.3c-29 0-52.5-23.5-52.5-52.5v-235c0-28-22.8-50.7-50.8-50.7h-329.8v-1.8h329.8c29 0 52.5 23.5 52.5 52.5v235c0 28 22.8 50.7 50.8 50.7h129.3c29 0 52.5 23.6 52.5 52.5z"/><path class="e" d="m569.7 278.5c0 0 20 79.5-27.9 101.3-48 21.7-38.8-18.1-38.8-18.1 0 0-19.6-5.4 33.9-35.8 25.2-14.3 32.8-47.4 32.8-47.4z"/><path class="f" d="m695.3 285.5c0 0 9.8 69.3-80.9 99.2-90.7 30-103.7 68-103.7 68 0 0-2.7-153.6 184.6-167.2z"/><path class="g" d="m510.3 424.5c-26.9-10.3 37.1-65.4 86.2-63.9 49.1 1.5 82.4 19.7 115.4 12 0 0-69.1 102.4-201.6 51.9z"/><path fill-rule="evenodd" class="h" d="m597.7 562.2c-2.5 10.4-2 34.7-2 34.7-0.7 23 1.9 46.6 2.5 59.8q0.1 0.6 0.1 1.2c0.2 3.2 0.4 6.5 0.6 9.8h-172.1q0.1-4.8 0.2-9.8c0.3-19.4 0.6-40.8 0.7-56-39.4-10.4-81.8-23.9-81-33.8 0.8-10.2 31.4-160.4 40-166.6 5.8-4.2 42.5-18.9 61.5-26.1 8.8-3.3 15.5-5.7 16.9-5.8 4.3-0.2 58 4.9 58 4.9 0 0 7.7 2.6 15.5 6.3 13.5 6.1 34.4 15.7 49.4 22.9 4.8 2.3 10.9 5.4 15.9 8.1q-0.9 27.3-3.2 58.7c0 0-2.8 45.6-3 91.7zm-170.6 17.4c-2.1-28.6-10.7-77.7-11.6-81.2-0.1 0-4.1 3.8-4.1 3.8 0 0-1.3 0.2-1.4 0.2 0-0.1-1.2 0.4-1.2 0.4 0 0-26 36.4-26.3 56-0.1 9.3 20.2 16 44.6 20.8z"/><path class="i" d="m603.9 657.9c-1.1-8.1-2.2-16.2-3.2-24.2q0-0.1 0-0.1-0.5-4-0.9-7.9 0-0.2-0.1-0.4c-1.2-11-2.3-21.5-3-31.2-0.6-7.4-0.1-14.6 0.9-21.7 3-49.3 4.5-101.3 4.5-101.3 1.6-21.2 2.5-41.1 3.1-59.7 0 0-67.4-31.8-73.5-33.6 0 0 12.8 30 22.4 97 3.7 25.8 10.5 69.2 15.5 113.4 2.6 23.9 7.7 48.2 11.5 69.7q0.9 5 1.6 9.8h22.6q-0.7-4.9-1.4-9.8z"/><path fill-rule="evenodd" class="i" d="m540.8 593.5c-5.1 12.1-22.8 41.9-22.8 41.9 0 0-12.7-3.1-31.5-7.9-1.3 10.6-2.5 20.6-3.7 30.4q-0.6 4.9-1.2 9.8l-62.7 0.2c0.2-4.2 1.3-6.2 2-9.5 4.1-18.1 2.9-35.5 3.3-47.8-44.9-12.9-89-27.3-88.3-34.1 1-10.2 34.8-167.7 43.3-173.8 5-3.6 41.6-16.6 59.6-23.6 3.3-1.3 14.5-5.6 17.4-6.7 3.9 4.3 30.1 33.3 39.4 142.9 1.2 13.6-1.2 38.5-3.9 63.4 27.3 7.3 50 12.8 49.1 14.8zm-122.6-39.1c-2.7-21.8-5.8-43.8-8-51.5 0 0-0.1 15.7 0.5 38.1 0.1 4.5-1.6 8.8 7.5 13.4z"/><path class="j" d="m462.3 371.4c0 0 6.8-12.9 4.9-49.5-0.5-10.2 53.3 24 53.3 24 0 0-0.2 3.5-0.3 8.2-0.1 2-0.1 4.1-0.1 6.4q0 0.9 0 1.8 0 1.5 0 3 0.1 1.8 0.2 3.6 0 1.9 0.2 3.7c0.2 2.2 1.5 6.1 2 7.2 2.5 5.6-40.1 6-60.2-8.4z"/><path class="k" d="m507.4 394.6l9.9 13.4c0 0-5.8 7.7-16.1 2z"/><path class="k" d="m514.6 408.5c0 0 36.3 88.7 28.6 201.4l-11.5 20.8-12.9-17.8c0 0-2.1-149.6-12.4-204.8z"/><path class="j" d="m518 382.2l-10.6 12.4c0 0-17.1-3.3-22.1-12.2-5-8.9 32.7-0.2 32.7-0.2z"/><path class="l" d="m520.4 371.4c0 0-1.2 9.4-13 23.2l12.9 17.4 6.9-36z"/><path class="l" d="m465.5 360c0 0 24.6 27.8 41.9 34.6l-8 19.9-39.4-43.4z"/><path class="i" d="m718.7 612c0 0-32.7-31.7-54.1-37-9.9-2.4-23-16.1-35.4-32.2-4.1-5.3-8.1-10.8-11.9-16.3q0-0.1 0-0.1c-15.2-21.9-27.2-43-27.2-43 0 0-45-52.7-8.9-76.2 0 0 15.5-0.4 24 4.2 8.7 4.8 27.3 43.6 30.5 50.5 3.1 6.9 37.3 70.8 39.6 72.2 2.3 1.5 6.1 6.7 19.8 14.1 16.8 9 43.1 35.4 43.1 35.4z"/><path class="m" d="m561.8 648.7c0 0-4.6-0.2-6.5-1.2 0 0-3.5-2.2-6-3.6-0.8-0.5-1.5-0.9-2-1-2-0.8-6.7-2-11-5.3-4.3-3.3-18.3-16.4-18.3-16.4l9.1-13.9 4.2-13.8c0 0 32.6 3.3 37 5.9q0.6 0.3 1.2 0.8c3.5 2.5 5 5.9 6.7 7.4 0.6 0.6 6.3 6.7 6 9.2-0.5 3.4-2.2 5.6-4.3 6.6 0 0-1.2 6.7-4.6 9.7 0 0-0.9 6.2-6.2 8.7 0 0-1.6 6.2-5.3 6.9z"/><path class="n" d="m509.8 227.4c0 0 59-14.2 46.6 60.6-12.5 74.7-26.6 80.8-62.6 65.9-36-14.9-33.5-62.7-35.6-86.1-2.2-23.4 32.7-39.3 51.6-40.4z"/><path class="n" d="m478.7 279.2c-0.8-6.5-13.9-8.8-14.8 1.1-0.9 9.9 6.3 27.1 11.2 25.3 4.9-1.8 4.8-17.3 3.6-26.4z"/><path class="o" d="m461.6 306c0 0 1.2-23.5 9.8-24.4 8.5-0.8 10 8.6 10 8.6l8.7 1.5c0 0-3-20.5 5.5-24.3 8.5-3.7 55.7 10.6 62.4 4.4 6.8-6.1 3-47.9-9.5-53.4-12.6-5.5-47.1-17.8-72-0.4 0 0-19.7-2-22.4 13.9-2.6 15.9 2 62.4 7.5 74.1z"/><path class="i" d="m542.4 593.5l-24.4 41.9c0 0-64.6-16.6-79.6-20.8l34.4-41.1c0 0 50.8 11.6 69.6 20z"/><path class="p" d="m520.3 368.9h-0.1c-31.6-3.3-43.9-27.7-43.9-27.7 19.9 19.8 43.8 19.3 43.8 19.3q0 0.9 0 1.8 0 1.5 0 3 0.1 1.8 0.2 3.6z"/><path fill-rule="evenodd" class="q" d="m959.6 746.4c0 4.1-2.7 7.6-6.3 8.9q-1.3 0.5-2.8 0.6-0.1 0-0.2 0-0.2 0-0.4 0-0.4 0-0.8 0c-1.9-0.2-3.6-0.9-5-2-1.4-1.1-2.5-2.6-3.2-4.3q-0.6-1.6-0.6-3.5 0.1-1.5 0.5-2.9c1.4-3.9 5-6.6 9.3-6.6 3.1 0.1 5.8 1.6 7.6 3.9 1.2 1.6 1.9 3.7 1.9 5.9zm-2.4 0c0-1.7-0.5-3.3-1.5-4.5-1.3-1.7-3.3-2.8-5.6-2.9-3.2 0-6 2.1-7 4.9q-0.1 0.4-0.2 0.7-0.1 0.8-0.1 1.6c-0.1 2 0.7 3.8 2 5.1q0.4 0.4 0.8 0.7 1 0.8 2.3 1.2 1 0.3 2 0.3 0.2 0 0.5 0 1.1-0.1 2-0.4c2.8-1 4.8-3.7 4.8-6.7z"/><path class="n" d="m588.3 559.1c36.7 37.8 85.2 85.4 85.2 85.4l18.9-36c0 0-43-50.5-72.3-84.2-8.9 4.4-25.3 14.8-31.8 34.8z"/><path class="n" d="m565.6 609.9c0 0 9.9 4.8 12.4 6.9 2.6 2.1 13.1 10 15.6 11.8 2.5 1.8-3.8 7.1-22.5-1-18.7-8.1-5.5-17.7-5.5-17.7z"/><path class="r" d="m566.4 501.7l-17.2 160.2h226.8l17.2-160.2z"/><path fill-rule="evenodd" class="r" d="m788.9 654.5h-228.5l17.4-161.9h228.5zm-226.5-1.8h224.9l17.1-158.4h-225z"/><path class="r" d="m531.2 647.5h37.8v14.4h-37.8z"/><g clip-path="url(#cp1)"><path class="s" d="m166.8 661.6v9.7z"/><path class="s" d="m176.3 661.6v9.7h-9.5v-9.7z"/><path class="t" d="m185.8 661.6v9.7h-9.5v-9.7z"/><path class="u" d="m195.3 661.6v9.7h-9.5v-9.7z"/><path class="v" d="m204.8 661.6v9.7h-9.5v-9.7z"/><path class="w" d="m214.2 661.6v9.7h-9.4v-9.7z"/><path class="x" d="m223.7 661.6v9.7h-9.5v-9.7z"/><path class="y" d="m233.2 661.6v9.7h-9.5v-9.7z"/><path class="z" d="m242.7 661.6v9.7h-9.5v-9.7z"/><path class="A" d="m252.2 661.6v9.7h-9.5v-9.7z"/><path class="B" d="m261.6 661.6v9.7h-9.4v-9.7z"/><path class="C" d="m271.1 661.6v9.7h-9.5v-9.7z"/><path class="D" d="m280.6 661.6v9.7h-9.5v-9.7z"/><path class="E" d="m290.1 661.6v9.7h-9.5v-9.7z"/><path class="F" d="m299.6 661.6v9.7h-9.5v-9.7z"/><path class="G" d="m309 661.6v9.7h-9.4v-9.7z"/><path class="H" d="m318.5 661.6v9.7h-9.5v-9.7z"/><path class="I" d="m328 661.6v9.7h-9.5v-9.7z"/><path class="J" d="m337.5 661.6v9.7h-9.5v-9.7z"/><path class="K" d="m347 661.6v9.7h-9.5v-9.7z"/><path class="L" d="m356.4 661.6v9.7h-9.4v-9.7z"/><path class="M" d="m365.9 661.6v9.7h-9.5v-9.7z"/><path class="N" d="m375.4 661.6v9.7h-9.5v-9.7z"/><path class="O" d="m384.9 661.6v9.7h-9.5v-9.7z"/><path class="P" d="m394.4 661.6v9.7h-9.5v-9.7z"/><path class="Q" d="m403.9 661.6v9.7h-9.5v-9.7z"/><path class="R" d="m413.3 661.6v9.7h-9.4v-9.7z"/><path class="S" d="m422.8 661.6v9.7h-9.5v-9.7z"/><path class="T" d="m432.3 661.6v9.7h-9.5v-9.7z"/><path class="U" d="m441.8 661.6v9.7h-9.5v-9.7z"/><path class="V" d="m451.3 661.6v9.7h-9.5v-9.7z"/><path class="W" d="m460.7 661.6v9.7h-9.4v-9.7z"/><path class="X" d="m470.2 661.6v9.7h-9.5v-9.7z"/><path class="Y" d="m479.7 661.6v9.7h-9.5v-9.7z"/><path class="Z" d="m489.2 661.6v9.7h-9.5v-9.7z"/><path class="a0" d="m498.7 661.6v9.7h-9.5v-9.7z"/><path class="a1" d="m508.1 661.6v9.7h-9.4v-9.7z"/><path class="a2" d="m517.6 661.6v9.7h-9.5v-9.7z"/><path class="a3" d="m527.1 661.6v9.7h-9.5v-9.7z"/><path class="a4" d="m536.6 661.6v9.7h-9.5v-9.7z"/><path class="a5" d="m546.1 661.6v9.7h-9.5v-9.7z"/><path class="a6" d="m555.5 661.6v9.7h-9.4v-9.7z"/><path class="a7" d="m565 661.6v9.7h-9.5v-9.7z"/><path class="a8" d="m574.5 661.6v9.7h-9.5v-9.7z"/><path class="a9" d="m584 661.6v9.7h-9.5v-9.7z"/><path class="aa" d="m593.5 661.6v9.7h-9.5v-9.7z"/><path class="ab" d="m602.9 661.6v9.7h-9.4v-9.7z"/><path class="ac" d="m612.4 661.6v9.7h-9.5v-9.7z"/><path class="ad" d="m621.9 661.6v9.7h-9.5v-9.7z"/><path class="ae" d="m631.4 661.6v9.7h-9.5v-9.7z"/><path class="af" d="m640.9 661.6v9.7h-9.5v-9.7z"/><path class="ag" d="m650.3 661.6v9.7h-9.4v-9.7z"/><path class="ah" d="m659.8 661.6v9.7h-9.5v-9.7z"/><path class="ai" d="m669.3 661.6v9.7h-9.5v-9.7z"/><path class="aj" d="m678.8 661.6v9.7h-9.5v-9.7z"/><path class="ak" d="m688.3 661.6v9.7h-9.5v-9.7z"/><path class="al" d="m697.8 661.6v9.7h-9.5v-9.7z"/><path class="am" d="m707.2 661.6v9.7h-9.4v-9.7z"/><path class="an" d="m716.7 661.6v9.7h-9.5v-9.7z"/><path class="ao" d="m726.2 661.6v9.7h-9.5v-9.7z"/><path class="ap" d="m735.7 661.6v9.7h-9.5v-9.7z"/><path class="aq" d="m745.2 661.6v9.7h-9.5v-9.7z"/><path class="ar" d="m754.6 661.6v9.7h-9.4v-9.7z"/><path class="as" d="m764.1 661.6v9.7h-9.5v-9.7z"/><path class="at" d="m773.6 661.6v9.7h-9.5v-9.7z"/><path class="au" d="m783.1 661.6v9.7h-9.5v-9.7z"/><path class="au" d="m783.1 671.3v-9.7z"/></g><path class="r" d="m1159.7 879.6h-534v-9.8h534z"/><path class="av" d="m658.6 579.2c-1.8 9 2.3 17.3 9.3 18.8 7 1.4 14.1-4.7 15.9-13.6 1.8-8.9-2.3-17.3-9.3-18.7-7-1.5-14.1 4.6-15.9 13.5z"/><path class="aw" d="m1091.1 515.8c0 0 5.2 8.8 7.4 10.3 3 1.9 1.1 3.9-0.3 3.9-1.4 0-8.7 0.6-10.3-1.3-1.6-1.8-2.4-7.2-3.9-8.7-1.5-1.4-3-7 0.7-8.4 3.4-1.2 6.4 4.2 6.4 4.2z"/><path class="ax" d="m1088.8 511.9c0 0 6 10.3 7 11.9 1.1 1.5-1.9 1.5-3.8 0.8-1.8-0.7-6.4-8.2-7.1-9.5-0.8-1.7-0.2-3.5-0.2-3.5z"/><path class="aw" d="m1082.7 517.4l1.4 10.7h0.7l-0.2-7.6z"/><path class="aw" d="m1039.2 515.8c0 0 5.2 8.8 7.4 10.3 3 1.9 1.2 3.9-0.3 3.9-1.4 0-8.7 0.6-10.3-1.3-1.6-1.8-2.4-7.2-3.8-8.7-1.5-1.4-3.1-7.2 0.7-8.4 3.3-1.1 6.3 4.2 6.3 4.2z"/><path class="ax" d="m1037.3 511.9c0 0 5.6 10.3 6.7 11.9 1 1.5-2 1.5-3.8 0.8-1.9-0.7-6.5-8.2-7.2-9.5-0.8-1.7-0.1-3.5-0.1-3.5z"/><path class="aw" d="m1030.9 517.4l1.3 10.7h0.8l-0.2-7.6z"/><path class="ax" d="m1016 435.1l47.3 21.5c0 0 5.3 1.8 5.9 7.6 1.8 18.3 15.5 47.4 15.5 47.4 4.4 2.1 4.1 0.3 4.1 0.3-2.8-8.9-6.1-45.6-7.3-60.3-0.3-3.1-0.5-5.3-0.5-5.9 0-0.5-0.5-1.1-1.4-1.8-6.5-5.3-33.2-16.2-33.2-16.2-20.1-0.5-30.4 7.4-30.4 7.4z"/><path class="ax" d="m1007.1 444.3c1.4 12.8 19.7 11.4 19.7 11.4h22.1c0 0-5.8 12.9-8 23.8-2.4 11.6-8 32.1-8 32.1 0 0 0.3 0.7 4.3 0.3 0 0 17.4-34.6 24.1-43.3 1.4-1.9 5.5-12.1 6.2-18.2 0.2-2 0.1-3.6-0.7-4.2-0.7-0.7-2.5-1.9-4.8-3.4-7-4.3-19-11.1-25.7-12.6-9-2-23.2-5.8-23.2-5.8 0 0-7.5 7.1-6 19.9z"/><path class="ay" d="m1022.1 345.8c0 0-3.3-6.3-1.7-13 1.7-6.7 7.9-13.4 17-10.3 9.1 3.1 16.4 10.1 11 18.3-5.5 8.2 4.9 11.9 2.3 15.8-2.7 3.8-1.7 7.9-0.6 8.8 1.2 0.9 4.8 4.1 4.4 8-0.4 3.8-17.7-11.2-17.7-11.2 0 0-9.4-18.9-14.7-16.4z"/><path class="az" d="m1049.9 426.2c0 0-1.4 6.6-36.7-1.8 0 0 11.8-3.9 36.7 1.8z"/><path class="aA" d="m1012.8 426.3q-0.9 1.6-1.7 3.1 19.4 0.6 38.8 1.2c-2.1-6.9-1.4-16.2-1.1-23.2 0.5-8.6 5.2-14.6 4.7-23.2 2.6 0.4 3 0.4 5.6 0.8-3.9-11.1-5.3-16.6-17.4-20.9-4-1.4-6.6-1.7-10.9-1.4-14.1 1.2-18.3 1.4-25.2 14.1 10.8 1.8 9 5.6 12.3 16.4 1.6 5.3 3.3 11.1 2.4 16.7-0.8 5.4-7.5 11.4-7.5 16.4z"/><path class="n" d="m1035.2 366.8c-5.7-1.1-4.5-4.3-4.5-4.3 0 0 0.3-1.8 0.4-4.1q0-0.9 0-1.9c0-0.9 0-1.9-0.2-2.8-0.4-3.9 10.5-1.6 10.5-1.6 0 0-0.6 7.9 0.9 10.2 1.5 2.4-1.3 5.6-7.1 4.5z"/><path class="n" d="m1024.2 362.4c0 0 11.7 13.5 16 16.6 0 0 4.9-4.5 1.9-16.3 0 0-5.7-2.8-17.9-0.3z"/><path class="n" d="m1024.5 330.1c0 0-6 11.7 0 22.7 6 11 17.8-4.8 18.5-6.7 0.8-1.8 4.8-12.3-3.2-15.5-8-3.2-13.5-3.6-15.3-0.5z"/><path class="ay" d="m1026.6 334.3c0 0-4.2 5.4-4.7 9.5 0 0-1.6-7.7 3-15 4.7-7.3 16.6-0.4 18.2 2.6 1.6 2.9 6.3 5.5-1.6 18.1 0 0-14.1-9.8-14.9-15.2z"/><path class="p" d="m1036.2 353.9c0 0-1 2.3-5.1 4.5q0-0.9 0-1.9c0 0 2.8-0.3 5.1-2.6z"/><path class="n" d="m975.2 415.8c0 0-2.9 1.3-4.3 0.7-1.3-0.6-3.4-0.7-4.1-0.7-0.9 0-3.7-1-3.6 0.1 0 1.1 4.5 1.9 5.4 2.2 0.9 0.3-2.7 2.4-3.1 3.2-0.3 0.9 3.8 6.8 6.1 5.1 2.4-1.6 3.6-5 4.1-5.2 0.5-0.2 1.7-1.1 1.7-1.1z"/><path class="n" d="m966 420.8c0 0-6.7 5.6-6.9 6.4-0.1 0.7 0.3 1.1 0.9 0.6 0.7-0.5 6.7-5.2 6.7-5.2 0 0-6.7 7.9-6.9 8.5-0.2 0.4 0.5 1.1 0.8 0.9 0.4-0.3 7.6-7.8 7.6-7.8 0 0-6.3 7.5-6.3 8-0.1 0.5 0.7 1 1.2 0.5 0.5-0.5 6.8-7.1 6.8-7.1 0 0-4.2 5.8-4 6.3 0.2 0.3 0.7 0.9 1.7-0.6 1.1-1.5 3.9-4.8 3.9-4.8z"/><path class="r" d="m1046.6 455.7h-19.8c0 0-18.3 1.4-19.7-11.4-1.5-12.8 6-19.9 6-19.9 0 0 9.6 2.6 18 4.6 4.3-0.9 9.3-1.4 15.3-1.3 0 0 35.7 11.8 34.6 18 0 0-14.9-8-34.4 10z"/><path class="aB" d="m1033.7 433.5l37.8-0.6-19.1 9.7z"/><path class="aA" d="m1045.5 428.7c0 0-8.5 3.3-19 0.3l-0.5-3.9 21.5 1.2z"/><path class="aC" d="m1052.4 442.6l-18.7-7.2v-1.9l20.2 7.3z"/><path class="aD" d="m1045.3 430.5c-0.1 1.4 1.3 2.4 2.6 1.8l2.2-0.9c0.7-0.3 1.1-1 1-1.7-1-5.7-2.9-28-0.1-31.8 1.1-1.4 1.8-2.6 2.1-3.7 1.9 4.9 4.3 11.1 5.2 14.5l17.9 23.8 6 1.5c-7.5-18-13.5-27.5-13.5-27.5-1.2-3.2-4.5-12.7-7.5-21.1-1.9-5.4-3.6-10.3-4.5-13-0.5-1.3-1.4-2.4-2.6-3.2-2.8-1.6-7.4-4.2-11.6-6.2q0-0.1 0-0.1-0.2-0.1-0.4-0.2 0 0 0 0 0 0 0 0c7.9 12.1 4.8 46 3.2 67.7q0 0.1 0 0.1z"/><path class="aD" d="m1015.8 363.8c-2.5 0.4-8.8 6.5-12.2 12.7-3.8 7-7.7 15.1-10.6 17.7-5.4 4.9-20.4 22.1-21.1 21.6-0.3-0.1 4.1 5.2 4.7 5.4 0.2 0.1 24.7-21 27-24.2 2.2-3.1 8.2-15.9 9.9-15.6q0 0 0 0 0 0 0 0c0.2 0.3 2.3 5 4.4 11.8q0 0.2 0.1 0.4c1.4 4.7 1.3 9.9 0.5 15.8-0.6 4.4-3.8 11.6-5.8 15.1-0.3 0.4-0.2 1.2 0.1 1.8q0 0 0 0c0.1 0.4 0.3 0.7 0.6 0.8l7.2 2.6 1.7 0.6c1.2 0.5 2.4 0.2 3.4-0.4 0.8-0.6 1.3-1.5 1.5-2.5 1.6-12.3 3.6-24.8 5.2-29.5 7-20.7-2.8-36.3-2.8-36.3 0 0-11.5 1.3-13.8 2.2z"/><path class="aE" d="m1052.4 442.6l11.3-30.7 36.2 0.6-10.7 28.3z"/><path class="aF" d="m1075.3 425.5c-1.1 2.2-0.8 4.6 0.7 5.4 1.5 0.8 3.7-0.4 4.8-2.6 1.1-2.2 0.7-4.6-0.8-5.4-1.5-0.8-3.6 0.4-4.7 2.6z"/><path class="ay" d="m1037.1 341.7c0 0 2.3 3.6 0.1 6.7-2.1 3.2 0.6 6.2 1.1 9.5 0.4 3.3-9 12.1 1.5 16.5 10.4 4.4 13.8-2.9 11.1-6.9-2.7-4-4.6-7.3-4.8-13-0.2-5.7-2.1-14.6-9-12.8z"/><path class="aG" d="m985.9 326.7h21.8v15.9 3.3l-3.3-3.3h-18.5z"/><path class="e" d="m863.2 569.8c0 0-47.6 45.3-24.5 80.6 23.2 35.3 34.1 4.4 34.1 4.4 0 0 15.6 4.7-7.6-38.8-11-20.5-2-46.2-2-46.2z"/><path class="f" d="m775.1 520.6c0 0-36.3 42.8 12.3 102 48.6 59.2 41.1 90.5 41.1 90.5 0 0 67.7-102.9-53.4-192.5z"/><path class="g" d="m839.5 695.2c22.6 4.6 4.3-61.2-29.7-81.3-33.9-20-64.3-22-83.3-41.3 0 0 1.5 100.1 113 122.6z"/><path class="n" d="m691.5 724.1c0 0 1.1-2.6 1.2-3 0.2-0.3 1.2-1 2.4-1.6 1.2-0.6 3.2-0.9 3.4-0.8 0.2 0.1 0.4 0.1 0.7 0.7 0.3 0.5 0.2 1.1 0.2 1.1 0 0 0.6 0.5 0.5 1.3 0 0 0.6 0.5 0.2 1.3 0 0 0.6 0.5 0.3 1.1 0 0-1 0.6-1.3 0.9-0.3 0.4-2.4 1.6-4.7 2.4 0 0-2.4 0-2.9-3.4z"/><path class="aH" d="m695.2 722.7c0 0 0 1.4-0.1 1.8-0.2 0.4 2.8 1.3 2.8 1.3 0 0-1-3.1-2.7-3.1z"/><path class="aI" d="m639 858.8l1.3-4.1 5.6 0.9-0.9 3.7z"/><path class="aJ" d="m684.6 858.3l0.3 2.3 6.1-1.1-0.3-3.3z"/><path class="aK" d="m671.4 795.2c0 0-0.9 4.9-1.9 10.3q-0.3 1.4-0.6 2.9c-1 5.2-2 10.2-2.4 11.3-0.9 2.3-19.5 36.5-19.5 36.5 0 0-7.7-0.5-7.9-1.5 0 0 15.6-37.2 15.5-38.5-0.1-1.4 1.9-39.4 1.9-39.4 0 0 14.5 16.2 14.9 18.4z"/><path class="aK" d="m680 774.6c0 0 7.3 37.4 7.9 40.2 0.6 2.9 3.4 41.2 3.4 41.2 0 0-1.7 3.4-7.7 2.1 0 0-8.3-41.1-9-42.5-2.7-5.4-16-31.3-17.3-35-1.2-3.7-0.9-8-0.9-8 0 0 9.9-5.5 23.6 2z"/><path class="aL" d="m676.9 726.2c0 0 3.2 7.9 4 7.7 0.8-0.2 10-11 10-11 0 0 4.2 5.2 3.6 5.8-0.7 0.9-11.6 18.9-13.1 18.6-1.5-0.3-8.2-11.4-8.2-11.4 0 0-0.4-8.3 3.7-9.7z"/><path class="aM" d="m663.2 710.9c0 0 8.3 6.4 10.6 8.9 2.3 2.5 8.6 12.9 8.1 16.1-1.7 12-2.5 22.3-2.6 30.5 0 7.2 2.2 9 0.8 9.1-1.6 0.1-22.5 7.7-25.6 8.6 0 0 2-25.2 3.1-28.1 1-2.9-3.3-33.4 5.6-45.1z"/><path class="aN" d="m716.7 698.9l1.8 9.4 1.9 9.3c0 0-10.7-3.3-22.8-0.9l-0.8-4.1-0.8-4.2c12.1-2.4 20.7-9.5 20.7-9.5z"/><path class="K" d="m684.9 860.6c0 0 4.6-0.9 4.8-1.1 0.2-0.1 1.1-1.9 1.9-1.6 0.7 0.3 0.7 2.5 1.4 2.9 0.7 0.4 6.2 4.1 6.8 4.8 0.7 0.6 4.9 0.2 5.3 1.4 0.5 1.2 0.6 4-5.6 3.3-6.2-0.6-13.3 0.4-14.7-0.4-1.3-0.7-0.3-7.6 0.1-9.3z"/><path class="K" d="m638.9 858.7c0 0 4.7-0.1 4.9-0.3 0.2-0.1 1.4-1.7 2.1-1.3 0.6 0.4 0.3 2.6 0.9 3.1 0.6 0.5 5.5 5 6 5.8 0.6 0.8 4.7 1.1 5 2.3 0.3 1.2-0.1 4-6.1 2.3-6-1.6-13.2-1.7-14.4-2.7-1.2-0.9 0.9-7.5 1.6-9.2z"/><path class="j" d="m675.3 776.3c0 0 0.6 2.3 1.5 2.8 0.8 0.5-4.2 5.4-4.2 5.4 0 0-2.1-4.6-2.1-5 0.1-0.5 4.8-3.2 4.8-3.2z"/><path class="aO" d="m659.5 720.8c0 0-6 28.3-6.5 31.2-0.4 2.8 17.5 29 17.5 29l6-3.5c0 0-14.5-26.4-14.5-27.6 0.1-1.2 7-24 7-24 0 0 2.9-5-2.3-7.4-5.1-2.4-7.2 2.3-7.2 2.3z"/><path class="aP" d="m678.8 778.3c0 0 1.9 9.6 1.8 12.6-0.1 2.9-11.1-4.7-10.6-7.6z"/><path class="n" d="m663.2 710.9c0 0 15.1 16.5 14.2 14.7-3.3-6.5-5.7-7.6-5.6-8.8 0-1 0.4-3.7 0.5-4.6 0.1-1.7 0.2-3.1 0.2-3.1 0 0-7.5-10.6-7.2-7 0.3 3.6-2.1 8.8-2.1 8.8z"/><path class="n" d="m677.6 691.5c0 0 2.1 4.8 2.1 6 0 1.1-0.3 2-0.1 3.3 0.2 1.4 1.3 4.2 1.2 5-0.2 1-2.2 0.5-2.5 2.1-0.2 1.5-1.7 4.5-2.4 4.6-1.9 0.1-9.1-2.8-9.5-4.3-0.5-1.5-3.1-9.9-3.9-11.5-0.8-1.6 12.6-10.3 13.9-7.8 1.2 2.6 1.2 2.6 1.2 2.6z"/><path class="o" d="m659.3 695.1c-0.9-4.2 3.8-4.7 3.8-4.7 0 0 3.1-3.6 10.5-3.2 7.5 0.5 6.3 10.2 6.3 10.2 0 0-5.1-0.8-7.3-0.2 0 0-0.3 4.1-0.1 5.1l-2.8-0.2c0 0 0.3-3.7-1-3.9-1.3-0.2-1.8 7.8-4.3 9.5 0 0 0-0.5-0.3-1.1-0.5-0.8-1.3-2.3-2-4-1.1-2.4-2.3-5.4-2.8-7.5z"/><path class="n" d="m670.6 699.1c0 0-1.1-2.8-3.5-1-1.8 1.3 0 6.1 1.8 6.1 1.7-0.1 2.4-2.6 1.7-5.1z"/><path class="aQ" d="m666 706.9c0 0 0.3 1.5 0.7 1.8 0.4 0.4 2.3 1.9 5.6 2.9l-0.3 3c0 0-6.4-2.5-6-7.7z"/><g clip-path="url(#cp2)"><path class="s" d="m692.8 716.2v11.2z"/><path class="s" d="m693 716.2v11.2h-0.2v-11.2z"/><path class="t" d="m693.1 716.2v11.2h-0.1v-11.2z"/><path class="u" d="m693.2 716.2v11.2h-0.1v-11.2z"/><path class="v" d="m693.3 716.2v11.2h-0.1v-11.2z"/><path class="w" d="m693.4 716.2v11.2h-0.1v-11.2z"/><path class="x" d="m693.5 716.2v11.2h-0.1v-11.2z"/><path class="y" d="m693.7 716.2v11.2h-0.2v-11.2z"/><path class="z" d="m693.8 716.2v11.2h-0.1v-11.2z"/><path class="A" d="m693.9 716.2v11.2h-0.1v-11.2z"/><path class="B" d="m694 716.2v11.2h-0.1v-11.2z"/><path class="C" d="m694.1 716.2v11.2h-0.1v-11.2z"/><path class="D" d="m694.2 716.2v11.2h-0.1v-11.2z"/><path class="E" d="m694.4 716.2v11.2h-0.2v-11.2z"/><path class="F" d="m694.5 716.2v11.2h-0.1v-11.2z"/><path class="G" d="m694.6 716.2v11.2h-0.1v-11.2z"/><path class="H" d="m694.7 716.2v11.2h-0.1v-11.2z"/><path class="I" d="m694.8 716.2v11.2h-0.1v-11.2z"/><path class="J" d="m694.9 716.2v11.2h-0.1v-11.2z"/><path class="K" d="m695.1 716.2v11.2h-0.2v-11.2z"/><path class="L" d="m695.2 716.2v11.2h-0.1v-11.2z"/><path class="M" d="m695.3 716.2v11.2h-0.1v-11.2z"/><path class="N" d="m695.4 716.2v11.2h-0.1v-11.2z"/><path class="O" d="m695.5 716.2v11.2h-0.1v-11.2z"/><path class="P" d="m695.6 716.2v11.2h-0.1v-11.2z"/><path class="Q" d="m695.7 716.2v11.2h-0.1v-11.2z"/><path class="R" d="m695.9 716.2v11.2h-0.2v-11.2z"/><path class="S" d="m696 716.2v11.2h-0.1v-11.2z"/><path class="T" d="m696.1 716.2v11.2h-0.1v-11.2z"/><path class="U" d="m696.2 716.2v11.2h-0.1v-11.2z"/><path class="V" d="m696.3 716.2v11.2h-0.1v-11.2z"/><path class="W" d="m696.4 716.2v11.2h-0.1v-11.2z"/><path class="X" d="m696.6 716.2v11.2h-0.2v-11.2z"/><path class="Y" d="m696.7 716.2v11.2h-0.1v-11.2z"/><path class="Z" d="m696.8 716.2v11.2h-0.1v-11.2z"/><path class="a0" d="m696.9 716.2v11.2h-0.1v-11.2z"/><path class="a1" d="m697 716.2v11.2h-0.1v-11.2z"/><path class="a2" d="m697.1 716.2v11.2h-0.1v-11.2z"/><path class="a3" d="m697.3 716.2v11.2h-0.2v-11.2z"/><path class="a4" d="m697.4 716.2v11.2h-0.1v-11.2z"/><path class="a5" d="m697.5 716.2v11.2h-0.1v-11.2z"/><path class="a6" d="m697.6 716.2v11.2h-0.1v-11.2z"/><path class="a7" d="m697.7 716.2v11.2h-0.1v-11.2z"/><path class="a8" d="m697.8 716.2v11.2h-0.1v-11.2z"/><path class="a9" d="m698 716.2v11.2h-0.2v-11.2z"/><path class="aa" d="m698.1 716.2v11.2h-0.1v-11.2z"/><path class="ab" d="m698.2 716.2v11.2h-0.1v-11.2z"/><path class="ac" d="m698.3 716.2v11.2h-0.1v-11.2z"/><path class="ad" d="m698.4 716.2v11.2h-0.1v-11.2z"/><path class="ae" d="m698.5 716.2v11.2h-0.1v-11.2z"/><path class="af" d="m698.7 716.2v11.2h-0.2v-11.2z"/><path class="ag" d="m698.8 716.2v11.2h-0.1v-11.2z"/><path class="ah" d="m698.9 716.2v11.2h-0.1v-11.2z"/><path class="ai" d="m699 716.2v11.2h-0.1v-11.2z"/><path class="aj" d="m699.1 716.2v11.2h-0.1v-11.2z"/><path class="ak" d="m699.2 716.2v11.2h-0.1v-11.2z"/><path class="al" d="m699.3 716.2v11.2h-0.1v-11.2z"/><path class="am" d="m699.5 716.2v11.2h-0.2v-11.2z"/><path class="an" d="m699.6 716.2v11.2h-0.1v-11.2z"/><path class="ao" d="m699.7 716.2v11.2h-0.1v-11.2z"/><path class="ap" d="m699.8 716.2v11.2h-0.1v-11.2z"/><path class="aq" d="m699.9 716.2v11.2h-0.1v-11.2z"/><path class="ar" d="m700 716.2v11.2h-0.1v-11.2z"/><path class="as" d="m700.2 716.2v11.2h-0.2v-11.2z"/><path class="at" d="m700.3 716.2v11.2h-0.1v-11.2z"/><path class="au" d="m700.4 716.2v11.2h-0.1v-11.2z"/><path class="au" d="m700.4 727.4v-11.2z"/></g><path class="aR" d="m698.1 718.8c0 0-3 1.7-2.8 2.2 0.2 0.5 0.6 0.6 0.6 0.6l-0.9 1.3c0 0-0.2 1.1 1.2 1 0 0-0.3 1 1 0.7 0 0 0.1 0.8 0.7 0.8 0.6-0.1 2.5-1.2 2.5-1.2 0 0 0.3-0.5-0.3-1.1 0 0 0.4-0.8-0.2-1.3 0 0 0.1-0.7-0.5-1.3 0 0 0.3-1.5-0.9-1.8 0 0-0.2 0.1-0.4 0.1z"/><g clip-path="url(#cp3)"><path class="s" d="m687.6 707.7v10.7z"/><path class="s" d="m687.8 707.7v10.7h-0.2v-10.7z"/><path class="t" d="m688 707.7v10.7h-0.2v-10.7z"/><path class="u" d="m688.2 707.7v10.7h-0.2v-10.7z"/><path class="v" d="m688.4 707.7v10.7h-0.2v-10.7z"/><path class="w" d="m688.6 707.7v10.7h-0.2v-10.7z"/><path class="x" d="m688.8 707.7v10.7h-0.2v-10.7z"/><path class="y" d="m688.9 707.7v10.7h-0.1v-10.7z"/><path class="z" d="m689.1 707.7v10.7h-0.2v-10.7z"/><path class="A" d="m689.3 707.7v10.7h-0.2v-10.7z"/><path class="B" d="m689.5 707.7v10.7h-0.2v-10.7z"/><path class="C" d="m689.7 707.7v10.7h-0.2v-10.7z"/><path class="D" d="m689.9 707.7v10.7h-0.2v-10.7z"/><path class="E" d="m690.1 707.7v10.7h-0.2v-10.7z"/><path class="F" d="m690.3 707.7v10.7h-0.2v-10.7z"/><path class="G" d="m690.5 707.7v10.7h-0.2v-10.7z"/><path class="H" d="m690.7 707.7v10.7h-0.2v-10.7z"/><path class="I" d="m690.8 707.7v10.7h-0.1v-10.7z"/><path class="J" d="m691 707.7v10.7h-0.2v-10.7z"/><path class="K" d="m691.2 707.7v10.7h-0.2v-10.7z"/><path class="L" d="m691.4 707.7v10.7h-0.2v-10.7z"/><path class="M" d="m691.6 707.7v10.7h-0.2v-10.7z"/><path class="N" d="m691.8 707.7v10.7h-0.2v-10.7z"/><path class="O" d="m692 707.7v10.7h-0.2v-10.7z"/><path class="P" d="m692.2 707.7v10.7h-0.2v-10.7z"/><path class="Q" d="m692.4 707.7v10.7h-0.2v-10.7z"/><path class="R" d="m692.5 707.7v10.7h-0.1v-10.7z"/><path class="S" d="m692.7 707.7v10.7h-0.2v-10.7z"/><path class="T" d="m692.9 707.7v10.7h-0.2v-10.7z"/><path class="U" d="m693.1 707.7v10.7h-0.2v-10.7z"/><path class="V" d="m693.3 707.7v10.7h-0.2v-10.7z"/><path class="W" d="m693.5 707.7v10.7h-0.2v-10.7z"/><path class="X" d="m693.7 707.7v10.7h-0.2v-10.7z"/><path class="Y" d="m693.9 707.7v10.7h-0.2v-10.7z"/><path class="Z" d="m694.1 707.7v10.7h-0.2v-10.7z"/><path class="a0" d="m694.3 707.7v10.7h-0.2v-10.7z"/><path class="a1" d="m694.4 707.7v10.7h-0.1v-10.7z"/><path class="a2" d="m694.6 707.7v10.7h-0.2v-10.7z"/><path class="a3" d="m694.8 707.7v10.7h-0.2v-10.7z"/><path class="a4" d="m695 707.7v10.7h-0.2v-10.7z"/><path class="a5" d="m695.2 707.7v10.7h-0.2v-10.7z"/><path class="a6" d="m695.4 707.7v10.7h-0.2v-10.7z"/><path class="a7" d="m695.6 707.7v10.7h-0.2v-10.7z"/><path class="a8" d="m695.8 707.7v10.7h-0.2v-10.7z"/><path class="a9" d="m696 707.7v10.7h-0.2v-10.7z"/><path class="aa" d="m696.2 707.7v10.7h-0.2v-10.7z"/><path class="ab" d="m696.3 707.7v10.7h-0.1v-10.7z"/><path class="ac" d="m696.5 707.7v10.7h-0.2v-10.7z"/><path class="ad" d="m696.7 707.7v10.7h-0.2v-10.7z"/><path class="ae" d="m696.9 707.7v10.7h-0.2v-10.7z"/><path class="af" d="m697.1 707.7v10.7h-0.2v-10.7z"/><path class="ag" d="m697.3 707.7v10.7h-0.2v-10.7z"/><path class="ah" d="m697.5 707.7v10.7h-0.2v-10.7z"/><path class="ai" d="m697.7 707.7v10.7h-0.2v-10.7z"/><path class="aj" d="m697.9 707.7v10.7h-0.2v-10.7z"/><path class="ak" d="m698.1 707.7v10.7h-0.2v-10.7z"/><path class="al" d="m698.2 707.7v10.7h-0.1v-10.7z"/><path class="am" d="m698.4 707.7v10.7h-0.2v-10.7z"/><path class="an" d="m698.6 707.7v10.7h-0.2v-10.7z"/><path class="ao" d="m698.8 707.7v10.7h-0.2v-10.7z"/><path class="ap" d="m699 707.7v10.7h-0.2v-10.7z"/><path class="aq" d="m699.2 707.7v10.7h-0.2v-10.7z"/><path class="ar" d="m699.4 707.7v10.7h-0.2v-10.7z"/><path class="as" d="m699.6 707.7v10.7h-0.2v-10.7z"/><path class="at" d="m699.8 707.7v10.7h-0.2v-10.7z"/><path class="au" d="m699.9 707.7v10.7h-0.1v-10.7z"/><path class="au" d="m699.9 718.4v-10.7z"/></g><path class="n" d="m692.8 721.1c0 0 2.4-0.1 3.7 0.5 0.3 0.1 0.6 0.2 0.6 0.6 0 0.3-0.5 0.7-1.5 0.8-1 0.1-2.3 0.6-2.3 0.6 0 0-1.1-0.2-0.5-2.5z"/><path class="aS" d="m669.5 805.5q-0.3 1.4-0.6 2.9l-6-16.1c0.8 1.6 6.6 13.2 6.6 13.2z"/><path class="r" d="m335.9 614.3h-95.6c-7.1 0-12.8-5.7-12.8-12.8v-151.1c0-7 5.7-12.8 12.8-12.8h95.6c7.1 0 12.8 5.8 12.8 12.8v151.1c0 7.1-5.7 12.8-12.8 12.8z"/><path class="aT" d="m335.8 551.8h-6.3v47.8h6.3z"/><path class="aT" d="m323.4 557.1h-6.3v42.5h6.3z"/><path class="aT" d="m309.9 564.1h-6.3v35.5h6.3z"/><path class="aT" d="m296.1 572.9h-6.3v26.7h6.3z"/><path class="aT" d="m252.3 567.2l-1.4-0.5 11.9-33.2 25.7-6.8 9.2-36.5 19.8-8.7 4.5-28.4 1.4 0.2-4.6 29.2-19.9 8.8-9.2 36.6-25.8 6.8z"/><path class="r" d="m292.1 524.8c1.3 1.7 1.1 4.1-0.6 5.5-1.6 1.3-4.1 1.1-5.4-0.6-1.4-1.6-1.1-4.1 0.5-5.4 1.7-1.4 4.1-1.1 5.5 0.5z"/><path fill-rule="evenodd" class="aT" d="m292 530.8c-2 1.6-4.9 1.3-6.5-0.6-1.6-2-1.3-4.9 0.7-6.5 1.9-1.6 4.8-1.3 6.4 0.7 1.6 1.9 1.3 4.8-0.6 6.4zm-4.9-5.9c-1.3 1-1.5 3-0.4 4.4 1 1.3 3 1.5 4.4 0.4 1.3-1.1 1.5-3.1 0.4-4.4-1.1-1.3-3.1-1.5-4.4-0.4z"/><path class="r" d="m301.4 488.5c1.4 1.7 1.1 4.1-0.5 5.4-1.7 1.4-4.1 1.1-5.5-0.5-1.3-1.7-1.1-4.1 0.6-5.4 1.6-1.4 4.1-1.1 5.4 0.5z"/><path fill-rule="evenodd" class="aT" d="m301.3 494.5c-1.9 1.6-4.8 1.3-6.4-0.6-1.6-2-1.3-4.9 0.6-6.5 2-1.6 4.9-1.3 6.5 0.7 1.6 1.9 1.3 4.8-0.7 6.4zm-4.8-6c-1.4 1.1-1.6 3.1-0.5 4.4 1.1 1.4 3.1 1.6 4.4 0.5 1.4-1.1 1.6-3.1 0.5-4.4-1.1-1.4-3.1-1.6-4.4-0.5z"/><path class="r" d="m320.9 479.5c1.4 1.7 1.1 4.1-0.5 5.4-1.7 1.4-4.1 1.1-5.4-0.5-1.4-1.7-1.1-4.1 0.5-5.4 1.7-1.4 4.1-1.1 5.4 0.5z"/><path fill-rule="evenodd" class="aT" d="m320.8 485.5c-1.9 1.6-4.8 1.3-6.4-0.6-1.6-2-1.3-4.9 0.7-6.5 1.9-1.6 4.8-1.3 6.4 0.7 1.6 1.9 1.3 4.8-0.7 6.4zm-4.8-6c-1.4 1.1-1.6 3.1-0.5 4.4 1.1 1.4 3.1 1.6 4.4 0.5 1.4-1.1 1.6-3.1 0.5-4.4-1.1-1.4-3.1-1.6-4.4-0.5z"/><path class="r" d="m266.5 532c1.3 1.6 1.1 4-0.6 5.4-1.6 1.3-4 1.1-5.4-0.5-1.3-1.7-1.1-4.1 0.6-5.5 1.6-1.3 4-1.1 5.4 0.6z"/><path fill-rule="evenodd" class="aT" d="m266.4 538c-2 1.6-4.9 1.3-6.5-0.7-1.6-1.9-1.3-4.8 0.7-6.4 1.9-1.6 4.8-1.3 6.4 0.6 1.6 2 1.3 4.9-0.6 6.5zm-4.9-6c-1.3 1.1-1.5 3.1-0.4 4.4 1.1 1.3 3 1.5 4.4 0.4 1.3-1.1 1.5-3 0.4-4.4-1.1-1.3-3.1-1.5-4.4-0.4z"/><path class="aU" d="m276.2 495.8h-33.1c-1.5 0-2.8-1.2-2.8-2.8v-2.4c0-1.6 1.3-2.8 2.8-2.8h33.1c1.5 0 2.7 1.2 2.7 2.8v2.4c0 1.6-1.2 2.8-2.7 2.8z"/><path class="aU" d="m276.2 481.8h-33.1c-1.5 0-2.8-1.2-2.8-2.8v-2.4c0-1.5 1.3-2.8 2.8-2.8h33.1c1.5 0 2.7 1.3 2.7 2.8v2.4c0 1.6-1.2 2.8-2.7 2.8z"/><path class="o" d="m212.6 502.2c0 0-1.1 11.1 1 13.8 0 0-5.4-1.1-6.7-3-1.2-1.9 5.7-10.8 5.7-10.8z"/><path class="n" d="m246.3 537.5c0 0 2-1.3 2.3-1.5 0.3-0.2 1.3-0.2 2.5-0.1 1.1 0.2 2.6 0.9 2.7 1.1 0.1 0.1 0.3 0.3 0.2 0.8-0.1 0.5-0.4 0.9-0.4 0.9 0 0 0.2 0.6-0.3 1.1 0 0 0.2 0.6-0.4 1.1 0 0 0.1 0.6-0.3 0.9 0 0-1-0.1-1.4 0-0.4 0.1-2.5-0.1-4.4-0.6 0 0-2.3-0.5-0.5-3.7z"/><path class="aH" d="m249.7 538.4c0 0-0.6 1-0.9 1.2-0.3 0.2 1.5 2.2 1.5 2.2 0 0 0.6-2.7-0.6-3.4z"/><path class="n" d="m245.2 537.7c0 0 1.2-0.2 2-0.5 0.7-0.4-0.2 3.8-0.2 3.8 0 0-1.8-1.3-3-1.3-1.2 0 1.2-2 1.2-2z"/><path class="aV" d="m194.1 649.2c0 0 3.9 5.6 5.2 6.8 0 0 2.7 1.4 2.8 2.5 0.2 2.1 0.3 3.4-3.3 3.5-3.5 0.1-5.7 0-6.4-2.2-0.6-2.1-1.7-3.8-1.7-3.8l-0.3 5.6h-0.8c0 0-0.3-5.6-0.4-6.4 0-0.8-0.6-3.9 1.1-5.2 1.7-1.4 3.8-0.8 3.8-0.8z"/><path class="aV" d="m199.8 656.3c0 0-1.9 0.5-4.1 0-2.3-0.6-4.5-6-5.2-6.5l-0.6-2.2h4.5c0 0 0 1.6 0.7 3 0.7 1.4 4.7 5.7 4.7 5.7z"/><path class="aV" d="m219.1 647.1c0 0 0.6 1.4 1.7 2.8 0.8 1 3.3 5.3 4.4 5.6 1.1 0.3 4.5 0.9 4.8 2.8 0.3 1.9 0.4 3.2-2.9 3.4-3.4 0.1-5.5 0.3-7.1-2-1.6-2.4-4.2-4-4.2-4v6.1h-1.3c0 0-0.6-6.4-0.9-6.8-0.4-0.5-1.3-5.4 1.8-7.9 3.1-2.6 3.7 0 3.7 0z"/><path class="aV" d="m225.2 655.5c0 0-3 0.7-4.1 0-1.2-0.7-5.1-7.3-6.4-7.7 0 0 1.3-2.6 4.4-0.7 0 0 5.2 7.3 6.1 8.4z"/><path class="aW" d="m192.4 555.7c0 0-4.2 5.4-5.3 11.9-1.2 6.5 0.7 28.3 0.6 31.5 0 3.3-2.8 13.2-2.2 19.3 0.6 6 3.7 31.3 3.7 31.3l7.3-0.1c0 0-1.5-27.3-1.1-29.8 0.4-2.6 1.6-13.4 1.7-14.4 0.2-1.1 8.3-28.7 8.3-33.4 0-4.7-2.8-24-13-16.3z"/><path class="aW" d="m213.6 557.8c0 0 6.9 26.4 7.7 30.1 0.9 3.6 2.5 8.4 2.4 9.1 0 0.6-0.8 11.9-0.8 11.9l-2 38.4h-7.3c0 0-2.3-24.4-2.7-29.3-0.4-5 2.7-12.6 1.9-14.7-0.7-2.1-12-26.2-12-26.2 0 0-8.5-27 12.8-19.3z"/><path class="aD" d="m211.5 518.3c0 0 2.7 0.2 4.8 2.5 2.1 2.2 4.1 5.8 4.6 7 0.6 1.2 8.2 12.2 8.6 12.5 0.4 0.2 3.8-0.6 6.5-0.9 4.4-0.3 10.9-2.6 10.9-2.6l1 5c0 0-16.1 5.2-19.9 4.3-4.5-1.1-15-14.6-15-14.6 0 0-7.8-9.2-1.5-13.2z"/><path class="aD" d="m206.6 516.3c0 0 3.6 1.7 4.9 2 1.2 0.2 6 6.5 6.9 8.8 0.8 2.3 0 5.7-1.8 9.7-1.7 4.1-0.1 5.4-0.9 9.4-0.8 4.1-0.8 15.1-0.6 17.3 0.1 2.3-23.1 6.5-27.7 2.4 0 0 3.1-10.3 6.9-14.2 0.8-0.9 0.7-6.5 0.1-7.8-0.5-1.4-6.7-11.8-6.7-11.8 0 0-0.4-10.6 2.2-12.7 2.4-1.8 8.8-2.5 9.9-2.9 1.2-0.4 4.5-0.5 6.8-0.2z"/><path class="aX" d="m207.8 524.3l2.2-2.5-1.9-6.8c0 0-0.7 3.8-0.3 9.3z"/><path class="n" d="m194.1 518.3c0 0-4.5-1.3-7.1 3.6-2.6 5-1.9 7.7-2.5 10-0.6 2.2-3 17.2-3.2 17.8-0.1 0.7-2.4 8.3-2.1 10.6 0.3 2.4 2.4 20.1 2.3 20.7-0.1 0.6 4.2-0.6 4.2-0.6 0 0-0.2-18.1-0.1-19.6 0.2-1.5 0.3-9.3 1.5-11.3 1.1-2 3.8-14.4 4.4-15.6 0.6-1.3 6.4-14 2.6-15.6z"/><path class="n" d="m208.3 512.2c0 0-0.7 6.6-0.5 8.7 0 0-3.8 3.7-8-4.4 0 0 1.8-3.3 0.5-7.8-1.4-4.6 8 3.5 8 3.5z"/><path class="n" d="m207.8 520.9v3.4l-4-3.5z"/><path class="aX" d="m207.8 524.3l-1.8-2.2-6-6-2.2 1z"/><path class="aY" d="m210 521.8l2.7 0.7-4.6-7.5z"/><path class="aY" d="m206 522.1l-2.5 4-5.8-9.1 2.5-1.3z"/><path class="aX" d="m218.8 538.3c0 0 0.9-5.9-0.1-9.6 0 0-0.5 3-1.8 7.5z"/><path class="aX" d="m190.9 537.5c0 0 2.5-8.2 2.6-8.6 0 0-0.1 7.5-1.1 11.2 0 0-0.9-1.5-1.5-2.6z"/><path class="aZ" d="m283.2 496.4l-39 49.2 1.4 1z"/><path class="aR" d="m253.5 536.9c0 0-2.9-0.3-3 0.2-0.1 0.5 0.1 0.7 0.1 0.7l-1.2 0.4c0 0-0.7 0.8 0.3 1.3 0 0-0.7 0.6 0.4 1 0 0-0.3 0.6 0.1 0.9 0.5 0.3 2.4 0.4 2.4 0.4 0 0 0.4-0.2 0.3-0.9 0 0 0.6-0.4 0.4-1.1 0 0 0.5-0.4 0.3-1.1 0 0 0.9-0.9 0.2-1.7 0 0-0.2-0.1-0.3-0.1z"/><path class="n" d="m248.7 536c0 0 1.7 1 2.4 2 0.1 0.3 0.2 0.5 0.1 0.7-0.2 0.3-0.7 0.3-1.5-0.1-0.7-0.4-1.9-0.6-1.9-0.6 0 0-0.7-0.7 0.9-2z"/><path class="n" d="m205.3 489.8c0 0 6.6-0.2 7.8 7.6 1.2 7.9-1.6 14.7-2.7 15.8-1.1 1.1-7.7 0.3-9.2-3.8-1.6-4-3.8-7-3.5-10.5 0.3-3.5-0.5-9.2 7.6-9.1z"/><path class="o" d="m213.4 500.4c0 0 1.8-9.7-7-11.5-8.7-1.7-11.8 4.3-12.6 7.8-0.9 3.6 0.1 13.6 0.1 13.6 0 0 5.8 5.2 9.3 6.5 0 0-2.9-10.7-1.8-18.4 0 0 7.1 1.1 11.9 0 0 0 0.1 1.6 0.1 2z"/><path class="p" d="m208.2 513.7c0 0-2.3-0.1-5.4-2.1 0 0 2.2 2.8 5.2 3.8 0 0 0.2-1.4 0.2-1.7z"/><path class="b0" d="m198.2 582.8l-25.4 4.2-3.1-18.9 25.5-4.1z"/><path class="n" d="m180.7 586.7c0 0-0.4-0.7-0.5-1.1 0 0 0-0.6 0-1.1q-0.1-0.3-0.1-0.4c-0.1-0.3-0.3-1.1-0.3-2 0.1-0.9 1.3-4.7 1.3-4.7l2.3 0.1 2.1-0.3c0 0 2.5 4.9 2.6 5.8q0 0.1 0 0.2c0 0.7-0.4 1.2-0.4 1.6 0 0.2-0.4 1.5-0.7 1.7-0.5 0.3-1 0.2-1.3 0 0 0-1.1 0.5-1.8 0.3 0 0-0.9 0.5-1.8-0.1 0 0-1 0.4-1.4 0z"/><path class="aD" d="m194.1 518.3c0 0-4.5-1.3-7.1 3.6-2.6 5-2.6 7.2-2.9 9.6-0.3 2.3-3.5 15.9-3.6 16.6-0.2 0.6-1.2 9.1-1.3 12.2-0.1 2.4 0.5 17.9 0.4 18.5-0.1 0.6 7.1-1.1 7.1-1.1 0 0-0.8-14.3-0.6-15.7 0.1-1.5 0.5-9 1.2-11.2 0.8-2.5 4.2-15.5 4.8-16.8 0.6-1.2 5.8-14.1 2-15.7z"/><path class="b1" d="m427.6 652.3l0.5-4.4c0 0-6.2 0-6.9 0.5 0 0 0.5 3.7 0.6 4.2 0.1 0.6 5.8-0.3 5.8-0.3z"/><path class="b2" d="m417.1 661.5c7.4-0.1 10.9 0.4 11.7-0.8 0.8-1.2-1.1-8.8-1.1-8.8 0 0-1.8 0.7-6 0.3 0 0-1.8 2.2-3.6 3.2-1.7 0.9-4.5 1.3-5.6 2.3-0.7 0.7-2.7 3.8 4.6 3.8z"/><path class="b1" d="m386.3 652.3l0.5-4.4c0 0-6.2 0-6.9 0.5 0 0 0.5 3.7 0.6 4.2 0 0.6 5.8-0.3 5.8-0.3z"/><path class="b2" d="m375.8 661.5c7.3-0.2 10.9 0.4 11.7-0.8 0.8-1.2-1.2-8.8-1.2-8.8 0 0-1.6 0.7-5.9 0.3 0 0-1.8 2.2-3.6 3.2-1.8 0.9-8.3 1.7-9.3 2.7-0.8 0.7-2 3.6 8.3 3.4z"/><path class="h" d="m419.2 553.5c0 0 3 9.1 2.6 17-0.4 7.8 1.6 16.5 2.4 24.7 0.9 9.1 4.6 30.8 4.8 35.7 0.1 4.9-0.6 20.5-0.6 20.5l-7.4 0.2c0 0-6.3-37.9-7.9-41.8-1.6-3.8-9.6-31.4-9.9-34.5-0.3-3.1 16-21.8 16-21.8z"/><path class="h" d="m387.9 555.1c0 0-4.1 21.6-4.6 26.4-0.6 4.8-0.9 23.3-1.2 26.3-0.3 3-1.8 39.3-3.2 43.8h9.5c0 0 7.3-26.4 7.3-38.9 0-12.5 5.6-27.2 9.2-35.5 3.7-8.2 12-8.4 14.3-23.7 0 0-28.3-3.2-31.3 1.6z"/><path class="n" d="m407.2 481.5c0 0-7.5-2.8-10.9 2.9-3.5 5.7-3.2 17.1 0.6 18.5 3.8 1.4 9.5 0.7 11.4-2.9 1.9-3.5 3.7-8.7 3.6-12.2-0.1-3.4-2.7-5.3-4.7-6.3z"/><path class="n" d="m398.2 502.6c0 0 0.3 1.9-0.2 2.9-0.5 1 9.4 1 9.4 1 0 0 0.8-5.3 2.3-9.7 1.6-4.5-11.5 5.8-11.5 5.8z"/><path class="b3" d="m409.7 496.8c0 0-0.6 1.1-3.4 0.7-2.8-0.5-6.3-4.2-7.4-4.6-1.2-0.4-1.2-1.1-1.2-1.1l-0.7 1.1-1.3 0.1c0 0 1.2-3.4-0.5-4.7-1.8-1.4 1.7-10.8 10.7-7.7 0 0 6.4 1.3 6.8 5.2 0.4 4.2-1.4 9-3 11z"/><path class="b4" d="m397.4 505.4c0 0 0-1.9 0.9-2 0.8-0.2 9.2-1 10.2-0.6v2.1c0 0-1.9 1.3-11.1 0.5z"/><path class="n" d="m397.9 490.4c0.1-0.7 1.8-2.5 2.5-0.5 0.6 2-1 4.7-1.9 4.5-0.9-0.3-1-2.3-0.6-4z"/><path class="ag" d="m397.4 505.4c0 0-4.6 1.7-10 3.9 0 0-6.1 2.3-6.8 9.1-0.3 3.6-4.2 22.7-4.9 24.4-0.7 1.6-9.2 27.6-9.5 28.1-0.3 0.5 6.9 3.5 7.4 3.3 0.5-0.2 8.2-23.7 9-25.4 0 0 4.5-14.1 4.6-16.2 0 0 0.1 6 0.4 7.6 0.2 1.7-4 34.3-3.9 35.2 0.1 0.9 19.2 2 26.8 1.2 7.6-0.8 13.7-2.6 13.7-2.6 0 0-6-25.7-5.8-28.5 0.4-6.3 2.5-18 2.5-18l6.2 11.7-7.9 20.5 1.8 6.2c0 0 14.7-22.3 15.2-24.4 0.5-2-0.7-4.6-1.5-6.3-0.8-1.6-5.9-14.4-7.1-16.2-1.2-1.8-3.2-9-8.1-11-4.1-1.7-11-3.1-11-3.1z"/><path class="b5" d="m387.2 582.7l-34.7-8.9 6.2-24.3 34.8 8.9z"/><path class="b6" d="m363.2 576.2c0 0-1 1.6-1.4 2.1-0.4 0.4 0.9 0.7 1.4 0.2 0.6-0.4 0-2.3 0-2.3z"/><path class="b7" d="m370.4 581.7c0 0 0.6-0.6 0.7-1 0 0 0.2-0.8 0.3-1.3q0.1-0.2 0.2-0.4c0.1-0.3 0.6-1.1 0.8-2.1 0.1-1 0.6-5.4 0.6-5.4l-2.7-0.7-2.2-0.4c0 0-4.7 4.6-4.9 5.5q-0.1 0.2-0.1 0.3c-0.1 0.8 0.1 1.4 0.1 1.8 0 0.2 0 1.7 0.4 2 0.5 0.4 1 0.5 1.4 0.4 0 0 1 0.7 1.8 0.7 0 0 1 0.7 2 0.3 0 0 1 0.7 1.6 0.3z"/><path class="ag" d="m380.9 553.6c0 0-6.2 18.6-7.3 20.6 0 0-4.5-0.9-7.4-3.3l6.8-20.2z"/><path class="b8" d="m937.7 582.7c0 0 22.9-67.2-20.8-88-43.8-20.8-80.9 9.3-87.9 25.6-7 16.2-5.1 45.9 0.8 66.5 6 20.7 5.2 52.1-7.8 62.6-13 10.6-29.1 28-28.3 63.6 0.5 22 86.8-56.4 86.8-56.4z"/><path class="aO" d="m876.2 662.6c0 0-35.9 8-50.1 16.3-14.3 8.3-46 46.7-46 63.2 0 16.5 138.5 31.9 138.5 31.9l26.3 95.8c0 0 70-17.1 78.3-31.2 8.4-14.2-26.6-115.8-32.5-136.3-6.1-21-31.2-35.6-60.4-39.7-29.2-4.1-54.1 0-54.1 0z"/><path class="n" d="m927.8 662.3c0 0-0.8 43.7-35.4 45-34.7 1.3-27.5-41.9-27.5-41.9 0 0 25.4-10.3 62.9-3.1z"/><path class="b8" d="m942.5 530.5c0 0 12.2 70.2-22.7 121-36.1 52.5 22.7-121 22.7-121z"/><path class="n" d="m920.4 631.4c0 0-2.4 20.9 1.6 33.9 4 13-53 13.3-52.9 2.7 0-12.2 5.8-22.3 0.3-43.1-5.4-20.8 51 6.5 51 6.5z"/><path class="p" d="m876.2 634.1c0 0 18 18.7 41 1.9 0 0-1.9 12-18.5 13.6-16.5 1.5-22.5-15.5-22.5-15.5z"/><path class="n" d="m898.7 506.1c0 0 45.5 13.5 39 76.6-6.5 63.1-36.2 59.8-39 60.3-2.8 0.5-38 2.8-49.2-73.8-11.1-76.5 49.2-63.1 49.2-63.1z"/><path class="b8" d="m887 534.3c0 0 24.7 39.3 50.7 48.4 0 0 14.2-66-44.5-79.8-58.6-13.8-49.4 66.6-45.1 88.1 0 0 12.3-31.6 38.9-56.7z"/><path class="G" d="m853.8 528.4c0 0 13-25.2 35-26.4 22-1.1 35 18 35 18 0 0-8.6-21.5-35-21.5-26.4 0-35 29.9-35 29.9z"/><path class="b9" d="m943.2 726.4l15.5 143.4h-203l-15.4-143.4z"/><path fill-rule="evenodd" class="b9" d="m953.8 864.9h-204.8l-15.6-145.1h204.8zm-203.2-1.8h201.2l-15.2-141.6h-201.2z"/><path class="ba" d="m862.1 795.8c1.8 8.9-2.4 17.3-9.3 18.7-7 1.4-14.1-4.6-15.9-13.5-1.8-9 2.3-17.3 9.3-18.8 6.9-1.4 14 4.7 15.9 13.6z"/><path class="b9" d="m939.5 855.4h37.8v14.4h-37.8z"/><path fill-rule="evenodd" class="d" d="m821.7 439.4c-17.2 0-31.2-14-31.2-31.3 0-17.2 14-31.2 31.2-31.2 17.2 0 31.2 14 31.2 31.2 0 17.3-14 31.3-31.2 31.3zm0-60.7c-16.2 0-29.4 13.2-29.4 29.4 0 16.3 13.2 29.5 29.4 29.5 16.3 0 29.5-13.2 29.5-29.5 0-16.2-13.2-29.4-29.5-29.4z"/><path class="bb" d="m271.1 756.8v-2.7c5.3 0 10.6-0.1 15.8-0.4l0.1 2.7c-5.2 0.2-10.6 0.4-15.9 0.4zm-16-0.2c-5.2-0.1-10.6-0.4-15.9-0.7l0.1-2.6c5.3 0.3 10.7 0.5 15.9 0.7zm47.9-1.4l-0.3-2.6c5.3-0.5 10.6-1 15.8-1.7l0.3 2.6c-5.2 0.7-10.6 1.3-15.8 1.7zm-79.8-0.6c-5.4-0.6-10.8-1.2-15.8-2.1l0.4-2.6c5 0.8 10.3 1.5 15.7 2zm111.4-3.3l-0.4-2.6c5.1-0.9 10.3-1.9 15.6-3l0.5 2.6c-5.3 1.1-10.6 2.1-15.7 3zm-143-1.9c-5.3-1.3-10.5-2.8-15.4-4.4l0.9-2.6c4.8 1.7 9.9 3.2 15.1 4.4zm174.3-4.5l-0.6-2.6c4.8-1.2 9.9-2.5 15.4-3.9l0.7 2.5c-5.6 1.5-10.6 2.8-15.5 4zm-204.5-6c-5-2.3-9.7-5-14-7.9l1.4-2.2c4.3 2.8 8.9 5.4 13.7 7.7zm235.4-2.2l-0.7-2.5q3.3-1 6.6-1.9 4.4-1.2 8.7-2.4l0.7 2.5q-4.3 1.2-8.7 2.5-3.3 0.9-6.6 1.8zm138.3-2.2c-4.9-2.3-9.8-4.3-14.5-6.1l0.9-2.5c4.8 1.8 9.8 3.9 14.8 6.2zm-107.7-6.2l-0.7-2.6c5.7-1.5 10.8-2.7 15.6-3.6l0.5 2.6c-4.7 0.9-9.8 2.1-15.4 3.6zm78-4.3c-5.1-1.2-10.4-2.1-15.5-2.6l0.2-2.6c5.3 0.5 10.6 1.4 15.9 2.6zm-47-2l-0.3-2.6c5.5-0.7 10.8-1.1 16-1.2v2.6c-5.1 0.1-10.2 0.5-15.7 1.2zm-323.7-0.9c-4-3.7-7.6-7.7-10.8-12l2.1-1.6c3.1 4.2 6.6 8.1 10.5 11.7zm-19.2-25.8c-2.3-4.7-4.3-9.8-5.8-15l2.5-0.8c1.5 5.1 3.4 10 5.7 14.6zm-9.1-30.8c-0.7-5.1-1.1-10.5-1.1-16h2.6c0.1 5.3 0.4 10.6 1.1 15.7zm2.4-31.9l-2.7-0.2c0.5-5.2 1.4-10.6 2.4-15.9l2.6 0.5c-1 5.3-1.8 10.5-2.3 15.6zm6-31l-2.5-0.7c2.7-9.3 5.1-15 5.2-15.2l2.4 1c0 0.1-2.4 5.8-5.1 14.9z"/><path class="bb" d="m958.2 279.5c0 0-4.4-3.9-12.4-9.8l1.6-2.2c8.1 6 12.6 10 12.6 10.1zm-25.4-19.1c-4.4-2.9-8.9-5.7-13.4-8.5l1.4-2.2c4.5 2.7 9.1 5.6 13.5 8.5zm-27.2-16.3c-4.7-2.6-9.4-5-14.2-7.2l1.2-2.4c4.7 2.2 9.5 4.7 14.2 7.2zm-28.6-13.7c-4.9-2-9.9-3.9-14.8-5.7l0.9-2.5c5 1.8 10 3.7 14.9 5.8zm-201.7-3.3v-2.6c5.1-0.1 10.4-0.6 15.6-1.5l0.5 2.6c-5.4 0.9-10.8 1.4-16.1 1.5zm-16-0.8c-5.2-0.6-10.5-1.7-15.8-3.1l0.7-2.6c5.1 1.4 10.3 2.4 15.4 3.1zm47.8-4.3l-0.8-2.6q2.6-0.7 5.2-1.6c3.3-1.1 6.7-2.1 10-3.1l0.8 2.6c-3.4 0.9-6.7 1.9-10 3q-2.6 0.9-5.2 1.7zm140.1-2.3c-5.1-1.5-10.3-2.9-15.3-4l0.6-2.6c5.1 1.2 10.3 2.5 15.5 4.1zm-219-1.6c-4.6-1.8-9.4-3.9-14.6-6.4l1.1-2.4c5.2 2.4 9.9 4.5 14.5 6.3zm109.4-4.6l-0.6-2.6c5.2-1 10.6-1.9 15.8-2.5l0.4 2.6c-5.3 0.7-10.5 1.5-15.6 2.5zm78.6-0.9c-5.2-0.9-10.5-1.6-15.7-2.1l0.3-2.6c5.3 0.5 10.6 1.2 15.9 2.1zm-466.5-2.6l-1.4-2.2c4.5-3 9.1-5.8 13.5-8.5l1.4 2.3c-4.4 2.7-9 5.5-13.5 8.4zm419.2-0.3l-0.2-2.7c5.3-0.2 10.7-0.3 16.1-0.1l-0.1 2.6c-5.3-0.1-10.6-0.1-15.8 0.2zm-169.6-5.4c-4.5-2.4-9-4.9-13.9-7.7l1.3-2.3c4.9 2.7 9.4 5.3 13.8 7.7zm-222.3-10.7l-1.3-2.3c4.7-2.6 9.5-5.1 14.1-7.4l1.2 2.4c-4.6 2.2-9.3 4.7-14 7.3zm194.6-4.8c-5.2-2.9-9.8-5.3-14.1-7.4l1.2-2.4c4.3 2.1 8.9 4.6 14.1 7.4zm-166.1-9.2l-1.1-2.4c5-2.2 10-4.2 14.9-6l0.9 2.5c-4.8 1.8-9.8 3.8-14.7 5.9zm137.7-4.8c-5.1-2.2-9.9-4-14.8-5.6l0.8-2.5c5 1.6 9.9 3.5 15 5.7zm-108-6l-0.7-2.6c5.2-1.5 10.5-2.8 15.6-3.8l0.5 2.6c-5 1-10.2 2.3-15.4 3.8zm78-3.8c-5.1-1.1-10.3-1.9-15.5-2.5l0.3-2.6c5.2 0.5 10.6 1.4 15.8 2.5zm-47-2.4l-0.3-2.7c5.4-0.5 10.8-0.8 16-0.8v2.6c-5.1 0-10.4 0.3-15.7 0.9z"/><path class="bc" d="m627.5 763.6l-66.7-19.4 20-6z"/><path class="bd" d="m627.5 763.6l-24.9-25-15.4 3.1z"/><path class="be" d="m576.1 748.7l0.6 7.7 50.8 7.2z"/><path class="bc" d="m291.7 254.3l58.8-32.9-20.2-1.3z"/><path class="bd" d="m291.7 254.3l18.1-29.1 15.2-0.4z"/><path class="be" d="m337 229l1.2 7.4-46.5 17.9z"/></svg>