<svg version="1.2" xmlns="http://www.w3.org/2000/svg" viewBox="0 0 1000 1000" width="1000" height="1000"><style>.a{fill:#72f2da}.b{fill:#211915}.c{fill:none;stroke:#211915;stroke-miterlimit:10;stroke-width:2.2}.d{fill:#55d9e6}.e{fill:#2fc3d2}.f{fill:#00755a}.g{fill:#54545f}.h{fill:#e9bc9c}.i{fill:#96643d}.j{fill:#a77144}.k{fill:#53a097}.l{fill:#6ab3b1}.m{fill:#7d5638}.n{fill:#963e2a}.o{fill:#b89982}.p{fill:#5c3d18}.q{fill:#187942}.r{fill:#9a816f}.s{fill:none;stroke:#433c3f;stroke-miterlimit:10;stroke-width:2.2}.t{fill:#f4d94d}.u{fill:#fff}.v{fill:none;stroke:#7d5638;stroke-miterlimit:10;stroke-width:2.2}.w{fill:#b73249}.x{fill:#7d161c}.y{opacity:.3;mix-blend-mode:multiply;fill:#211915}.z{fill:#e0a364}.A{fill:#de9a59}.B{fill:#3f3f47}.C{fill:#95d7e8}.D{fill:#e2a76f}.E{fill:#2d2d32}.F{fill:#61a961}.G{fill:#686875}.H{fill:#b72d46}.I{fill:#7e7b89}.J{fill:#15232a}</style><g style="display:none"><path class="a" d="m1000 1000h-1000v-1000h1000z"/></g><g style="opacity:.1;mix-blend-mode:multiply"><path class="b" d="m426.4 540.9h9.1v-32.3h9.7v32.3h25.5v17.7h42.9v-123.7h45.1v106h106.9v-79.7h56.3v75.9h26.8v-73h24.9v-29.2h9.3v29.9h13.7v105.9h17.7v-61.7h33.4v64.2h16.7v-41.6h26.9c-15.8-124.4-122.1-220.6-250.8-220.6-139.6 0-252.8 113.2-252.8 252.8q0 9.7 0.7 19.3h38z"/><path class="b" d="m864.4 531.6v41.6h-16.7v-64.2h-33.4v61.7h-17.7v-105.9h-13.7v-29.9h-9.3v29.2h-24.9v73h-26.8v-75.9h-56.3v79.7h-106.9v-106h-45.1v123.7h-42.9v-17.7h-25.5v-32.3h-9.7v32.3h-9.1v42.2h-38c9.8 130.6 118.9 233.6 252.1 233.6 139.7 0 252.9-113.2 252.9-252.9q-0.1-16.3-2.1-32.2z"/><path class="b" d="m797.5 626.2q-1.1-4.3-2.5-8.6c-3.2-10.5-6.8-21.9-5.1-33 1.3-9 0.9-26.4-9.6-29.9-10.6-3.7-19.4 4.2-21.6 14.5-1.3 5.7-1.8 12.5-0.9 18.2 1.2 7.5 2.3 15.3-0.1 22.4-1.4 4.3-4 8.1-6.3 12-5 8.7-8.4 18.4-8.5 28.5-0.2 10 3.1 20.2 10.1 27.5 7.3 7.6 20.2 10.6 30.1 6.8 12.7-4.9 17.1-19.9 17.7-32.3 0.4-8.8-1.1-17.5-3.3-26.1z"/><path class="b" d="m523.8 626.2q-1.1-4.3-2.4-8.6c-3.3-10.5-6.8-21.9-5.2-33 1.4-9 0.9-26.4-9.6-29.9-10.6-3.7-19.4 4.2-21.6 14.5-1.3 5.7-1.8 12.5-0.9 18.2 1.2 7.5 2.3 15.3 0 22.4-1.5 4.3-4.1 8.1-6.3 12-5.1 8.7-8.5 18.4-8.6 28.5-0.2 10 3.2 20.2 10.1 27.5 7.3 7.6 20.2 10.6 30.1 6.8 12.7-4.9 17.1-19.9 17.7-32.3 0.4-8.8-1.1-17.5-3.3-26.1z"/><path class="b" d="m818.9 750h-360.8v-8.3h360.8z"/><path class="b" d="m727.8 741.7h-178.7v-341.9h178.7z"/><path class="b" d="m598.6 595.4v12.4h19.9v-12.4z"/><path class="b" d="m578.7 595.4v12.4h19.9v-12.4z"/><path class="b" d="m618.5 595.4v12.4h20v-12.4z"/><path class="b" d="m558.7 595.4v12.4h20v-12.4z"/><path class="b" d="m537.6 595.4v12.4h21.1v-12.4z"/><path class="b" d="m739.4 595.4h-21.1v12.4h21.1z"/><path class="b" d="m698.3 595.4v12.4h20v-12.4z"/><path class="b" d="m678.4 595.4v12.4h19.9v-12.4z"/><path class="b" d="m638.5 595.4v12.4h19.9v-12.4z"/><path class="b" d="m658.4 595.4v12.4h20v-12.4z"/><path class="b" d="m598.6 487.7v12.4h19.9v-12.4z"/><path class="b" d="m578.7 487.7v12.4h19.9v-12.4z"/><path class="b" d="m618.5 487.7v12.4h20v-12.4z"/><path class="b" d="m558.7 487.7v12.4h20v-12.4z"/><path class="b" d="m537.6 487.7v12.4h21.1v-12.4z"/><path class="b" d="m739.4 487.7h-21.1v12.4h21.1z"/><path class="b" d="m698.3 487.7v12.4h20v-12.4z"/><path class="b" d="m678.4 487.7v12.4h19.9v-12.4z"/><path class="b" d="m638.5 487.7v12.4h19.9v-12.4z"/><path class="b" d="m658.4 487.7v12.4h20v-12.4z"/><path class="b" d="m598.6 387.3v12.5h19.9v-12.5z"/><path class="b" d="m578.7 387.3v12.5h19.9v-12.5z"/><path class="b" d="m618.5 387.3v12.5h20v-12.5z"/><path class="b" d="m558.7 387.3v12.5h20v-12.5z"/><path class="b" d="m537.6 387.3v12.5h21.1v-12.5z"/><path class="b" d="m739.4 387.3h-21.1v12.5h21.1z"/><path class="b" d="m698.3 387.3v12.5h20v-12.5z"/><path class="b" d="m678.4 387.3v12.5h19.9v-12.5z"/><path class="b" d="m638.5 387.3v12.5h19.9v-12.5z"/><path class="b" d="m658.4 387.3v12.5h20v-12.5z"/><path class="b" d="m709.1 518l-28.7 28.7v26.5l28.7-28.7z"/><path class="b" d="m680.4 579h28.7v-28.8l-28.7 28.7z"/><path class="b" d="m680.4 516.5v24.4l24.4-24.4z"/><path class="b" d="m709.1 516.5h-4.3l-24.4 24.4v5.8l28.7-28.7z"/><path class="b" d="m680.4 573.2v5.7l28.7-28.7v-5.7z"/><path fill-rule="evenodd" class="b" d="m713.2 512.4v70.7h-36.9v-70.7zm-32.7 4.1v29.2h28.7v-29.2zm28.7 62.5v-29.2h-28.7v29.2z"/><path class="b" d="m655 518l-28.7 28.7v26.5l28.7-28.7z"/><path class="b" d="m626.3 579h28.7v-28.8l-28.7 28.7z"/><path class="b" d="m626.3 516.5v24.4l24.5-24.4z"/><path class="b" d="m655 516.5h-4.2l-24.5 24.4v5.8l28.7-28.7z"/><path class="b" d="m626.3 573.2v5.7l28.7-28.7v-5.7z"/><path fill-rule="evenodd" class="b" d="m659.1 512.4v70.7h-36.8v-70.7zm-32.8 4.1v29.2h28.7v-29.2zm28.7 62.5v-29.2h-28.7v29.2z"/><path class="b" d="m596.6 518l-28.7 28.7v26.5l28.7-28.7z"/><path class="b" d="m567.9 579h28.7v-28.8l-28.7 28.7z"/><path class="b" d="m567.9 516.5v24.4l24.4-24.4z"/><path class="b" d="m596.6 516.5h-4.3l-24.4 24.4v5.8l28.7-28.7z"/><path class="b" d="m567.9 573.2v5.7l28.7-28.7v-5.7z"/><path fill-rule="evenodd" class="b" d="m600.6 512.4v70.7h-36.8v-70.7zm-32.8 4.1v29.2h28.7v-29.2zm28.7 62.5v-29.2h-28.7v29.2z"/><path class="b" d="m709.1 414.7l-28.7 28.7v26.4l28.7-28.7z"/><path class="b" d="m680.4 475.7h28.7v-28.8l-28.7 28.7z"/><path class="b" d="m680.4 413.2v24.4l24.4-24.4z"/><path class="b" d="m709.1 413.2h-4.3l-24.4 24.4v5.8l28.7-28.7z"/><path class="b" d="m680.4 469.8v5.8l28.7-28.7v-5.8z"/><path fill-rule="evenodd" class="b" d="m713.2 409.1v70.6h-36.9v-70.6zm-32.7 4.1v29.2h28.7v-29.2zm28.7 62.5v-29.2h-28.7v29.2z"/><path class="b" d="m652.8 414.7l-28.6 28.7v26.4l28.6-28.7z"/><path class="b" d="m624.2 475.7h28.6v-28.8l-28.6 28.7z"/><path class="b" d="m624.2 413.2v24.4l24.4-24.4z"/><path class="b" d="m652.8 413.2h-4.2l-24.4 24.4v5.8l28.6-28.7z"/><path class="b" d="m624.2 469.8v5.8l28.6-28.7v-5.8z"/><path fill-rule="evenodd" class="b" d="m656.9 409.1v70.6h-36.8v-70.6zm-32.8 4.1v29.2h28.7v-29.2zm28.7 62.5v-29.2h-28.7v29.2z"/><path class="b" d="m596.6 414.7l-28.7 28.7v26.4l28.7-28.7z"/><path class="b" d="m567.9 475.7h28.7v-28.8l-28.7 28.7z"/><path class="b" d="m567.9 413.2v24.4l24.4-24.4z"/><path class="b" d="m596.6 413.2h-4.3l-24.4 24.4v5.8l28.7-28.7z"/><path class="b" d="m567.9 469.8v5.8l28.7-28.7v-5.8z"/><path fill-rule="evenodd" class="b" d="m600.6 409.1v70.6h-36.8v-70.6zm-32.8 4.1v29.2h28.7v-29.2zm28.7 62.5v-29.2h-28.7v29.2z"/><path fill-rule="evenodd" class="b" d="m715.8 717.8h-71.4v-82.3h71.4zm-66.5-4.9h61.6v-72.4h-61.6z"/><path class="b" d="m718.3 720.6h-76.8v-7.7h76.8z"/><path class="b" d="m649.3 640.4v47.3l47.3-47.3z"/><path class="b" d="m710.9 640.4h-6l-55.6 55.6v16.9h12.8l48.8-48.8z"/><path class="b" d="m710.9 672.4l-40.5 40.5h40.5z"/><path class="b" d="m696.6 640.4l-47.3 47.3v8.3l55.6-55.6z"/><path class="b" d="m710.9 664.1l-48.8 48.8h8.3l40.5-40.5z"/><path class="b" d="m630.7 635.1h-64c0-1.6-1.2-2.9-2.8-2.9v-15.2c1.6 0 2.8-1.3 2.8-2.9h64c0 1.6 1.3 2.9 2.9 2.9v15.2c-1.6 0-2.9 1.3-2.9 2.9z"/><path class="b" d="m701 365h-129.3c0-3.2-2.6-5.8-5.8-5.8v-30.8c3.2 0 5.8-2.6 5.8-5.8h129.3c0 3.2 2.6 5.8 5.8 5.8v30.8c-3.2 0-5.8 2.6-5.8 5.8z"/><path class="b" d="m578.7 330.3c0 1.3-1.1 2.4-2.5 2.4-1.3 0-2.4-1.1-2.4-2.4 0-1.4 1.1-2.5 2.4-2.5 1.4 0 2.5 1.1 2.5 2.5z"/><path class="b" d="m569.1 618c0 0.7-0.5 1.2-1.2 1.2-0.7 0-1.2-0.5-1.2-1.2 0-0.7 0.5-1.2 1.2-1.2 0.7 0 1.2 0.5 1.2 1.2z"/><path class="b" d="m630.9 618c0 0.7-0.5 1.2-1.2 1.2-0.6 0-1.2-0.5-1.2-1.2 0-0.7 0.6-1.2 1.2-1.2 0.7 0 1.2 0.5 1.2 1.2z"/><path class="b" d="m569.1 631.9c0 0.6-0.5 1.2-1.2 1.2-0.7 0-1.2-0.6-1.2-1.2 0-0.7 0.5-1.2 1.2-1.2 0.7 0 1.2 0.5 1.2 1.2z"/><path class="b" d="m630.9 631.9c0 0.6-0.5 1.2-1.2 1.2-0.6 0-1.2-0.6-1.2-1.2 0-0.7 0.6-1.2 1.2-1.2 0.7 0 1.2 0.5 1.2 1.2z"/><path class="b" d="m578.7 358.2c0 1.3-1.1 2.4-2.5 2.4-1.3 0-2.4-1.1-2.4-2.4 0-1.3 1.1-2.4 2.4-2.4 1.4 0 2.5 1.1 2.5 2.4z"/><path class="b" d="m699 330.3c0 1.3-1 2.4-2.4 2.4-1.3 0-2.4-1.1-2.4-2.4 0-1.4 1.1-2.5 2.4-2.5 1.4 0 2.4 1.1 2.4 2.5z"/><path class="b" d="m699 358.2c0 1.3-1 2.4-2.4 2.4-1.3 0-2.4-1.1-2.4-2.4 0-1.3 1.1-2.4 2.4-2.4 1.4 0 2.4 1.1 2.4 2.4z"/><path class="b" d="m590.4 387.3h-11.7v-22.3h11.7z"/><path class="b" d="m694.2 387.3h-11.7v-22.3h11.7z"/><path class="b" d="m501.2 591.7l2.3 136c0 1.9-1.5 3.6-3.5 3.6-1.9 0-3.5-1.5-3.6-3.5q0-0.1 0-0.1l2.3-136c0-0.7 0.6-1.3 1.3-1.2 0.7 0 1.2 0.5 1.2 1.2z"/><path class="b" d="m774.9 591.7l2.3 136c0 1.9-1.5 3.6-3.5 3.6-1.9 0-3.6-1.5-3.6-3.5q0-0.1 0-0.1l2.3-136c0-0.7 0.6-1.3 1.3-1.2 0.6 0 1.2 0.5 1.2 1.2z"/><path class="b" d="m534.5 734.9c0-5.1-4.1-9.3-9.3-9.3q-1.1 0-2.1 0.3c0.1-0.3 0.1-0.5 0.1-0.7 0-4.1-3.3-7.3-7.3-7.3-1.2 0-2.3 0.3-3.3 0.8-0.6-4.8-4.4-8.6-9.4-9.1-5.1-0.5-9.8 2.8-11.2 7.6-1.3-0.9-3-1.3-4.7-1.3-5.1 0-9.3 4.1-9.3 9.3q0 0.3 0 0.6c-4.2 0.9-7.3 4.7-7.3 9.1 0 2.7 1.1 5.1 2.9 6.8h12.8 32.4 12.8c1.8-1.7 2.9-4.1 2.9-6.8z"/><path class="b" d="m803.8 734.9c0-5.1-4.2-9.3-9.3-9.3q-1.1 0-2.1 0.3c0-0.3 0.1-0.5 0.1-0.7 0-4.1-3.3-7.3-7.4-7.3-1.1 0-2.3 0.3-3.2 0.8-0.7-4.8-4.5-8.6-9.5-9.1-5.1-0.5-9.7 2.8-11.1 7.6-1.4-0.9-3-1.3-4.7-1.3-5.2 0-9.4 4.1-9.4 9.3q0 0.3 0.1 0.6c-4.2 0.9-7.4 4.7-7.4 9.1 0 2.7 1.2 5.1 3 6.8h12.8 32.4 12.8c1.8-1.7 2.9-4.1 2.9-6.8z"/><path class="b" d="m727.8 727.7h-178.7v14h178.7z"/><path class="c" d="m463.5 741.7v-4.6c0-2.4 2-4.4 4.4-4.4h66.6c2.4 0 4.4 2 4.4 4.4v4.6"/><path class="c" d="m470.4 732.7v9"/><path class="c" d="m477.3 732.7v9"/><path class="c" d="m484.1 732.7v9"/><path class="c" d="m490.9 732.7v9"/><path class="c" d="m497.8 732.7v9"/><path class="c" d="m504.6 732.7v9"/><path class="c" d="m511.5 732.7v9"/><path class="c" d="m518.3 732.7v9"/><path class="c" d="m525.1 732.7v9"/><path class="c" d="m532 732.7v9"/><path class="c" d="m735.9 741.7v-4.6c0-2.4 2-4.4 4.5-4.4h66.5c2.5 0 4.5 2 4.5 4.4v4.6"/><path class="c" d="m742.9 732.7v9"/><path class="c" d="m749.7 732.7v9"/><path class="c" d="m756.5 732.7v9"/><path class="c" d="m763.4 732.7v9"/><path class="c" d="m770.2 732.7v9"/><path class="c" d="m777.1 732.7v9"/><path class="c" d="m783.9 732.7v9"/><path class="c" d="m790.7 732.7v9"/><path class="c" d="m797.6 732.7v9"/><path class="c" d="m804.4 732.7v9"/><path class="b" d="m590.3 237.2c0 40.4-32.8 73.2-73.2 73.2-40.4 0-73.1-32.8-73.1-73.2 0-40.4 32.7-73.1 73.1-73.1 40.4 0 73.2 32.7 73.2 73.1z"/><path class="b" d="m499.6 415.7c0-6.8-5.5-12.3-12.3-12.3q-2.1 0-3.9 0.6c-1-8.8-8.4-15.6-17.5-15.6-2.1 0-4.2 0.4-6.1 1.1 0.5-1.8 0.8-3.6 0.8-5.6 0-10.8-8.9-19.7-19.8-19.7-6.3 0-12 3.1-15.6 7.8-1.7-7.5-8.4-13.1-16.4-13.1-8.1 0-14.8 5.7-16.5 13.2-4.6-6.2-11.9-10.3-20.2-10.3-13.8 0-25 11.2-25 24.9 0 2.3 0.3 4.4 0.9 6.5-3.5-2.9-7.9-4.6-12.7-4.6-10.9 0-19.7 8.8-19.7 19.7 0 2.7 0.5 5.2 1.5 7.5h182.5q0-0.1 0-0.1z"/><path class="b" d="m726.9 360.2c0-6.9 5.5-12.4 12.3-12.4q2.1 0 3.9 0.7c1-8.8 8.4-15.7 17.5-15.7 2.2 0 4.2 0.4 6.1 1.1-0.5-1.7-0.8-3.6-0.8-5.5 0-10.9 8.9-19.8 19.8-19.8 6.3 0 12 3.1 15.6 7.8 1.7-7.5 8.4-13.1 16.4-13.1 8.1 0 14.9 5.7 16.5 13.2 4.6-6.2 11.9-10.3 20.2-10.3 13.8 0 25 11.2 25 25 0 2.2-0.3 4.3-0.8 6.4 3.4-2.8 7.8-4.6 12.6-4.6 10.9 0 19.7 8.9 19.7 19.8 0 2.6-0.5 5.1-1.4 7.4h-182.6q0 0 0 0z"/><path class="b" d="m829.6 478.1c0-4.8 3.8-8.6 8.5-8.6q1.5 0 2.7 0.5c0.7-6.1 5.9-10.9 12.1-10.9 1.5 0 3 0.3 4.3 0.8q-0.5-1.8-0.6-3.9c0-7.5 6.2-13.6 13.7-13.6 4.4 0 8.4 2.1 10.9 5.3 1.2-5.2 5.8-9 11.4-9 5.5 0 10.2 3.9 11.4 9.1 3.1-4.3 8.2-7.1 14-7.1 9.6 0 17.3 7.7 17.3 17.3 0 1.5-0.2 3-0.6 4.4 2.4-1.9 5.4-3.1 8.8-3.1 7.5 0 13.6 6.1 13.6 13.6 0 1.9-0.3 3.6-1 5.2h-126.5q0 0 0 0z"/><path class="b" d="m568.6 657h59.8v84.7h6.1v-90.9h-72v90.9h6.1z"/><path class="b" d="m628.4 657h-3.2l-56.6 56.5v28.2h1l58.8-58.8z"/><path class="b" d="m568.6 657v47.3l47.3-47.3z"/><path class="b" d="m628.4 741.7v-49.5l-49.5 49.5z"/><path class="b" d="m615.9 657l-47.3 47.3v9.2l56.6-56.5z"/><path class="b" d="m569.6 741.7h9.3l49.5-49.5v-9.3z"/><path class="c" d="m599.1 667.3v74.4"/><path class="b" d="m630.3 641.3h-65.1l-8.4 20.1h81.9z"/><path class="b" d="m556.8 661.4v5.9h81.9v-5.9z"/><path class="b" d="m594.7 710.6h-3.1c-0.4 0-0.8-0.3-0.8-0.8 0-0.4 0.4-0.7 0.8-0.7h3.1c0.4 0 0.8 0.3 0.8 0.7 0 0.5-0.4 0.8-0.8 0.8z"/><path class="b" d="m606.8 710.6h-3.1c-0.4 0-0.7-0.3-0.7-0.8 0-0.4 0.3-0.7 0.7-0.7h3.1c0.4 0 0.8 0.3 0.8 0.7 0 0.5-0.4 0.8-0.8 0.8z"/></g><path class="d" d="m426.4 532.9h9.1v-32.3h9.7v32.3h25.5v17.7h42.9v-123.7h45.1v106h106.9v-79.7h56.3v75.9h26.8v-73h24.9v-29.2h9.3v29.9h13.7v105.9h17.7v-61.7h33.4v64.2h16.7v-41.6h26.9c-15.8-124.4-122.1-220.6-250.8-220.6-139.6 0-252.8 113.2-252.8 252.8q0 9.7 0.7 19.3h38z"/><path class="e" d="m864.4 523.6v41.6h-16.7v-64.2h-33.4v61.7h-17.7v-105.9h-13.7v-29.9h-9.3v29.2h-24.9v73h-26.8v-75.9h-56.3v79.7h-106.9v-106h-45.1v123.7h-42.9v-17.7h-25.5v-32.3h-9.7v32.3h-9.1v42.2h-38c9.8 130.6 118.9 233.6 252.1 233.6 139.7 0 252.9-113.2 252.9-252.9q-0.1-16.3-2.1-32.2z"/><path class="f" d="m797.5 618.2q-1.1-4.3-2.5-8.6c-3.2-10.5-6.8-21.9-5.1-33 1.3-9 0.9-26.4-9.6-29.9-10.6-3.7-19.4 4.2-21.6 14.5-1.3 5.7-1.8 12.5-0.9 18.2 1.2 7.5 2.3 15.3-0.1 22.4-1.4 4.3-4 8.1-6.3 12-5 8.7-8.4 18.4-8.5 28.5-0.2 10 3.1 20.2 10.1 27.5 7.3 7.6 20.2 10.6 30.1 6.8 12.7-4.9 17.1-19.9 17.7-32.3 0.4-8.8-1.1-17.5-3.3-26.1z"/><path class="f" d="m523.8 618.2q-1.1-4.3-2.4-8.6c-3.3-10.5-6.8-21.9-5.2-33 1.4-9 0.9-26.4-9.6-29.9-10.6-3.7-19.4 4.2-21.6 14.5-1.3 5.7-1.8 12.5-0.9 18.2 1.2 7.5 2.3 15.3 0 22.4-1.5 4.3-4.1 8.1-6.3 12-5.1 8.7-8.5 18.4-8.6 28.5-0.2 10 3.2 20.2 10.1 27.5 7.3 7.6 20.2 10.6 30.1 6.8 12.7-4.9 17.1-19.9 17.7-32.3 0.4-8.8-1.1-17.5-3.3-26.1z"/><path class="g" d="m818.9 742h-360.8v-8.3h360.8z"/><path class="g" d="m954 951.7v8.3h-905.9v-8.3z"/><path class="h" d="m727.8 733.7h-178.7v-341.9h178.7z"/><path class="i" d="m598.6 587.4v12.4h19.9v-12.4z"/><path class="j" d="m578.7 587.4v12.4h19.9v-12.4z"/><path class="j" d="m618.5 587.4v12.4h20v-12.4z"/><path class="i" d="m558.7 587.4v12.4h20v-12.4z"/><path class="j" d="m537.6 587.4v12.4h21.1v-12.4z"/><path class="i" d="m739.4 587.4h-21.1v12.4h21.1z"/><path class="j" d="m698.3 587.4v12.4h20v-12.4z"/><path class="i" d="m678.4 587.4v12.4h19.9v-12.4z"/><path class="i" d="m638.5 587.4v12.4h19.9v-12.4z"/><path class="j" d="m658.4 587.4v12.4h20v-12.4z"/><path class="i" d="m598.6 479.7v12.4h19.9v-12.4z"/><path class="j" d="m578.7 479.7v12.4h19.9v-12.4z"/><path class="j" d="m618.5 479.7v12.4h20v-12.4z"/><path class="i" d="m558.7 479.7v12.4h20v-12.4z"/><path class="j" d="m537.6 479.7v12.4h21.1v-12.4z"/><path class="i" d="m739.4 479.7h-21.1v12.4h21.1z"/><path class="j" d="m698.3 479.7v12.4h20v-12.4z"/><path class="i" d="m678.4 479.7v12.4h19.9v-12.4z"/><path class="i" d="m638.5 479.7v12.4h19.9v-12.4z"/><path class="j" d="m658.4 479.7v12.4h20v-12.4z"/><path class="i" d="m598.6 379.3v12.5h19.9v-12.5z"/><path class="j" d="m578.7 379.3v12.5h19.9v-12.5z"/><path class="j" d="m618.5 379.3v12.5h20v-12.5z"/><path class="i" d="m558.7 379.3v12.5h20v-12.5z"/><path class="j" d="m537.6 379.3v12.5h21.1v-12.5z"/><path class="i" d="m739.4 379.3h-21.1v12.5h21.1z"/><path class="j" d="m698.3 379.3v12.5h20v-12.5z"/><path class="i" d="m678.4 379.3v12.5h19.9v-12.5z"/><path class="i" d="m638.5 379.3v12.5h19.9v-12.5z"/><path class="j" d="m658.4 379.3v12.5h20v-12.5z"/><path class="k" d="m709.1 510l-28.7 28.7v26.5l28.7-28.7z"/><path class="k" d="m680.4 571h28.7v-28.8l-28.7 28.7z"/><path class="k" d="m680.4 508.5v24.4l24.4-24.4z"/><path class="l" d="m709.1 508.5h-4.3l-24.4 24.4v5.8l28.7-28.7z"/><path class="l" d="m680.4 565.2v5.7l28.7-28.7v-5.7z"/><path fill-rule="evenodd" class="m" d="m713.2 504.4v70.7h-36.9v-70.7zm-32.7 4.1v29.2h28.7v-29.2zm28.7 62.5v-29.2h-28.7v29.2z"/><path class="k" d="m655 510l-28.7 28.7v26.5l28.7-28.7z"/><path class="k" d="m626.3 571h28.7v-28.8l-28.7 28.7z"/><path class="k" d="m626.3 508.5v24.4l24.5-24.4z"/><path class="l" d="m655 508.5h-4.2l-24.5 24.4v5.8l28.7-28.7z"/><path class="l" d="m626.3 565.2v5.7l28.7-28.7v-5.7z"/><path fill-rule="evenodd" class="m" d="m659.1 504.4v70.7h-36.8v-70.7zm-32.8 4.1v29.2h28.7v-29.2zm28.7 62.5v-29.2h-28.7v29.2z"/><path class="k" d="m596.6 510l-28.7 28.7v26.5l28.7-28.7z"/><path class="k" d="m567.9 571h28.7v-28.8l-28.7 28.7z"/><path class="k" d="m567.9 508.5v24.4l24.4-24.4z"/><path class="l" d="m596.6 508.5h-4.3l-24.4 24.4v5.8l28.7-28.7z"/><path class="l" d="m567.9 565.2v5.7l28.7-28.7v-5.7z"/><path fill-rule="evenodd" class="m" d="m600.6 504.4v70.7h-36.8v-70.7zm-32.8 4.1v29.2h28.7v-29.2zm28.7 62.5v-29.2h-28.7v29.2z"/><path class="k" d="m709.1 406.7l-28.7 28.7v26.4l28.7-28.7z"/><path class="k" d="m680.4 467.7h28.7v-28.8l-28.7 28.7z"/><path class="k" d="m680.4 405.2v24.4l24.4-24.4z"/><path class="l" d="m709.1 405.2h-4.3l-24.4 24.4v5.8l28.7-28.7z"/><path class="l" d="m680.4 461.8v5.8l28.7-28.7v-5.8z"/><path fill-rule="evenodd" class="m" d="m713.2 401.1v70.6h-36.9v-70.6zm-32.7 4.1v29.2h28.7v-29.2zm28.7 62.5v-29.2h-28.7v29.2z"/><path class="k" d="m652.8 406.7l-28.6 28.7v26.4l28.6-28.7z"/><path class="k" d="m624.2 467.7h28.6v-28.8l-28.6 28.7z"/><path class="k" d="m624.2 405.2v24.4l24.4-24.4z"/><path class="l" d="m652.8 405.2h-4.2l-24.4 24.4v5.8l28.6-28.7z"/><path class="l" d="m624.2 461.8v5.8l28.6-28.7v-5.8z"/><path fill-rule="evenodd" class="m" d="m656.9 401.1v70.6h-36.8v-70.6zm-32.8 4.1v29.2h28.7v-29.2zm28.7 62.5v-29.2h-28.7v29.2z"/><path class="k" d="m596.6 406.7l-28.7 28.7v26.4l28.7-28.7z"/><path class="k" d="m567.9 467.7h28.7v-28.8l-28.7 28.7z"/><path class="k" d="m567.9 405.2v24.4l24.4-24.4z"/><path class="l" d="m596.6 405.2h-4.3l-24.4 24.4v5.8l28.7-28.7z"/><path class="l" d="m567.9 461.8v5.8l28.7-28.7v-5.8z"/><path fill-rule="evenodd" class="m" d="m600.6 401.1v70.6h-36.8v-70.6zm-32.8 4.1v29.2h28.7v-29.2zm28.7 62.5v-29.2h-28.7v29.2z"/><path fill-rule="evenodd" class="m" d="m715.8 709.8h-71.4v-82.3h71.4zm-66.5-4.9h61.6v-72.4h-61.6z"/><path class="j" d="m718.3 712.6h-76.8v-7.7h76.8z"/><path class="k" d="m649.3 632.4v47.3l47.3-47.3z"/><path class="k" d="m710.9 632.4h-6l-55.6 55.6v16.9h12.8l48.8-48.8z"/><path class="k" d="m710.9 664.4l-40.5 40.5h40.5z"/><path class="l" d="m696.6 632.4l-47.3 47.3v8.3l55.6-55.6z"/><path class="l" d="m710.9 656.1l-48.8 48.8h8.3l40.5-40.5z"/><path class="n" d="m630.7 627.1h-64c0-1.6-1.2-2.9-2.8-2.9v-15.2c1.6 0 2.8-1.3 2.8-2.9h64c0 1.6 1.3 2.9 2.9 2.9v15.2c-1.6 0-2.9 1.3-2.9 2.9z"/><path class="n" d="m701 357h-129.3c0-3.2-2.6-5.8-5.8-5.8v-30.8c3.2 0 5.8-2.6 5.8-5.8h129.3c0 3.2 2.6 5.8 5.8 5.8v30.8c-3.2 0-5.8 2.6-5.8 5.8z"/><path class="o" d="m578.7 322.3c0 1.3-1.1 2.4-2.5 2.4-1.3 0-2.4-1.1-2.4-2.4 0-1.4 1.1-2.5 2.4-2.5 1.4 0 2.5 1.1 2.5 2.5z"/><path class="o" d="m569.1 610c0 0.7-0.5 1.2-1.2 1.2-0.7 0-1.2-0.5-1.2-1.2 0-0.7 0.5-1.2 1.2-1.2 0.7 0 1.2 0.5 1.2 1.2z"/><path class="o" d="m630.9 610c0 0.7-0.5 1.2-1.2 1.2-0.6 0-1.2-0.5-1.2-1.2 0-0.7 0.6-1.2 1.2-1.2 0.7 0 1.2 0.5 1.2 1.2z"/><path class="o" d="m569.1 623.9c0 0.6-0.5 1.2-1.2 1.2-0.7 0-1.2-0.6-1.2-1.2 0-0.7 0.5-1.2 1.2-1.2 0.7 0 1.2 0.5 1.2 1.2z"/><path class="o" d="m630.9 623.9c0 0.6-0.5 1.2-1.2 1.2-0.6 0-1.2-0.6-1.2-1.2 0-0.7 0.6-1.2 1.2-1.2 0.7 0 1.2 0.5 1.2 1.2z"/><path class="o" d="m578.7 350.2c0 1.3-1.1 2.4-2.5 2.4-1.3 0-2.4-1.1-2.4-2.4 0-1.3 1.1-2.4 2.4-2.4 1.4 0 2.5 1.1 2.5 2.4z"/><path class="o" d="m699 322.3c0 1.3-1 2.4-2.4 2.4-1.3 0-2.4-1.1-2.4-2.4 0-1.4 1.1-2.5 2.4-2.5 1.4 0 2.4 1.1 2.4 2.5z"/><path class="o" d="m699 350.2c0 1.3-1 2.4-2.4 2.4-1.3 0-2.4-1.1-2.4-2.4 0-1.3 1.1-2.4 2.4-2.4 1.4 0 2.4 1.1 2.4 2.4z"/><path class="g" d="m590.4 379.3h-11.7v-22.3h11.7z"/><path class="g" d="m694.2 379.3h-11.7v-22.3h11.7z"/><path class="p" d="m501.2 583.7l2.3 136c0 1.9-1.5 3.6-3.5 3.6-1.9 0-3.5-1.5-3.6-3.5q0-0.1 0-0.1l2.3-136c0-0.7 0.6-1.3 1.3-1.2 0.7 0 1.2 0.5 1.2 1.2z"/><path class="p" d="m774.9 583.7l2.3 136c0 1.9-1.5 3.6-3.5 3.6-1.9 0-3.6-1.5-3.6-3.5q0-0.1 0-0.1l2.3-136c0-0.7 0.6-1.3 1.3-1.2 0.6 0 1.2 0.5 1.2 1.2z"/><path class="q" d="m534.5 726.9c0-5.1-4.1-9.3-9.3-9.3q-1.1 0-2.1 0.3c0.1-0.3 0.1-0.5 0.1-0.7 0-4.1-3.3-7.3-7.3-7.3-1.2 0-2.3 0.3-3.3 0.8-0.6-4.8-4.4-8.6-9.4-9.1-5.1-0.5-9.8 2.8-11.2 7.6-1.3-0.9-3-1.3-4.7-1.3-5.1 0-9.3 4.1-9.3 9.3q0 0.3 0 0.6c-4.2 0.9-7.3 4.7-7.3 9.1 0 2.7 1.1 5.1 2.9 6.8h12.8 32.4 12.8c1.8-1.7 2.9-4.1 2.9-6.8z"/><path class="q" d="m803.8 726.9c0-5.1-4.2-9.3-9.3-9.3q-1.1 0-2.1 0.3c0-0.3 0.1-0.5 0.1-0.7 0-4.1-3.3-7.3-7.4-7.3-1.1 0-2.3 0.3-3.2 0.8-0.7-4.8-4.5-8.6-9.5-9.1-5.1-0.5-9.7 2.8-11.1 7.6-1.4-0.9-3-1.3-4.7-1.3-5.2 0-9.4 4.1-9.4 9.3q0 0.3 0.1 0.6c-4.2 0.9-7.4 4.7-7.4 9.1 0 2.7 1.2 5.1 3 6.8h12.8 32.4 12.8c1.8-1.7 2.9-4.1 2.9-6.8z"/><path class="r" d="m727.8 719.7h-178.7v14h178.7z"/><path class="s" d="m463.5 733.7v-4.6c0-2.4 2-4.4 4.4-4.4h66.6c2.4 0 4.4 2 4.4 4.4v4.6"/><path class="s" d="m470.4 724.7v9"/><path class="s" d="m477.3 724.7v9"/><path class="s" d="m484.1 724.7v9"/><path class="s" d="m490.9 724.7v9"/><path class="s" d="m497.8 724.7v9"/><path class="s" d="m504.6 724.7v9"/><path class="s" d="m511.5 724.7v9"/><path class="s" d="m518.3 724.7v9"/><path class="s" d="m525.1 724.7v9"/><path class="s" d="m532 724.7v9"/><path class="s" d="m735.9 733.7v-4.6c0-2.4 2-4.4 4.5-4.4h66.5c2.5 0 4.5 2 4.5 4.4v4.6"/><path class="s" d="m742.9 724.7v9"/><path class="s" d="m749.7 724.7v9"/><path class="s" d="m756.5 724.7v9"/><path class="s" d="m763.4 724.7v9"/><path class="s" d="m770.2 724.7v9"/><path class="s" d="m777.1 724.7v9"/><path class="s" d="m783.9 724.7v9"/><path class="s" d="m790.7 724.7v9"/><path class="s" d="m797.6 724.7v9"/><path class="s" d="m804.4 724.7v9"/><path class="t" d="m590.3 229.2c0 40.4-32.8 73.2-73.2 73.2-40.4 0-73.1-32.8-73.1-73.2 0-40.4 32.7-73.1 73.1-73.1 40.4 0 73.2 32.7 73.2 73.1z"/><path class="u" d="m499.6 407.7c0-6.8-5.5-12.3-12.3-12.3q-2.1 0-3.9 0.6c-1-8.8-8.4-15.6-17.5-15.6-2.1 0-4.2 0.4-6.1 1.1 0.5-1.8 0.8-3.6 0.8-5.6 0-10.8-8.9-19.7-19.8-19.7-6.3 0-12 3.1-15.6 7.8-1.7-7.5-8.4-13.1-16.4-13.1-8.1 0-14.8 5.7-16.5 13.2-4.6-6.2-11.9-10.3-20.2-10.3-13.8 0-25 11.2-25 24.9 0 2.3 0.3 4.4 0.9 6.5-3.5-2.9-7.9-4.6-12.7-4.6-10.9 0-19.7 8.8-19.7 19.7 0 2.7 0.5 5.2 1.5 7.5h182.5q0-0.1 0-0.1z"/><path class="u" d="m726.9 352.2c0-6.9 5.5-12.4 12.3-12.4q2.1 0 3.9 0.7c1-8.8 8.4-15.7 17.5-15.7 2.2 0 4.2 0.4 6.1 1.1-0.5-1.7-0.8-3.6-0.8-5.5 0-10.9 8.9-19.8 19.8-19.8 6.3 0 12 3.1 15.6 7.8 1.7-7.5 8.4-13.1 16.4-13.1 8.1 0 14.9 5.7 16.5 13.2 4.6-6.2 11.9-10.3 20.2-10.3 13.8 0 25 11.2 25 25 0 2.2-0.3 4.3-0.8 6.4 3.4-2.8 7.8-4.6 12.6-4.6 10.9 0 19.7 8.9 19.7 19.8 0 2.6-0.5 5.1-1.4 7.4h-182.6q0 0 0 0z"/><path class="u" d="m829.6 470.1c0-4.8 3.8-8.6 8.5-8.6q1.5 0 2.7 0.5c0.7-6.1 5.9-10.9 12.1-10.9 1.5 0 3 0.3 4.3 0.8q-0.5-1.8-0.6-3.9c0-7.5 6.2-13.6 13.7-13.6 4.4 0 8.4 2.1 10.9 5.3 1.2-5.2 5.8-9 11.4-9 5.5 0 10.2 3.9 11.4 9.1 3.1-4.3 8.2-7.1 14-7.1 9.6 0 17.3 7.7 17.3 17.3 0 1.5-0.2 3-0.6 4.4 2.4-1.9 5.4-3.1 8.8-3.1 7.5 0 13.6 6.1 13.6 13.6 0 1.9-0.3 3.6-1 5.2h-126.5q0 0 0 0z"/><path class="m" d="m568.6 649h59.8v84.7h6.1v-90.9h-72v90.9h6.1z"/><path class="k" d="m628.4 649h-3.2l-56.6 56.5v28.2h1l58.8-58.8z"/><path class="k" d="m568.6 649v47.3l47.3-47.3z"/><path class="k" d="m628.4 733.7v-49.5l-49.5 49.5z"/><path class="l" d="m615.9 649l-47.3 47.3v9.2l56.6-56.5z"/><path class="l" d="m569.6 733.7h9.3l49.5-49.5v-9.3z"/><path class="v" d="m599.1 659.3v74.4"/><path class="w" d="m630.3 633.3h-65.1l-8.4 20.1h81.9z"/><path class="x" d="m556.8 653.4v5.9h81.9v-5.9z"/><g style="opacity:.3;mix-blend-mode:multiply"></g><path class="y" d="m601.3 323.3v26.7h-7.2v-10.9h-8.4v10.9h-7.2v-26.7h7.2v9.9h8.4v-9.9zm30.7 13.3q0 6.8-3.3 10.3-3.3 3.5-9.7 3.5-6.2 0-9.6-3.6-3.3-3.5-3.3-10.2 0-6.7 3.3-10.2 3.3-3.5 9.7-3.5 6.3 0 9.6 3.5 3.3 3.5 3.3 10.2zm-18.4 0q0 7.8 5.4 7.8 2.8 0 4.1-1.9 1.3-1.9 1.3-5.9 0-4-1.3-5.8-1.4-2-4-2-5.5 0-5.5 7.8zm33.8-7.4v20.8h-7.2v-20.8h-6.5v-5.9h20.2v5.9zm26.2 14.9v5.9h-15.9v-26.7h15.9v5.8h-8.7v4.2h8v5.8h-8v5zm22.2 5.9h-17.5v-26.7h7.2v20.9h10.3z"/><path class="m" d="m594.7 702.6h-3.1c-0.4 0-0.8-0.3-0.8-0.8 0-0.4 0.4-0.7 0.8-0.7h3.1c0.4 0 0.8 0.3 0.8 0.7 0 0.5-0.4 0.8-0.8 0.8z"/><path class="m" d="m606.8 702.6h-3.1c-0.4 0-0.7-0.3-0.7-0.8 0-0.4 0.3-0.7 0.7-0.7h3.1c0.4 0 0.8 0.3 0.8 0.7 0 0.5-0.4 0.8-0.8 0.8z"/><path class="z" d="m382.6 498.8l-12.2 3.7c-11.6 3.6-24.1-3-27.7-14.7l-0.4-1.4c-3.6-11.7 3-24.1 14.7-27.7l12.1-3.7c11.7-3.6 24.2 3 27.7 14.7l0.5 1.4c3.5 11.7-3.1 24.1-14.7 27.7z"/><path class="A" d="m227.7 870.7c0 0 52.2-63 50.5-103.6h-144.3v103.6z"/><path class="B" d="m332.9 777.3h-197.8c-16.7 0-30.3-13.6-30.3-30.3v-407.3c0-16.8 13.6-30.3 30.3-30.3h197.8c16.7 0 30.3 13.5 30.3 30.3v407.3c0 16.7-13.6 30.3-30.3 30.3z"/><path class="C" d="m336.2 734.3h-204.4v-396.1h204.4z"/><path class="t" d="m131.8 542.2v155.2l77.6-77.6z"/><path class="t" d="m240.5 650.9l-83.3 83.4h143.4l11.6-11.7z"/><path class="t" d="m214.4 467.4h-82.6v15.4l33.5 33.6z"/><path class="t" d="m336.2 687.2v-132l-66 66z"/><path class="t" d="m276.6 467.4l-80.1 80.1 42.6 42.6 97.1-97.1v-25.6z"/><path class="u" d="m196.5 547.5l80.1-80.1h-62.2l-49 49-33.6-33.6v59.4l77.6 77.6-77.6 77.6v36.9h25.4l83.3-83.4 71.7 71.7-11.6 11.7h23.3 12.3v-2.4-44.7l-66-66 66-66v-62.2l-97.1 97.1z"/><path class="b" d="m258.6 327.1h-43.3c-2 0-3.5-1.6-3.5-3.5 0-2 1.5-3.6 3.5-3.6h43.3c2 0 3.6 1.6 3.6 3.6 0 1.9-1.6 3.5-3.6 3.5z"/><path class="b" d="m103.9 398.7h0.8v-27.4h-0.8c-2.2 0-4.1 1.9-4.1 4.1v19.2c0 2.2 1.9 4.1 4.1 4.1z"/><path class="D" d="m78.5 870.7c0.6-24.5 0-49-1.8-73.5-0.3-4.6-0.7-9.4-2.2-13.8-1.9-5.7-5.5-10.6-8.7-15.8-13.6-22.4-17.8-49.2-20.9-75.3-2.2-18.7-4.1-37.9 0.3-56.3 5.1-21.7 18.5-40.5 31.6-58.6 12.1-16.8 24.2-33.5 37.1-49.7 6.3-8 14.4-16.7 24.6-16.3 10.4 0.4 18.1 10.5 20.1 20.7 2.6 13.4-2.2 27.1-7.9 39.5-9 19.7-20.5 38.3-34.1 55.2 9.2 3.3 15.1 11.4 20.9 19.2 17.7 23.9 32.6 50.3 40.6 78.9 7.9 28.7 8.7 59.8-1.3 87.8v58z"/><path class="u" d="m242.4 908.6h-173.3v-47h173.3z"/><path class="E" d="m257.8 908.6h-204.1v46.4h204.1z"/><path class="F" d="m305.1 491h-139.1c-9.7 0-17.5-7.8-17.5-17.5v-11.3c0-9.7 7.8-17.5 17.5-17.5h139.1c9.6 0 17.5 7.8 17.5 17.5v11.3c0 9.7-7.9 17.5-17.5 17.5z"/><path class="u" d="m233.6 763.8l-3.3-3.3 3.3-3.3 3.3 3.3z"/><path class="u" d="m237.5 759.9l-3.3-3.3 3.3-3.2 3.2 3.2z"/><path class="u" d="m241.3 756l-3.2-3.2 3.2-3.3 3.3 3.3z"/><path class="u" d="m229.6 759.8l-3.2-3.2 3.2-3.3 3.3 3.3z"/><path class="u" d="m233.5 755.9l-3.3-3.2 3.3-3.3 3.3 3.3z"/><path class="u" d="m237.4 752.1l-3.3-3.3 3.3-3.3 3.3 3.3z"/><path class="u" d="m225.7 755.9l-3.3-3.3 3.3-3.3 3.2 3.3z"/><path class="u" d="m229.5 752l-3.2-3.3 3.2-3.3 3.3 3.3z"/><path class="u" d="m233.4 748.1l-3.3-3.3 3.3-3.2 3.3 3.2z"/><path class="F" d="m270.2 400.5c0 18.3-14.9 33.2-33.2 33.2-18.4 0-33.3-14.9-33.3-33.2 0-18.4 14.9-33.3 33.3-33.3 18.3 0 33.2 14.9 33.2 33.3z"/><path class="u" d="m221.5 402.3l13.8 9.3-7.2 0.7 24.3-28.5c1-1.2 2.7-1.3 3.8-0.4 1.1 1 1.3 2.5 0.5 3.6l-20.7 31.3-0.2 0.3c-1.3 2-4.1 2.6-6.1 1.2q-0.5-0.3-0.9-0.8l-10.9-12.6c-1-1.1-0.9-2.9 0.3-3.8 0.9-0.9 2.3-0.9 3.3-0.3z"/><path class="u" d="m336.2 355.6h-204.4v-17.4h204.4z"/><path class="F" d="m163.9 352.2h-19.1v-10.6h19.1z"/><path class="F" d="m167.5 349.9h-3.6v-6h3.6z"/><path class="G" d="m181.4 343.9q-1.1 0-1.8 0.8-0.6 0.8-0.6 2.3 0 1.5 0.6 2.2 0.6 0.8 1.8 0.8 0.5 0 1-0.1 0.5-0.1 1-0.3v1.2q-1 0.3-2.2 0.3-1.7 0-2.7-1.1-0.9-1-0.9-3 0-1.3 0.4-2.2 0.5-1 1.4-1.5 0.8-0.5 2-0.5 1.3 0 2.3 0.5l-0.5 1.1q-0.4-0.2-0.8-0.3-0.5-0.2-1-0.2zm8.3 6v1.1h-4.6v-8.1h4.6v1.1h-3.2v2.2h3v1.1h-3v2.6zm6.5 1.1h-4.8v-8.1h1.3v7h3.5zm6.1 0h-4.8v-8.1h1.4v6.9h3.4zm6.7-5.6q0 1.3-0.8 1.9-0.8 0.7-2.3 0.7h-0.9v3h-1.3v-8.1h2.3q1.5 0 2.3 0.7 0.7 0.6 0.7 1.8zm-4-1.3v2.8h0.7q1 0 1.5-0.4 0.5-0.3 0.5-1.1 0-0.7-0.4-1-0.5-0.3-1.4-0.3zm12.1-1.2v8.1h-1.4v-3.6h-3.7v3.6h-1.3v-8.1h1.3v3.4h3.7v-3.4zm9.3 4.1q0 2-1 3-0.9 1.1-2.7 1.1-1.9 0-2.9-1-0.9-1.1-0.9-3.1 0-2 0.9-3.1 1-1.1 2.9-1.1 1.8 0 2.7 1.1 1 1.1 1 3.1zm-6.1 0q0 1.5 0.6 2.2 0.6 0.8 1.8 0.8 1.1 0 1.7-0.7 0.6-0.8 0.6-2.3 0-1.5-0.6-2.3-0.6-0.7-1.7-0.7-1.2 0-1.8 0.7-0.6 0.8-0.6 2.3zm14.6-4.1v8.1h-1.6l-4-6.4v0.3q0.1 1.1 0.1 1.9v4.2h-1.2v-8.1h1.6l3.9 6.5h0.1q0-0.2-0.1-1 0-0.8 0-1.2v-4.3zm6.7 7v1.1h-4.6v-8.1h4.6v1.2h-3.2v2.2h3v1.1h-3v2.5z"/><path class="G" d="m290.1 351h-1.4l3.2-6.9h-4.2v-1.2h5.6v0.9zm4.4-0.7q0-0.4 0.2-0.6 0.2-0.2 0.6-0.2 0.4 0 0.6 0.2 0.2 0.3 0.2 0.6 0 0.4-0.2 0.7-0.2 0.2-0.6 0.2-0.4 0-0.6-0.2-0.2-0.3-0.2-0.7zm0-4.7q0-0.8 0.8-0.8 0.4 0 0.6 0.2 0.2 0.2 0.2 0.6 0 0.4-0.2 0.6-0.2 0.3-0.6 0.3-0.4 0-0.6-0.3-0.2-0.2-0.2-0.6zm6.7-2.7v8.1h-1.3v-5.2q0-0.9 0-1.5-0.1 0.2-0.3 0.3-0.2 0.2-1.2 1l-0.7-0.8 2.4-1.9zm8.1 4.1q0 2.1-0.7 3.1-0.6 1-2 1-1.4 0-2.1-1-0.7-1.1-0.7-3.1 0-2.2 0.7-3.2 0.7-1 2.1-1 1.3 0 2 1.1 0.7 1 0.7 3.1zm-4.2 0q0 1.6 0.4 2.4 0.3 0.7 1.1 0.7 0.7 0 1-0.8 0.4-0.7 0.4-2.3 0-1.6-0.4-2.4-0.3-0.7-1-0.7-0.8 0-1.1 0.7-0.4 0.7-0.4 2.4zm13.3 4h-0.9l-0.3-0.8q-0.5 0.5-0.9 0.7-0.4 0.2-1.2 0.2-0.9 0-1.4-0.4-0.5-0.5-0.5-1.4 0-1 0.7-1.4 0.7-0.5 2.2-0.6h1v-0.3q0-0.6-0.2-0.9-0.3-0.3-0.9-0.3-0.5 0-0.9 0.1-0.4 0.2-0.8 0.4l-0.4-1q0.5-0.2 1-0.4 0.6-0.1 1.2-0.1 1.1 0 1.7 0.5 0.6 0.5 0.6 1.6zm-2.8-0.9q0.7 0 1.1-0.4 0.4-0.4 0.4-1.1v-0.5h-0.8q-0.9 0.1-1.3 0.3-0.4 0.3-0.4 0.9 0 0.4 0.2 0.6 0.3 0.2 0.8 0.2zm9.8-2.3v3.2h-1.3v-3.8q0-0.7-0.3-1-0.2-0.4-0.8-0.4-0.8 0-1.1 0.5-0.4 0.5-0.4 1.7v3h-1.3v-6.1h1.1l0.1 0.8h0.1q0.3-0.4 0.7-0.7 0.5-0.2 1.1-0.2 1.4 0 1.9 0.9h0.1q0.2-0.4 0.7-0.7 0.5-0.2 1.2-0.2 1.1 0 1.5 0.5 0.6 0.6 0.6 1.7v4h-1.3v-3.8q0-0.7-0.3-1-0.3-0.4-0.8-0.4-0.8 0-1.2 0.5-0.3 0.5-0.3 1.5z"/><path class="u" d="m178.7 477v-18.6h6.4q3.8 0 5.7 1.2 1.8 1.1 1.8 3.5 0 1.5-0.8 2.6-0.8 1.1-2.1 1.4v0.2q1.7 0.4 2.5 1.5 0.8 1.1 0.8 2.8 0 2.5-1.9 4-1.9 1.4-5.2 1.4zm5-14.8v3.4h1.5q1.1 0 1.7-0.5 0.6-0.4 0.6-1.3 0-1.6-2.4-1.6zm1.7 7h-1.7v3.9h1.8q2.3 0 2.3-2 0-0.9-0.6-1.4-0.6-0.5-1.8-0.5zm28.2-1.5q0 4.7-2.3 7.1-2.3 2.5-6.7 2.5-4.4 0-6.7-2.5-2.4-2.4-2.4-7.1 0-4.7 2.3-7.1 2.4-2.5 6.8-2.5 4.4 0 6.7 2.5 2.3 2.4 2.3 7.1zm-12.8 0q0 5.4 3.8 5.4 1.9 0 2.8-1.3 0.9-1.3 0.9-4.1 0-2.8-0.9-4.1-1-1.3-2.8-1.3-3.8 0-3.8 5.4zm33.5 0q0 4.7-2.3 7.1-2.3 2.5-6.7 2.5-4.4 0-6.7-2.5-2.3-2.4-2.3-7.1 0-4.7 2.3-7.1 2.3-2.5 6.7-2.5 4.4 0 6.7 2.5 2.3 2.4 2.3 7.1zm-12.8 0q0 5.4 3.8 5.4 1.9 0 2.8-1.3 0.9-1.3 0.9-4.1 0-2.8-0.9-4.1-0.9-1.3-2.8-1.3-3.8 0-3.8 5.4zm26.3-0.9l5.7 10.2h-5.6l-3.7-7.1-1.5 0.9v6.2h-5v-18.6h5v8.1q0.4-0.7 1.5-2.4l3.9-5.7h5.5zm18.8 6.2v4.1h-11v-18.6h11v4h-6v3h5.5v4h-5.5v3.5zm19-5.6q0 4.7-2.6 7.2-2.5 2.5-7.2 2.5h-6v-18.6h6.5q4.4 0 6.9 2.3 2.4 2.3 2.4 6.6zm-5.2 0.2q0-2.6-1-3.8-1-1.2-3.1-1.2h-1.4v10.4h1.1q2.3 0 3.3-1.3 1.1-1.4 1.1-4.1zm13-9.1l-0.6 12h-4.2l-0.6-12zm-5.5 16.5q0-1.2 0.7-1.8 0.7-0.7 2-0.7 1.3 0 2 0.7 0.6 0.6 0.6 1.8 0 1.1-0.7 1.8-0.7 0.6-1.9 0.6-1.3 0-2-0.6-0.7-0.7-0.7-1.8z"/><path class="G" d="m261.5 345.3l1-1.3c-1.5-1.1-3.9-2.3-7.2-2.3-3.2 0-5.6 1.2-7.1 2.3l1 1.3c1.5-0.9 3.5-1.7 6.1-1.7 2.7 0 4.7 0.8 6.2 1.7z"/><path class="G" d="m252.6 350.2l1.3 1.9c0.5 0 0.9-0.1 1.4-0.1 0.4 0 0.8 0.1 1.2 0.1l1.4-1.9c-0.8-0.3-1.6-0.5-2.6-0.5-1 0-1.9 0.2-2.7 0.5z"/><path class="G" d="m250.1 346.7l1.2 1.6c1.1-0.4 2.5-0.7 4-0.7 1.5 0 2.9 0.3 4 0.7l1.2-1.6c-1.4-0.6-3.1-1.2-5.2-1.2-2.1 0-3.8 0.6-5.2 1.2z"/><path class="D" d="m374.2 551.9l-4.1 1.3c-11.5 3.5-23.8-3-27.3-14.5-3.5-11.4 3-23.7 14.5-27.2l4.1-1.3c11.5-3.5 23.7 3 27.2 14.5 3.5 11.5-3 23.7-14.4 27.2z"/><path class="D" d="m372.6 606.8l-4 1.3c-11.1 3.4-23.1-3-26.5-14.1-3.4-11.2 2.9-23.1 14.1-26.6l4-1.2c11.1-3.4 23.1 2.9 26.5 14.1 3.4 11.2-2.9 23.1-14.1 26.5z"/><path class="D" d="m378.5 672.8l-4 1.3c-11.1 3.4-23.1-3-26.5-14.1-3.4-11.2 2.9-23.1 14.1-26.5l4-1.3c11.2-3.4 23.1 2.9 26.5 14.1 3.4 11.2-2.9 23.1-14.1 26.5z"/><path class="u" d="m297.4 751.5c0 1.6-1.4 2.9-3 2.9-1.6 0-3-1.3-3-2.9 0-1.7 1.4-3 3-3 1.6 0 3 1.3 3 3z"/><path fill-rule="evenodd" class="H" d="m259.1 580.1c0 15-25.7 49-25.7 49 0 0-25.6-34-25.6-49 0-15 11.5-27.2 25.6-27.2 14.2 0 25.7 12.2 25.7 27.2zm-14-2.8c0-6.5-5.2-11.7-11.7-11.7-6.4 0-11.7 5.2-11.7 11.7 0 6.4 5.3 11.6 11.7 11.6 6.5 0 11.7-5.2 11.7-11.6z"/><path class="I" d="m91.7 931.8c0 6.9-5.6 12.5-12.5 12.5-6.9 0-12.5-5.6-12.5-12.5 0-6.9 5.6-12.5 12.5-12.5 6.9 0 12.5 5.6 12.5 12.5z"/><g style="display:none"><g style="opacity:.2;mix-blend-mode:multiply"></g><path class="u" d="m260.9 46v47h-12.8v-19.2h-14.8v19.2h-12.7v-47h12.7v17.4h14.8v-17.4zm54.2 23.4q0 11.9-5.8 18.1-5.8 6.1-17.1 6.1-11 0-17-6.2-5.9-6.2-5.9-18.1 0-11.7 5.9-17.9 5.9-6.2 17.1-6.2 11.2 0 17 6.2 5.8 6.1 5.8 18zm-32.4 0q0 13.7 9.5 13.7 4.9 0 7.2-3.4 2.3-3.3 2.3-10.3 0-7-2.4-10.4-2.3-3.4-7-3.4-9.6 0-9.6 13.8zm59.7-13.1v36.7h-12.7v-36.7h-11.5v-10.3h35.6v10.3zm46.2 26.3v10.4h-28v-47h28v10.2h-15.3v7.4h14.1v10.2h-14.1v8.8zm39.1 10.4h-30.8v-47h12.7v36.7h18.1zm24.7 0v-47h16.4q9.6 0 14.2 2.9 4.7 2.8 4.7 8.8 0 4-2.1 6.8-2 2.8-5.3 3.6v0.3q4.4 1.1 6.3 3.8 2 2.8 2 7.1 0 6.4-4.8 10.1-4.8 3.6-13.1 3.6zm12.7-37.4v8.4h3.8q2.7 0 4.2-1.1 1.5-1.1 1.5-3.3 0-4-6-4zm4.3 17.7h-4.3v9.9h4.5q6 0 6-5 0-2.3-1.6-3.6-1.6-1.3-4.6-1.3zm71.5-3.9q0 11.9-5.9 18.1-5.8 6.2-17 6.2-11.1 0-17-6.2-5.9-6.2-5.9-18.1 0-11.8 5.9-17.9 5.8-6.3 17-6.3 11.3 0 17.1 6.2 5.8 6.1 5.8 18zm-32.4 0q0 13.7 9.5 13.7 4.8 0 7.1-3.3 2.4-3.3 2.4-10.4 0-7-2.4-10.3-2.4-3.4-7.1-3.4-9.5 0-9.5 13.7zm84.9 0q0 11.9-5.8 18.1-5.9 6.2-17.1 6.2-11.1 0-17-6.2-5.9-6.2-5.9-18.1 0-11.8 5.9-17.9 5.9-6.3 17.1-6.3 11.2 0 17 6.2 5.8 6.1 5.8 18zm-32.4 0q0 13.7 9.5 13.7 4.8 0 7.1-3.3 2.4-3.3 2.4-10.4 0-7-2.4-10.3-2.3-3.4-7-3.4-9.6 0-9.6 13.7zm66.5-2.3l14.6 25.9h-14.4l-9.3-18-3.8 2.3v15.7h-12.7v-47h12.7v20.4q1-1.9 3.9-6l9.9-14.4h13.9zm32.5 26h-12.8v-47.1h12.8zm54.9-47v47h-16.7l-17.1-33.1h-0.3q0.6 7.8 0.6 11.9v21.2h-11.3v-47h16.6l17.1 32.7h0.2q-0.4-7.1-0.4-11.5v-21.2zm29 29.3v-9.8h20.4v25.3q-8.3 2.9-18.2 2.9-10.9 0-16.9-6.4-5.9-6.3-5.9-17.9 0-11.4 6.5-17.8 6.5-6.3 18.2-6.3 4.5 0 8.4 0.8 4 0.9 6.9 2.2l-4 9.9q-5.1-2.5-11.2-2.5-5.6 0-8.6 3.7-3 3.6-3 10.3 0 6.6 2.7 10.1 2.8 3.4 7.9 3.4 2.9 0 5.2-0.5v-7.4z"/></g><g style="display:none"><path class="J" d="m520.2 930.9q-1.3 1.4-2.2 2.9l-0.9-0.4c-0.2-0.6-0.7-1.1-1.4-1-0.6 0.1-1.1 0.7-1 1.4 0.1 0.6 0.7 1.1 1.3 1q0.2 0 0.4-0.1l0.9 0.5q-0.8 1.7-1.1 3.5l1.5 0.2c0.5-2.6 1.7-5 3.6-6.9z"/><path class="J" d="m531.2 926.3q-0.5 0-1 0.1l-0.2-1.3c0.4-0.3 0.6-0.8 0.5-1.3 0-0.8-0.8-1.3-1.5-1.2-0.8 0.1-1.4 0.8-1.3 1.6 0.1 0.5 0.4 0.9 0.8 1.1l0.2 1.2q-2.2 0.4-4.2 1.3l0.7 1.4q2.8-1.4 6-1.4 1.5 0 2.9 0.4l0.4-1.5q-1.7-0.4-3.3-0.4z"/><path class="J" d="m544.4 931.4c0.6-0.1 1.1-0.7 1-1.3 0-0.7-0.6-1.2-1.3-1.1-0.6 0.1-1.1 0.6-1.1 1.2l-0.8 0.8q-1.3-1.3-2.8-2.3l-0.8 1.3c2.2 1.4 4 3.4 5.1 5.8l1.4-0.6q-0.8-1.7-1.9-3.1l0.8-0.7q0.2 0 0.4 0z"/><path class="J" d="m530.1 946.7q-1.2 0.1-2.3 0.1c-1.8 0-3.5-0.1-5-0.3-0.8-0.2-1.7-0.4-2.5-0.6 2.1 3.7 6.1 6.2 10.8 6.2 5.7 0 10.5-3.8 11.9-9q-2.1 1.4-5 2.3c-2.3 0.7-5.1 1.2-7.9 1.3z"/><path fill-rule="evenodd" class="J" d="m543.2 939.8q0.1 0.5 0.1 1.1c-2.7 2.4-7.5 4-13.3 4.3-5.3 0.3-9.4-0.5-10.7-1.4q-0.3-1.3-0.3-2.6c0-6.5 5.5-11.8 12.2-11.8 6.1 0 11.3 4.4 12 10.4zm-12.6-1.1c0-2.1-1.7-3.7-3.7-3.7-2.1 0-3.7 1.6-3.7 3.7 0 2 1.6 3.7 3.7 3.7 2 0 3.7-1.7 3.7-3.7zm8.5-0.8c0-1.5-1.3-2.8-2.8-2.8-1.5 0-2.7 1.3-2.7 2.8 0 1.5 1.2 2.7 2.7 2.7 1.5 0 2.8-1.2 2.8-2.7z"/><path class="J" d="m563.2 933.1c-0.6-0.2-1.6-0.6-2.8-0.5-1.1 0.2-1.7 0.7-1.7 2v1.8h4.5v3.4h-4.5v10.9h-3.8v-10.9h-2.7v-3.4h2.7v-1.8c0-3.4 1.8-5.6 5.1-5.6 1.3 0 2.3 0.3 3.2 0.6z"/><path class="J" d="m572.6 939.8q-0.5-0.1-1.1-0.1c-1.7 0-3 1.1-3 3.2v7.8h-3.8v-14.3h3.7v1.5c0.9-1.3 2.3-1.9 4-1.9 0.9 0 1.7 0.2 2.2 0.7z"/><path fill-rule="evenodd" class="J" d="m587.9 943.5c0 0.5 0 1 0 1.3h-10.2c0.4 2.1 1.9 3 3.7 3 1.2 0 2.6-0.5 3.6-1.4l2.3 2.5c-1.7 1.5-3.7 2.2-6.1 2.2-4.4 0-7.5-3-7.5-7.5 0-4.5 3-7.6 7.3-7.6 4.1 0 6.9 3 6.9 7.5zm-10.2-1.3h6.4c-0.4-1.9-1.5-2.9-3.2-2.9-1.8 0-2.9 1.1-3.2 2.9z"/><path fill-rule="evenodd" class="J" d="m603.2 943.5c0 0.5 0 1 0 1.3h-10.2c0.4 2.1 1.9 3 3.7 3 1.2 0 2.6-0.5 3.6-1.4l2.3 2.5c-1.7 1.5-3.7 2.2-6.1 2.2-4.4 0-7.5-3-7.5-7.5 0-4.5 3-7.6 7.3-7.6 4.1 0 6.9 3 6.9 7.5zm-10.2-1.3h6.4c-0.4-1.9-1.5-2.9-3.2-2.9-1.8 0-2.9 1.1-3.2 2.9z"/><path fill-rule="evenodd" class="J" d="m619.9 943.5c0 4.3-3 7.6-6.9 7.6-1.9 0-3.3-0.8-4.2-1.9v7.4h-3.9v-20.2h3.8v1.5c0.9-1.1 2.3-1.9 4.3-1.9 3.9 0 6.9 3.2 6.9 7.5zm-11.3 0c0 2.3 1.5 4 3.7 4 2.2 0 3.7-1.8 3.7-4 0-2.2-1.5-3.9-3.7-3.9-2.2 0-3.7 1.7-3.7 3.9z"/><path class="J" d="m626.1 931.7c0 1.4-1 2.4-2.4 2.4-1.4 0-2.5-1-2.5-2.4 0-1.4 1.1-2.5 2.5-2.5 1.4 0 2.4 1.1 2.4 2.5zm-0.5 19h-3.8v-14.3h3.8z"/><path class="J" d="m632.1 941.5l5.4-5.1h4.7l-7 6.7 7 7.6h-4.7l-5.4-5.8v5.8h-3.9v-21.3h3.9z"/><path fill-rule="evenodd" class="J" d="m368.8 950.6v-2.1c-1 1.4-2.8 2.4-4.8 2.4-3.6 0-6.2-2.8-6.2-7.4 0-4.5 2.5-7.4 6.2-7.4 2 0 3.7 0.9 4.8 2.5v-7.6h2.2v19.6zm0-3.9v-6.4c-0.8-1.2-2.5-2.3-4.2-2.3-2.9 0-4.6 2.4-4.6 5.5 0 3.2 1.7 5.5 4.6 5.5 1.7 0 3.4-1 4.2-2.3z"/><path fill-rule="evenodd" class="J" d="m373.9 943.5c0-4.1 2.9-7.4 6.9-7.4 4.3 0 6.8 3.3 6.8 7.6v0.5h-11.4c0.2 2.7 2 4.9 5.1 4.9 1.6 0 3.2-0.6 4.3-1.8l1.1 1.5c-1.4 1.4-3.3 2.1-5.6 2.1-4.2 0-7.2-3-7.2-7.4zm6.9-5.6c-3 0-4.5 2.5-4.6 4.7h9.3c-0.1-2.1-1.5-4.7-4.7-4.7z"/><path class="J" d="m389.2 948.7l1.2-1.6c0.9 1.1 2.7 2 4.6 2 2.2 0 3.4-1 3.4-2.4 0-3.4-8.8-1.3-8.8-6.6 0-2.1 1.9-4 5.3-4 2.4 0 4.1 0.9 5.2 2l-1 1.6c-0.9-1.1-2.4-1.8-4.2-1.8-2 0-3.2 0.9-3.2 2.2 0 3.1 8.8 1 8.8 6.6 0 2.3-1.9 4.2-5.6 4.2-2.3 0-4.3-0.7-5.7-2.2z"/><path class="J" d="m403 932.9c0-0.8 0.6-1.5 1.4-1.5 0.8 0 1.5 0.7 1.5 1.5 0 0.9-0.7 1.5-1.5 1.5-0.8 0-1.4-0.6-1.4-1.5zm0.3 17.7v-14.2h2.2v14.2z"/><path fill-rule="evenodd" class="J" d="m409.2 954.2l1.1-1.6c1.1 1.4 2.6 1.9 4.6 1.9 2.3 0 4.5-1.1 4.5-4.2v-2.1c-1 1.5-2.7 2.6-4.7 2.6-3.7 0-6.3-2.8-6.3-7.4 0-4.5 2.6-7.3 6.3-7.3 1.9 0 3.6 0.9 4.7 2.5v-2.2h2.2v13.8c0 4.7-3.3 6.1-6.7 6.1-2.4 0-4.1-0.4-5.7-2.1zm10.2-7.7v-6.2c-0.7-1.2-2.4-2.3-4.2-2.3-2.8 0-4.5 2.3-4.5 5.4 0 3.1 1.7 5.4 4.5 5.4 1.8 0 3.5-1.1 4.2-2.3z"/><path class="J" d="m434.8 950.6v-9.3c0-2.5-1.2-3.3-3.1-3.3-1.8 0-3.4 1.1-4.2 2.2v10.4h-2.2v-14.2h2.2v2.1c1-1.2 2.9-2.4 5-2.4 3 0 4.5 1.5 4.5 4.5v10z"/><path fill-rule="evenodd" class="J" d="m439.9 943.5c0-4.1 2.9-7.4 6.9-7.4 4.3 0 6.8 3.3 6.8 7.6v0.5h-11.4c0.2 2.7 2 4.9 5.1 4.9 1.6 0 3.2-0.6 4.3-1.8l1.1 1.5c-1.4 1.4-3.3 2.1-5.6 2.1-4.2 0-7.2-3-7.2-7.4zm6.9-5.6c-3 0-4.5 2.5-4.6 4.7h9.3c-0.1-2.1-1.5-4.7-4.7-4.7z"/><path fill-rule="evenodd" class="J" d="m466.7 950.6v-2.1c-1.1 1.4-2.8 2.4-4.8 2.4-3.7 0-6.3-2.8-6.3-7.4 0-4.5 2.6-7.4 6.3-7.4 1.9 0 3.7 0.9 4.8 2.5v-7.6h2.2v19.6zm0-3.9v-6.4c-0.8-1.2-2.5-2.3-4.3-2.3-2.8 0-4.5 2.4-4.5 5.5 0 3.2 1.7 5.5 4.5 5.5 1.8 0 3.5-1 4.3-2.3z"/><path fill-rule="evenodd" class="J" d="m479.4 950.6v-19.6h2.2v7.6c1.1-1.6 2.8-2.5 4.8-2.5 3.6 0 6.3 2.9 6.3 7.4 0 4.6-2.7 7.4-6.3 7.4-2 0-3.8-1-4.8-2.4v2.1zm6.4-1.6c2.9 0 4.6-2.3 4.6-5.5 0-3.1-1.7-5.5-4.6-5.5-1.7 0-3.5 1.1-4.2 2.3v6.4c0.7 1.3 2.5 2.3 4.2 2.3z"/><path class="J" d="m495.1 954.1c0.3 0.2 0.8 0.3 1.2 0.3 0.9 0 1.6-0.4 2.1-1.5l0.9-2.2-5.9-14.3h2.4l4.7 11.6 4.7-11.6h2.4l-7.1 17c-0.9 2.1-2.3 2.9-4.2 2.9-0.5 0-1.2-0.1-1.6-0.2z"/></g></svg>