<svg version="1.2" xmlns="http://www.w3.org/2000/svg" viewBox="0 0 800 800" width="800" height="800"><defs><clipPath clipPathUnits="userSpaceOnUse" id="cp1"><path d="m176.11 551.49c-12.51 13.08-33.24 13.55-46.32 1.05-13.08-12.5-13.56-33.23-1.05-46.32 12.5-13.08 33.23-13.55 46.32-1.05 13.08 12.51 13.55 33.24 1.05 46.32z"/></clipPath></defs><style>.a{fill:#b1cb35}.b{fill:#d2fcfc}.c{fill:none;stroke:#fff;stroke-linecap:round;stroke-linejoin:round;stroke-width:3;stroke-dasharray:7.987099999999999,7.987099999999999}.d{fill:none;stroke:#fff;stroke-linecap:round;stroke-linejoin:round;stroke-width:3;stroke-dasharray:8.0247,8.0247}.e{fill:none;stroke:#fff;stroke-linecap:round;stroke-linejoin:round;stroke-width:3;stroke-dasharray:7.959919999999999,7.959919999999999}.f{fill:#fcea32}.g{fill:#56698f}.h{fill:#fff}.i{fill:#413e41}.j{fill:#1db0d2}.k{fill:#00719d}.l{fill:none;stroke:#006a76;stroke-linecap:round;stroke-linejoin:round}.m{fill:#e53328}.n{fill:#e5e7e9}.o{fill:#313c52}.p{fill:#fcef67}.q{fill:none;stroke:#fff;stroke-linecap:round;stroke-linejoin:round;stroke-width:3}.r{fill:#584f4c}.s{fill:#524745}.t{fill:#e9e8e4}.u{fill:#434242}.v{fill:#3b3533}.w{fill:none;stroke:#1c9d81;stroke-linecap:round;stroke-linejoin:round;stroke-width:3}.x{fill:#1c9d81}.y{fill:#3b3a39}.z{fill:#f0dc16}.A{fill:#00709c}.B{fill:#445008}</style><g style="display:none"><path class="a" d="m800 800h-800v-800h800z"/></g><g style="opacity:.5"><path fill-rule="evenodd" class="b" d="m767.4 253.2v3.7c0 7.2-3.4 13-7.5 13-4.2 0-7.6 5.9-7.6 13v3.7c0 7.2 5.8 13 12.8 13 7 0 12.7 5.9 12.7 13v3.8c0 7.1-5.9 13-13 13h-9c-7.2 0-13 5.8-13 13v3.7c0 7.1 5.5 13 12.3 13 6.8 0 12.3 5.8 12.3 13v3.7c0 7.1-5.8 13-13 13h-7.6c-7.2 0-13 5.8-13 13v3.7c0 7.2 5.8 13 13 13h7.6c7.2 0 13 5.9 13 13v3.7c0 7.2-5.8 13-13 13h-26.4c-7.2 0-13 5.9-13 13v3.7c0 7.2 5.8 13 13 13h11.3c7.2 0 13 5.9 13 13v3.8c0 7.1 3.4 13 7.6 13 4.1 0 7.5 5.8 7.5 13v3.7c0 7.1-5.5 13-12.3 13-6.8 0-12.3 5.8-12.3 13v3.7c0 7.1 5.5 13 12.3 13 6.8 0 12.3 5.8 12.3 13v3.7c0 7.2-5.8 13-13 13h-14.4c-7.1 0-13 5.9-13 13v3.7c0 7.2 5.7 13 12.7 13 6.9 0 12.6 5.9 12.6 13v3.7c0 7.2 1.4 13 3.1 13 1.7 0 3.1 5.9 3.1 13v3.8c0 7.1-5.8 13-13 13h-48.5c-7.1 0-13-5.9-13-13v-3.8c0-7.1-5.8-13-13-13h-47.5c-7.2 0-13 5.9-13 13v3.8c0 7.1-5.9 13-13 13h-46.8c-7.1 0-13 5.8-13 13v3.7c0 7.1-5.8 13-13 13h-172.4c-7.1 0-13-5.9-13-13v-3.7c0-7.2-5.8-13-13-13h-28.1c-7.1 0-13-5.9-13-13v-3.8c0-7.1-5.8-13-13-13h-28.7c-7.1 0-13 5.9-13 13v3.8c0 7.1-5.8 13-13 13h-55.3c-7.1 0-13-5.9-13-13v-3.8c0-7.1-5.8-13-13-13h-37.3c-7.2 0-13-5.8-13-13v-3.7c0-7.1 5.8-13 13-13h3.5c7.2 0 13-5.8 13-13v-3.7c0-7.1-5.8-13-13-13h-34.6c-7.2 0-13-5.8-13-13v-3.7c0-7.2 5.8-13 13-13h34.6c7.2 0 13-5.9 13-13v-3.7c0-7.2-5.8-13-13-13h-48.3c-7.1 0-13-5.9-13-13v-3.7c0-7.2 5.9-13 13-13h20c7.2 0 13-5.9 13-13v-3.8c0-7.1-5.8-13-13-13h-10c-7.1 0-13-5.8-13-13v-3.7c0-7.1 5.9-13 13-13h14c7.2 0 13-5.8 13-13v-3.7c0-7.1-5.8-13-13-13h-47.7c-7.1 0-13-5.8-13-13v-3.7c0-7.2 5.9-13 13-13h47.7c7.2 0 13-5.9 13-13v-3.7c0-7.2-5.8-13-13-13h-15.3c-7.2 0-13-5.9-13-13v-3.7c0-7.2 5.8-13 13-13h3.3c7.2 0 13-5.9 13-13v-3.8c0-7.1-5.8-13-13-13h-43c-7.1 0-13-5.8-13-13v-3.7c0-7.1 5.9-13 13-13h60.8c7.1 0 13-5.8 13-13v-3.7c0-7.1-5.9-13-13-13h-22.8c-7.1 0-13-5.8-13-13v-3.7c0-7.2 5.9-13 13-13h10.7c7.1 0 13-5.9 13-13v-3.7c0-7.2 5.8-13 13-13h9.3c7.2 0 13-5.9 13-13v-3.7c0-7.2 5.9-13 13-13h53.3c7.1 0 13-5.9 13-13v-3.8c0-7.1 5.8-13 13-13h35.4c7.1 0 13-5.8 13-13v-3.7c0-7.1 5.8-13 13-13h212.8c7.1 0 13 5.9 13 13v3.7c0 7.2 5.8 13 13 13h71.8c7.2 0 13 5.9 13 13v3.8c0 7.1 5.9 13 13 13h95.4c7.2 0 13 5.8 13 13v3.7c0 7.1 5.9 13 13 13h22.6c7.2 0 13 5.8 13 13v3.7c0 7.1 3.5 13 7.7 13 4.2 0 7.7 5.8 7.7 13v3.7c0 7.2-3.5 13-7.7 13-4.2 0-7.7 5.9-7.7 13zm-274.4 432.8c7.2 0 13-5.9 13-13v-3.8c0-7.1-5.8-13-13-13h-33.9c-7.1 0-13 5.9-13 13v3.8c0 7.1 5.9 13 13 13zm-146.5-13c0 7.1 5.9 13 13 13h17.1c7.2 0 13-5.9 13-13v-3.8c0-7.1-5.8-13-13-13h-17.1c-7.1 0-13 5.9-13 13zm64-538.6c0-7.1-5.8-13-13-13h-63.4c-7.2 0-13 5.9-13 13v3.7c0 7.2 5.8 13 13 13h63.4c7.2 0 13-5.8 13-13z"/></g><g style="opacity:.5"><path class="b" d="m41.7 348.7c0 7.1-5.9 13-13 13h-1.6c-7.1 0-13-5.9-13-13v-3.8c0-7.1 5.9-13 13-13h1.6c7.1 0 13 5.9 13 13z"/></g><g style="opacity:.5"><path class="b" d="m77 645.1c0 7.1-5.8 13-13 13h-1.6c-7.1 0-13-5.9-13-13v-3.7c0-7.2 5.9-13 13-13h1.6c7.2 0 13 5.8 13 13z"/></g><g style="opacity:.5"><path class="b" d="m662.1 702.7c0 7.1-5.8 13-13 13h-1.5c-7.2 0-13-5.9-13-13v-3.7c0-7.2 5.8-13 13-13h1.5c7.2 0 13 5.8 13 13z"/></g><path class="c" d="m728.5 307.1c0 101.1-81.9 183.1-183 183.1-101.1 0-183.1-82-183.1-183.1 0-101.1 82-183 183.1-183 101.1 0 183 81.9 183 183z"/><path class="d" d="m595.4 501.1c0 114.3-92.6 206.9-206.9 206.9-114.3 0-206.9-92.6-206.9-206.9 0-114.3 92.6-206.9 206.9-206.9 114.3 0 206.9 92.6 206.9 206.9z"/><path class="e" d="m384.7 262.1c0 71.4-57.8 129.2-129.2 129.2-71.4 0-129.2-57.8-129.2-129.2 0-71.4 57.8-129.2 129.2-129.2 71.4 0 129.2 57.8 129.2 129.2z"/><path class="f" d="m262.6 204.7c-3.7 0-6.8-3-6.9-6.7 0-3.8 3-6.8 6.7-6.9l13.4-0.1c3.7-0.1 6.8 2.9 6.8 6.7 0.1 3.7-2.9 6.8-6.7 6.8z"/><path class="g" d="m265.9 204.7l-0.1-13.7 105.1-1.2 0.2 13.7z"/><path class="h" d="m265 204.7l-0.1-13.6 6.5-0.1 0.1 13.7z"/><path class="h" d="m370.9 189.8l0.2 13.7 19.4-7z"/><path class="i" d="m390.5 196.5l-7.7-2.7 0.1 5.4z"/><path fill-rule="evenodd" class="j" d="m410.8 218.7l0.1 22.6c0.1 1.8-1.4 3.3-3.2 3.3l-146.7 1c-1.8 0-3.3-1.5-3.3-3.3l-0.2-22.6c0-1.9 1.5-3.3 3.3-3.3l146.7-1c1.8 0 3.3 1.5 3.3 3.3zm-7.6 11.3c0-1.5-1.3-2.7-2.8-2.6-1.5 0-2.7 1.2-2.6 2.7 0 1.5 1.2 2.7 2.7 2.7 1.5 0 2.7-1.3 2.7-2.8z"/><path class="k" d="m403 229.3q0.2 0.4 0.2 0.7c0 1.5-1.2 2.8-2.7 2.8-1.5 0-2.7-1.2-2.7-2.7q0-0.4 0.1-0.7l-140.3 0.9 0.1 12c0 1.8 1.5 3.3 3.3 3.3l146.7-1c1.8 0 3.3-1.5 3.2-3.3v-12z"/><path class="l" d="m264.3 217.5l0.1 4.4"/><path class="l" d="m270.4 217.4v4.4"/><path class="l" d="m276.5 217.4v4.4"/><path class="l" d="m282.5 217.3l0.1 4.4"/><path class="l" d="m288.6 217.2v4.5"/><path class="l" d="m294.7 217.2v4.4"/><path class="l" d="m300.7 217.1l0.1 4.5"/><path class="l" d="m306.8 217.1v4.4"/><path class="l" d="m312.9 217v4.5"/><path class="l" d="m318.9 217l0.1 4.4"/><path class="l" d="m325 216.9l0.1 4.5"/><path class="l" d="m331.1 216.9v4.4"/><path class="l" d="m337.2 216.8v4.5"/><path class="l" d="m343.2 216.8l0.1 4.4"/><path class="l" d="m349.3 216.7v4.5"/><path class="l" d="m355.4 216.7v4.4"/><path class="l" d="m361.4 216.6l0.1 4.5"/><path class="l" d="m367.5 216.6v4.4"/><path class="l" d="m373.6 216.5v4.5"/><path class="l" d="m379.6 216.5l0.1 4.4"/><path class="l" d="m385.7 216.4v4.5"/><path class="l" d="m391.8 216.4v4.4"/><path class="l" d="m397.9 216.3v4.5"/><path class="l" d="m403.9 216.3l0.1 4.4"/><path class="m" d="m739.2 561.6c0-2.1-1.6-3.8-3.7-3.8h-134.4c-2 0-3.7 1.7-3.7 3.8v26.7c0 2.1 1.7 3.7 3.7 3.7h134.4c2.1 0 3.7-1.6 3.7-3.7z"/><path class="n" d="m739.2 564.1h-133.8v21.6h133.8z"/><path class="h" d="m739.2 582.4h-133.8v-0.5h133.8z"/><path class="h" d="m739.2 578.1h-133.8v-0.5h133.8z"/><path class="h" d="m739.2 573.8h-133.8v-0.6h133.8z"/><path class="h" d="m739.2 569.4h-133.8v-0.5h133.8z"/><path class="h" d="m739.2 565.1h-133.8v-0.5h133.8z"/><path class="h" d="m739.2 567.3h-133.8v-0.6h133.8z"/><path class="h" d="m739.2 571.6h-133.8v-0.5h133.8z"/><path class="h" d="m739.2 575.9h-133.8v-0.5h133.8z"/><path class="h" d="m739.2 584.6h-133.8v-0.5h133.8z"/><path class="h" d="m739.2 580.3h-133.8v-0.6h133.8z"/><path class="f" d="m631.6 573.2v16.7l-6.4-3.2-6.5 3.1v-16.6z"/><path class="g" d="m710.9 625.7h-146.9v-31.7h146.9z"/><path class="o" d="m591.6 620.9c0 1.6-1.3 2.9-2.9 2.9-1.6 0-2.9-1.3-2.9-2.9v-22.5c0-1.6 1.3-2.9 2.9-2.9 1.6 0 2.9 1.3 2.9 2.9z"/><path class="o" d="m600.3 620.9c0 1.6-1.3 2.9-2.9 2.9-1.6 0-2.9-1.3-2.9-2.9v-22.5c0-1.6 1.3-2.9 2.9-2.9 1.6 0 2.9 1.3 2.9 2.9z"/><path class="o" d="m684.9 625.7h-36.5v-31.7h36.5z"/><path class="j" d="m712.4 559.8h-153v-26h153z"/><path class="k" d="m584.9 559.8h-10.9v-26.1h10.9z"/><path class="p" d="m196.9 190c-16.4 0-32.9 12.2-32.9 30.1 0 17.9 14.9 20.3 14.9 31.1 0 10.8 0 23.2 0 23.2h18 18c0 0 0-12.4 0-23.2 0-10.8 15-13.2 15-31.1 0-17.9-16.5-30.1-33-30.1z"/><path class="q" d="m214 218c-2.1 0-3.2 1.8-5.2 1.8-2 0-3-9.2-11.9-9.2-8.8 0-9.5 9.2-11.8 9.2-2.3 0-3.6-1.8-5.2-1.8-1.7 0-3.5 0.8-3.5 3.4 0 2.5 20.5 23 20.5 46.6 0-23.6 20.6-45.3 20.6-46.6 0-1.4-1.4-3.4-3.5-3.4z"/><path class="r" d="m209.3 279.4c0 6.2-5.5 11.1-12.4 11.1-6.8 0-12.3-4.9-12.3-11.1 0-6.1 5.5-11.1 12.3-11.1 6.9 0 12.4 5 12.4 11.1z"/><path class="s" d="m215.8 280.8h-37.7v-18.2h37.7z"/><path class="t" d="m607.1 204h7.6c5-16.4 20.2-28.2 38.2-28.2 22.1 0 40 17.9 40 40 0 0.6-0.1 1.1-0.1 1.7h6.7c15.3 0 27.7 12.4 27.7 27.7 0 15.3-12.4 27.7-27.7 27.7h-92.4c-19 0-34.4-15.4-34.4-34.5 0-19 15.4-34.4 34.4-34.4z"/><path class="h" d="m562.8 181.6h6.3c4.2-13.6 16.8-23.4 31.8-23.4 18.4 0 33.3 14.9 33.3 33.2 0 0.5-0.1 1-0.1 1.5h5.6c12.7 0 23 10.3 23 23.1 0 12.7-10.3 23-23 23h-76.9c-15.8 0-28.7-12.9-28.7-28.7 0-15.8 12.9-28.7 28.7-28.7z"/><path class="u" d="m209.3 531.2c0 2.9-2.3 5.2-5.2 5.2l-25.4-0.2c-2.9-0.1-5.2-2.4-5.1-5.3 0-2.9 2.3-5.2 5.2-5.2l25.4 0.3c2.9 0 5.2 2.4 5.1 5.2z"/><path class="u" d="m194.2 529.5c0.6 23.1-17.7 42.3-40.8 42.8-23.2 0.5-42.3-17.8-42.8-40.9-0.6-23.1 17.8-42.3 40.9-42.8 23.1-0.5 42.2 17.8 42.7 40.9z"/><path class="v" d="m186.7 530.2c0.4 18.9-14.6 34.6-33.5 35-18.9 0.4-34.6-14.6-35.1-33.5-0.4-18.9 14.6-34.6 33.5-35 18.9-0.5 34.6 14.5 35.1 33.5z"/><path class="g" d="m269.6 532.2c-0.1 6.2-5.1 11.1-11.2 11l-45.1-0.4c-6.1 0-11-5-11-11.2 0.1-6.1 5.1-11 11.2-11l45.1 0.4c6.1 0.1 11 5.1 11 11.2z"/><path class="h" d="m176.1 551.5c-12.5 13.1-33.2 13.5-46.3 1-13.1-12.5-13.6-33.2-1.1-46.3 12.5-13.1 33.3-13.5 46.4-1 13 12.5 13.5 33.2 1 46.3z"/><g clip-path="url(#cp1)"><g style="opacity:.1"><path class="j" d="m196.3 530.6l0.4 17.3-184.4 4.2-0.4-17.3z"/></g><g style="opacity:.1"><path class="j" d="m196 516.9l0.2 8-184.4 4.2-0.2-8z"/></g></g><path class="h" d="m113.8 327.8h69.2l23.6 25v104h-92.8z"/><path class="t" d="m206.6 352.8h-23.7l0.1-25z"/><path class="t" d="m175 345.7h-53.6v-4.5h53.6z"/><path class="t" d="m175 357.7h-53.6v-4.4h53.6z"/><path class="t" d="m198.9 369.7h-77.5v-4.4h77.5z"/><path class="t" d="m188.6 381.8h-67.2v-4.4h67.2z"/><path class="t" d="m195.6 393.8h-74.2v-4.4h74.2z"/><path class="t" d="m188.6 405.9h-67.2v-4.5h67.2z"/><path class="t" d="m188.6 430h-67.2v-4.5h67.2z"/><path class="t" d="m198.9 417.9h-77.5v-4.4h77.5z"/><path class="t" d="m198.9 442h-77.5v-4.4h77.5z"/><path class="w" d="m454.4 165.3c0 0 5.6 5.4 5.6 30.8"/><path class="x" d="m479 160.2c0 0-23.4-1-19 20.9 13.6 0 21.6-5 19-20.9z"/><path class="m" d="m473.6 181.1c-10.1 0-13.6 8.7-13.6 15q0 0-0.1-0.3-0.1 0.3-0.1 0.3c0-6.3-3.5-15-13.6-15-10.1 0-20.7 12.7-20.7 30 0 17.2 13.1 35.7 23.9 35.7 10.8 0 8.3-5.8 10.4-5.8q0.1 0 0.1 0 0 0 0.1 0c2.1 0-0.4 5.8 10.4 5.8 10.8 0 23.9-18.5 23.9-35.7 0-17.3-10.6-30-20.7-30z"/><path class="v" d="m423.4 526.4h-49.7v-53.3h49.7z"/><path class="v" d="m566.8 479.9c0 6.5-5.3 11.8-11.8 11.8h-312.9c-6.5 0-11.8-5.3-11.8-11.8v-203.3c0-6.5 5.3-11.8 11.8-11.8h312.9c6.5 0 11.8 5.3 11.8 11.8z"/><path class="y" d="m566.8 486.1c0 6.5-5.3 11.8-11.8 11.8h-312.9c-6.5 0-11.8-5.3-11.8-11.8v-203.3c0-6.5 5.3-11.8 11.8-11.8h312.9c6.5 0 11.8 5.3 11.8 11.8z"/><path class="h" d="m230.3 471v15.1c0 6.5 5.3 11.8 11.8 11.8h312.9c6.5 0 11.8-5.3 11.8-11.8v-15.1z"/><path class="h" d="m553.4 460.8h-309.7v-181h309.7z"/><path class="h" d="m449.8 537.3h-102.5v-13.7h102.5z"/><path class="k" d="m504.9 433.1h-212.8v-6.4h212.8z"/><path class="k" d="m345 444.3h-52.9v-7h52.9z"/><path class="k" d="m504 444.3h-131.9v-6.4h131.9z"/><path class="m" d="m506.9 417.6h-31.8v-102.5h31.8z"/><path class="f" d="m454.4 417.6h-28.9v-84.7h28.9z"/><path class="j" d="m367 417.6h-31.8v-81.9h31.8z"/><path class="g" d="m414 417.6h-28.9v-49.4h28.9z"/><path class="f" d="m320.7 417.6h-31.8v-33.2h31.8z"/><path class="z" d="m672.5 529.1h-14.8v-31.7h14.8z"/><path class="f" d="m696.3 533.1c0-8.2-6.7-14.8-14.9-14.8h-32.8c-8.2 0-14.9 6.6-14.9 14.8 25.5 0 31.6 0 62.6 0z"/><path class="z" d="m640.1 433c0 0-6.9-0.2-13.9-0.2-6.9 0-9.2 3.7-9.2 6.5 0 2.9 0 4 0 11.9 0 7.9 16.5 18.4 18.1 18.4 1.7 0 13.3-0.2 13.3-0.2v11.1c0 0-5.7 0-14.6 0-8.8 0-27.4-20.2-27.4-25.6 0-5.3 0-6.3 0-16.4 0-10 12-15.9 17.6-15.9 5.5 0 11 0 17 0z"/><path class="z" d="m688.7 433c0 0 6.8-0.2 13.8-0.2 7 0 9.3 3.7 9.3 6.5 0 2.9 0 4 0 11.9 0 7.9-16.6 18.4-18.2 18.4-1.6 0-13.2-0.2-13.2-0.2v11.1c0 0 5.7 0 14.5 0 8.8 0 27.5-20.2 27.5-25.6 0-5.3 0-6.3 0-16.4 0-10-12.1-15.9-17.6-15.9-5.5 0-11 0-17 0z"/><path class="f" d="m630 466.3c0 19 15.7 34.5 35.1 34.5 19.3 0 35-15.5 35-34.5v-57.4h-70.1z"/><path class="p" d="m630 466.3c0 19 15.7 34.5 35.1 34.5 19.3 0 35-15.5 35-34.5v-50.8h-70.1z"/><path class="z" d="m665.1 434.8l5.4 11 12.1 1.8-8.8 8.6 2.1 12.1-10.8-5.8-10.9 5.8 2.1-12.1-8.8-8.6 12.1-1.8z"/><path class="A" d="m292.2 597.1c-2.4 4.2-5.3 6.4-10.4 6.4-4.2 0-7.7-4-7.7-8.8 0-4.6 3.1-9.9 11.5-13.3-6.2-2.8-8.7-7-8.7-10.9 0-4.4 3.2-8.1 8-8.1 4.2 0 4.4 3.8 4.4 4.9 0 1.6-1.3 4.9-2.9 5.4 1.2 1.5 2.7 1.7 3.7 1.7 3.4 0 4.6-2.6 4.6-6.1 0-6.4-6-8.8-12.1-8.8-9.4 0-14.7 5.9-14.7 11.9 0 3.8 2.1 7.6 6.6 10.1-8 1.6-12 8.2-12 14.6 0 6.8 4.6 13.3 13.7 13.3 6.2 0 14-2 17.5-11.6zm15.6-8h-13.2l-1.2 5.2h13.2zm29.7-28.8c-0.8-0.1-1.7-0.2-2.6-0.2-11 0-23.2 8.4-23.2 17.2 0 4.7 2.5 6.4 7.1 6.4-0.1-0.6-0.9-1.1-0.9-4.5 0-7.1 3.5-12 9.2-14.4l-9.8 45.8c0.5-0.1 1-0.1 1.5-0.1 11.7 0 20 15 29.4 15 3.6 0 6.2-4.1 6.9-10.4-1.9 0.8-3.8 1.1-5.6 1.1-8.4 0-15.3-7-22.1-8.5zm7.4 38.2c0-0.8 0-1.7 0.2-2.8 6.2-0.8 14.9-5.4 14.9-13.5 0-4.6-3.1-6.8-8.5-6.8-12 0-15.5 14.7-15.5 23.1 0 5.6 3.4 10.5 9.7 10.5 8.5 0 14.9-6.7 18.6-13.5h-2.9c-2.3 4.9-7.9 8.7-11.1 8.7-2.6 0-5.4-1.3-5.4-5.7zm11.1-15.9c-0.1 4.6-4.3 9.9-10.4 9.9 1.4-6.2 4.4-13.6 8.1-13.6 2 0 2.3 2.3 2.3 3.7zm26.1-6.6l-0.3 1.7c-1.2-1-2.9-1.7-4.5-1.7-13.2 0-17.3 13.6-17.3 25 0 3.9 1.9 8.4 8.2 8.4 4.1 0 7-2.8 9-5.5 0.9 3.5 3.8 5.1 8.1 5.1 5.1 0 12.6-8.8 15.6-11.9h-2.3c-2.6 2.2-6 5.9-8.7 5.9-2.6 0-3.3-1.1-3.3-2.6 0-0.5 0.2-1.3 0.3-2l4.8-22.4zm-4.3 3.7c0.9 0 2.1 0.3 3.2 1.2l-3.7 17.5c-0.2 0.8-0.3 1.5-0.4 2.2-1.2 1.8-2.7 3.3-4.2 3.3-1.7 0-3.8-0.7-3.8-4.7 0-9 3.9-19.5 8.9-19.5zm21.2-3.7l-7 33h9.5l5.5-25.9c1.5-1.4 2.6-2.1 4.6-2.1 1.9 0 0.1 4.3 3.8 4.3 3.2 0 4.9-2.8 4.9-5.1 0-2.5-1.8-4.2-4.7-4.2-2.8 0-5.4 1.4-7.8 3.3l0.7-3.3zm50.5 9.8c0.1-0.5 0.1-1.1 0.1-1.6 0-4.4-4-8.2-7.6-8.2-2.9 0-5.9 1.5-8.6 3.5l0.8-3.5h-9.5l-7 33h9.5l5.6-26.7c1.4-0.9 2.6-1.4 4.2-1.4 1.7 0 3 1.5 3 3.9 0 0.5-0.1 1.1-0.2 1.7l-2.5 11.9c-0.3 1.3-0.4 2.3-0.4 3.4 0 4.9 3 7.2 8.2 7.2 5.1 0 10.1-7.2 13.2-10.2h-2.3c-2.6 2.1-3.6 4.2-6.2 4.2-2.6 0-3.3-1-3.3-2.5 0-0.6 0.1-1.4 0.3-2.1zm8-9.8l-4.8 22.4c-0.2 1.3-0.4 2.4-0.4 3.4 0 4.9 3.2 7.2 8.3 7.2 5.1 0 12.6-8.8 15.6-11.8h-2.2c-2.7 2.1-6.1 5.8-8.7 5.8-2.7 0-3.3-1.1-3.3-2.5 0-0.6 0.1-1.4 0.2-2.1l4.8-22.4zm1.2-8.7c0 2.9 2.4 5.2 5.3 5.2 2.9 0 5.2-2.3 5.2-5.2 0-2.9-2.3-5.3-5.2-5.3-2.9 0-5.3 2.4-5.3 5.3zm41.2 18.5c0.2-0.5 0.2-1.1 0.2-1.6 0-4.4-4.1-8.2-7.6-8.2-2.9 0-6 1.6-8.7 3.5l0.8-3.5h-9.5l-7 33h9.5l5.6-26.7c1.4-0.9 2.6-1.4 4.2-1.4 1.8 0 3 1.5 3 3.9 0 0.5 0 1.1-0.2 1.7l-2.5 11.9c-0.2 1.3-0.4 2.3-0.4 3.4 0 4.9 3.1 7.2 8.2 7.2 5.2 0 10.2-7.2 13.2-10.2h-2.2c-2.7 2.1-3.7 4.2-6.3 4.2-2.6 0-3.3-1-3.3-2.5 0-0.6 0.1-1.4 0.3-2.1zm10.7 23.6c3 0 5.6-1.2 7.6-2.8l-0.8 3.6c-6.1 1.1-11 2.1-11 8.1 0 4.3 3.7 7.2 7.8 7.2 4.3 0 10-1.8 12-11.2l8-38.3h-9.5l-0.7 3.1c-1-1.7-2.9-3.1-5.3-3.1-12.8 0-16.3 15.9-16.3 25 0 3.9 1.9 8.4 8.2 8.4zm8.9-29.7c1.1 0 2.7 0.9 3.8 2.9l-4.1 19.1c-1.3 1.3-2.6 2.2-3.8 2.2-2.9 0-4.9-1-4.9-4.2 0-5.6 2.6-20 9-20zm-9.5 37.7c0-3.5 2.9-4.4 7-5.1l-0.4 2.1c-0.9 3.9-2.6 5.2-3.9 5.2-1.5 0-2.7-1.3-2.7-2.2z"/><path fill-rule="evenodd" class="t" d="m668.4 343c0 0-0.1-0.1-0.4-0.2-0.2-0.1-0.5-0.2-0.8-0.3-0.7-0.3-1.3-0.6-1.3-0.6-0.3-0.2-0.5-0.5-0.5-0.8 0 0-0.1-0.8 0-1.6 0-0.7 0.1-1.5 0.1-1.5 0.1-0.3-0.1-0.6-0.3-0.8 0 0-0.4-0.3-0.8-0.6-0.4-0.4-0.7-0.7-0.7-0.7 0 0-0.4-0.4-0.7-0.8-0.3-0.4-0.6-0.8-0.6-0.8-0.2-0.2-0.5-0.4-0.8-0.3 0 0-0.8 0-1.5 0-0.8 0.1-1.6 0-1.6 0-0.3 0-0.6-0.2-0.7-0.6 0 0-0.3-0.6-0.6-1.2-0.1-0.4-0.2-0.7-0.3-0.9-0.1-0.3-0.1-0.5-0.1-0.5q-0.1-0.2-0.1-0.5 0-0.2 0.2-0.4c0 0 0.6-0.6 1.1-1.1 0.3-0.3 0.6-0.5 0.8-0.7 0.2-0.2 0.4-0.3 0.4-0.3 0.2-0.2 0.4-0.5 0.3-0.8 0 0 0-0.1 0-0.3 0-0.2-0.1-0.4-0.1-0.7 0-0.5 0-1 0-1 0 0 0-0.5 0.1-1 0-0.2 0-0.5 0-0.7 0.1-0.2 0.1-0.3 0.1-0.3 0-0.3-0.1-0.6-0.3-0.8 0 0-0.2-0.1-0.4-0.3-0.2-0.2-0.5-0.4-0.7-0.7-0.6-0.5-1.1-1.1-1.1-1.1q-0.2-0.2-0.2-0.5 0-0.2 0.1-0.5c0 0 0-0.2 0.1-0.4 0.1-0.2 0.2-0.6 0.4-0.9 0.3-0.6 0.6-1.2 0.6-1.2 0.1-0.4 0.5-0.6 0.8-0.6 0 0 0.8 0 1.5 0 0.8 0.1 1.5 0.2 1.5 0.2 0.3 0 0.6-0.1 0.8-0.4 0 0 0.3-0.4 0.7-0.7 0.3-0.4 0.7-0.8 0.7-0.8 0 0 0.4-0.3 0.7-0.6 0.4-0.4 0.8-0.7 0.8-0.7 0.3-0.1 0.4-0.4 0.4-0.7 0 0-0.1-0.8-0.1-1.6 0-0.7 0-1.5 0-1.5 0.1-0.3 0.3-0.6 0.6-0.8 0 0 0.7-0.3 1.3-0.5 0.3-0.2 0.6-0.3 0.9-0.4 0.2 0 0.4-0.1 0.4-0.1q0.3-0.1 0.5 0 0.3 0 0.5 0.2c0 0 0.5 0.5 1 1.1 0.3 0.3 0.5 0.6 0.7 0.8 0.2 0.2 0.3 0.4 0.3 0.4 0.2 0.2 0.5 0.3 0.8 0.3 0 0 0.1 0 0.3-0.1 0.2 0 0.5 0 0.7 0 0.5 0 1 0 1 0 0 0 0.5 0 1 0 0.3 0 0.5 0.1 0.7 0.1q0.3 0.1 0.3 0.1c0.3 0 0.7-0.1 0.8-0.3 0 0 0.2-0.2 0.3-0.4 0.2-0.2 0.5-0.5 0.8-0.8 0.5-0.5 1.1-1.1 1.1-1.1q0.2-0.1 0.4-0.1 0.3-0.1 0.5 0c0 0 0.2 0.1 0.4 0.2 0.3 0.1 0.6 0.2 0.9 0.3 0.7 0.3 1.3 0.6 1.3 0.6 0.3 0.2 0.5 0.5 0.5 0.8 0 0 0.1 0.8 0 1.6 0 0.7-0.1 1.5-0.1 1.5-0.1 0.3 0.1 0.6 0.3 0.8 0 0 0.4 0.3 0.8 0.6 0.3 0.4 0.7 0.7 0.7 0.7 0 0 0.3 0.4 0.7 0.8 0.3 0.4 0.6 0.8 0.6 0.8 0.2 0.2 0.5 0.4 0.8 0.3 0 0 0.7 0 1.5 0 0.8-0.1 1.6 0 1.6 0 0.3 0 0.6 0.2 0.7 0.6 0 0 0.3 0.6 0.6 1.2 0.1 0.4 0.2 0.7 0.3 0.9 0.1 0.3 0.1 0.4 0.1 0.4q0.1 0.3 0.1 0.6-0.1 0.2-0.2 0.4c0 0-0.6 0.6-1.1 1.1-0.3 0.3-0.6 0.5-0.8 0.7-0.3 0.2-0.4 0.3-0.4 0.3-0.2 0.1-0.4 0.4-0.3 0.8q0 0 0 0.3c0 0.2 0 0.4 0 0.7 0.1 0.5 0.1 1 0.1 1 0 0-0.1 0.5-0.1 1 0 0.2 0 0.5-0.1 0.7 0 0.2 0 0.3 0 0.3-0.1 0.3 0.1 0.6 0.3 0.8 0 0 0.1 0.1 0.4 0.3 0.2 0.2 0.4 0.4 0.7 0.7 0.6 0.5 1.1 1.1 1.1 1.1q0.2 0.2 0.2 0.5 0 0.2-0.1 0.5c0 0 0 0.2-0.1 0.4-0.1 0.2-0.2 0.6-0.4 0.9-0.3 0.6-0.6 1.2-0.6 1.2-0.1 0.4-0.5 0.6-0.8 0.6 0 0-0.8 0-1.5 0-0.8-0.1-1.6-0.2-1.6-0.2-0.2 0-0.5 0.1-0.7 0.4 0 0-0.3 0.4-0.7 0.7-0.3 0.4-0.7 0.8-0.7 0.8 0 0-0.4 0.3-0.7 0.6-0.4 0.4-0.8 0.7-0.8 0.7-0.3 0.1-0.4 0.4-0.4 0.7 0 0 0.1 0.8 0.1 1.6 0 0.7-0.1 1.5-0.1 1.5 0 0.3-0.2 0.6-0.5 0.8 0 0-0.7 0.3-1.3 0.5-0.3 0.2-0.7 0.3-0.9 0.4-0.2 0-0.4 0.1-0.4 0.1q-0.3 0.1-0.5 0-0.3 0-0.5-0.2c0 0-0.5-0.5-1.1-1.1-0.2-0.3-0.5-0.6-0.6-0.8-0.2-0.2-0.3-0.4-0.3-0.4-0.2-0.2-0.5-0.3-0.8-0.3 0 0-0.1 0-0.3 0.1-0.2 0-0.5 0-0.7 0-0.5 0-1 0-1 0 0 0-0.5 0-1 0-0.3-0.1-0.6-0.1-0.7-0.1q-0.3-0.1-0.4-0.1c-0.3 0-0.6 0.1-0.8 0.3 0 0-0.1 0.2-0.3 0.4-0.1 0.2-0.4 0.5-0.7 0.8-0.5 0.5-1.1 1-1.1 1q-0.2 0.2-0.4 0.2-0.3 0.1-0.6 0zm5-7.1q0.2 0 0.3 0 0.2 0 0.4 0 0.3 0.1 0.3 0.1 0.1 0 0.4 0 0.2-0.1 0.4-0.1 0.1 0 0.3 0 0.1 0 0.3 0 0.3 0 0.6-0.1c0.2 0 0.4-0.1 0.7-0.1q0.2-0.1 0.3-0.1 0.2-0.1 0.4-0.1 0.4-0.1 0.7-0.3 0.4-0.1 0.8-0.3l0.1-0.1 0.2-0.1q0.2-0.1 0.3-0.1c0.5-0.3 0.8-0.6 1.1-0.8q0.3-0.1 0.5-0.3 0.1-0.2 0.3-0.3 0.2-0.2 0.2-0.2 0.1 0 0.3-0.3 0.1-0.1 0.3-0.3 0.2-0.2 0.3-0.4c0.3-0.3 0.6-0.7 0.8-1.1q0.1-0.1 0.2-0.3l0.1-0.2 0.1-0.1q0.1-0.4 0.3-0.7 0.2-0.4 0.3-0.8 0.1-0.1 0.1-0.3 0.1-0.2 0.1-0.4c0.1-0.2 0.2-0.5 0.2-0.7q0-0.3 0.1-0.6 0-0.1 0-0.3 0.1-0.1 0.1-0.2 0-0.3 0-0.4 0-0.4 0-0.4 0 0 0-0.4 0-0.1 0-0.4 0-0.1 0-0.2 0-0.2-0.1-0.3 0-0.3 0-0.6c-0.1-0.3-0.1-0.5-0.2-0.7q0-0.2-0.1-0.4 0-0.2-0.1-0.4-0.1-0.3-0.2-0.7-0.2-0.4-0.3-0.7l-0.1-0.2-0.1-0.2q-0.1-0.1-0.2-0.3c-0.2-0.4-0.5-0.8-0.7-1.1q-0.2-0.2-0.4-0.4-0.1-0.2-0.2-0.3-0.3-0.3-0.3-0.3 0 0-0.2-0.3-0.2-0.1-0.3-0.2-0.2-0.2-0.4-0.4c-0.4-0.2-0.7-0.5-1.1-0.8q-0.2-0.1-0.4-0.2l-0.1-0.1h-0.2q-0.3-0.2-0.7-0.4-0.4-0.1-0.7-0.3-0.2 0-0.4-0.1-0.2 0-0.3-0.1c-0.3 0-0.5-0.1-0.7-0.2q-0.4 0-0.7-0.1-0.1 0-0.2 0-0.2 0-0.3 0-0.2 0-0.4 0-0.4-0.1-0.4-0.1 0 0-0.3 0-0.2 0-0.4 0.1-0.2 0-0.3 0-0.1 0-0.3 0-0.3 0-0.6 0.1c-0.2 0-0.5 0.1-0.7 0.1q-0.2 0.1-0.4 0.1-0.1 0.1-0.3 0.1-0.4 0.1-0.8 0.3-0.3 0.1-0.7 0.3l-0.1 0.1-0.2 0.1q-0.2 0-0.3 0.1c-0.5 0.3-0.8 0.6-1.2 0.8q-0.2 0.1-0.4 0.3-0.2 0.2-0.3 0.3-0.3 0.2-0.3 0.2 0 0-0.2 0.3-0.1 0.1-0.3 0.3-0.2 0.2-0.3 0.4c-0.3 0.3-0.6 0.7-0.8 1.1q-0.1 0.1-0.2 0.3l-0.1 0.2-0.1 0.1q-0.2 0.4-0.3 0.7-0.2 0.4-0.3 0.8-0.1 0.1-0.1 0.3-0.1 0.2-0.1 0.4c-0.1 0.2-0.2 0.4-0.2 0.7q-0.1 0.3-0.1 0.6 0 0.1-0.1 0.3 0 0.1 0 0.2 0 0.3 0 0.4 0 0.4 0 0.4 0 0 0 0.4 0 0.1 0 0.4 0 0.1 0 0.2 0 0.2 0 0.3 0.1 0.3 0.1 0.6c0 0.3 0.1 0.5 0.2 0.7q0 0.2 0 0.4 0.1 0.2 0.2 0.4 0.1 0.3 0.2 0.7 0.2 0.4 0.3 0.7l0.1 0.2 0.1 0.2q0.1 0.1 0.2 0.3c0.2 0.4 0.5 0.8 0.7 1.1q0.2 0.2 0.4 0.4 0.1 0.2 0.2 0.3 0.3 0.3 0.3 0.3 0 0 0.2 0.2 0.2 0.2 0.3 0.3 0.2 0.2 0.4 0.4c0.4 0.2 0.7 0.5 1.1 0.8q0.2 0.1 0.3 0.2l0.2 0.1h0.2q0.3 0.2 0.7 0.4 0.3 0.1 0.7 0.3 0.2 0 0.4 0.1 0.2 0 0.3 0.1c0.3 0 0.5 0.1 0.7 0.1q0.4 0.1 0.6 0.1 0.2 0.1 0.3 0.1z"/><path fill-rule="evenodd" class="t" d="m660.7 380.5c0 0-0.2-0.1-0.4-0.2-0.3-0.1-0.6-0.2-0.9-0.3-0.6-0.3-1.2-0.6-1.2-0.6-0.4-0.2-0.6-0.5-0.6-0.8 0 0 0-0.8 0-1.6 0-0.7 0.2-1.5 0.2-1.5 0-0.3-0.1-0.6-0.4-0.8 0 0-0.4-0.3-0.7-0.6-0.4-0.4-0.8-0.7-0.8-0.7 0 0-0.3-0.4-0.6-0.8-0.4-0.4-0.7-0.8-0.7-0.8-0.1-0.2-0.4-0.4-0.7-0.3 0 0-0.8 0-1.6 0-0.7 0.1-1.5 0-1.5 0-0.3 0-0.7-0.2-0.8-0.6 0 0-0.3-0.6-0.6-1.2-0.1-0.4-0.2-0.7-0.3-0.9 0-0.3-0.1-0.4-0.1-0.4q-0.1-0.3-0.1-0.6 0.1-0.2 0.3-0.4c0 0 0.5-0.6 1.1-1.1 0.3-0.2 0.6-0.5 0.8-0.7 0.2-0.2 0.3-0.3 0.3-0.3 0.3-0.1 0.4-0.4 0.4-0.7 0 0 0-0.2-0.1-0.4 0-0.2 0-0.4 0-0.7 0-0.5 0-1 0-1 0 0 0-0.5 0-1 0-0.2 0.1-0.5 0.1-0.7 0-0.2 0-0.3 0-0.3 0.1-0.3 0-0.6-0.2-0.8 0 0-0.2-0.1-0.4-0.3-0.2-0.2-0.5-0.4-0.8-0.7-0.5-0.5-1.1-1.1-1.1-1.1q-0.1-0.2-0.2-0.5 0-0.2 0.1-0.5c0 0 0.1-0.2 0.2-0.4 0.1-0.2 0.2-0.6 0.3-0.9 0.3-0.6 0.6-1.2 0.6-1.2 0.2-0.4 0.5-0.6 0.8-0.6 0 0 0.8 0 1.6 0 0.7 0.1 1.5 0.2 1.5 0.2 0.3 0 0.6-0.1 0.8-0.4 0 0 0.3-0.4 0.6-0.7 0.4-0.4 0.7-0.8 0.7-0.8 0 0 0.4-0.3 0.8-0.6 0.4-0.4 0.8-0.7 0.8-0.7 0.2-0.1 0.4-0.4 0.3-0.7 0 0-0.1-0.8-0.1-1.6 0-0.7 0.1-1.5 0.1-1.5 0-0.3 0.2-0.6 0.6-0.8 0 0 0.6-0.3 1.2-0.5 0.4-0.2 0.7-0.3 0.9-0.4 0.3 0 0.4-0.1 0.4-0.1q0.3-0.1 0.6 0 0.2 0 0.4 0.2c0 0 0.6 0.5 1.1 1.1 0.2 0.3 0.5 0.6 0.7 0.8 0.1 0.2 0.3 0.4 0.3 0.4 0.1 0.2 0.4 0.3 0.7 0.3 0 0 0.2 0 0.4-0.1 0.1 0 0.4 0 0.7 0 0.5 0 1 0 1 0 0 0 0.5 0 1 0 0.2 0.1 0.5 0.1 0.7 0.1q0.3 0.1 0.3 0.1c0.3 0 0.6-0.1 0.8-0.3 0 0 0.1-0.2 0.3-0.4 0.2-0.2 0.4-0.5 0.7-0.8 0.5-0.5 1.1-1 1.1-1q0.2-0.2 0.5-0.2 0.2-0.1 0.5 0c0 0 0.2 0.1 0.4 0.2 0.2 0.1 0.6 0.2 0.9 0.3 0.6 0.3 1.2 0.6 1.2 0.6 0.4 0.2 0.6 0.5 0.6 0.8 0 0 0 0.8 0 1.6-0.1 0.7-0.2 1.5-0.2 1.5 0 0.3 0.1 0.6 0.3 0.8 0 0 0.5 0.3 0.8 0.6 0.4 0.4 0.8 0.7 0.8 0.7 0 0 0.3 0.4 0.6 0.8 0.4 0.4 0.7 0.8 0.7 0.8 0.1 0.2 0.4 0.4 0.7 0.3 0 0 0.8 0 1.5 0 0.8 0 1.6 0 1.6 0 0.3 0 0.6 0.2 0.8 0.6 0 0 0.3 0.6 0.5 1.3 0.2 0.3 0.3 0.6 0.4 0.8 0 0.3 0.1 0.5 0.1 0.5q0.1 0.2 0 0.5 0 0.2-0.2 0.4c0 0-0.5 0.6-1.1 1.1-0.3 0.3-0.6 0.5-0.8 0.7-0.2 0.2-0.4 0.3-0.4 0.3-0.2 0.2-0.3 0.5-0.3 0.8q0 0 0 0.3c0.1 0.2 0.1 0.4 0.1 0.7 0 0.5 0 1 0 1 0 0 0 0.5 0 1-0.1 0.3-0.1 0.5-0.1 0.7 0 0.2-0.1 0.3-0.1 0.3 0 0.3 0.1 0.6 0.3 0.8 0 0 0.2 0.1 0.4 0.3 0.2 0.2 0.5 0.4 0.8 0.7 0.5 0.5 1 1.1 1 1.1q0.2 0.2 0.2 0.5 0.1 0.2 0 0.5c0 0-0.1 0.2-0.2 0.4-0.1 0.3-0.2 0.6-0.3 0.9-0.3 0.6-0.6 1.2-0.6 1.2-0.2 0.4-0.5 0.6-0.8 0.6 0 0-0.8 0-1.6 0-0.7-0.1-1.5-0.2-1.5-0.2-0.3 0-0.6 0.1-0.8 0.4 0 0-0.3 0.4-0.6 0.7-0.4 0.4-0.7 0.8-0.7 0.8 0 0-0.4 0.3-0.8 0.6-0.4 0.4-0.8 0.7-0.8 0.7-0.2 0.1-0.4 0.4-0.4 0.7 0 0 0.1 0.8 0.1 1.6 0 0.7 0 1.5 0 1.5 0 0.3-0.2 0.7-0.6 0.8 0 0-0.6 0.3-1.3 0.6-0.3 0.1-0.6 0.2-0.8 0.3-0.3 0-0.5 0.1-0.5 0.1q-0.2 0.1-0.5 0-0.2 0-0.4-0.2c0 0-0.6-0.5-1.1-1.1-0.3-0.3-0.5-0.6-0.7-0.8-0.2-0.2-0.3-0.4-0.3-0.4-0.2-0.2-0.5-0.3-0.8-0.3 0 0-0.1 0-0.3 0.1-0.2 0-0.4 0-0.7 0-0.5 0-1 0-1 0 0 0-0.5 0-1 0-0.3 0-0.5-0.1-0.7-0.1q-0.3 0-0.3-0.1c-0.3 0-0.6 0.1-0.8 0.3 0 0-0.1 0.2-0.3 0.4-0.2 0.2-0.4 0.5-0.7 0.8-0.6 0.5-1.1 1.1-1.1 1.1q-0.2 0.1-0.5 0.2-0.2 0-0.5-0.1zm5-7.1q0.1 0 0.2 0 0.3 0 0.4 0 0.4 0.1 0.4 0.1 0 0 0.4 0 0.1 0 0.4-0.1 0.1 0 0.2 0 0.2 0 0.3 0 0.3 0 0.6-0.1c0.3 0 0.5-0.1 0.7-0.1q0.2-0.1 0.4-0.1 0.2-0.1 0.4-0.1 0.3-0.1 0.7-0.3 0.4-0.1 0.7-0.3l0.2-0.1 0.1-0.1q0.2 0 0.4-0.1c0.4-0.3 0.8-0.6 1.1-0.8q0.2-0.1 0.4-0.3 0.2-0.2 0.3-0.3 0.3-0.2 0.3-0.2 0 0 0.2-0.3 0.2-0.1 0.3-0.3 0.2-0.1 0.4-0.4c0.2-0.3 0.5-0.6 0.7-1.1q0.1-0.1 0.2-0.3l0.1-0.2 0.1-0.1q0.2-0.4 0.4-0.7 0.1-0.4 0.2-0.8 0.1-0.1 0.2-0.3 0-0.2 0.1-0.4c0-0.2 0.1-0.4 0.1-0.7q0.1-0.3 0.1-0.6 0.1-0.1 0.1-0.3 0-0.1 0-0.2 0-0.3 0-0.4 0.1-0.4 0.1-0.4 0 0-0.1-0.4 0-0.1 0-0.4 0-0.1 0-0.2 0-0.2 0-0.3 0-0.3-0.1-0.6c0-0.3-0.1-0.5-0.1-0.7q-0.1-0.2-0.1-0.4-0.1-0.2-0.1-0.4-0.1-0.3-0.3-0.7-0.1-0.4-0.3-0.7l-0.1-0.2-0.1-0.2q-0.1-0.1-0.2-0.3c-0.2-0.4-0.5-0.8-0.7-1.1q-0.1-0.2-0.3-0.4-0.2-0.2-0.3-0.3-0.2-0.3-0.2-0.3 0 0-0.3-0.2-0.1-0.2-0.3-0.3-0.2-0.2-0.4-0.4c-0.3-0.2-0.7-0.5-1.1-0.8q-0.1 0-0.3-0.1l-0.2-0.2h-0.1q-0.4-0.2-0.7-0.4-0.4-0.1-0.8-0.3-0.2 0-0.3-0.1-0.2 0-0.4-0.1c-0.2 0-0.5-0.1-0.7-0.1q-0.3-0.1-0.6-0.1-0.2-0.1-0.3-0.1-0.1 0-0.2 0-0.3 0-0.5 0-0.3-0.1-0.3-0.1 0 0-0.4 0.1-0.1 0-0.4 0-0.1 0-0.2 0-0.2 0-0.3 0-0.3 0-0.7 0.1c-0.2 0-0.4 0.1-0.6 0.1q-0.2 0.1-0.4 0.1-0.2 0.1-0.4 0.1-0.3 0.1-0.7 0.3-0.4 0.1-0.7 0.3l-0.2 0.1-0.2 0.1q-0.1 0.1-0.3 0.1c-0.4 0.3-0.8 0.6-1.1 0.8q-0.3 0.1-0.4 0.3-0.2 0.2-0.3 0.3-0.3 0.2-0.3 0.2 0 0-0.3 0.3-0.1 0.1-0.2 0.3-0.2 0.2-0.4 0.4c-0.2 0.3-0.5 0.7-0.8 1.1q-0.1 0.1-0.2 0.3l-0.1 0.2v0.1q-0.2 0.4-0.4 0.7-0.1 0.4-0.3 0.8 0 0.1-0.1 0.3 0 0.2-0.1 0.4c0 0.2-0.1 0.5-0.2 0.7q0 0.3-0.1 0.6 0 0.1 0 0.3 0 0.1 0 0.2 0 0.3 0 0.4-0.1 0.4-0.1 0.4 0 0 0 0.4 0 0.1 0 0.4 0.1 0.1 0.1 0.2 0 0.2 0 0.3 0 0.3 0.1 0.6c0 0.3 0.1 0.5 0.1 0.7q0.1 0.2 0.1 0.4 0 0.2 0.1 0.4 0.1 0.3 0.3 0.7 0.1 0.4 0.3 0.7l0.1 0.2 0.1 0.2q0 0.1 0.1 0.3c0.3 0.4 0.5 0.8 0.8 1.1q0.1 0.2 0.3 0.4 0.2 0.2 0.3 0.3 0.2 0.3 0.2 0.3 0 0 0.3 0.3 0.1 0.1 0.3 0.2 0.1 0.2 0.4 0.4c0.3 0.2 0.6 0.5 1.1 0.8q0.1 0.1 0.3 0.2l0.2 0.1h0.1q0.4 0.2 0.7 0.4 0.4 0.1 0.8 0.3 0.1 0 0.3 0.1 0.2 0 0.4 0.1c0.2 0 0.4 0.1 0.7 0.2q0.3 0 0.6 0.1 0.1 0 0.3 0z"/><path fill-rule="evenodd" class="t" d="m624.1 369.7c0 0-0.2 0-0.6-0.1-0.4 0-1 0-1.5-0.1-1.1-0.2-2.1-0.5-2.1-0.5-0.6-0.1-1-0.5-1.2-0.9 0 0-0.3-1.2-0.6-2.4-0.2-1.2-0.4-2.4-0.4-2.4 0-0.4-0.3-0.8-0.8-1 0 0-0.7-0.3-1.4-0.7-0.7-0.4-1.4-0.8-1.4-0.8 0 0-0.6-0.4-1.3-0.9-0.7-0.4-1.2-0.9-1.2-0.9-0.4-0.3-0.9-0.4-1.3-0.2 0 0-1.2 0.4-2.3 0.7-1.2 0.3-2.4 0.5-2.4 0.5-0.4 0.1-1-0.1-1.4-0.5 0 0-0.6-0.9-1.3-1.7-0.3-0.5-0.6-0.9-0.8-1.3-0.3-0.3-0.4-0.5-0.4-0.5q-0.2-0.4-0.3-0.8 0-0.4 0.2-0.7c0 0 0.6-1.1 1.2-2.1 0.3-0.5 0.7-1 0.9-1.4 0.3-0.3 0.5-0.6 0.5-0.6 0.3-0.3 0.4-0.8 0.2-1.3 0 0-0.1-0.2-0.2-0.4-0.1-0.3-0.2-0.7-0.4-1.1-0.2-0.7-0.4-1.5-0.4-1.5 0 0-0.2-0.8-0.3-1.6-0.1-0.4-0.2-0.7-0.2-1 0-0.3 0-0.5 0-0.5-0.1-0.5-0.4-0.9-0.8-1.1 0 0-0.3-0.1-0.7-0.3-0.3-0.2-0.9-0.5-1.4-0.8-1-0.6-2.1-1.3-2.1-1.3q-0.3-0.2-0.4-0.6-0.2-0.4-0.1-0.8c0 0 0-0.3 0-0.7 0.1-0.4 0.1-0.9 0.2-1.4 0.2-1.1 0.4-2.2 0.4-2.2 0.1-0.5 0.5-1 1-1.1 0 0 1.2-0.4 2.3-0.6 1.2-0.3 2.4-0.4 2.4-0.4 0.5-0.1 0.9-0.4 1-0.8 0 0 0.3-0.8 0.7-1.4 0.4-0.7 0.8-1.4 0.8-1.4 0 0 0.4-0.7 0.9-1.4 0.4-0.6 0.9-1.2 0.9-1.2 0.3-0.4 0.4-0.9 0.2-1.3 0 0-0.4-1.2-0.7-2.3-0.3-1.1-0.5-2.4-0.5-2.4-0.1-0.4 0.1-1 0.5-1.4 0 0 0.9-0.7 1.7-1.3 0.4-0.3 0.9-0.6 1.2-0.9 0.4-0.2 0.6-0.3 0.6-0.3q0.4-0.3 0.8-0.3 0.4 0 0.7 0.1c0 0 1.1 0.7 2.1 1.3 0.5 0.3 1 0.7 1.3 0.9 0.4 0.3 0.6 0.5 0.6 0.5 0.4 0.3 0.9 0.4 1.3 0.2 0 0 0.2-0.1 0.5-0.2 0.3-0.1 0.6-0.2 1-0.4 0.8-0.2 1.5-0.4 1.5-0.4 0 0 0.8-0.2 1.6-0.3 0.4-0.1 0.8-0.2 1.1-0.2 0.3 0 0.5 0 0.5 0 0.4-0.1 0.8-0.4 1-0.8 0 0 0.2-0.3 0.4-0.7 0.1-0.4 0.4-0.9 0.7-1.4 0.6-1 1.3-2.1 1.3-2.1q0.2-0.3 0.6-0.5 0.3-0.1 0.8-0.1c0 0 0.3 0.1 0.7 0.1 0.4 0.1 0.9 0.1 1.4 0.2 1.1 0.2 2.1 0.4 2.1 0.4 0.6 0.1 1.1 0.5 1.2 1 0 0 0.3 1.2 0.6 2.4 0.2 1.1 0.4 2.3 0.4 2.3 0 0.5 0.3 0.9 0.8 1.1 0 0 0.7 0.2 1.4 0.7 0.7 0.3 1.4 0.7 1.4 0.7 0 0 0.6 0.5 1.3 0.9 0.7 0.4 1.3 1 1.3 1 0.3 0.3 0.8 0.4 1.3 0.2 0 0 1.1-0.4 2.2-0.7 1.2-0.4 2.4-0.6 2.4-0.6 0.4-0.1 1 0.1 1.4 0.6 0 0 0.7 0.8 1.3 1.7 0.3 0.4 0.6 0.9 0.8 1.2 0.3 0.3 0.4 0.6 0.4 0.6q0.3 0.3 0.3 0.7 0 0.5-0.2 0.8c0 0-0.6 1.1-1.2 2.1-0.3 0.5-0.7 1-0.9 1.3-0.3 0.4-0.5 0.6-0.5 0.6-0.3 0.4-0.3 0.9-0.2 1.3 0 0 0.1 0.2 0.2 0.5 0.1 0.3 0.3 0.6 0.4 1 0.2 0.8 0.4 1.5 0.4 1.5 0 0 0.2 0.8 0.3 1.6 0.1 0.4 0.2 0.8 0.2 1.1 0 0.3 0 0.5 0 0.5 0.1 0.5 0.4 0.9 0.8 1.1 0 0 0.3 0.1 0.7 0.3 0.4 0.2 0.9 0.5 1.4 0.8 1 0.5 2.1 1.2 2.1 1.2q0.3 0.2 0.4 0.6 0.2 0.4 0.1 0.8c0 0 0 0.3 0 0.7-0.1 0.4-0.1 1-0.2 1.5-0.2 1-0.4 2.1-0.4 2.1-0.1 0.6-0.5 1-1 1.2 0 0-1.2 0.3-2.3 0.6-1.2 0.2-2.4 0.3-2.4 0.3-0.4 0.1-0.8 0.4-1 0.9 0 0-0.3 0.7-0.7 1.4-0.4 0.7-0.8 1.4-0.8 1.4 0 0-0.4 0.6-0.9 1.3-0.4 0.7-0.9 1.3-0.9 1.3-0.3 0.3-0.4 0.8-0.2 1.3 0 0 0.4 1.1 0.7 2.2 0.3 1.2 0.6 2.4 0.6 2.4 0 0.5-0.1 1.1-0.6 1.4 0 0-0.9 0.7-1.7 1.4-0.4 0.3-0.9 0.6-1.2 0.8-0.4 0.2-0.6 0.4-0.6 0.4q-0.4 0.2-0.8 0.2-0.4 0.1-0.7-0.1c0 0-1.1-0.6-2.1-1.3-0.5-0.3-1-0.6-1.3-0.9-0.4-0.3-0.6-0.5-0.6-0.5-0.4-0.2-0.9-0.3-1.3-0.1 0 0-0.2 0-0.5 0.2-0.2 0.1-0.6 0.2-1 0.3-0.8 0.2-1.5 0.4-1.5 0.4 0 0-0.8 0.2-1.6 0.3-0.4 0.1-0.8 0.2-1.1 0.2-0.2 0-0.4 0.1-0.4 0.1-0.5 0-0.9 0.3-1.1 0.7 0 0-0.1 0.3-0.3 0.7-0.2 0.4-0.5 0.9-0.8 1.4-0.6 1.1-1.3 2.1-1.3 2.1q-0.2 0.3-0.6 0.5-0.3 0.1-0.8 0.1zm4.7-12.7q0.2 0 0.4-0.1 0.4 0 0.6-0.1 0.6-0.1 0.6-0.1 0 0 0.5-0.2 0.3 0 0.6-0.1 0.2-0.1 0.4-0.2 0.2 0 0.4-0.1 0.5-0.2 1-0.4c0.3-0.1 0.6-0.3 0.9-0.5q0.3-0.1 0.6-0.3 0.2-0.1 0.5-0.3c0.3-0.2 0.6-0.4 1-0.6q0.4-0.4 0.9-0.8l0.3-0.2 0.2-0.2q0.2-0.2 0.4-0.4c0.6-0.5 1-1.1 1.4-1.6 0.2-0.2 0.3-0.4 0.5-0.6q0.2-0.3 0.3-0.6 0.4-0.4 0.4-0.4 0 0 0.2-0.5 0.2-0.3 0.3-0.6c0.2-0.2 0.3-0.5 0.4-0.8 0.2-0.5 0.5-1.2 0.7-1.9q0.1-0.3 0.2-0.6l0.1-0.3v-0.3q0.2-0.6 0.3-1.2c0-0.4 0.1-0.8 0.1-1.2q0-0.3 0.1-0.6 0-0.3 0-0.5c-0.1-0.4 0-0.8-0.1-1.2q0-0.5-0.1-0.9 0-0.3 0-0.5 0-0.2-0.1-0.4 0-0.3-0.1-0.6-0.1-0.6-0.1-0.6 0 0-0.2-0.5 0-0.3-0.1-0.6-0.1-0.2-0.1-0.4-0.1-0.2-0.2-0.4-0.2-0.5-0.4-0.9c-0.1-0.4-0.3-0.7-0.5-1q-0.1-0.3-0.2-0.6-0.2-0.2-0.4-0.5c-0.2-0.3-0.4-0.7-0.6-1q-0.4-0.5-0.8-0.9l-0.2-0.3-0.2-0.2q-0.2-0.2-0.4-0.4c-0.5-0.6-1.1-1-1.5-1.4-0.3-0.2-0.5-0.4-0.7-0.5q-0.3-0.2-0.5-0.4-0.5-0.3-0.5-0.3 0 0-0.5-0.3-0.2-0.1-0.6-0.3c-0.2-0.1-0.4-0.2-0.7-0.3-0.6-0.3-1.2-0.6-2-0.8q-0.2-0.1-0.5-0.1l-0.3-0.1-0.3-0.1q-0.6-0.1-1.2-0.2c-0.4-0.1-0.8-0.1-1.2-0.2q-0.3 0-0.6 0-0.3 0-0.6 0c-0.4 0-0.7 0-1.1 0q-0.5 0.1-1 0.1-0.2 0-0.4 0-0.2 0.1-0.4 0.1-0.4 0.1-0.6 0.1-0.6 0.1-0.6 0.1 0 0-0.5 0.2-0.3 0.1-0.6 0.2-0.2 0-0.4 0.1-0.2 0.1-0.4 0.2-0.5 0.1-0.9 0.3c-0.4 0.2-0.7 0.4-1 0.5q-0.3 0.2-0.5 0.3-0.3 0.1-0.5 0.3c-0.4 0.2-0.7 0.4-1.1 0.7q-0.4 0.4-0.9 0.7l-0.2 0.2-0.3 0.2q-0.2 0.2-0.4 0.5c-0.5 0.5-1 1-1.4 1.5-0.2 0.2-0.3 0.5-0.5 0.7q-0.2 0.3-0.3 0.5-0.3 0.5-0.3 0.5-0.1 0-0.3 0.5-0.1 0.2-0.3 0.6c-0.1 0.2-0.3 0.4-0.4 0.7-0.2 0.6-0.5 1.2-0.7 2q-0.1 0.2-0.2 0.5l-0.1 0.3v0.3q-0.1 0.6-0.3 1.2c0 0.4 0 0.8-0.1 1.2q0 0.3-0.1 0.6 0.1 0.3 0.1 0.6c0 0.4-0.1 0.7 0 1.1q0 0.5 0.1 1 0 0.2 0 0.4 0 0.2 0.1 0.4 0.1 0.4 0.1 0.7 0.1 0.5 0.1 0.5 0 0 0.2 0.5 0 0.3 0.2 0.7 0 0.2 0.1 0.4 0 0.1 0.1 0.4 0.2 0.4 0.4 0.9c0.1 0.3 0.3 0.6 0.5 1q0.1 0.2 0.3 0.5 0.1 0.3 0.3 0.5c0.2 0.3 0.4 0.7 0.6 1q0.4 0.5 0.8 1l0.2 0.2 0.2 0.2q0.2 0.2 0.4 0.4c0.5 0.6 1.1 1 1.5 1.4 0.3 0.3 0.5 0.4 0.7 0.5q0.3 0.3 0.6 0.4 0.4 0.3 0.4 0.3 0 0 0.5 0.3 0.3 0.1 0.6 0.3c0.2 0.1 0.4 0.3 0.7 0.4 0.6 0.2 1.2 0.5 2 0.7q0.3 0.1 0.5 0.2l0.3 0.1h0.3q0.6 0.1 1.2 0.3c0.4 0 0.8 0 1.2 0.1q0.3 0 0.6 0.1 0.3 0 0.6-0.1c0.4 0 0.7 0.1 1.1 0q0.5 0 1-0.1 0.2 0 0.4 0z"/><path fill-rule="evenodd" class="t" d="m200.4 595.8c0 0-0.1-0.1-0.4-0.2-0.2-0.1-0.6-0.2-0.9-0.3-0.6-0.3-1.2-0.6-1.2-0.6-0.4-0.2-0.6-0.5-0.6-0.8 0 0 0-0.8 0.1-1.6 0-0.7 0.1-1.5 0.1-1.5 0-0.3-0.1-0.6-0.3-0.8 0 0-0.4-0.3-0.8-0.6-0.4-0.4-0.7-0.7-0.7-0.7 0 0-0.4-0.4-0.7-0.8-0.4-0.3-0.6-0.8-0.6-0.8-0.2-0.2-0.5-0.4-0.8-0.3 0 0-0.8 0.1-1.5 0.1-0.8 0-1.6-0.1-1.6-0.1-0.3 0-0.6-0.2-0.8-0.6 0 0-0.2-0.6-0.5-1.2-0.2-0.4-0.3-0.7-0.3-0.9-0.1-0.3-0.2-0.4-0.2-0.4q-0.1-0.3 0-0.6 0-0.2 0.2-0.4c0 0 0.5-0.6 1.1-1.1 0.3-0.2 0.6-0.5 0.8-0.7 0.2-0.1 0.4-0.3 0.4-0.3 0.2-0.1 0.3-0.4 0.3-0.7 0 0 0-0.2 0-0.4-0.1-0.1-0.1-0.4-0.1-0.6 0-0.6 0-1.1 0-1.1 0 0 0-0.5 0.1-1 0-0.2 0-0.5 0-0.7 0.1-0.2 0.1-0.3 0.1-0.3 0-0.3-0.1-0.6-0.3-0.8 0 0-0.2-0.1-0.4-0.3-0.2-0.2-0.5-0.4-0.7-0.7-0.6-0.5-1.1-1.1-1.1-1.1q-0.2-0.2-0.2-0.5-0.1-0.2 0-0.5c0 0 0.1-0.1 0.2-0.4 0.1-0.2 0.2-0.6 0.3-0.9 0.3-0.6 0.6-1.2 0.6-1.2 0.2-0.4 0.5-0.6 0.8-0.6 0 0 0.8 0 1.6 0 0.8 0.1 1.5 0.2 1.5 0.2 0.3 0 0.6-0.1 0.8-0.3 0 0 0.3-0.5 0.7-0.8 0.3-0.4 0.7-0.8 0.7-0.8 0 0 0.3-0.3 0.7-0.6 0.4-0.4 0.8-0.7 0.8-0.7 0.3-0.1 0.4-0.4 0.4-0.7 0 0-0.1-0.8-0.1-1.5 0-0.8 0-1.6 0-1.6 0-0.3 0.3-0.6 0.6-0.8 0 0 0.6-0.3 1.3-0.5 0.3-0.2 0.6-0.3 0.9-0.3 0.2-0.1 0.4-0.2 0.4-0.2q0.2-0.1 0.5 0 0.3 0 0.4 0.2c0 0 0.6 0.5 1.1 1.1 0.3 0.3 0.5 0.6 0.7 0.8 0.2 0.2 0.3 0.4 0.3 0.4 0.2 0.2 0.5 0.3 0.8 0.3 0 0 0.1 0 0.3 0 0.2-0.1 0.4-0.1 0.7-0.1 0.5 0 1 0 1 0 0 0 0.5 0 1 0 0.3 0.1 0.5 0.1 0.7 0.1q0.3 0.1 0.3 0.1c0.3 0 0.6-0.1 0.8-0.3 0 0 0.1-0.2 0.3-0.4 0.2-0.2 0.5-0.5 0.7-0.8 0.6-0.5 1.2-1 1.2-1q0.1-0.2 0.4-0.2 0.3-0.1 0.5 0c0 0 0.2 0.1 0.4 0.2 0.3 0.1 0.6 0.2 0.9 0.3 0.6 0.3 1.3 0.6 1.3 0.6 0.3 0.2 0.5 0.5 0.5 0.8 0 0 0 0.8 0 1.6 0 0.7-0.1 1.5-0.1 1.5-0.1 0.3 0 0.6 0.3 0.8 0 0 0.4 0.3 0.8 0.6 0.3 0.4 0.7 0.7 0.7 0.7 0 0 0.3 0.4 0.7 0.8 0.3 0.4 0.6 0.8 0.6 0.8 0.2 0.3 0.5 0.4 0.8 0.4 0 0 0.7-0.1 1.5-0.1 0.7 0 1.5 0 1.5 0 0.3 0 0.7 0.2 0.8 0.6 0 0 0.3 0.6 0.6 1.3 0.1 0.3 0.2 0.6 0.3 0.9 0.1 0.2 0.1 0.4 0.1 0.4q0.1 0.2 0.1 0.5-0.1 0.2-0.2 0.4c0 0-0.6 0.6-1.2 1.1-0.3 0.3-0.5 0.5-0.8 0.7-0.2 0.2-0.3 0.3-0.3 0.3-0.3 0.2-0.4 0.5-0.4 0.8q0 0 0.1 0.3c0 0.2 0 0.4 0 0.7 0 0.5 0.1 1 0.1 1 0 0-0.1 0.5-0.1 1 0 0.3 0 0.5-0.1 0.7 0 0.2 0 0.3 0 0.3-0.1 0.3 0 0.6 0.3 0.8 0 0 0.1 0.1 0.3 0.3 0.2 0.2 0.5 0.5 0.8 0.7 0.5 0.6 1.1 1.2 1.1 1.2q0.1 0.1 0.2 0.4 0 0.2-0.1 0.5c0 0-0.1 0.2-0.1 0.4-0.1 0.3-0.2 0.6-0.4 0.9-0.3 0.6-0.6 1.2-0.6 1.2-0.2 0.4-0.5 0.6-0.8 0.6 0 0-0.8 0-1.6 0-0.7 0-1.5-0.2-1.5-0.2-0.3 0-0.6 0.1-0.8 0.4 0 0-0.2 0.4-0.6 0.7-0.4 0.4-0.7 0.8-0.7 0.8 0 0-0.4 0.3-0.8 0.6-0.3 0.4-0.8 0.7-0.8 0.7-0.2 0.2-0.3 0.5-0.3 0.7 0 0 0.1 0.8 0.1 1.6 0 0.7-0.1 1.5-0.1 1.5 0 0.3-0.2 0.7-0.6 0.8 0 0-0.6 0.3-1.2 0.6-0.3 0.1-0.7 0.2-0.9 0.3-0.3 0.1-0.4 0.1-0.4 0.1q-0.3 0.1-0.6 0.1-0.2-0.1-0.4-0.3c0 0-0.6-0.5-1.1-1.1-0.2-0.3-0.5-0.5-0.7-0.8-0.1-0.2-0.2-0.3-0.2-0.3-0.2-0.3-0.5-0.4-0.8-0.4 0 0-0.2 0-0.3 0.1-0.2 0-0.5 0-0.7 0-0.5 0-1.1 0-1.1 0 0 0-0.5 0-1 0-0.2 0-0.5-0.1-0.7-0.1q-0.3 0-0.3 0c-0.3-0.1-0.6 0-0.8 0.3 0 0-0.1 0.1-0.3 0.3-0.2 0.2-0.4 0.5-0.7 0.8-0.5 0.5-1.1 1.1-1.1 1.1q-0.2 0.1-0.5 0.2-0.2 0-0.5-0.1zm5-7.1q0.1 0 0.3 0 0.2 0 0.4 0.1 0.3 0 0.3 0 0 0 0.4 0 0.2 0 0.4 0 0.1 0 0.3 0 0.1-0.1 0.2-0.1 0.3 0 0.7-0.1c0.2 0 0.4-0.1 0.7-0.1q0.1 0 0.3-0.1 0.2 0 0.4-0.1 0.4-0.1 0.7-0.3 0.4-0.1 0.7-0.3h0.2l0.2-0.1q0.1-0.1 0.3-0.2c0.4-0.2 0.8-0.5 1.1-0.8q0.3-0.1 0.4-0.3 0.2-0.2 0.4-0.3 0.2-0.2 0.2-0.2 0 0 0.3-0.3 0.1-0.1 0.3-0.3 0.1-0.1 0.3-0.4c0.2-0.3 0.5-0.6 0.8-1.1q0.1-0.1 0.2-0.3l0.1-0.1 0.1-0.2q0.1-0.4 0.3-0.7 0.1-0.4 0.3-0.8 0.1-0.1 0.1-0.3 0.1-0.2 0.1-0.4c0.1-0.2 0.1-0.4 0.2-0.7q0-0.3 0.1-0.6 0-0.1 0-0.3 0-0.1 0-0.2 0.1-0.3 0.1-0.4 0-0.4 0-0.4 0 0 0-0.4 0-0.1 0-0.4 0-0.1 0-0.2-0.1-0.2-0.1-0.3 0-0.3-0.1-0.6c0-0.3-0.1-0.5-0.1-0.7q0-0.2-0.1-0.4 0-0.2-0.1-0.3-0.1-0.4-0.2-0.8-0.2-0.3-0.4-0.7v-0.2l-0.1-0.1q-0.1-0.2-0.2-0.4c-0.2-0.4-0.5-0.8-0.8-1.1q-0.1-0.2-0.3-0.4-0.1-0.2-0.3-0.3-0.2-0.3-0.2-0.3 0 0-0.3-0.2-0.1-0.2-0.3-0.3-0.1-0.2-0.4-0.4c-0.3-0.2-0.6-0.5-1.1-0.7q-0.1-0.1-0.3-0.2l-0.1-0.1-0.2-0.1q-0.4-0.2-0.7-0.4-0.4-0.1-0.7-0.2-0.2-0.1-0.4-0.2-0.2 0-0.4-0.1c-0.2 0-0.4-0.1-0.6-0.1q-0.4-0.1-0.7-0.1-0.1-0.1-0.3-0.1-0.1 0-0.2 0-0.2 0-0.4 0-0.4-0.1-0.4-0.1 0 0-0.3 0.1-0.2 0-0.5 0-0.1 0-0.2 0-0.1 0-0.3 0-0.3 0.1-0.6 0.1c-0.2 0-0.5 0.1-0.7 0.1q-0.2 0.1-0.4 0.1-0.2 0.1-0.3 0.1-0.4 0.2-0.8 0.3-0.3 0.1-0.7 0.3l-0.2 0.1-0.1 0.1q-0.2 0.1-0.4 0.2c-0.4 0.2-0.7 0.5-1.1 0.7q-0.2 0.2-0.4 0.3-0.2 0.2-0.3 0.3-0.3 0.2-0.3 0.2 0 0-0.2 0.3-0.1 0.1-0.3 0.3-0.2 0.2-0.4 0.4c-0.2 0.3-0.5 0.7-0.7 1.1q-0.1 0.2-0.2 0.3l-0.1 0.2-0.1 0.1q-0.2 0.4-0.4 0.7-0.1 0.4-0.2 0.8-0.1 0.2-0.2 0.3 0 0.2-0.1 0.4c0 0.2-0.1 0.5-0.1 0.7q-0.1 0.3-0.1 0.6-0.1 0.2-0.1 0.3 0 0.1 0 0.2 0 0.3 0 0.5 0 0.3 0 0.3 0 0 0 0.4 0 0.2 0 0.4 0 0.1 0 0.2 0 0.2 0 0.3 0.1 0.3 0.1 0.7c0 0.2 0.1 0.4 0.1 0.6q0.1 0.2 0.1 0.4 0.1 0.2 0.1 0.4 0.2 0.3 0.3 0.7 0.2 0.4 0.3 0.7l0.1 0.2 0.1 0.2q0.1 0.1 0.2 0.3c0.2 0.4 0.5 0.8 0.7 1.1q0.2 0.3 0.3 0.4 0.2 0.2 0.3 0.3 0.2 0.3 0.2 0.3 0 0 0.3 0.3 0.1 0.1 0.3 0.2 0.2 0.2 0.4 0.4c0.3 0.2 0.7 0.5 1.1 0.8q0.2 0.1 0.3 0.2l0.2 0.1 0.2 0.1q0.3 0.1 0.7 0.3 0.3 0.1 0.7 0.3 0.2 0 0.3 0.1 0.2 0 0.4 0.1c0.2 0 0.5 0.1 0.7 0.2q0.3 0 0.6 0.1 0.2 0 0.3 0z"/><path fill-rule="evenodd" class="t" d="m167.4 627.1c0 0-0.2-0.1-0.5-0.2-0.2 0-0.5-0.2-0.8-0.3-0.7-0.3-1.3-0.6-1.3-0.6-0.3-0.2-0.5-0.5-0.5-0.8 0 0-0.1-0.8 0-1.6 0-0.7 0.1-1.5 0.1-1.5 0.1-0.3-0.1-0.6-0.3-0.8 0 0-0.4-0.3-0.8-0.6-0.3-0.4-0.7-0.7-0.7-0.7 0 0-0.3-0.4-0.7-0.8-0.3-0.3-0.6-0.8-0.6-0.8-0.2-0.2-0.5-0.4-0.8-0.3 0 0-0.7 0.1-1.5 0.1-0.8 0-1.6-0.1-1.6-0.1-0.3 0-0.6-0.2-0.7-0.6 0 0-0.3-0.6-0.6-1.2-0.1-0.3-0.2-0.7-0.3-0.9-0.1-0.3-0.1-0.4-0.1-0.4q-0.1-0.3-0.1-0.6 0.1-0.2 0.2-0.4c0 0 0.6-0.6 1.1-1.1 0.3-0.2 0.6-0.5 0.8-0.7 0.3-0.1 0.4-0.3 0.4-0.3 0.2-0.1 0.4-0.4 0.3-0.7q0-0.1 0-0.4c0-0.1 0-0.4 0-0.6-0.1-0.6-0.1-1.1-0.1-1.1 0 0 0.1-0.5 0.1-1 0-0.2 0-0.5 0.1-0.7 0-0.2 0-0.3 0-0.3 0.1-0.3-0.1-0.6-0.3-0.8 0 0-0.1-0.1-0.4-0.3-0.2-0.2-0.4-0.4-0.7-0.7-0.6-0.5-1.1-1.1-1.1-1.1q-0.2-0.2-0.2-0.5 0-0.2 0.1-0.5c0 0 0-0.1 0.1-0.4 0.1-0.2 0.2-0.6 0.4-0.9 0.3-0.6 0.6-1.2 0.6-1.2 0.1-0.4 0.5-0.6 0.8-0.6 0 0 0.8 0 1.5 0 0.8 0.1 1.5 0.2 1.5 0.2 0.3 0 0.6-0.1 0.8-0.3 0 0 0.3-0.5 0.7-0.8 0.3-0.4 0.7-0.8 0.7-0.8 0 0 0.4-0.3 0.7-0.6 0.4-0.4 0.8-0.6 0.8-0.6 0.3-0.2 0.4-0.5 0.4-0.8 0 0-0.1-0.8-0.1-1.5 0-0.8 0.1-1.6 0.1-1.6 0-0.3 0.2-0.6 0.5-0.8 0 0 0.7-0.3 1.3-0.5 0.3-0.2 0.7-0.3 0.9-0.3 0.2-0.1 0.4-0.2 0.4-0.2q0.3-0.1 0.5 0 0.3 0 0.5 0.2c0 0 0.5 0.5 1.1 1.1 0.2 0.3 0.5 0.6 0.6 0.8 0.2 0.2 0.3 0.4 0.3 0.4 0.2 0.2 0.5 0.3 0.8 0.3 0 0 0.1 0 0.3 0 0.2-0.1 0.5-0.1 0.7-0.1 0.5 0 1 0 1 0 0 0 0.5 0 1 0.1 0.3 0 0.6 0 0.7 0q0.3 0.1 0.4 0.1c0.3 0 0.6-0.1 0.7-0.3 0 0 0.2-0.2 0.4-0.4 0.1-0.2 0.4-0.5 0.7-0.8 0.5-0.5 1.1-1 1.1-1q0.2-0.2 0.4-0.2 0.3-0.1 0.6 0c0 0 0.1 0.1 0.4 0.2 0.2 0.1 0.5 0.2 0.8 0.3 0.7 0.3 1.3 0.6 1.3 0.6 0.3 0.2 0.5 0.5 0.5 0.8 0 0 0.1 0.8 0 1.6 0 0.7-0.1 1.5-0.1 1.5-0.1 0.3 0.1 0.6 0.3 0.8 0 0 0.4 0.3 0.8 0.6 0.4 0.4 0.7 0.7 0.7 0.7 0 0 0.4 0.4 0.7 0.8 0.3 0.4 0.6 0.8 0.6 0.8 0.2 0.3 0.5 0.4 0.8 0.4 0 0 0.8-0.1 1.5-0.1 0.8 0 1.6 0 1.6 0 0.3 0 0.6 0.3 0.7 0.6 0 0 0.3 0.6 0.6 1.3 0.1 0.3 0.2 0.6 0.3 0.9 0.1 0.2 0.1 0.4 0.1 0.4q0.1 0.2 0.1 0.5 0 0.3-0.2 0.4c0 0-0.6 0.6-1.1 1.1-0.3 0.3-0.6 0.5-0.8 0.7-0.2 0.2-0.4 0.3-0.4 0.3-0.2 0.2-0.4 0.5-0.3 0.8q0 0 0 0.3c0 0.2 0.1 0.4 0.1 0.7 0 0.5 0 1 0 1 0 0 0 0.5-0.1 1 0 0.3 0 0.5-0.1 0.7 0 0.2 0 0.3 0 0.3-0.1 0.3 0.1 0.6 0.3 0.8 0 0 0.1 0.1 0.4 0.3 0.2 0.2 0.5 0.5 0.7 0.7 0.6 0.6 1.1 1.2 1.1 1.2q0.2 0.1 0.2 0.4 0 0.2-0.1 0.5c0 0 0 0.2-0.1 0.4-0.1 0.3-0.2 0.6-0.4 0.9-0.3 0.6-0.6 1.2-0.6 1.2-0.1 0.4-0.5 0.6-0.8 0.6 0 0-0.8 0-1.5 0-0.8 0-1.5-0.2-1.5-0.2-0.3 0-0.6 0.1-0.8 0.4 0 0-0.3 0.4-0.7 0.7-0.3 0.4-0.7 0.8-0.7 0.8 0 0-0.4 0.3-0.7 0.7-0.4 0.3-0.8 0.6-0.8 0.6-0.3 0.2-0.4 0.5-0.4 0.7 0 0 0.1 0.8 0.1 1.6 0 0.7 0 1.5 0 1.5-0.1 0.3-0.3 0.7-0.6 0.8 0 0-0.7 0.3-1.3 0.6-0.3 0.1-0.6 0.2-0.9 0.3-0.2 0.1-0.4 0.1-0.4 0.1q-0.3 0.1-0.5 0.1-0.3-0.1-0.5-0.3c0 0-0.5-0.5-1-1.1-0.3-0.3-0.5-0.5-0.7-0.8-0.2-0.2-0.3-0.3-0.3-0.3-0.2-0.3-0.5-0.4-0.8-0.4 0 0-0.1 0.1-0.3 0.1-0.2 0-0.5 0-0.7 0-0.5 0-1 0-1 0 0 0-0.5 0-1 0-0.3 0-0.5 0-0.7-0.1q-0.3 0-0.3 0c-0.3-0.1-0.7 0-0.8 0.3 0 0-0.2 0.1-0.3 0.3-0.2 0.2-0.5 0.5-0.8 0.8-0.5 0.5-1.1 1.1-1.1 1.1q-0.2 0.1-0.4 0.2-0.3 0-0.5-0.1zm4.9-7.1q0.2 0 0.3 0 0.2 0 0.4 0.1 0.4 0 0.4 0 0 0 0.3 0 0.2 0 0.4 0 0.2 0 0.3 0 0.1-0.1 0.3-0.1 0.3 0 0.6-0.1c0.2 0 0.4-0.1 0.7-0.1q0.2 0 0.4-0.1 0.1 0 0.3-0.1 0.4-0.1 0.8-0.3 0.3-0.1 0.7-0.3h0.1l0.2-0.1q0.2-0.1 0.3-0.2c0.5-0.2 0.8-0.5 1.2-0.8q0.2-0.1 0.4-0.3 0.2-0.2 0.3-0.3 0.3-0.2 0.3-0.2 0 0 0.2-0.3 0.1-0.1 0.3-0.3 0.2-0.1 0.3-0.4c0.3-0.3 0.6-0.6 0.8-1.1q0.1-0.1 0.2-0.3l0.1-0.1 0.1-0.2q0.2-0.4 0.3-0.7 0.2-0.4 0.3-0.7 0.1-0.2 0.1-0.4 0.1-0.2 0.1-0.4c0.1-0.2 0.2-0.4 0.2-0.7q0.1-0.3 0.1-0.6 0-0.1 0.1-0.3 0-0.1 0-0.2 0-0.3 0-0.4 0-0.4 0-0.4 0 0 0-0.3 0-0.2 0-0.5 0-0.1 0-0.2 0-0.1 0-0.3-0.1-0.3-0.1-0.6c0-0.2-0.1-0.5-0.2-0.7q0-0.2 0-0.4-0.1-0.2-0.2-0.3-0.1-0.4-0.2-0.8-0.2-0.3-0.3-0.7l-0.1-0.2-0.1-0.1q-0.1-0.2-0.2-0.4c-0.2-0.4-0.5-0.8-0.7-1.1q-0.2-0.2-0.4-0.4-0.1-0.2-0.2-0.3-0.3-0.3-0.3-0.3 0 0-0.2-0.2-0.2-0.2-0.3-0.3-0.2-0.2-0.4-0.4c-0.4-0.2-0.7-0.5-1.1-0.7q-0.2-0.1-0.3-0.2l-0.2-0.1-0.2-0.1q-0.3-0.2-0.7-0.4-0.3-0.1-0.7-0.2-0.2-0.1-0.4-0.2-0.2 0-0.3-0.1c-0.3 0-0.5-0.1-0.7-0.1q-0.4-0.1-0.6-0.1-0.2-0.1-0.3-0.1-0.2 0-0.3 0-0.2 0-0.4 0-0.3-0.1-0.3-0.1-0.1 0-0.4 0.1-0.2 0-0.4 0-0.1 0-0.3 0-0.1 0-0.3 0-0.3 0.1-0.6 0.1c-0.2 0-0.4 0.1-0.7 0.1q-0.2 0.1-0.3 0.1-0.2 0.1-0.4 0.1-0.4 0.2-0.7 0.3-0.4 0.2-0.8 0.3l-0.1 0.1-0.2 0.1q-0.2 0.1-0.3 0.2c-0.5 0.2-0.8 0.5-1.1 0.7q-0.3 0.2-0.5 0.3-0.1 0.2-0.3 0.3-0.2 0.2-0.3 0.2 0 0-0.2 0.3-0.1 0.1-0.3 0.3-0.2 0.2-0.3 0.4c-0.3 0.3-0.6 0.7-0.8 1.1q-0.1 0.2-0.2 0.3l-0.1 0.2-0.1 0.2q-0.1 0.3-0.3 0.7-0.2 0.3-0.3 0.7-0.1 0.2-0.1 0.3-0.1 0.2-0.1 0.4c-0.1 0.2-0.2 0.5-0.2 0.7q0 0.3-0.1 0.6 0 0.2 0 0.3-0.1 0.1-0.1 0.2 0 0.3 0 0.5 0 0.3 0 0.3 0 0 0 0.4 0 0.2 0 0.4 0 0.1 0 0.3 0 0.1 0.1 0.2 0 0.3 0 0.7c0.1 0.2 0.1 0.4 0.2 0.7q0 0.1 0.1 0.3 0 0.2 0.1 0.4 0.1 0.4 0.2 0.7 0.2 0.4 0.3 0.7l0.1 0.2 0.1 0.2q0.1 0.1 0.2 0.3c0.2 0.4 0.5 0.8 0.7 1.1q0.2 0.3 0.4 0.4 0.1 0.2 0.2 0.3 0.3 0.3 0.3 0.3 0 0 0.2 0.3 0.2 0.1 0.3 0.3 0.2 0.1 0.4 0.3c0.4 0.2 0.7 0.5 1.1 0.8q0.2 0.1 0.4 0.2l0.1 0.1 0.2 0.1q0.3 0.1 0.7 0.3 0.4 0.1 0.7 0.3 0.2 0 0.4 0.1 0.2 0.1 0.3 0.1c0.3 0.1 0.5 0.1 0.7 0.2q0.4 0 0.7 0.1 0.1 0 0.2 0z"/><path fill-rule="evenodd" class="t" d="m215.2 656.6c0 0-0.3 0-0.7-0.1-0.4 0-0.9 0-1.4-0.1-1.1-0.2-2.1-0.5-2.1-0.5-0.6-0.1-1.1-0.5-1.2-0.9 0 0-0.3-1.2-0.6-2.4-0.3-1.2-0.4-2.4-0.4-2.4 0-0.4-0.3-0.8-0.8-1 0 0-0.7-0.3-1.4-0.7-0.7-0.4-1.4-0.8-1.4-0.8 0 0-0.7-0.4-1.3-0.9-0.7-0.4-1.3-0.9-1.3-0.9-0.3-0.3-0.8-0.4-1.3-0.2 0 0-1.1 0.4-2.2 0.7-1.2 0.3-2.4 0.5-2.4 0.5-0.5 0.1-1-0.1-1.4-0.5 0 0-0.7-0.9-1.3-1.7-0.4-0.5-0.6-0.9-0.9-1.3-0.2-0.3-0.3-0.5-0.3-0.5q-0.3-0.4-0.3-0.8 0-0.4 0.1-0.7c0 0 0.6-1.1 1.3-2.1 0.3-0.5 0.7-1 0.9-1.4 0.3-0.3 0.5-0.6 0.5-0.6 0.3-0.3 0.3-0.8 0.2-1.3 0 0-0.1-0.2-0.2-0.4-0.2-0.3-0.3-0.7-0.4-1.1-0.2-0.7-0.4-1.5-0.4-1.5 0 0-0.2-0.8-0.3-1.6-0.1-0.4-0.2-0.7-0.2-1 0-0.3 0-0.5 0-0.5-0.1-0.5-0.4-0.9-0.8-1.1 0 0-0.3-0.1-0.7-0.3-0.4-0.2-0.9-0.5-1.4-0.8-1.1-0.6-2.1-1.3-2.1-1.3q-0.3-0.2-0.5-0.6-0.1-0.4-0.1-0.8c0 0 0.1-0.3 0.1-0.7 0.1-0.4 0.1-0.9 0.2-1.4 0.2-1.1 0.4-2.2 0.4-2.2 0.1-0.5 0.5-1 1-1.1 0 0 1.2-0.4 2.3-0.6 1.2-0.3 2.4-0.4 2.4-0.4 0.4-0.1 0.8-0.4 1-0.8 0 0 0.3-0.8 0.7-1.4 0.4-0.7 0.8-1.4 0.8-1.4 0 0 0.4-0.7 0.8-1.4 0.5-0.6 1-1.2 1-1.2 0.3-0.4 0.4-0.9 0.2-1.3 0 0-0.4-1.2-0.7-2.3-0.3-1.1-0.6-2.4-0.6-2.4-0.1-0.4 0.1-1 0.6-1.4 0 0 0.8-0.7 1.7-1.3 0.4-0.3 0.9-0.6 1.2-0.9 0.4-0.2 0.6-0.3 0.6-0.3q0.4-0.3 0.8-0.3 0.4 0 0.7 0.1c0 0 1.1 0.7 2.1 1.3 0.5 0.3 1 0.7 1.3 0.9 0.4 0.3 0.6 0.5 0.6 0.5 0.4 0.3 0.9 0.4 1.3 0.2 0 0 0.2-0.1 0.5-0.2 0.2-0.1 0.6-0.2 1-0.4 0.8-0.2 1.5-0.4 1.5-0.4 0 0 0.8-0.2 1.6-0.3 0.4-0.1 0.7-0.2 1-0.2 0.3 0 0.5 0 0.5 0 0.5-0.1 0.9-0.4 1.1-0.8 0 0 0.1-0.3 0.3-0.7 0.2-0.4 0.5-0.9 0.8-1.4 0.6-1 1.3-2.1 1.3-2.1q0.2-0.3 0.5-0.5 0.4-0.1 0.9-0.1c0 0 0.2 0.1 0.6 0.1 0.4 0.1 1 0.1 1.5 0.2 1.1 0.2 2.1 0.4 2.1 0.4 0.6 0.1 1 0.5 1.2 1 0 0 0.3 1.2 0.6 2.4 0.2 1.1 0.3 2.3 0.3 2.3 0.1 0.5 0.4 0.9 0.8 1.1 0 0 0.8 0.2 1.5 0.7 0.7 0.3 1.4 0.7 1.4 0.7 0 0 0.6 0.5 1.3 0.9 0.6 0.4 1.2 1 1.2 1 0.4 0.3 0.9 0.4 1.3 0.2 0 0 1.2-0.4 2.3-0.7 1.1-0.4 2.4-0.6 2.4-0.6 0.4-0.1 1 0.1 1.4 0.6 0 0 0.6 0.8 1.3 1.7 0.3 0.4 0.6 0.9 0.8 1.2 0.2 0.3 0.4 0.6 0.4 0.6q0.2 0.3 0.3 0.7 0 0.5-0.2 0.8c0 0-0.6 1.1-1.2 2.1-0.4 0.5-0.7 1-0.9 1.3-0.3 0.4-0.5 0.6-0.5 0.6-0.3 0.4-0.4 0.9-0.2 1.3 0 0 0.1 0.2 0.2 0.5 0.1 0.3 0.2 0.6 0.3 1 0.3 0.8 0.5 1.5 0.5 1.5 0 0 0.1 0.8 0.3 1.6 0.1 0.4 0.1 0.8 0.2 1.1 0 0.3 0 0.5 0 0.5 0.1 0.5 0.3 0.9 0.8 1.1 0 0 0.3 0.1 0.6 0.3 0.4 0.2 1 0.5 1.5 0.8 1 0.5 2.1 1.2 2.1 1.2q0.3 0.2 0.4 0.6 0.2 0.4 0.1 0.8c0 0 0 0.3 0 0.7-0.1 0.4-0.1 1-0.2 1.5-0.2 1-0.4 2.1-0.4 2.1-0.1 0.6-0.6 1-1 1.2 0 0-1.2 0.3-2.4 0.6-1.1 0.2-2.3 0.4-2.3 0.4-0.5 0-0.9 0.3-1.1 0.8 0 0-0.2 0.7-0.6 1.4-0.4 0.7-0.8 1.4-0.8 1.4 0 0-0.4 0.6-0.9 1.3-0.4 0.7-0.9 1.3-0.9 1.3-0.3 0.3-0.4 0.8-0.3 1.3 0 0 0.5 1.1 0.8 2.2 0.3 1.2 0.5 2.4 0.5 2.4 0.1 0.5-0.1 1.1-0.5 1.4 0 0-0.9 0.7-1.7 1.4-0.5 0.3-0.9 0.6-1.2 0.8-0.4 0.2-0.6 0.4-0.6 0.4q-0.4 0.2-0.8 0.2-0.4 0.1-0.7-0.1c0 0-1.1-0.6-2.1-1.3-0.5-0.3-1-0.6-1.3-0.9-0.4-0.3-0.6-0.5-0.6-0.5-0.4-0.2-0.9-0.3-1.3-0.1 0 0-0.2 0-0.5 0.2-0.3 0.1-0.6 0.2-1 0.3-0.8 0.2-1.5 0.4-1.5 0.4 0 0-0.8 0.2-1.6 0.3-0.4 0.1-0.8 0.2-1.1 0.2-0.3 0-0.5 0.1-0.5 0.1-0.4 0-0.9 0.3-1 0.7 0 0-0.2 0.3-0.4 0.7-0.2 0.4-0.4 0.9-0.7 1.4-0.6 1.1-1.3 2.1-1.3 2.1q-0.2 0.3-0.6 0.5-0.4 0.1-0.8 0.1zm4.7-12.7q0.2 0 0.4-0.1 0.4 0 0.6-0.1 0.6-0.1 0.6-0.1 0 0 0.5-0.2 0.3 0 0.6-0.1 0.2-0.1 0.4-0.2 0.2 0 0.4-0.1 0.4-0.2 0.9-0.4c0.4-0.1 0.7-0.3 1-0.5q0.3-0.1 0.5-0.3 0.3-0.1 0.5-0.3c0.4-0.2 0.7-0.4 1.1-0.6q0.4-0.4 0.9-0.8l0.2-0.2 0.2-0.2q0.3-0.2 0.5-0.4c0.5-0.5 0.9-1.1 1.4-1.6 0.2-0.2 0.3-0.4 0.5-0.6q0.2-0.3 0.3-0.6 0.3-0.4 0.3-0.4 0 0 0.3-0.5 0.1-0.3 0.3-0.6c0.1-0.2 0.3-0.5 0.4-0.8 0.2-0.5 0.5-1.2 0.7-1.9q0.1-0.3 0.2-0.6l0.1-0.3v-0.3q0.1-0.6 0.3-1.2c0-0.4 0-0.8 0.1-1.2q0-0.3 0-0.6 0-0.3 0-0.5c0-0.4 0.1-0.8 0-1.2q0-0.5-0.1-0.9 0-0.3 0-0.5-0.1-0.2-0.1-0.4-0.1-0.3-0.1-0.6-0.1-0.6-0.1-0.6 0 0-0.2-0.5-0.1-0.3-0.2-0.6 0-0.2-0.1-0.4-0.1-0.2-0.1-0.4-0.2-0.5-0.4-0.9c-0.1-0.4-0.3-0.7-0.5-1q-0.1-0.3-0.3-0.6-0.1-0.2-0.3-0.5c-0.2-0.3-0.4-0.6-0.7-1q-0.3-0.5-0.7-0.9l-0.2-0.3-0.2-0.2q-0.2-0.2-0.4-0.4c-0.5-0.6-1.1-1-1.6-1.4-0.2-0.2-0.4-0.4-0.6-0.5q-0.3-0.2-0.6-0.4-0.4-0.3-0.4-0.3 0 0-0.5-0.3-0.3-0.1-0.6-0.3c-0.2-0.1-0.5-0.2-0.7-0.3-0.6-0.3-1.3-0.6-2-0.8q-0.3-0.1-0.6-0.1l-0.2-0.1-0.3-0.1q-0.6-0.1-1.2-0.2c-0.4-0.1-0.8-0.1-1.2-0.2q-0.3 0-0.6 0-0.3 0-0.6 0c-0.4 0-0.8 0-1.1 0q-0.5 0.1-1 0.1-0.2 0-0.4 0-0.2 0.1-0.4 0.1-0.4 0.1-0.6 0.1-0.6 0.1-0.6 0.1 0 0-0.5 0.2-0.3 0.1-0.7 0.2-0.1 0-0.3 0.1-0.2 0.1-0.4 0.2-0.5 0.1-1 0.3c-0.3 0.2-0.6 0.4-0.9 0.5q-0.3 0.2-0.6 0.3-0.2 0.1-0.5 0.3c-0.3 0.2-0.7 0.4-1 0.7q-0.5 0.4-0.9 0.7l-0.3 0.2-0.2 0.2q-0.2 0.3-0.4 0.5c-0.6 0.5-1 1-1.4 1.5-0.2 0.2-0.3 0.5-0.5 0.7q-0.2 0.3-0.3 0.5-0.4 0.5-0.4 0.5 0 0-0.2 0.5-0.2 0.2-0.3 0.6c-0.2 0.2-0.3 0.4-0.4 0.7-0.2 0.6-0.6 1.2-0.7 2q-0.1 0.2-0.2 0.5l-0.1 0.3-0.1 0.3q-0.1 0.6-0.2 1.2c-0.1 0.4-0.1 0.8-0.1 1.2q-0.1 0.3-0.1 0.6 0 0.3 0 0.6c0 0.4 0 0.7 0 1.1q0.1 0.5 0.1 1 0.1 0.2 0.1 0.4 0 0.2 0.1 0.4 0 0.4 0.1 0.7 0.1 0.5 0.1 0.5 0 0 0.1 0.6 0.1 0.2 0.2 0.6 0.1 0.2 0.1 0.4 0.1 0.2 0.2 0.4 0.2 0.4 0.4 0.9c0.1 0.3 0.3 0.6 0.5 1q0.1 0.2 0.2 0.5 0.2 0.3 0.4 0.5c0.2 0.3 0.4 0.7 0.6 1q0.4 0.5 0.8 1l0.2 0.2 0.2 0.2q0.2 0.2 0.4 0.4c0.5 0.6 1.1 1 1.5 1.4 0.2 0.3 0.5 0.4 0.7 0.5q0.3 0.3 0.5 0.4 0.5 0.3 0.5 0.3 0 0 0.5 0.3 0.2 0.1 0.6 0.3c0.2 0.1 0.4 0.3 0.7 0.4 0.6 0.2 1.2 0.5 2 0.7q0.2 0.1 0.5 0.2l0.3 0.1h0.3q0.6 0.1 1.2 0.3c0.4 0 0.8 0.1 1.2 0.1q0.3 0 0.6 0.1 0.3 0 0.6 0c0.4-0.1 0.7 0 1.1-0.1q0.5 0 1-0.1 0.2 0 0.4 0z"/><g style="opacity:.5"><path class="b" d="m571.6 98.4c0-3.2-2.8-5.8-6.2-5.8-3.4 0-6.2-2.8-6.2-6.2 0-3.4-2.6-6.2-5.8-6.2-3.3 0-5.9 2.8-5.9 6.2 0 3.4-2.8 6.2-6.2 6.2-3.4 0-6.1 2.6-6.1 5.8 0 3.2 2.7 5.8 6.1 5.8 3.4 0 6.2 2.8 6.2 6.2 0 3.4 2.6 6.2 5.9 6.2 3.2 0 5.8-2.8 5.8-6.2 0-3.4 2.8-6.2 6.2-6.2 3.4 0 6.2-2.6 6.2-5.8z"/></g><g style="opacity:.5"><path class="b" d="m316.2 707.7c0-2.1-1.7-3.7-3.9-3.7-2.1 0-3.9-1.8-3.9-3.9 0-2.1-1.6-3.9-3.6-3.9-2 0-3.7 1.8-3.7 3.9 0 2.1-1.7 3.9-3.9 3.9-2.1 0-3.9 1.6-3.9 3.7 0 2 1.8 3.6 3.9 3.6 2.2 0 3.9 1.8 3.9 3.9 0 2.1 1.7 3.9 3.7 3.9 2 0 3.6-1.8 3.6-3.9 0-2.1 1.8-3.9 3.9-3.9 2.2 0 3.9-1.6 3.9-3.6z"/></g><g style="opacity:.5"><path class="b" d="m773.8 160.2c0-2-1.8-3.7-3.9-3.7-2.2 0-3.9-1.7-3.9-3.8 0-2.2-1.7-3.9-3.7-3.9-2 0-3.6 1.7-3.6 3.9 0 2.1-1.8 3.8-3.9 3.8-2.2 0-3.9 1.7-3.9 3.7 0 2 1.7 3.7 3.9 3.7 2.1 0 3.9 1.7 3.9 3.9 0 2.1 1.6 3.8 3.6 3.8 2 0 3.7-1.7 3.7-3.8 0-2.2 1.7-3.9 3.9-3.9 2.1 0 3.9-1.7 3.9-3.7z"/></g><g style="display:none"><path fill-rule="evenodd" class="B" d="m288.5 774.3v-0.3q-0.5 0.6-1 1-0.5 0.4-1.1 0.6-0.6 0.2-1.3 0.2-1 0-1.8-0.4-0.8-0.4-1.3-1.2-0.6-0.7-0.9-1.7-0.3-1-0.3-2.1 0-2.4 1.2-3.8 1.2-1.4 3.1-1.4 1.1 0 1.9 0.4 0.8 0.4 1.5 1.2v-3.8q0-0.8 0.3-1.2 0.3-0.4 0.9-0.4 0.6 0 0.9 0.3 0.3 0.4 0.3 1.2v11.4q0 0.7-0.3 1.1-0.3 0.4-0.9 0.4-0.5 0-0.9-0.4-0.3-0.4-0.3-1.1zm-5.1-3.8q0 1 0.3 1.8 0.3 0.7 0.9 1.1 0.6 0.4 1.3 0.4 0.6 0 1.2-0.4 0.6-0.3 0.9-1.1 0.3-0.7 0.3-1.8 0-1.1-0.3-1.8-0.3-0.7-0.9-1.1-0.6-0.4-1.3-0.4-0.7 0-1.2 0.4-0.6 0.4-0.9 1.1-0.3 0.8-0.3 1.8z"/><path fill-rule="evenodd" class="B" d="m299.9 771.1h-5q0 0.9 0.3 1.6 0.4 0.7 0.9 1 0.6 0.3 1.3 0.3 0.5 0 0.9-0.1 0.3-0.1 0.7-0.3 0.4-0.2 0.7-0.5 0.3-0.3 0.7-0.7 0.2-0.2 0.6-0.2 0.4 0 0.7 0.2 0.2 0.2 0.2 0.6 0 0.4-0.3 0.9-0.2 0.4-0.8 0.9-0.6 0.4-1.4 0.7-0.8 0.3-1.9 0.3-2.5 0-3.9-1.5-1.4-1.4-1.4-3.8 0-1.2 0.3-2.2 0.4-0.9 1-1.6 0.7-0.7 1.7-1.1 0.9-0.4 2.1-0.4 1.5 0 2.6 0.6 1.1 0.7 1.6 1.7 0.6 1 0.6 2.1 0 1-0.6 1.2-0.6 0.3-1.6 0.3zm-5-1.4h4.7q-0.1-1.4-0.8-2-0.6-0.7-1.6-0.7-1 0-1.6 0.7-0.6 0.7-0.7 2z"/><path class="B" d="m311.7 772.4q0 1-0.5 1.8-0.5 0.8-1.5 1.2-1 0.4-2.5 0.4-1.4 0-2.4-0.5-1-0.4-1.5-1-0.4-0.7-0.4-1.3 0-0.4 0.3-0.7 0.3-0.3 0.7-0.3 0.4 0 0.7 0.2 0.2 0.2 0.4 0.5 0.4 0.7 0.9 1 0.6 0.4 1.5 0.4 0.8 0 1.3-0.4 0.5-0.3 0.5-0.8 0-0.6-0.5-0.9-0.5-0.4-1.7-0.6-1.3-0.4-2.2-0.7-0.8-0.4-1.3-1-0.5-0.6-0.5-1.5 0-0.8 0.4-1.5 0.5-0.6 1.4-1.1 0.9-0.4 2.2-0.4 1 0 1.8 0.2 0.8 0.2 1.3 0.6 0.6 0.3 0.9 0.8 0.2 0.4 0.2 0.8 0 0.5-0.3 0.7-0.3 0.3-0.8 0.3-0.4 0-0.7-0.2-0.3-0.2-0.6-0.7-0.3-0.4-0.7-0.6-0.4-0.2-1.1-0.2-0.7 0-1.2 0.3-0.4 0.3-0.4 0.7 0 0.4 0.3 0.7 0.3 0.3 0.9 0.4 0.6 0.2 1.6 0.4 1.2 0.3 2 0.7 0.8 0.5 1.1 1 0.4 0.6 0.4 1.3z"/><path class="B" d="m314.4 764q-0.6 0-0.9-0.3-0.4-0.3-0.4-1 0-0.5 0.4-0.9 0.4-0.3 0.9-0.3 0.5 0 0.9 0.3 0.4 0.3 0.4 0.9 0 0.6-0.4 1-0.4 0.3-0.9 0.3zm1.3 2.7v7.5q0 0.8-0.4 1.2-0.4 0.4-0.9 0.4-0.6 0-1-0.4-0.3-0.4-0.3-1.2v-7.4q0-0.8 0.3-1.2 0.4-0.4 1-0.4 0.5 0 0.9 0.4 0.4 0.4 0.4 1.1z"/><path fill-rule="evenodd" class="B" d="m327 767.1v7.6q0 1.2-0.2 2.2-0.3 0.9-0.9 1.5-0.6 0.6-1.6 0.9-1 0.3-2.5 0.3-1.3 0-2.4-0.4-1-0.3-1.6-0.9-0.6-0.6-0.6-1.2 0-0.5 0.4-0.8 0.3-0.3 0.7-0.3 0.6 0 1 0.5 0.3 0.2 0.5 0.5 0.2 0.3 0.5 0.4 0.2 0.2 0.6 0.3 0.4 0.1 0.9 0.1 1 0 1.6-0.3 0.5-0.2 0.7-0.8 0.3-0.5 0.3-1 0-0.6 0.1-1.9-0.6 0.9-1.4 1.3-0.8 0.4-1.9 0.4-1.3 0-2.3-0.6-0.9-0.7-1.5-1.9-0.5-1.2-0.5-2.8 0-1.1 0.3-2.1 0.4-0.9 0.9-1.6 0.6-0.6 1.4-0.9 0.8-0.4 1.7-0.4 1.1 0 1.9 0.5 0.8 0.4 1.5 1.3v-0.4q0-0.6 0.3-1 0.4-0.4 0.9-0.4 0.7 0 1 0.5 0.2 0.5 0.2 1.4zm-7.5 3.3q0 1.6 0.7 2.4 0.7 0.8 1.8 0.8 0.6 0 1.2-0.3 0.6-0.4 0.9-1.1 0.4-0.7 0.4-1.7 0-1.6-0.7-2.5-0.7-0.8-1.8-0.8-1.1 0-1.8 0.8-0.7 0.9-0.7 2.4z"/><path class="B" d="m331.2 766.7v0.3q0.6-0.9 1.4-1.4 0.9-0.4 1.9-0.4 1 0 1.8 0.5 0.9 0.4 1.3 1.2 0.2 0.5 0.3 1.1 0.1 0.5 0.1 1.4v4.8q0 0.8-0.4 1.2-0.4 0.4-0.9 0.4-0.6 0-1-0.4-0.3-0.4-0.3-1.2v-4.3q0-1.3-0.4-2-0.3-0.7-1.4-0.7-0.7 0-1.3 0.4-0.5 0.5-0.8 1.2-0.2 0.6-0.2 2.1v3.3q0 0.8-0.4 1.2-0.3 0.4-0.9 0.4-0.6 0-0.9-0.4-0.4-0.4-0.4-1.2v-7.5q0-0.7 0.3-1.1 0.4-0.4 0.9-0.4 0.4 0 0.6 0.2 0.3 0.2 0.5 0.5 0.2 0.3 0.2 0.8z"/><path fill-rule="evenodd" class="B" d="m346.9 771.1h-5q0 0.9 0.3 1.6 0.4 0.7 0.9 1 0.6 0.3 1.3 0.3 0.5 0 0.9-0.1 0.3-0.1 0.7-0.3 0.4-0.2 0.7-0.5 0.3-0.3 0.7-0.7 0.2-0.2 0.6-0.2 0.4 0 0.7 0.2 0.2 0.2 0.2 0.6 0 0.4-0.3 0.9-0.2 0.4-0.8 0.9-0.6 0.4-1.4 0.7-0.8 0.3-1.9 0.3-2.5 0-3.9-1.5-1.4-1.4-1.4-3.8 0-1.2 0.3-2.2 0.4-0.9 1-1.6 0.7-0.7 1.7-1.1 0.9-0.4 2.1-0.4 1.5 0 2.6 0.6 1.1 0.7 1.6 1.7 0.6 1 0.6 2.1 0 1-0.6 1.2-0.6 0.3-1.6 0.3zm-5-1.4h4.7q-0.1-1.4-0.8-2-0.6-0.7-1.6-0.7-1 0-1.6 0.7-0.6 0.7-0.7 2z"/><path fill-rule="evenodd" class="B" d="m357.5 774.3v-0.3q-0.5 0.6-1 1-0.5 0.4-1.1 0.6-0.6 0.2-1.3 0.2-1 0-1.8-0.4-0.7-0.4-1.3-1.2-0.6-0.7-0.9-1.7-0.3-1-0.3-2.1 0-2.4 1.2-3.8 1.2-1.4 3.1-1.4 1.1 0 1.9 0.4 0.8 0.4 1.5 1.2v-3.8q0-0.8 0.3-1.2 0.3-0.4 0.9-0.4 0.6 0 0.9 0.3 0.3 0.4 0.3 1.2v11.4q0 0.7-0.3 1.1-0.3 0.4-0.9 0.4-0.5 0-0.9-0.4-0.3-0.4-0.3-1.1zm-5.1-3.8q0 1 0.3 1.8 0.4 0.7 0.9 1.1 0.6 0.4 1.3 0.4 0.7 0 1.2-0.4 0.6-0.3 0.9-1.1 0.4-0.7 0.4-1.8 0-1.1-0.4-1.8-0.3-0.7-0.9-1.1-0.6-0.4-1.3-0.4-0.7 0-1.2 0.4-0.6 0.4-0.9 1.1-0.3 0.8-0.3 1.8z"/><path fill-rule="evenodd" class="B" d="m368.1 762.9v3.9q0.7-0.7 1.5-1.2 0.7-0.4 1.9-0.4 1.3 0 2.2 0.7 1 0.6 1.5 1.7 0.6 1.2 0.6 2.8 0 1.2-0.3 2.2-0.3 0.9-0.9 1.7-0.6 0.7-1.4 1.1-0.8 0.4-1.8 0.4-0.6 0-1.1-0.2-0.5-0.1-0.9-0.3-0.4-0.3-0.6-0.5-0.3-0.3-0.7-0.8v0.3q0 0.7-0.4 1.1-0.3 0.4-0.8 0.4-0.6 0-0.9-0.4-0.4-0.4-0.4-1.1v-11.3q0-0.8 0.4-1.2 0.3-0.4 0.9-0.4 0.5 0 0.9 0.4 0.3 0.3 0.3 1.1zm0.1 7.7q0 1.5 0.7 2.3 0.7 0.9 1.9 0.9 1 0 1.7-0.9 0.7-0.8 0.7-2.4 0-1-0.3-1.8-0.3-0.7-0.9-1.1-0.5-0.4-1.2-0.4-0.8 0-1.3 0.4-0.6 0.4-1 1.1-0.3 0.8-0.3 1.9z"/><path class="B" d="m379.1 776.1l0.3-0.6-3.2-8q-0.3-0.7-0.3-1 0-0.4 0.2-0.6 0.1-0.3 0.4-0.5 0.3-0.2 0.7-0.2 0.5 0 0.8 0.4 0.3 0.3 0.5 1l2.2 6.4 2.1-6q0.2-0.7 0.4-1.1 0.2-0.4 0.4-0.5 0.3-0.2 0.7-0.2 0.3 0 0.5 0.2 0.3 0.1 0.5 0.4 0.1 0.3 0.1 0.6 0 0.1-0.1 0.5-0.1 0.3-0.2 0.7l-3.4 8.8q-0.4 1.2-0.9 1.8-0.4 0.7-1.1 1.1-0.7 0.3-1.8 0.3-1.2 0-1.7-0.2-0.6-0.3-0.6-0.9 0-0.5 0.3-0.7 0.2-0.3 0.8-0.3 0.2 0 0.4 0.1 0.2 0 0.4 0 0.5 0 0.7-0.1 0.3-0.1 0.5-0.4 0.2-0.4 0.4-1z"/><path class="B" d="m416.7 765.5h0.6v-0.8q0-1.2 0.3-2 0.3-0.7 1.1-1 0.7-0.3 2-0.3 2.3 0 2.3 1.1 0 0.3-0.3 0.6-0.2 0.2-0.5 0.2-0.2 0-0.6 0-0.3-0.1-0.6-0.1-0.7 0-0.9 0.4-0.2 0.5-0.2 1.2v0.7h0.6q1.5-0.1 1.5 0.8 0 0.7-0.4 0.9-0.4 0.1-1.1 0.1h-0.6v6.9q0 0.8-0.4 1.2-0.3 0.4-0.9 0.4-0.5 0-0.9-0.4-0.4-0.4-0.4-1.2v-6.9h-0.7q-0.6 0-0.9-0.2-0.3-0.3-0.3-0.7 0-1 1.3-0.9z"/><path class="B" d="m425.2 772v2.2q0 0.8-0.4 1.2-0.4 0.4-0.9 0.4-0.6 0-0.9-0.4-0.4-0.4-0.4-1.2v-7.2q0-1.8 1.3-1.8 0.6 0 0.9 0.4 0.3 0.4 0.3 1.2 0.5-0.8 1-1.2 0.4-0.4 1.3-0.4 0.8 0 1.5 0.4 0.8 0.4 0.8 1.1 0 0.5-0.3 0.8-0.3 0.3-0.7 0.3-0.2 0-0.7-0.2-0.6-0.1-1-0.1-0.5 0-0.9 0.3-0.4 0.3-0.6 0.8-0.2 0.6-0.2 1.4-0.1 0.9-0.1 2z"/><path fill-rule="evenodd" class="B" d="m437.1 771.1h-5.1q0.1 0.9 0.4 1.6 0.3 0.7 0.9 1 0.6 0.3 1.3 0.3 0.5 0 0.8-0.1 0.4-0.1 0.8-0.3 0.3-0.2 0.6-0.5 0.4-0.3 0.8-0.7 0.2-0.2 0.6-0.2 0.4 0 0.7 0.2 0.2 0.2 0.2 0.6 0 0.4-0.3 0.9-0.2 0.4-0.8 0.9-0.6 0.4-1.4 0.7-0.8 0.3-1.9 0.3-2.5 0-3.9-1.5-1.4-1.4-1.4-3.8 0-1.2 0.3-2.2 0.4-0.9 1-1.6 0.7-0.8 1.6-1.1 1-0.4 2.2-0.4 1.5 0 2.6 0.6 1.1 0.7 1.6 1.7 0.6 1 0.5 2.1 0 0.9-0.5 1.2-0.6 0.3-1.6 0.3zm-5.1-1.4h4.7q-0.1-1.4-0.7-2-0.6-0.7-1.6-0.7-1 0-1.6 0.7-0.6 0.6-0.8 2z"/><path fill-rule="evenodd" class="B" d="m447.9 771.1h-5.1q0 0.9 0.4 1.6 0.3 0.7 0.9 1 0.6 0.3 1.3 0.3 0.4 0 0.8-0.1 0.4-0.1 0.8-0.3 0.3-0.2 0.6-0.5 0.3-0.3 0.8-0.7 0.2-0.2 0.6-0.2 0.4 0 0.6 0.2 0.3 0.2 0.3 0.6 0 0.4-0.3 0.9-0.3 0.4-0.8 0.9-0.6 0.4-1.4 0.7-0.9 0.3-2 0.3-2.5 0-3.8-1.5-1.4-1.4-1.4-3.8 0-1.2 0.3-2.2 0.4-0.9 1-1.6 0.7-0.8 1.6-1.1 1-0.4 2.2-0.4 1.5 0 2.6 0.6 1.1 0.7 1.6 1.7 0.5 1 0.5 2.1 0 0.9-0.5 1.2-0.6 0.3-1.6 0.3zm-5.1-1.4h4.7q-0.1-1.4-0.7-2-0.6-0.7-1.6-0.7-1 0-1.6 0.7-0.6 0.6-0.8 2z"/><path fill-rule="evenodd" class="B" d="m453.6 766.7v0.3q0.7-0.9 1.5-1.3 0.8-0.5 1.8-0.5 1.2 0 2.2 0.7 1 0.6 1.6 1.8 0.6 1.2 0.6 2.8 0 1.2-0.4 2.2-0.3 1-0.9 1.7-0.6 0.6-1.4 1-0.8 0.4-1.7 0.4-1.1 0-1.9-0.5-0.7-0.4-1.4-1.3v3.9q0 1.7-1.3 1.7-0.7 0-0.9-0.4-0.3-0.5-0.3-1.3v-11.2q0-0.7 0.4-1.1 0.3-0.4 0.8-0.4 0.6 0 0.9 0.4 0.4 0.4 0.4 1.1zm5.1 3.7q0-1-0.4-1.7-0.3-0.8-0.8-1.1-0.6-0.4-1.2-0.4-1.1 0-1.9 0.8-0.7 0.9-0.7 2.5 0 1.5 0.7 2.4 0.8 0.9 1.9 0.9 0.6 0 1.1-0.4 0.6-0.4 0.9-1.1 0.4-0.8 0.4-1.9z"/><path class="B" d="m463.9 764q-0.6 0-0.9-0.3-0.4-0.4-0.4-1 0-0.5 0.4-0.9 0.4-0.3 0.9-0.3 0.5 0 0.9 0.3 0.4 0.3 0.4 0.9 0 0.6-0.4 1-0.4 0.3-0.9 0.3zm1.3 2.7v7.5q0 0.8-0.4 1.2-0.4 0.4-0.9 0.4-0.6 0-1-0.4-0.3-0.5-0.3-1.2v-7.4q0-0.8 0.3-1.2 0.4-0.4 1-0.4 0.5 0 0.9 0.4 0.4 0.4 0.4 1.1z"/><path class="B" d="m473.5 774.6l-2.3-3.8-1.4 1.3v2.1q0 0.8-0.4 1.2-0.4 0.4-0.9 0.4-0.6 0-0.9-0.4-0.4-0.4-0.4-1.2v-11.1q0-0.8 0.4-1.3 0.3-0.4 0.9-0.4 0.6 0 1 0.4 0.3 0.4 0.3 1.2v6.3l2.9-3.1q0.6-0.6 0.9-0.8 0.3-0.2 0.7-0.2 0.4 0 0.8 0.3 0.3 0.3 0.3 0.8 0 0.6-1.1 1.5l-1.3 1.3 2.6 4.2q0.3 0.4 0.5 0.7 0.1 0.2 0.1 0.4 0 0.7-0.4 1-0.3 0.4-0.8 0.4-0.5 0-0.8-0.3-0.2-0.2-0.7-0.9z"/><path class="B" d="m479.2 775.8q-0.6 0-1.1-0.4-0.4-0.4-0.4-1.1 0-0.6 0.4-1 0.4-0.4 1-0.4 0.6 0 1.1 0.4 0.4 0.4 0.4 1 0 0.7-0.4 1.1-0.5 0.4-1 0.4z"/><path class="B" d="m492.1 772.6q0 0.4-0.3 1-0.3 0.5-0.9 1-0.6 0.5-1.5 0.8-0.9 0.3-2 0.3-2.5 0-3.8-1.4-1.3-1.4-1.3-3.7 0-1.6 0.6-2.8 0.6-1.3 1.8-1.9 1.1-0.7 2.7-0.7 1.1 0 1.9 0.3 0.8 0.3 1.4 0.8 0.6 0.4 0.9 0.9 0.3 0.6 0.3 1 0 0.5-0.3 0.8-0.4 0.3-0.9 0.3-0.3 0-0.5-0.1-0.2-0.2-0.5-0.6-0.5-0.7-1-1-0.5-0.4-1.3-0.4-1.1 0-1.8 0.9-0.7 0.9-0.7 2.4 0 0.8 0.1 1.4 0.2 0.6 0.6 1 0.3 0.5 0.8 0.7 0.5 0.2 1 0.2 0.8 0 1.4-0.3 0.5-0.4 1-1.1 0.2-0.5 0.5-0.7 0.3-0.3 0.7-0.3 0.4 0 0.7 0.4 0.4 0.3 0.4 0.8z"/><path fill-rule="evenodd" class="B" d="m503.2 770.5q0 1.2-0.3 2.1-0.4 1-1.1 1.7-0.6 0.7-1.6 1.1-0.9 0.4-2.1 0.4-1.2 0-2.1-0.4-1-0.4-1.7-1.1-0.7-0.7-1-1.7-0.4-0.9-0.4-2.1 0-1.2 0.4-2.2 0.3-0.9 1-1.6 0.7-0.7 1.7-1.1 0.9-0.4 2.1-0.4 1.1 0 2.1 0.4 1 0.4 1.7 1.1 0.6 0.7 1 1.7 0.3 0.9 0.3 2.1zm-2.6 0q0-1.6-0.7-2.5-0.6-0.9-1.8-0.9-0.8 0-1.4 0.4-0.5 0.4-0.9 1.2-0.3 0.8-0.3 1.8 0 1 0.3 1.8 0.3 0.7 0.9 1.1 0.6 0.4 1.4 0.4 1.2 0 1.8-0.9 0.7-0.8 0.7-2.4z"/><path class="B" d="m513.1 770.7v3.4q0 0.8-0.3 1.3-0.4 0.4-1 0.4-0.6 0-1-0.4-0.3-0.5-0.3-1.3v-4.1q0-1-0.1-1.5-0.1-0.6-0.4-0.9-0.3-0.4-0.9-0.4-1.3 0-1.7 0.9-0.4 0.9-0.4 2.5v3.5q0 0.8-0.3 1.3-0.4 0.4-1 0.4-0.6 0-1-0.4-0.3-0.5-0.3-1.3v-7.4q0-0.7 0.3-1.1 0.3-0.4 0.9-0.4 0.5 0 0.9 0.4 0.3 0.3 0.3 1v0.2q0.7-0.8 1.5-1.2 0.7-0.4 1.7-0.4 1 0 1.7 0.4 0.7 0.4 1.1 1.2 0.7-0.8 1.4-1.2 0.8-0.4 1.7-0.4 1.1 0 1.8 0.5 0.8 0.4 1.2 1.2 0.3 0.7 0.3 2.2v5q0 0.8-0.4 1.3-0.3 0.4-0.9 0.4-0.6 0-1-0.4-0.4-0.5-0.4-1.3v-4.3q0-0.9 0-1.4-0.1-0.5-0.4-0.8-0.3-0.4-1-0.4-0.5 0-1 0.4-0.4 0.3-0.7 0.8-0.3 0.6-0.3 2.3z"/><path class="B" d="m392.4 769.9q0 0 0-0.1 0 0.1 0 0.1z"/><path class="B" d="m392.6 770.7q0 0 0 0-0.1-0.4-0.1-0.7 0 0.3 0.1 0.7z"/><path class="B" d="m393.4 773.1q0 0 0 0 0 0 0 0z"/><path class="B" d="m393.3 772.9q0 0 0-0.1 0 0.1 0 0.1z"/><path class="B" d="m392.8 771.6q0.2 0.6 0.5 1.2-0.3-0.6-0.5-1.2 0 0 0 0z"/><path class="B" d="m402.5 759.9c0.5 0 0.8 0.1 1.3 0.1l0.1-0.7c0 0-1.2-0.4-2.7-0.3l-0.1-0.4c0.4-0.1 0.8-0.5 0.8-1 0-0.6-0.5-1.1-1.1-1.1-0.5 0-1 0.5-1 1.1 0 0.5 0.3 0.9 0.8 1l0.2 0.5c-1.7 0.2-3 0.9-3 0.9l0.2 0.7q1.5-0.5 2.7-0.7c0.7 0 1.3-0.1 1.8-0.1z"/><path class="B" d="m393.4 763.8q0.1-0.1 0.1-0.2l-0.3-0.2-0.5-0.3c0 0-0.8 0.7-1.4 2q0-0.1-0.1-0.1-0.2-0.3-0.7-0.3 0 0 0 0-0.3 0-0.5-0.2 0.2-0.1 0.2-0.4c0-0.3-0.3-0.6-0.7-0.6-0.4 0-0.7 0.3-0.7 0.6 0 0.4 0.3 0.7 0.7 0.7q0.1 0 0.2 0c0.1 0.2 0.4 0.3 0.8 0.3q0.3 0 0.4 0.2c0.1 0.1 0.2 0.3 0.2 0.4q0 0 0 0c-0.5 1.2-0.3 2.7-0.3 2.7h1c0-0.5 0.1-1.5 0.4-2.2 0.5-1.5 1.2-2.4 1.2-2.4z"/><path class="B" d="m411.7 760.8c-0.4 0-0.7 0.3-0.7 0.7q0 0.1 0 0.1c-0.2 0.2-0.3 0.5-0.3 0.9q0 0.3-0.2 0.4-0.1 0.1-0.3 0.1c-0.7-1.1-1.7-1.7-1.7-1.7l-0.8 0.8q0.9 0.7 1.8 2c0.3 0.5 0.8 1.3 1.1 2l1-0.5c0 0-0.5-1.2-1.1-2.2q0.2-0.1 0.3-0.2 0.3-0.3 0.3-0.7 0-0.4 0.2-0.5 0.1 0.1 0.4 0.2c0.3 0 0.6-0.3 0.6-0.7 0-0.4-0.3-0.7-0.6-0.7z"/><path class="B" d="m409 770c-1.4 0.7-3.7 1.6-6.8 2-1.2 0.2-2.3 0.3-3.4 0.3-1.4 0-2.6-0.1-3.6-0.3-1-0.1-1.9-0.3-2.4-0.4q0.2 0.6 0.5 1.2 0 0 0 0 0 0.1 0 0.1 0.1 0.1 0.1 0.2 0 0 0 0 0.5 0.9 1.1 1.6c1.4 1.5 2.9 1.8 2.9 1.8h0.1c0 0 1.3 0.4 3.3 0.4q2.9 0 5.6-1.2c1.4-0.6 2.7-1.7 3.3-2.6q0.7-1.1 1-2.3c0.2-0.4 0.2-1.1 0.2-1.8-0.4 0.2-1 0.6-1.9 1z"/><path fill-rule="evenodd" class="B" d="m394.6 763.3h0.1c0.9-0.9 2.1-1.6 3.5-2.1q1.4-0.5 2.5-0.6c0.8-0.1 1.3-0.1 1.8-0.1 0.5 0 0.8 0 1.2 0.1 1.1 0.2 3.3 0.9 5.3 3.8 0.7 1 1.5 2.6 1.7 3.6-0.2 0.2-1 0.7-2.1 1.3-1.3 0.6-3.6 1.5-6.5 1.9-4.7 0.6-8.8-0.3-9.5-0.5q-0.1-0.4-0.1-0.7-0.1-0.1-0.1-0.1 0 0 0-0.1 0-0.5 0-1c0 0 0-1.4 0.3-2.4 0.5-1.4 1.1-2.2 1.2-2.3 0.3-0.4 0.6-0.7 0.7-0.8zm9.8 1.9c0 1 0.8 1.7 1.7 1.7 1 0 1.8-0.7 1.8-1.7 0-1-0.8-1.7-1.8-1.7-0.9 0-1.7 0.7-1.7 1.7zm-9.3 1c0 1.6 1.2 2.8 2.8 2.8 1.5 0 2.8-1.2 2.8-2.8 0-1.6-1.3-2.8-2.8-2.8-1.6 0-2.8 1.2-2.8 2.8z"/></g></svg>