<svg version="1.2" xmlns="http://www.w3.org/2000/svg" viewBox="0 0 1200 929" width="1200" height="929"><style>.a{fill:#fff}.b{display:none;fill:#ffe7d7}.c{fill:#df7e9f}.d{fill:#90cef4}.e{fill:#ababf4}.f{display:none;fill:#46aef7}.g{display:none;fill:none;stroke:#3d436c;stroke-miterlimit:10}.h{fill:none;stroke:#3d436c;stroke-miterlimit:10}.i{fill:#95d4df}.j{fill:#7162ef}.k{fill:#f9b65d}.l{fill:none;stroke:#3d436c;stroke-miterlimit:10;stroke-width:2}.m{fill:none;stroke:#c5faff;stroke-miterlimit:10;stroke-width:2}.n{fill:none;stroke:#fff;stroke-miterlimit:10;stroke-width:2}.o{fill:#3d436c}.p{fill:#938ff9}.q{fill:none;stroke:#938ff9;stroke-miterlimit:10;stroke-width:2}.r{fill:#46aef7}</style><g style="display:none"><path class="a" d="m1203-140v1080h-1920v-1080z"/></g><path class="b" d="m1203 22v918h-1165.1c130.8-523.8 602.1-912.7 1165.1-918z"/><path class="c" d="m59.1 694.6c52.4-71.1 152.6-86.2 223.7-33.8 71.1 52.4 86.2 152.5 33.8 223.6z"/><path class="d" d="m733.6 645.2c0-81.1 65.8-146.9 147-146.9 81.1 0 146.9 65.8 146.9 146.9 0 81.2-65.8 147-146.9 147-81.2 0-147-65.8-147-147z"/><path class="e" d="m752.2 188.8c0-81.1 65.7-146.9 146.9-146.9 81.1 0 146.9 65.8 146.9 146.9 0 81.2-65.8 147-146.9 147-81.2 0-146.9-65.8-146.9-147z"/><path class="f" d="m-413.7 742.2h-155.5c-14.4 0-26-11.7-26-26 0-14.3 11.6-25.9 26-25.9h155.5c14.3 0 25.9 11.6 25.9 25.9 0 14.3-11.6 26-25.9 26z"/><g style="display:none"><path class="g" d="m1080.7-4h-202c-5.4 0-9.8-4.4-9.8-9.8v-4.4c0-5.4 4.4-9.8 9.8-9.8h202c5.4 0 9.8 4.4 9.8 9.8v4.4c0 5.4-4.4 9.8-9.8 9.8z"/></g><g style="display:none"><path class="g" d="m890.6-17c0 2.9-2.3 5.2-5.1 5.2-2.8 0-5.1-2.3-5.1-5.2 0-2.8 2.3-5.1 5.1-5.1 2.8 0 5.1 2.3 5.1 5.1z"/></g><g style="display:none"><path class="h" d="m878.7-7.5l3.8-5.3"/></g><path class="c" d="m406.3 341.3c0 9.3-3.7 17.8-9.7 24l29.6 28.7c13.2-13.7 21.4-32.2 21.4-52.7z"/><path class="i" d="m371.7 375.8v41.3c21.4 0 40.7-8.9 54.5-23.1l-29.6-28.7c-6.3 6.5-15.1 10.5-24.9 10.5z"/><path class="j" d="m337.1 341.3c0-19.1 15.5-34.6 34.6-34.6v-41.3c-41.9 0-75.8 34-75.8 75.9 0 41.8 33.9 75.8 75.8 75.8v-41.3c-19.1 0-34.6-15.4-34.6-34.5z"/><path class="k" d="m406.3 341.3h41.3c0-41.9-34-75.9-75.9-75.9v41.3c19.1 0 34.6 15.5 34.6 34.6z"/><path class="l" d="m432.1 341.3c0-33.4-27.1-60.4-60.4-60.4-33.3 0-60.3 27-60.3 60.4 0 33.3 27 60.3 60.3 60.3 33.3 0 60.4-27 60.4-60.3z"/><path class="k" d="m312.1 549.1l-134-18.3 2.1-15.4 134 18.2z"/><path class="l" d="m193.8 522l-1.5 10.8"/><path class="l" d="m214.9 524.9l-1.5 10.7"/><path class="l" d="m236 527.8l-1.4 10.7"/><path class="l" d="m257.1 530.6l-1.4 10.8"/><path class="l" d="m278.3 533.5l-1.5 10.8"/><path class="l" d="m299.4 536.4l-1.5 10.7"/><path class="l" d="m179.6 520.1l134 18.2"/><path class="i" d="m758.8 141.6c-40.9-9.7-39.1-17.4-79.9-27.2-40.9-9.7-42.7-2-83.6-11.7-40.9-9.7-39-17.4-79.9-27.1l-33.8 109.4c40.8 9.7 39 17.5 79.9 27.2 40.9 9.7 42.7 2 83.6 11.7 40.8 9.7 39 17.4 79.9 27.1z"/><path class="m" d="m591.6 101.8l-32.4 109.8"/><path class="m" d="m581.6 99.4l-32.4 109.8"/><path class="m" d="m691.6 117.5l-32.4 109.7"/><path class="l" d="m654 171.3c4.8-20.2-7.7-40.5-27.9-45.3-20.2-4.8-40.5 7.6-45.3 27.9-4.8 20.2 7.7 40.5 27.9 45.3 20.2 4.8 40.5-7.7 45.3-27.9z"/><path class="l" d="m628.4 154.6l-10.5-3.7c-3.4-1.2-7 0.8-7.8 4.2l-0.1 0.5c-0.6 2.3 0.7 4.6 2.9 5.4l9 3.1c2.2 0.8 3.5 3.1 2.9 5.3l-0.1 0.5c-0.8 3.5-4.4 5.5-7.8 4.3l-10.5-3.7"/><path class="l" d="m621.9 143.8l-1.9 7.8"/><path class="l" d="m614.9 173.2l-1.9 7.8"/><path class="n" d="m643 168.6c3.3-14.1-5.4-28.3-19.5-31.6-14.2-3.4-28.3 5.4-31.7 19.5-3.4 14.1 5.4 28.3 19.5 31.7 14.1 3.3 28.3-5.4 31.7-19.6z"/><path class="l" d="m748.9 147.1c-35-8.3-43.5-17.3-78.5-25.6-35-8.3-36.5-1.7-71.5-10-35-8.4-41.6-16.9-76.6-25.2l-28.9 93.6c34.9 8.3 41.6 16.9 76.6 25.2 34.9 8.3 36.5 1.7 71.5 10 34.9 8.4 43.5 17.4 78.5 25.7z"/><path class="l" d="m564.5 156l-43.9-12.7c-2.5-0.7-3.9-3.3-3.2-5.7l1.1-3.7c0.7-2.5 3.3-3.9 5.8-3.2l43.8 12.7c2.5 0.7 3.9 3.3 3.2 5.8l-1.1 3.7c-0.7 2.4-3.3 3.9-5.7 3.1z"/><path class="l" d="m713.1 191.4l-43.9-12.7c-2.5-0.7-3.9-3.3-3.2-5.8l1.1-3.7c0.7-2.4 3.3-3.9 5.8-3.1l43.8 12.7c2.5 0.7 3.9 3.3 3.2 5.7l-1.1 3.7c-0.7 2.5-3.3 3.9-5.7 3.2z"/><path class="l" d="m410.5 212.8l-5.7-11.4-5.7 11.4-11.4 5.7 11.4 5.7 5.7 11.4 5.7-11.4 11.4-5.7z"/><path class="l" d="m988.2 422.3l-5.7-11.3-5.7 11.3-11.4 5.8 11.4 5.7 5.7 11.4 5.7-11.4 11.4-5.7z"/><path class="o" d="m203.9 720.5l457.3 66.8 209.7-195.4-0.5-9.9-666.9 128.6z"/><path class="o" d="m430.2 543.8l440.2 38.2 61.6-305.9-449.3-2z"/><path class="j" d="m203.5 710.6l457.3 66.7 209.6-195.3-440.2-38.2z"/><path class="l" d="m790.2 598.3l-344.9-36.4"/><path class="l" d="m774 615.9l-344.9-36.3"/><path class="l" d="m757.8 633.6l-344.9-36.4"/><path class="l" d="m741.5 651.2l-344.8-36.4"/><path class="p" d="m387.6 709.6l143.9 21c1.2 0.2 2.5-0.2 3.4-1.1l63-58.7c2.6-2.4 1.2-6.7-2.3-7.1l-143.2-18.4c-1.2-0.2-2.4 0.2-3.3 1l-63.6 56.1c-2.7 2.3-1.4 6.7 2.1 7.2z"/><path class="n" d="m845.9 579l-415.7-35.2"/><path class="n" d="m509.7 497.7l270 17 20.3-109.4-269-8.5z"/><path class="n" d="m725 402.9l-21.5 107"/><path class="n" d="m792.4 441.8l-268.6-11"/><path class="n" d="m785.4 479.8l-268.5-15.9"/><path class="c" d="m628.7 384.7c3.7-13 17.3-20.6 30.4-16.9 13.1 3.7 20.6 17.3 16.9 30.4-3.7 13.1-17.3 20.7-30.4 16.9-13.1-3.7-20.7-17.3-16.9-30.4z"/><path class="l" d="m631.9 385.6c3.2-11.2 15-17.8 26.3-14.6 11.2 3.3 17.8 15 14.6 26.3-3.3 11.3-15 17.8-26.3 14.6-11.3-3.2-17.8-15-14.6-26.3z"/><path class="l" d="m646.8 390.1c-1.5 0-2.7-1.2-2.7-2.7v-2.2c0-1.4 1.2-2.7 2.7-2.7 1.5 0 2.7 1.3 2.7 2.7v2.2c0 1.5-1.2 2.7-2.7 2.7z"/><path class="l" d="m657.9 399.9c-1.5 0-2.7-1.2-2.7-2.7v-2.1c0-1.5 1.2-2.7 2.7-2.7 1.5 0 2.7 1.2 2.7 2.7v2.1c0 1.5-1.2 2.7-2.7 2.7z"/><path class="l" d="m644.8 400.8l14.4-20.2"/><path class="q" d="m909 295l-51.5 266.6-406.4-33.1 43.6-237.1z"/><path class="q" d="m858.4 223.8h94.1"/><path class="p" d="m960.8 223.8c0-2.9-2.4-5.3-5.3-5.3-2.9 0-5.3 2.4-5.3 5.3 0 2.9 2.4 5.3 5.3 5.3 2.9 0 5.3-2.4 5.3-5.3z"/><path class="l" d="m971.7 223.8h46.9"/><path class="l" d="m971.7 234.7h46.9"/><path class="l" d="m971.7 245.6h46.9"/><path class="l" d="m971.7 256.5h46.9"/><path class="q" d="m404.8 442.3h-94.1"/><path class="p" d="m302.4 442.3c0-2.9 2.3-5.3 5.3-5.3 2.9 0 5.2 2.4 5.2 5.3 0 2.9-2.3 5.3-5.2 5.3-3 0-5.3-2.4-5.3-5.3z"/><path class="l" d="m291.5 442.3h-47"/><path class="l" d="m291.5 453.2h-47"/><path class="l" d="m291.5 464.1h-47"/><path class="l" d="m291.5 475h-47"/><path class="r" d="m1019.2 706.8l-123.3-51.8c-4.5-1.9-6.6-7.1-4.7-11.7l59.6-141.9c1.9-4.5 7.1-6.7 11.7-4.8l123.2 51.8c4.5 1.9 6.7 7.2 4.8 11.7l-59.7 141.9c-1.9 4.5-7.1 6.7-11.6 4.8z"/><path class="l" d="m1069.4 541.6l6 2.5c4.8 2 7.2 7.1 5.4 11.4l-60 142.8c-1.8 4.3-7.1 6.2-11.9 4.2l-6-2.6"/><path class="a" d="m1046.8 581.4l-98.8-41.5c-1.5-0.6-2.2-2.3-1.5-3.8l9.6-23.1c0.7-1.5 2.4-2.2 3.9-1.6l98.8 41.5c1.5 0.7 2.2 2.4 1.5 3.9l-9.6 23.1c-0.7 1.5-2.4 2.2-3.9 1.5z"/><path class="a" d="m949.8 573l-13.3-5.6c-1.5-0.6-2.2-2.3-1.6-3.8l4.8-11.4c0.6-1.5 2.3-2.2 3.8-1.6l13.3 5.6c1.5 0.6 2.2 2.3 1.6 3.8l-4.8 11.4c-0.6 1.5-2.3 2.2-3.8 1.6z"/><path class="a" d="m978.3 585l-13.3-5.6c-1.5-0.6-2.2-2.4-1.6-3.9l4.8-11.3c0.6-1.5 2.3-2.3 3.8-1.6l13.3 5.6c1.5 0.6 2.2 2.3 1.6 3.8l-4.8 11.4c-0.6 1.5-2.3 2.2-3.8 1.6z"/><path class="a" d="m1006.8 596.9l-13.3-5.5c-1.5-0.7-2.2-2.4-1.6-3.9l4.8-11.4c0.6-1.5 2.3-2.2 3.8-1.5l13.3 5.5c1.5 0.7 2.2 2.4 1.6 3.9l-4.8 11.4c-0.6 1.5-2.3 2.2-3.8 1.5z"/><path class="k" d="m1035.2 608.9l-13.2-5.6c-1.5-0.6-2.2-2.3-1.6-3.8l4.8-11.4c0.6-1.5 2.3-2.2 3.8-1.6l13.3 5.6c1.5 0.6 2.2 2.4 1.6 3.9l-4.8 11.3c-0.6 1.5-2.4 2.3-3.9 1.6z"/><path class="a" d="m939.2 598.2l-13.3-5.6c-1.5-0.7-2.2-2.4-1.6-3.9l4.8-11.4c0.7-1.5 2.4-2.2 3.9-1.5l13.3 5.5c1.5 0.7 2.2 2.4 1.5 3.9l-4.7 11.4c-0.7 1.5-2.4 2.2-3.9 1.6z"/><path class="a" d="m967.7 610.1l-13.3-5.6c-1.5-0.6-2.2-2.3-1.6-3.8l4.8-11.4c0.6-1.5 2.4-2.2 3.9-1.6l13.3 5.6c1.5 0.6 2.2 2.4 1.5 3.9l-4.7 11.3c-0.7 1.5-2.4 2.3-3.9 1.6z"/><path class="a" d="m996.2 622.1l-13.3-5.6c-1.5-0.6-2.2-2.3-1.6-3.8l4.8-11.4c0.6-1.5 2.4-2.2 3.9-1.6l13.3 5.6c1.5 0.6 2.2 2.3 1.5 3.8l-4.8 11.4c-0.6 1.5-2.3 2.2-3.8 1.6z"/><path class="c" d="m1024.7 634.1l-13.3-5.6c-1.5-0.6-2.2-2.4-1.6-3.9l4.8-11.3c0.6-1.5 2.4-2.3 3.9-1.6l13.2 5.6c1.5 0.6 2.3 2.3 1.6 3.8l-4.8 11.4c-0.6 1.5-2.3 2.2-3.8 1.6z"/><path class="a" d="m928.6 623.3l-13.2-5.6c-1.6-0.6-2.3-2.3-1.6-3.8l4.8-11.4c0.6-1.5 2.3-2.2 3.8-1.6l13.3 5.6c1.5 0.6 2.2 2.3 1.6 3.8l-4.8 11.4c-0.6 1.5-2.4 2.2-3.9 1.6z"/><path class="a" d="m957.1 635.3l-13.3-5.6c-1.5-0.6-2.2-2.4-1.5-3.9l4.7-11.3c0.7-1.5 2.4-2.3 3.9-1.6l13.3 5.6c1.5 0.6 2.2 2.3 1.6 3.8l-4.8 11.4c-0.6 1.5-2.4 2.2-3.9 1.6z"/><path class="a" d="m985.6 647.2l-13.3-5.5c-1.5-0.7-2.2-2.4-1.5-3.9l4.7-11.4c0.7-1.5 2.4-2.2 3.9-1.5l13.3 5.5c1.5 0.7 2.2 2.4 1.6 3.9l-4.8 11.4c-0.7 1.5-2.4 2.2-3.9 1.5z"/><path class="k" d="m1003.5 684.4l-13.2-5.6c-1.5-0.6-2.2-2.4-1.6-3.9l15.3-36.5c0.7-1.5 2.4-2.2 3.9-1.6l13.3 5.6c1.5 0.6 2.2 2.4 1.6 3.9l-15.4 36.5c-0.6 1.5-2.3 2.2-3.9 1.6z"/><path class="j" d="m918.1 648.4l-13.3-5.5c-1.5-0.7-2.2-2.4-1.6-3.9l4.8-11.4c0.6-1.5 2.3-2.2 3.8-1.5l13.3 5.5c1.5 0.7 2.2 2.4 1.6 3.9l-4.8 11.4c-0.6 1.5-2.3 2.2-3.8 1.5z"/><path class="a" d="m946.6 660.4l-13.3-5.6c-1.5-0.6-2.2-2.3-1.6-3.8l4.8-11.4c0.6-1.5 2.3-2.2 3.8-1.6l13.3 5.6c1.5 0.6 2.2 2.4 1.6 3.9l-4.8 11.3c-0.6 1.5-2.3 2.3-3.8 1.6z"/><path class="j" d="m975.1 672.4l-13.3-5.6c-1.5-0.6-2.2-2.3-1.6-3.8l4.8-11.4c0.6-1.5 2.3-2.2 3.8-1.6l13.3 5.6c1.5 0.6 2.2 2.3 1.6 3.8l-4.8 11.4c-0.6 1.5-2.3 2.2-3.8 1.6z"/><path class="k" d="m402.4 711.8c-14.7-31.1-51.8-44.5-83-29.8-31.1 14.7-44.4 51.9-29.7 83 14.7 31.1 51.8 44.4 82.9 29.7 31.2-14.7 44.5-51.8 29.8-82.9z"/><path class="l" d="m394.7 715.4c-12.7-26.8-44.8-38.3-71.6-25.6-26.9 12.6-38.4 44.7-25.7 71.5 12.7 26.9 44.7 38.4 71.6 25.7 26.9-12.7 38.3-44.7 25.7-71.6z"/><path class="l" d="m351.1 719.7l-15 5.2c-4.7 1.7-7 7.1-4.9 11.7l0.4 0.6c1.4 3 4.9 4.5 8 3.4l12.8-4.5c3.2-1.1 6.7 0.3 8.1 3.3l0.3 0.7c2.1 4.5-0.1 10-4.9 11.7l-15 5.2"/><path class="l" d="m334.3 713.5l4.9 10.3"/><path class="l" d="m352.7 752.5l4.9 10.4"/><path class="n" d="m380 722.3c-8.8-18.7-31.2-26.8-50-17.9-18.8 8.9-26.8 31.3-17.9 50 8.8 18.8 31.2 26.8 50 18 18.8-8.9 26.8-31.3 17.9-50.1z"/><path class="k" d="m949.7 662.2l-120.2 62-7.1-13.9 120.2-62z"/><path class="l" d="m837.3 708l4.9 9.6"/><path class="l" d="m856.2 698.2l5 9.6"/><path class="l" d="m875.2 688.4l4.9 9.7"/><path class="l" d="m894.1 678.7l5 9.6"/><path class="l" d="m913.1 668.9l4.9 9.6"/><path class="l" d="m932 659.1l5 9.6"/><path class="l" d="m824.6 714.5l120.2-62"/><path class="a" d="m802.9 228.3l-105.7-2.2c-7.1-0.2-13.5 5.5-14.3 12.6l-1.1 10.4-8.5 77.5-0.4 4.3c-0.7 6.1-7.8 11.5-13.6 14.8-1.8 1.1-1.1 4 1.1 4l10.4 0.2 105.8 2.2c7.1 0.2 13.5-5.5 14.3-12.6l1.1-10.4 8.4-77.6 0.5-4.2c1.1-10.5 10.5-18.8 21-18.6z"/><path class="p" d="m821.9 228.7c-10.5-0.2-19.9 8.1-21 18.6l-1.6 14.9 23.2 0.4c8.2 0.2 15.5-6.3 16.4-14.5 1.2-10.5-6.4-19.2-17-19.4z"/><path class="a" d="m851.8 128.4l-105.6-2.1c-7.1-0.2-13.5 5.5-14.3 12.6l-9.5 87.8 100.2 2c10.2 0.6 17.4 9.1 16.3 19.4l10.9-100.7c1.1-10.5 10.5-18.8 21-18.6z"/><path class="p" d="m870.8 128.8c-10.5-0.2-19.9 8.1-21 18.6l-3.4 31.4 38.1 0.8 3.3-31.4c1.1-10.5-6.5-19.1-17-19.4z"/><path class="l" d="m703.5 226.2l119.1 2.5"/><path class="l" d="m741.3 212.4l43.9 0.9"/><path class="l" d="m742.7 199.9l43.9 0.9"/><path class="l" d="m744 187.4l44 0.9"/><path class="l" d="m745.4 174.9l43.9 0.9"/><path class="l" d="m746.7 162.4l44 0.9"/><path class="l" d="m810.4 213.9l11.7 0.2"/><path class="l" d="m811.7 201.3l11.8 0.3"/><path class="l" d="m813.1 188.8l11.7 0.3"/><path class="l" d="m814.4 176.3l11.8 0.3"/><path class="l" d="m815.8 163.8l11.7 0.3"/><path class="l" d="m691.5 298l43.9 0.9"/><path class="l" d="m692.8 285.5l44 0.9"/><path class="l" d="m694.2 273l44 0.9"/><path class="l" d="m695.6 260.4l43.9 0.9"/><path class="l" d="m696.9 247.9l44 0.9"/><path class="l" d="m760.6 299.4l11.8 0.3"/><path class="l" d="m762 286.9l11.7 0.3"/><path class="l" d="m763.3 274.4l11.8 0.2"/><path class="l" d="m688.8 322.8l44 0.9"/><path class="l" d="m690.1 310.3l44 0.9"/><path class="l" d="m757.9 324.2l11.8 0.3"/><path class="l" d="m759.3 311.7l11.7 0.3"/><path class="l" d="m764.7 261.9l11.7 0.2"/><path class="l" d="m766 249.3l11.8 0.3"/><path class="l" d="m981.1 181.5c-17.6-43.1 3.1-92.3 46.2-109.9 43.1-17.6 92.3 3.1 109.9 46.2z"/><path class="o" d="m1037.4 405.3c0-2.9-2.3-5.3-5.3-5.3-2.9 0-5.3 2.4-5.3 5.3 0 2.9 2.4 5.3 5.3 5.3 3 0 5.3-2.4 5.3-5.3z"/><path class="o" d="m362.9 187.2c0-3-2.4-5.3-5.3-5.3-2.9 0-5.3 2.3-5.3 5.3 0 2.9 2.4 5.3 5.3 5.3 2.9 0 5.3-2.4 5.3-5.3z"/><path class="o" d="m377 837.6c0-2.9-2.4-5.3-5.3-5.3-2.9 0-5.3 2.4-5.3 5.3 0 2.9 2.4 5.3 5.3 5.3 2.9 0 5.3-2.4 5.3-5.3z"/><g style="display:none"><path class="o" d="m-588.4-18v-7.7h-5v21.7h5v-2.3c0.9 1.5 2.7 2.5 5.1 2.5 4 0 7.2-3.2 7.2-8.4 0-5.1-3.2-8.4-7.2-8.4-2.4 0-4.2 1.1-5.1 2.6zm7.2 5.8c0 2.6-1.7 4.1-3.6 4.1-1.9 0-3.6-1.5-3.6-4.1 0-2.6 1.7-4 3.6-4 1.9 0 3.6 1.4 3.6 4zm13 0.6c0-2.8 1.4-3.6 3.7-3.6h1.4v-5.3c-2.2 0-4 1.2-5.1 2.9v-2.7h-5v16.3h5zm6.8-0.6c0 5.1 3.2 8.4 7.2 8.4 2.4 0 4.1-1.1 5-2.5v2.3h5v-16.3h-5v2.3c-0.8-1.5-2.6-2.6-5-2.6-4 0-7.2 3.2-7.2 8.4zm12.2 0c0 2.6-1.6 4.1-3.5 4.1-1.9 0-3.6-1.5-3.6-4.1 0-2.6 1.7-4 3.6-4 1.9 0 3.5 1.4 3.5 4zm20.2 8.2h5v-9.6c0-4.3-2.5-6.9-6.3-6.9-2.2 0-3.9 0.9-4.9 2.3v-2.1h-5v16.3h5v-8.9c0-2.2 1.2-3.4 3.1-3.4 1.9 0 3.1 1.2 3.1 3.4zm7.8-8.2c0 5.2 3.2 8.4 7.2 8.4 2.4 0 4.1-1 5-2.5v2.3h5v-21.6h-5v7.5c-1-1.5-2.9-2.4-5-2.4-4 0-7.2 3.2-7.2 8.3zm12.2 0c0 2.7-1.7 4.1-3.6 4.1-1.8 0-3.5-1.5-3.5-4.1 0-2.6 1.7-4 3.5-4 1.9 0 3.6 1.4 3.6 4zm20.2 8.2h5v-9.5c0-4.4-2.5-7-6.3-7-2.2 0-4 1-5 2.4v-2.2h-5v16.3h5v-8.9c0-2.2 1.3-3.4 3.2-3.4 1.9 0 3.1 1.2 3.1 3.4zm7.8-8.1c0 5.1 3.1 8.4 7.1 8.4 2.4 0 4.2-1.1 5.1-2.6v2.3h5v-16.3h-5v2.3c-0.9-1.4-2.6-2.5-5.1-2.5-4 0-7.1 3.2-7.1 8.4zm12.2 0c0 2.6-1.7 4-3.6 4-1.9 0-3.6-1.4-3.6-4 0-2.6 1.7-4.1 3.6-4.1 1.9 0 3.6 1.5 3.6 4.1zm31.4 8.1h5v-9.5c0-4.4-2.6-7-6.7-7-2.3 0-4.4 1.4-5.5 3.1-1.1-2-3.1-3.1-5.5-3.1-2.2 0-3.8 1-4.8 2.3v-2.1h-5v16.3h5v-8.8c0-2.2 1.2-3.3 3.1-3.3 1.9 0 3.2 1.1 3.2 3.3v8.8h4.9v-8.8c0-2.2 1.3-3.3 3.2-3.3 1.9 0 3.1 1.1 3.1 3.3zm16-12.6c1.6 0 3.1 1.1 3.1 2.8h-6.3c0.3-1.8 1.5-2.8 3.2-2.8zm7.8 7.2h-5.3c-0.4 0.8-1.2 1.5-2.6 1.5-1.6 0-3-0.9-3.1-3.1h11.3c0-0.5 0.1-1 0.1-1.4 0-5-3.4-8.2-8.2-8.2-4.8 0-8.2 3.2-8.2 8.4 0 5.2 3.4 8.4 8.2 8.4 4.1 0 7-2.4 7.8-5.6z"/><path class="o" d="m-593.4 540.5v16.5h8v-1.7h-5.8v-14.8zm22.5 10c0-4.1-2.9-6.7-6.6-6.7-3.6 0-6.5 2.6-6.5 6.7 0 4.1 2.8 6.7 6.4 6.7 3.7 0 6.7-2.6 6.7-6.7zm-10.9 0c0-3.3 2.1-4.8 4.3-4.8 2.2 0 4.4 1.5 4.4 4.8 0 3.3-2.2 4.8-4.5 4.8-2.2 0-4.2-1.5-4.2-4.8zm15.9-0.5c0-3 1.5-4 3.6-4h0.6v-2.2c-2.1 0-3.5 0.9-4.2 2.3v-2.1h-2.2v13h2.2zm12.2-4.3c2.2 0 4.1 1.4 4 3.9h-8.1c0.2-2.5 2-3.9 4.1-3.9zm6 7.3h-2.3c-0.5 1.4-1.7 2.4-3.7 2.4-2.1 0-4-1.4-4.2-4h10.4c0-0.5 0.1-0.9 0.1-1.3 0-3.6-2.5-6.2-6.3-6.2-3.7 0-6.4 2.6-6.4 6.6 0 4.2 2.8 6.8 6.4 6.8 3.3 0 5.3-1.9 6-4.3zm21.8 4h2.1v-7.6c0-3.7-2.3-5.5-5.2-5.5-2 0-3.8 1-4.6 2.8-0.9-1.9-2.6-2.8-4.8-2.8-1.7 0-3.2 0.7-4 2.1v-1.9h-2.2v12.9h2.2v-7.1c0-2.8 1.4-4.2 3.6-4.2 2.1 0 3.6 1.4 3.6 4v7.3h2.1v-7.1c0-2.8 1.5-4.2 3.7-4.2 2.1 0 3.5 1.4 3.5 4zm12 0h2.1v-12.9h-2.1zm1.1-15.1c0.8 0 1.4-0.6 1.4-1.5 0-0.8-0.6-1.4-1.4-1.4-0.9 0-1.5 0.6-1.5 1.4 0 0.9 0.6 1.5 1.5 1.5zm6.8 4.5v-2.4h-2.1v19.1h2.1v-8.5c0.8 1.3 2.5 2.6 4.9 2.6 3.5 0 6.1-2.7 6.1-6.8 0-4-2.6-6.6-6.1-6.6-2.4 0-4.1 1.2-4.9 2.6zm8.8 4c0 3.1-2 4.9-4.4 4.9-2.3 0-4.4-1.8-4.4-4.8 0-3 2.1-4.8 4.4-4.8 2.4 0 4.4 1.7 4.4 4.7zm14.4 3c-0.1-4.6-7.6-2.9-7.6-6 0-1 0.9-1.8 2.5-1.8 1.7 0 2.7 1 2.8 2.3h2.2c-0.2-2.6-2.1-4.1-4.9-4.1-2.9 0-4.8 1.6-4.8 3.6 0 4.8 7.7 3.2 7.7 6 0 1.1-1 2-2.7 2-1.8 0-2.9-1-3-2.2h-2.3c0.2 2.3 2.3 4 5.3 4 2.9 0 4.8-1.6 4.8-3.8zm14.5-9.4h-2.2v7.1c0 2.8-1.5 4.2-3.7 4.2-2.2 0-3.6-1.4-3.6-4v-7.3h-2.1v7.6c0 3.7 2.3 5.6 5.3 5.6 1.7 0 3.3-0.8 4.1-2.2v2h2.2zm22.3 12.9h2.2v-7.6c0-3.7-2.3-5.6-5.3-5.6-2 0-3.8 1-4.6 2.9-0.8-1.9-2.6-2.9-4.7-2.9-1.7 0-3.3 0.8-4.1 2.1v-1.8h-2.2v12.9h2.2v-7.1c0-2.8 1.5-4.2 3.6-4.2 2.2 0 3.6 1.3 3.6 4v7.3h2.1v-7.1c0-2.8 1.5-4.2 3.7-4.2 2.1 0 3.5 1.3 3.5 4zm11.2-6.5c0 4 2.7 6.7 6.1 6.7 2.4 0 4.1-1.2 4.9-2.6v2.4h2.1v-17.5h-2.1v6.9c-0.9-1.5-2.8-2.6-4.8-2.6-3.5 0-6.2 2.6-6.2 6.7zm11 0c0 3-2.1 4.8-4.4 4.8-2.4 0-4.4-1.8-4.4-4.8 0-3.1 2-4.8 4.4-4.8 2.3 0 4.4 1.8 4.4 4.8zm18.1 0c0-4.1-2.9-6.7-6.6-6.7-3.7 0-6.5 2.6-6.5 6.7 0 4.1 2.8 6.7 6.4 6.7 3.7 0 6.7-2.6 6.7-6.7zm-10.9 0c0-3.3 2-4.8 4.3-4.8 2.2 0 4.4 1.5 4.4 4.8 0 3.3-2.2 4.8-4.5 4.8-2.2 0-4.2-1.5-4.2-4.8zm13.7 6.5h2.1v-17.5h-2.1zm18.1-6.5c0-4.1-2.9-6.7-6.5-6.7-3.7 0-6.6 2.6-6.6 6.7 0 4.1 2.8 6.7 6.5 6.7 3.6 0 6.6-2.6 6.6-6.7zm-10.9 0c0-3.3 2.1-4.8 4.3-4.8 2.3 0 4.4 1.5 4.4 4.8 0 3.3-2.2 4.8-4.4 4.8-2.3 0-4.3-1.5-4.3-4.8zm15.9-0.5c0-3.1 1.6-4 3.6-4h0.6v-2.2c-2.1 0-3.5 0.9-4.2 2.3v-2.1h-2.2v13h2.2zm22.3 3.5c-0.1-4.6-7.6-2.9-7.6-6 0-1.1 0.9-1.8 2.5-1.8 1.7 0 2.7 0.9 2.8 2.2h2.2c-0.2-2.5-2.1-4-4.9-4-2.9 0-4.8 1.6-4.8 3.6 0 4.8 7.7 3.1 7.7 6 0 1.1-1 1.9-2.7 1.9-1.8 0-2.9-0.9-3-2.2h-2.2c0.1 2.4 2.2 4.1 5.3 4.1 2.8 0 4.7-1.7 4.7-3.8zm3 3.5h2.2v-12.9h-2.2zm1.1-15.1c0.8 0 1.4-0.6 1.4-1.4 0-0.9-0.6-1.5-1.4-1.5-0.8 0-1.4 0.6-1.4 1.5 0 0.8 0.6 1.4 1.4 1.4zm5.2 11.5c0 2.6 1.3 3.6 3.6 3.6h1.9v-1.8h-1.6c-1.3 0-1.8-0.5-1.8-1.8v-7.6h3.4v-1.8h-3.4v-3.2h-2.1v3.2h-1.7v1.8h1.7zm13.6-3c0 4 2.7 6.8 6.2 6.8 2.3 0 4-1.3 4.8-2.7v2.4h2.2v-12.9h-2.2v2.4c-0.8-1.4-2.4-2.6-4.8-2.6-3.5 0-6.2 2.6-6.2 6.6zm11 0c0 3.1-2 4.9-4.4 4.9-2.4 0-4.4-1.8-4.4-4.9 0-3 2-4.7 4.4-4.7 2.4 0 4.4 1.7 4.4 4.7zm24.5 6.5h2.1v-7.6c0-3.7-2.2-5.5-5.2-5.5-2 0-3.8 1-4.6 2.8-0.8-1.9-2.6-2.8-4.7-2.8-1.7 0-3.3 0.7-4.1 2.1v-1.9h-2.2v12.9h2.2v-7.1c0-2.8 1.5-4.2 3.6-4.2 2.2 0 3.6 1.4 3.6 4v7.3h2.1v-7.1c0-2.8 1.5-4.2 3.7-4.2 2.1 0 3.5 1.4 3.5 4zm11.2-11.3c2.2 0 4.1 1.4 4.1 3.9h-8.2c0.2-2.5 2-3.9 4.1-3.9zm6 7.3h-2.3c-0.5 1.4-1.7 2.4-3.6 2.4-2.2 0-4.1-1.4-4.2-4.1h10.3c0.1-0.4 0.1-0.8 0.1-1.3 0-3.5-2.5-6.1-6.2-6.1-3.8 0-6.4 2.5-6.4 6.6 0 4.1 2.7 6.7 6.4 6.7 3.2 0 5.3-1.8 5.9-4.2zm3.6 0.5c0 2.6 1.3 3.5 3.6 3.5h1.9v-1.8h-1.6c-1.3 0-1.7-0.4-1.7-1.7v-7.7h3.3v-1.7h-3.3v-3.3h-2.2v3.3h-1.7v1.7h1.7zm6.3 7h1.4l2.7-6.4h-2.4zm12-9.9c0 4.1 2.7 6.7 6.4 6.7 3.2 0 5.3-1.8 5.9-4.3h-2.3c-0.5 1.6-1.7 2.5-3.6 2.5-2.4 0-4.2-1.7-4.2-4.9 0-3.1 1.8-4.8 4.2-4.8 1.9 0 3.2 1 3.6 2.5h2.3c-0.6-2.7-2.7-4.3-5.9-4.3-3.7 0-6.4 2.6-6.4 6.6zm27.5 0c0-4.1-2.9-6.6-6.6-6.6-3.6 0-6.5 2.5-6.5 6.6 0 4.1 2.8 6.7 6.4 6.7 3.7 0 6.7-2.6 6.7-6.7zm-10.9 0c0-3.2 2-4.8 4.3-4.8 2.2 0 4.4 1.6 4.4 4.8 0 3.3-2.2 4.8-4.5 4.8-2.2 0-4.2-1.5-4.2-4.8zm23.2 6.5h2.1v-7.6c0-3.7-2.3-5.6-5.3-5.6-1.7 0-3.3 0.8-4.1 2.1v-1.8h-2.2v12.9h2.2v-7.1c0-2.8 1.5-4.2 3.7-4.2 2.2 0 3.6 1.4 3.6 4zm15-3.5c-0.1-4.7-7.6-3-7.6-6.1 0-1 0.9-1.7 2.5-1.7 1.7 0 2.7 0.9 2.8 2.2h2.2c-0.2-2.5-2.1-4.1-4.9-4.1-2.9 0-4.8 1.7-4.8 3.6 0 4.9 7.7 3.2 7.7 6.1 0 1-1 1.9-2.7 1.9-1.8 0-2.9-1-3-2.2h-2.3c0.2 2.4 2.3 4 5.3 4 2.9 0 4.8-1.6 4.8-3.7zm8.5-7.8c2.2 0 4.1 1.3 4.1 3.9h-8.2c0.3-2.6 2-3.9 4.1-3.9zm6.1 7.3h-2.4c-0.4 1.4-1.7 2.4-3.6 2.4-2.2 0-4-1.5-4.2-4.1h10.3c0.1-0.4 0.1-0.8 0.1-1.3 0-3.5-2.4-6.2-6.2-6.2-3.8 0-6.4 2.6-6.4 6.7 0 4.1 2.7 6.7 6.4 6.7 3.2 0 5.3-1.8 6-4.2zm2.2-2.5c0 4.1 2.7 6.7 6.4 6.7 3.2 0 5.3-1.8 5.9-4.4h-2.3c-0.4 1.7-1.7 2.6-3.6 2.6-2.4 0-4.2-1.7-4.2-4.9 0-3.2 1.8-4.8 4.2-4.8 1.9 0 3.2 0.9 3.6 2.5h2.3c-0.6-2.7-2.7-4.4-5.9-4.4-3.7 0-6.4 2.6-6.4 6.7zm15.7 3c0 2.6 1.3 3.5 3.6 3.5h1.9v-1.8h-1.6c-1.3 0-1.8-0.5-1.8-1.7v-7.7h3.4v-1.8h-3.4v-3.2h-2.1v3.2h-1.7v1.8h1.7zm13.6-7.8c2.2 0 4.1 1.4 4.1 3.9h-8.2c0.3-2.5 2-3.9 4.1-3.9zm6.1 7.4h-2.4c-0.4 1.4-1.7 2.4-3.6 2.4-2.2 0-4-1.5-4.2-4.1h10.4c0-0.5 0-0.8 0-1.3 0-3.6-2.4-6.2-6.2-6.2-3.8 0-6.4 2.6-6.4 6.7 0 4.1 2.7 6.7 6.4 6.7 3.2 0 5.3-1.9 6-4.2zm3.5 0.4c0 2.6 1.3 3.6 3.6 3.6h2v-1.9h-1.6c-1.3 0-1.8-0.4-1.8-1.7v-7.6h3.4v-1.8h-3.4v-3.3h-2.2v3.3h-1.6v1.8h1.6zm19.7-9.4h-2.2v7.1c0 2.8-1.5 4.1-3.7 4.1-2.2 0-3.6-1.3-3.6-3.9v-7.3h-2.2v7.6c0 3.7 2.4 5.5 5.4 5.5 1.7 0 3.3-0.7 4.1-2.1v1.9h2.2zm9.1 1.6c2.2 0 4.1 1.4 4.1 4h-8.2c0.3-2.6 2-4 4.1-4zm6.1 7.4h-2.4c-0.4 1.4-1.7 2.4-3.6 2.4-2.2 0-4-1.5-4.2-4.1h10.3c0.1-0.4 0.1-0.8 0.1-1.3 0-3.5-2.4-6.2-6.2-6.2-3.8 0-6.4 2.6-6.4 6.7 0 4.1 2.7 6.7 6.4 6.7 3.2 0 5.3-1.8 6-4.2zm5.2-3.1c0-3 1.6-3.9 3.6-3.9h0.6v-2.2c-2.1 0-3.5 0.9-4.2 2.3v-2.1h-2.1v13h2.1zm-484.8 44.5c0 4 2.7 6.7 6.1 6.7 2.4 0 4.1-1.2 4.9-2.6v2.4h2.2v-12.9h-2.2v2.3c-0.8-1.3-2.4-2.5-4.8-2.5-3.5 0-6.2 2.6-6.2 6.6zm11 0c0 3.1-2.1 4.8-4.4 4.8-2.4 0-4.4-1.7-4.4-4.8 0-3 2-4.8 4.4-4.8 2.3 0 4.4 1.8 4.4 4.8zm5 0c0 4 2.7 6.7 6.1 6.7 2.4 0 4.1-1.2 4.9-2.6v2.4h2.1v-17.5h-2.1v6.9c-0.9-1.5-2.8-2.5-4.8-2.5-3.5 0-6.2 2.6-6.2 6.6zm11 0c0 3.1-2.1 4.8-4.4 4.8-2.4 0-4.4-1.7-4.4-4.8 0-3 2-4.8 4.4-4.8 2.3 0 4.4 1.8 4.4 4.8zm5.8 6.5h2.1v-12.9h-2.1zm1.1-15.1c0.8 0 1.4-0.6 1.4-1.5 0-0.8-0.6-1.4-1.4-1.4-0.8 0-1.5 0.6-1.5 1.4 0 0.9 0.7 1.5 1.5 1.5zm6.8 4.5v-2.4h-2.1v19.1h2.1v-8.5c0.8 1.3 2.5 2.6 4.9 2.6 3.5 0 6.1-2.7 6.1-6.8 0-4-2.6-6.6-6.1-6.6-2.4 0-4.1 1.2-4.9 2.6zm8.8 4c0 3.1-2 4.9-4.4 4.9-2.3 0-4.4-1.8-4.4-4.8 0-3 2.1-4.8 4.4-4.8 2.4 0 4.4 1.7 4.4 4.7zm5.1 6.6h2.1v-13h-2.1zm1.1-15c0.8 0 1.4-0.7 1.4-1.5 0-0.8-0.6-1.5-1.4-1.5-0.8 0-1.5 0.7-1.5 1.5 0 0.8 0.7 1.5 1.5 1.5zm14 11.5c-0.1-4.6-7.6-3-7.6-6 0-1.1 0.9-1.8 2.5-1.8 1.7 0 2.7 0.9 2.8 2.2h2.2c-0.2-2.5-2.1-4-4.9-4-2.9 0-4.8 1.6-4.8 3.6 0 4.8 7.7 3.1 7.7 6 0 1.1-1 1.9-2.7 1.9-1.8 0-2.9-0.9-3-2.2h-2.2c0.1 2.4 2.2 4 5.3 4 2.8 0 4.7-1.6 4.7-3.7zm2.2-3c0 4.1 2.6 6.7 6.3 6.7 3.2 0 5.4-1.8 6-4.3h-2.3c-0.5 1.6-1.8 2.5-3.7 2.5-2.3 0-4.1-1.7-4.1-4.9 0-3.2 1.8-4.8 4.1-4.8 1.9 0 3.2 1 3.7 2.5h2.3c-0.6-2.7-2.8-4.3-6-4.3-3.7 0-6.3 2.6-6.3 6.6zm15.2 6.5h2.1v-12.9h-2.1zm1.1-15.1c0.8 0 1.4-0.6 1.4-1.5 0-0.8-0.6-1.4-1.4-1.4-0.8 0-1.5 0.6-1.5 1.4 0 0.9 0.7 1.5 1.5 1.5zm14.2 15.1h2.1v-7.7c0-3.7-2.3-5.5-5.3-5.5-1.7 0-3.3 0.7-4.2 2.1v-1.9h-2.1v13h2.1v-7.2c0-2.8 1.6-4.2 3.8-4.2 2.1 0 3.6 1.4 3.6 4zm4.8-6.5c0 4 2.7 6.7 6.2 6.7 2.3 0 4-1.2 4.8-2.6v2.7c0 2.8-1.7 4.3-4 4.3-2.2 0-3.7-1.1-4.2-2.7h-2.1c0.4 2.8 2.9 4.5 6.3 4.5 3.8 0 6.2-2.5 6.2-6.1v-13.2h-2.2v2.3c-0.8-1.3-2.5-2.5-4.8-2.5-3.5 0-6.2 2.6-6.2 6.6zm11 0c0 3.1-2.1 4.9-4.4 4.9-2.4 0-4.4-1.8-4.4-4.9 0-3 2-4.8 4.4-4.8 2.3 0 4.4 1.8 4.4 4.8zm17.6-4.8c2.2 0 4.1 1.4 4.1 3.9h-8.2c0.3-2.5 2-3.9 4.1-3.9zm6.1 7.3h-2.3c-0.5 1.4-1.8 2.4-3.7 2.4-2.2 0-4-1.4-4.2-4h10.4c0-0.5 0-0.9 0-1.3 0-3.6-2.4-6.2-6.2-6.2-3.8 0-6.4 2.5-6.4 6.6 0 4.1 2.7 6.7 6.4 6.7 3.2 0 5.3-1.8 6-4.2zm3.1 4h2.1v-17.5h-2.1zm5.8 0h2.1v-12.9h-2.1zm1.1-15.1c0.8 0 1.4-0.6 1.4-1.4 0-0.9-0.6-1.5-1.4-1.5-0.8 0-1.5 0.6-1.5 1.5 0 0.8 0.7 1.4 1.5 1.4zm5.2 11.5c0 2.6 1.3 3.6 3.6 3.6h1.9v-1.8h-1.6c-1.3 0-1.8-0.5-1.8-1.8v-7.6h3.4v-1.8h-3.4v-3.2h-2.1v3.2h-1.7v1.8h1.7zm6.2 6.9h1.5l2.6-6.3h-2.3zm22.1-6.9c-0.1-4.7-7.6-3-7.6-6.1 0-1 1-1.8 2.6-1.8 1.7 0 2.7 1 2.8 2.3h2.1c-0.1-2.5-2-4.1-4.9-4.1-2.9 0-4.7 1.7-4.7 3.6 0 4.9 7.6 3.2 7.6 6.1 0 1-0.9 1.9-2.6 1.9-1.8 0-3-1-3.1-2.2h-2.2c0.2 2.4 2.3 4 5.3 4 2.9 0 4.7-1.6 4.7-3.7zm8.6-7.9c2.2 0 4.1 1.4 4.1 4h-8.2c0.2-2.6 2-4 4.1-4zm6 7.4h-2.3c-0.5 1.4-1.7 2.4-3.6 2.4-2.2 0-4.1-1.5-4.2-4.1h10.3c0.1-0.4 0.1-0.8 0.1-1.3 0-3.5-2.5-6.2-6.2-6.2-3.8 0-6.4 2.6-6.4 6.7 0 4.1 2.7 6.7 6.4 6.7 3.2 0 5.3-1.8 5.9-4.2zm2.3-2.5c0 4 2.7 6.7 6.2 6.7 2.3 0 4-1.2 4.8-2.6v2.4h2.2v-17.5h-2.2v6.9c-0.9-1.5-2.8-2.6-4.8-2.6-3.5 0-6.2 2.6-6.2 6.7zm11 0c0 3-2.1 4.8-4.4 4.8-2.4 0-4.4-1.8-4.4-4.8 0-3.1 2-4.8 4.4-4.8 2.3 0 4.4 1.8 4.4 4.8zm11.3 0c0 4 2.7 6.7 6.1 6.7 2.4 0 4.1-1.2 4.9-2.6v2.4h2.1v-17.5h-2.1v6.9c-0.9-1.5-2.8-2.6-4.8-2.6-3.5 0-6.2 2.6-6.2 6.7zm11 0c0 3-2.1 4.8-4.4 4.8-2.4 0-4.4-1.8-4.4-4.8 0-3.1 2-4.8 4.4-4.8 2.3 0 4.4 1.8 4.4 4.8zm5.8 6.5h2.1v-13h-2.1zm1.1-15c0.8 0 1.4-0.7 1.4-1.5 0-0.8-0.6-1.5-1.4-1.5-0.8 0-1.5 0.7-1.5 1.5 0 0.8 0.7 1.5 1.5 1.5zm3.9 8.5c0 4 2.7 6.8 6.1 6.8 2.4 0 4.1-1.3 4.9-2.7v2.4h2.1v-12.9h-2.1v2.3c-0.8-1.3-2.4-2.5-4.9-2.5-3.4 0-6.1 2.6-6.1 6.6zm11 0c0 3.1-2.1 4.9-4.4 4.9-2.4 0-4.4-1.8-4.4-4.9 0-3 2-4.8 4.4-4.8 2.3 0 4.4 1.8 4.4 4.8zm24.5 6.5h2.1v-7.6c0-3.7-2.3-5.6-5.2-5.6-2 0-3.9 1.1-4.6 2.9-0.9-1.9-2.6-2.9-4.8-2.9-1.7 0-3.2 0.8-4.1 2.2v-1.9h-2.1v12.9h2.1v-7.1c0-2.8 1.5-4.2 3.7-4.2 2.1 0 3.5 1.4 3.5 4v7.3h2.2v-7.1c0-2.8 1.5-4.2 3.6-4.2 2.2 0 3.6 1.4 3.6 4zm21.4 0h2.1v-7.6c0-3.7-2.2-5.6-5.2-5.6-1.8 0-3.4 0.8-4.2 2.1v-1.8h-2.2v12.9h2.2v-7.2c0-2.7 1.5-4.1 3.7-4.1 2.2 0 3.6 1.3 3.6 4zm18-6.5c0-4.1-2.9-6.7-6.6-6.7-3.6 0-6.5 2.6-6.5 6.7 0 4.1 2.8 6.7 6.4 6.7 3.7 0 6.7-2.6 6.7-6.7zm-10.9 0c0-3.3 2-4.8 4.3-4.8 2.2 0 4.4 1.5 4.4 4.8 0 3.3-2.2 4.8-4.5 4.8-2.2 0-4.2-1.5-4.2-4.8zm23.2 6.5h2.1v-7.7c0-3.7-2.3-5.5-5.3-5.5-1.7 0-3.3 0.7-4.1 2.1v-1.9h-2.2v13h2.2v-7.2c0-2.8 1.5-4.1 3.7-4.1 2.1 0 3.6 1.3 3.6 4zm17.1-13h-2.1v7.1c0 2.8-1.5 4.2-3.7 4.2-2.2 0-3.7-1.4-3.7-4v-7.3h-2.1v7.6c0 3.7 2.4 5.5 5.3 5.5 1.8 0 3.3-0.7 4.2-2.1v2h2.1zm22.4 12.9h2.1v-7.6c0-3.7-2.3-5.6-5.3-5.6-1.9 0-3.8 1-4.5 2.9-0.9-1.9-2.7-2.9-4.8-2.9-1.7 0-3.2 0.8-4.1 2.1v-1.8h-2.1v12.9h2.1v-7.1c0-2.8 1.5-4.2 3.7-4.2 2.1 0 3.5 1.3 3.5 4v7.3h2.1v-7.1c0-2.8 1.5-4.2 3.7-4.2 2.1 0 3.6 1.3 3.6 4zm24.3 0h2.1v-7.7c0-3.7-2.3-5.5-5.2-5.5-2 0-3.8 1-4.6 2.9-0.9-2-2.6-2.9-4.8-2.9-1.7 0-3.2 0.7-4 2.1v-1.9h-2.2v13h2.2v-7.2c0-2.7 1.4-4.1 3.6-4.1 2.2 0 3.6 1.3 3.6 4v7.3h2.1v-7.2c0-2.7 1.5-4.1 3.7-4.1 2.1 0 3.5 1.3 3.5 4zm10.6-2.5l-4.1-10.5h-2.4l5.2 12.8-2.5 6.3h2.2l7.8-19.1h-2.2zm24.2 2.5h2.1v-7.7c0-3.7-2.3-5.5-5.3-5.5-1.7 0-3.3 0.7-4.2 2v-1.8h-2.1v13h2.1v-7.2c0-2.8 1.6-4.2 3.8-4.2 2.1 0 3.6 1.4 3.6 4zm5.6 0h2.2v-12.9h-2.2zm1.1-15.1c0.8 0 1.5-0.6 1.5-1.4 0-0.9-0.7-1.5-1.5-1.5-0.8 0-1.4 0.6-1.4 1.5 0 0.8 0.6 1.4 1.4 1.4zm6.9 4.5v-6.9h-2.2v17.5h2.2v-2.4c0.8 1.4 2.5 2.6 4.8 2.6 3.5 0 6.2-2.7 6.2-6.8 0-4-2.7-6.6-6.2-6.6-2.3 0-4 1.2-4.8 2.6zm8.8 4c0 3.1-2 4.9-4.4 4.9-2.4 0-4.4-1.8-4.4-4.8 0-3 2-4.8 4.4-4.8 2.4 0 4.4 1.7 4.4 4.7zm5 6.6h2.2v-7.2c0-2.8 1.5-4.1 3.7-4.1 2.2 0 3.6 1.3 3.6 3.9v7.4h2.1v-7.7c0-3.7-2.3-5.5-5.2-5.5-1.8 0-3.4 0.7-4.2 2.1v-6.4h-2.2zm27-11.4c2.2 0 4.1 1.4 4.1 4h-8.2c0.2-2.6 2-4 4.1-4zm6 7.4h-2.3c-0.5 1.4-1.7 2.4-3.6 2.4-2.2 0-4.1-1.5-4.2-4.1h10.3c0.1-0.4 0.1-0.8 0.1-1.3 0-3.5-2.5-6.2-6.2-6.2-3.8 0-6.4 2.6-6.4 6.7 0 4.1 2.7 6.7 6.4 6.7 3.2 0 5.3-1.8 5.9-4.2zm14.6-9h-2.1v7.1c0 2.8-1.5 4.2-3.8 4.2-2.1 0-3.6-1.3-3.6-4v-7.3h-2.1v7.6c0 3.7 2.3 5.6 5.3 5.6 1.7 0 3.3-0.8 4.2-2.1v1.9h2.1zm3.6 12.9h2.2v-12.9h-2.2zm1.2-15.1c0.7 0 1.4-0.6 1.4-1.4 0-0.9-0.7-1.5-1.4-1.5-0.9 0-1.5 0.6-1.5 1.5 0 0.8 0.6 1.4 1.5 1.4zm14 11.6c-0.1-4.7-7.6-3-7.6-6.1 0-1 0.9-1.8 2.5-1.8 1.7 0 2.7 1 2.8 2.3h2.2c-0.2-2.5-2.1-4.1-4.9-4.1-2.9 0-4.8 1.6-4.8 3.6 0 4.9 7.7 3.2 7.7 6.1 0 1-1 1.9-2.7 1.9-1.8 0-2.9-1-3-2.2h-2.2c0.1 2.3 2.2 4 5.2 4 2.9 0 4.8-1.6 4.8-3.7zm21.7 3.5h2.1v-7.7c0-3.7-2.3-5.5-5.2-5.5-2 0-3.8 1-4.6 2.9-0.9-2-2.6-2.9-4.8-2.9-1.7 0-3.2 0.7-4 2.1v-1.9h-2.2v13h2.2v-7.2c0-2.7 1.4-4.1 3.6-4.1 2.1 0 3.6 1.3 3.6 4v7.3h2.1v-7.2c0-2.7 1.5-4.1 3.7-4.1 2.1 0 3.5 1.3 3.5 4zm17.9-6.5c0-4.1-2.8-6.7-6.5-6.7-3.7 0-6.6 2.6-6.6 6.7 0 4.1 2.8 6.7 6.5 6.7 3.7 0 6.6-2.6 6.6-6.7zm-10.9 0c0-3.3 2.1-4.8 4.4-4.8 2.2 0 4.3 1.5 4.3 4.8 0 3.2-2.2 4.8-4.4 4.8-2.2 0-4.3-1.6-4.3-4.8zm13-0.1c0 4 2.6 6.8 6.1 6.8 2.4 0 4.1-1.2 4.8-2.7v2.5h2.2v-17.5h-2.2v6.8c-0.9-1.5-2.7-2.5-4.8-2.5-3.5 0-6.1 2.6-6.1 6.6zm10.9 0.1c0 3-2 4.8-4.4 4.8-2.3 0-4.3-1.8-4.3-4.9 0-3 2-4.7 4.3-4.7 2.4 0 4.4 1.8 4.4 4.8zm-577.4 47.9c0 2.6 1.3 3.6 3.6 3.6h2v-1.9h-1.6c-1.3 0-1.8-0.4-1.8-1.7v-7.6h3.4v-1.8h-3.4v-3.3h-2.2v3.3h-1.6v1.8h1.6zm8.2 3.5h2.1v-12.9h-2.1zm1.1-15.1c0.8 0 1.4-0.6 1.4-1.5 0-0.8-0.6-1.4-1.4-1.4-0.9 0-1.5 0.6-1.5 1.4 0 0.9 0.6 1.5 1.5 1.5zm14.2 15.1h2.1v-7.7c0-3.7-2.3-5.5-5.3-5.5-1.8 0-3.3 0.7-4.2 2.1v-1.9h-2.1v13h2.1v-7.2c0-2.8 1.5-4.2 3.7-4.2 2.2 0 3.7 1.4 3.7 4zm4.8-6.5c0 4.1 2.6 6.7 6.3 6.7 3.2 0 5.3-1.7 6-4.3h-2.3c-0.5 1.6-1.8 2.5-3.7 2.5-2.3 0-4.1-1.7-4.1-4.9 0-3.1 1.8-4.8 4.1-4.8 1.9 0 3.2 1 3.7 2.5h2.3c-0.7-2.7-2.8-4.3-6-4.3-3.7 0-6.3 2.6-6.3 6.6zm15.2 6.5h2.1v-12.9h-2.1zm1.1-15.1c0.7 0 1.4-0.6 1.4-1.4 0-0.9-0.7-1.5-1.4-1.5-0.9 0-1.5 0.6-1.5 1.5 0 0.8 0.6 1.4 1.5 1.4zm3.9 8.6c0 4 2.6 6.7 6.1 6.7 2.4 0 4.1-1.2 4.8-2.7v2.5h2.2v-17.5h-2.2v6.8c-0.9-1.4-2.7-2.5-4.8-2.5-3.5 0-6.1 2.6-6.1 6.7zm10.9 0c0 3-2 4.8-4.4 4.8-2.3 0-4.3-1.8-4.3-4.8 0-3.1 2-4.8 4.3-4.8 2.4 0 4.4 1.8 4.4 4.8zm17.3-6.5h-2.1v7.1c0 2.8-1.5 4.2-3.7 4.2-2.2 0-3.6-1.3-3.6-4v-7.3h-2.2v7.6c0 3.7 2.4 5.6 5.4 5.6 1.7 0 3.3-0.8 4.1-2.1v1.9h2.1zm13.2 12.9h2.1v-7.6c0-3.7-2.3-5.6-5.3-5.6-1.8 0-3.3 0.8-4.2 2.1v-1.8h-2.1v12.9h2.1v-7.1c0-2.8 1.5-4.2 3.7-4.2 2.2 0 3.7 1.4 3.7 4zm6.1-3.5c0 2.6 1.3 3.5 3.6 3.5h1.9v-1.8h-1.6c-1.3 0-1.8-0.5-1.8-1.7v-7.7h3.4v-1.7h-3.4v-3.3h-2.1v3.3h-1.7v1.7h1.7zm25.9-9.4h-2.1v7.1c0 2.8-1.5 4.2-3.7 4.2-2.2 0-3.7-1.4-3.7-4v-7.3h-2.1v7.6c0 3.7 2.3 5.6 5.3 5.6 1.8 0 3.3-0.8 4.2-2.1v1.9h2.1zm4.1 9.4c0 2.6 1.3 3.5 3.6 3.5h2v-1.8h-1.6c-1.3 0-1.8-0.4-1.8-1.7v-7.7h3.4v-1.7h-3.4v-3.3h-2.2v3.3h-1.7v1.7h1.7zm14.5 3.6h2.1v-17.5h-2.1zm5-6.5c0 4 2.7 6.7 6.1 6.7 2.4 0 4.1-1.2 4.9-2.6v2.4h2.1v-13h-2.1v2.4c-0.8-1.3-2.5-2.6-4.9-2.6-3.4 0-6.1 2.6-6.1 6.7zm11 0c0 3-2.1 4.8-4.4 4.8-2.4 0-4.4-1.8-4.4-4.8 0-3.1 2-4.8 4.4-4.8 2.3 0 4.4 1.8 4.4 4.8zm18.1 0c0-4.1-2.9-6.7-6.6-6.7-3.7 0-6.5 2.6-6.5 6.7 0 4.1 2.8 6.7 6.4 6.7 3.7 0 6.7-2.6 6.7-6.7zm-10.9 0c0-3.3 2-4.8 4.3-4.8 2.2 0 4.4 1.5 4.4 4.8 0 3.3-2.2 4.8-4.5 4.8-2.2 0-4.2-1.5-4.2-4.8zm15.8-0.5c0-3 1.6-4 3.7-4h0.5v-2.2c-2 0-3.4 0.9-4.2 2.3v-2.1h-2.1v13h2.1zm12.2-4.3c2.2 0 4.1 1.4 4.1 3.9h-8.2c0.3-2.5 2-3.9 4.1-3.9zm6.1 7.3h-2.3c-0.5 1.4-1.7 2.4-3.7 2.4-2.2 0-4-1.4-4.2-4h10.4c0-0.5 0-0.9 0-1.3 0-3.6-2.4-6.2-6.2-6.2-3.8 0-6.4 2.6-6.4 6.6 0 4.2 2.7 6.8 6.4 6.8 3.2 0 5.3-1.9 6-4.3zm8.6-7.3c2.2 0 4.1 1.4 4.1 3.9h-8.2c0.2-2.5 2-3.9 4.1-3.9zm6 7.3h-2.3c-0.5 1.4-1.7 2.4-3.6 2.4-2.2 0-4.1-1.4-4.2-4h10.3c0.1-0.5 0.1-0.9 0.1-1.3 0-3.6-2.5-6.2-6.2-6.2-3.8 0-6.4 2.6-6.4 6.6 0 4.2 2.7 6.8 6.4 6.8 3.2 0 5.3-1.9 5.9-4.3zm3.6 0.5c0 2.6 1.3 3.5 3.6 3.5h1.9v-1.8h-1.6c-1.3 0-1.8-0.4-1.8-1.7v-7.6h3.4v-1.8h-3.4v-3.3h-2.1v3.3h-1.7v1.8h1.7zm13.6-3c0 4 2.7 6.7 6.2 6.7 2.3 0 4-1.2 4.8-2.6v2.4h2.2v-17.5h-2.2v6.9c-0.9-1.5-2.8-2.6-4.8-2.6-3.5 0-6.2 2.6-6.2 6.7zm11 0c0 3.1-2 4.8-4.4 4.8-2.4 0-4.4-1.8-4.4-4.8 0-3.1 2-4.8 4.4-4.8 2.4 0 4.4 1.8 4.4 4.8zm18.1 0c0-4.1-2.8-6.7-6.5-6.7-3.7 0-6.6 2.6-6.6 6.7 0 4.1 2.8 6.7 6.5 6.7 3.7 0 6.6-2.6 6.6-6.7zm-10.9 0c0-3.3 2.1-4.8 4.3-4.8 2.3 0 4.4 1.5 4.4 4.8 0 3.3-2.2 4.8-4.4 4.8-2.3 0-4.3-1.5-4.3-4.8zm13.8 6.5h2.1v-17.5h-2.1zm18.1-6.5c0-4.1-2.9-6.7-6.6-6.7-3.7 0-6.5 2.6-6.5 6.7 0 4.1 2.8 6.7 6.4 6.7 3.7 0 6.7-2.6 6.7-6.7zm-10.9 0c0-3.3 2-4.8 4.3-4.8 2.2 0 4.4 1.5 4.4 4.8 0 3.3-2.2 4.8-4.5 4.8-2.2 0-4.2-1.5-4.2-4.8zm15.8-0.5c0-3 1.6-4 3.7-4h0.5v-2.2c-2 0-3.4 0.9-4.2 2.4v-2.1h-2.1v12.9h2.1zm12.2-4.3c2.2 0 4.1 1.4 4.1 3.9h-8.2c0.3-2.5 2-3.9 4.1-3.9zm6.1 7.4h-2.3c-0.5 1.4-1.7 2.4-3.7 2.4-2.2 0-4-1.5-4.2-4.1h10.4c0-0.5 0-0.8 0-1.3 0-3.6-2.4-6.2-6.2-6.2-3.8 0-6.4 2.6-6.4 6.7 0 4.1 2.7 6.7 6.4 6.7 3.2 0 5.3-1.9 6-4.2zm28.1 4h2.1v-7.7c0-3.7-2.3-5.5-5.2-5.5-2 0-3.9 1-4.6 2.9-0.9-2-2.6-2.9-4.8-2.9-1.7 0-3.2 0.7-4.1 2.1v-1.9h-2.1v13h2.1v-7.2c0-2.8 1.5-4.2 3.7-4.2 2.1 0 3.5 1.4 3.5 4v7.4h2.2v-7.2c0-2.8 1.5-4.2 3.6-4.2 2.2 0 3.6 1.4 3.6 4zm4.8-6.5c0 4 2.7 6.7 6.1 6.7 2.4 0 4.1-1.2 4.9-2.6v2.4h2.2v-12.9h-2.2v2.3c-0.8-1.3-2.4-2.5-4.8-2.5-3.5 0-6.2 2.6-6.2 6.6zm11 0c0 3.1-2 4.9-4.4 4.9-2.4 0-4.4-1.8-4.4-4.9 0-3 2-4.8 4.4-4.8 2.4 0 4.4 1.8 4.4 4.8zm5 0c0 4 2.7 6.7 6.2 6.7 2.3 0 4-1.2 4.8-2.6v2.7c0 2.8-1.8 4.2-4 4.2-2.2 0-3.7-1-4.2-2.6h-2.1c0.4 2.8 2.9 4.5 6.3 4.5 3.8 0 6.2-2.5 6.2-6.1v-13.2h-2.2v2.3c-0.8-1.4-2.5-2.5-4.8-2.5-3.5 0-6.2 2.6-6.2 6.6zm11 0c0 3.1-2.1 4.9-4.4 4.9-2.4 0-4.4-1.8-4.4-4.9 0-3 2-4.8 4.4-4.8 2.3 0 4.4 1.8 4.4 4.8zm15.3 6.5h2.1v-7.6c0-3.7-2.3-5.6-5.3-5.6-1.7 0-3.3 0.8-4.2 2.1v-1.8h-2.1v12.9h2.1v-7.1c0-2.8 1.6-4.2 3.8-4.2 2.1 0 3.6 1.4 3.6 4zm4.8-6.5c0 4 2.7 6.7 6.1 6.7 2.4 0 4.1-1.2 4.9-2.6v2.4h2.2v-13h-2.2v2.4c-0.8-1.3-2.4-2.6-4.8-2.6-3.5 0-6.2 2.6-6.2 6.7zm11 0c0 3-2 4.8-4.4 4.8-2.4 0-4.4-1.8-4.4-4.8 0-3.1 2-4.8 4.4-4.8 2.4 0 4.4 1.8 4.4 4.8zm7.9 5.2c0-0.9-0.6-1.5-1.4-1.5-0.8 0-1.5 0.6-1.5 1.5 0 0.8 0.7 1.4 1.5 1.4 0.8 0 1.4-0.6 1.4-1.4z"/><path class="a" d="m-560.4 706.5v16.5h8.3v-2.2h-5.6v-14.3zm16.3 5.5c2.1 0 3.7 1.2 3.7 3.3h-7.2c0.2-2.1 1.7-3.3 3.5-3.3zm6.2 7.1h-2.9c-0.5 1-1.5 1.8-3.1 1.8-2 0-3.6-1.3-3.8-3.4h10c0.1-0.5 0.1-0.9 0.1-1.4 0-3.8-2.6-6.4-6.3-6.4-3.9 0-6.6 2.6-6.6 6.7 0 4.1 2.8 6.8 6.6 6.8 3.2 0 5.2-1.8 6-4.1zm2.3-2.7c0 4 2.8 6.8 6.2 6.8 2.2 0 3.7-1 4.6-2.2v2h2.7v-13.1h-2.7v1.9c-0.8-1.1-2.4-2.1-4.6-2.1-3.4 0-6.2 2.6-6.2 6.7zm10.8 0c0 2.9-1.9 4.5-4 4.5-2 0-4-1.7-4-4.5 0-2.9 2-4.4 4-4.4 2.1 0 4 1.6 4 4.4zm9.2-0.3c0-2.8 1.3-3.6 3.3-3.6h0.7v-2.8c-1.9 0-3.2 0.8-4 2.1v-1.9h-2.7v13.1h2.7zm16 6.9h2.7v-7.7c0-3.7-2.3-5.6-5.4-5.6-1.5 0-3 0.6-3.9 1.7v-1.5h-2.7v13.1h2.7v-7.3c0-2.4 1.3-3.7 3.3-3.7 2 0 3.3 1.3 3.3 3.7zm31.4 0h2.7v-7.8c0-3.6-2.3-5.6-5.4-5.6-1.9 0-3.8 1-4.6 2.6-0.9-1.7-2.6-2.6-4.7-2.6-1.6 0-3 0.7-3.9 1.8v-1.5h-2.7v13.1h2.7v-7.4c0-2.4 1.3-3.6 3.3-3.6 2 0 3.3 1.2 3.3 3.6v7.4h2.7v-7.4c0-2.4 1.3-3.6 3.3-3.6 2 0 3.3 1.2 3.3 3.6zm18.9-6.5c0-4.1-3-6.8-6.7-6.8-3.7 0-6.7 2.7-6.7 6.8 0 4.1 2.8 6.8 6.6 6.8 3.7 0 6.8-2.7 6.8-6.8zm-10.6 0c0-3 1.8-4.4 3.9-4.4 2 0 3.9 1.4 3.9 4.4 0 2.9-2 4.4-4 4.4-2.1 0-3.8-1.5-3.8-4.4zm16.2-0.4c0-2.7 1.3-3.6 3.3-3.6h0.7v-2.8c-1.9 0-3.2 0.8-4 2.1v-1.9h-2.7v13.1h2.7zm12.2-4.1c2 0 3.6 1.3 3.7 3.3h-7.3c0.3-2.1 1.8-3.3 3.6-3.3zm6.2 7.1h-3c-0.5 1.1-1.4 1.9-3.1 1.9-2 0-3.5-1.3-3.7-3.5h10c0.1-0.5 0.1-0.9 0.1-1.3 0-3.9-2.6-6.5-6.4-6.5-3.8 0-6.5 2.7-6.5 6.8 0 4.1 2.8 6.8 6.5 6.8 3.3 0 5.3-1.9 6.1-4.2z"/><path class="o" d="m-575.1 193.7c0-9.9-14.4-5.6-14.4-12.5 0-2.8 2.3-4.3 5.2-4.3 3.2 0.1 4.9 2.1 5.1 3.9h3.9c-0.5-4.1-3.8-6.9-8.9-6.9-5.3 0-8.8 3-8.8 7.4 0 10 14.4 5.4 14.4 12.6 0 2.5-2 4.4-5.4 4.4-3.7 0-5.3-2.2-5.5-4.4h-3.7c0.1 4.4 3.9 7.4 9.2 7.4 5.8 0 8.9-3.8 8.9-7.6zm14.1-11.1c3.6 0 6.7 2.3 6.6 6.4h-13.2c0.3-4.1 3.2-6.4 6.6-6.4zm9.8 11.9h-3.8c-0.7 2.3-2.7 3.9-5.9 3.9-3.5 0-6.5-2.3-6.8-6.6h16.8c0.1-0.7 0.1-1.3 0.1-2.1 0-5.8-4-10-10.1-10-6.1 0-10.3 4.1-10.3 10.8 0 6.6 4.4 10.8 10.3 10.8 5.3 0 8.6-2.9 9.7-6.8zm3.7-4c0 6.6 4.3 10.8 10.3 10.8 5.2 0 8.6-2.9 9.6-7h-3.7c-0.8 2.6-2.8 4.1-5.9 4.1-3.9 0-6.7-2.7-6.7-7.9 0-5.2 2.8-7.9 6.7-7.9 3.1 0 5.2 1.6 5.9 4.1h3.7c-1-4.4-4.4-7-9.6-7-6 0-10.3 4.2-10.3 10.8zm43.2-10.5h-3.5v11.5c0 4.6-2.4 6.8-6 6.8-3.5 0-5.9-2.2-5.9-6.5v-11.8h-3.4v12.3c0 6 3.8 9 8.6 9 2.8 0 5.4-1.2 6.7-3.4v3.1h3.5zm9.4 9.6c0-4.9 2.5-6.4 5.9-6.4h0.9v-3.6c-3.4 0-5.6 1.5-6.8 3.8v-3.4h-3.5v21h3.5zm19.7-7c3.6 0 6.7 2.3 6.7 6.4h-13.3c0.4-4.1 3.2-6.4 6.6-6.4zm9.8 11.9h-3.7c-0.8 2.3-2.8 3.9-5.9 3.9-3.6 0-6.6-2.3-6.8-6.6h16.8c0-0.7 0.1-1.3 0.1-2.1 0-5.7-4-10-10.1-10-6.1 0-10.4 4.2-10.4 10.8 0 6.7 4.4 10.9 10.4 10.9 5.2 0 8.6-3 9.6-6.9zm21.8-3.6v10.1h3.5v-10.1l8.7-16.6h-3.9l-6.6 13.5-6.6-13.5h-3.8zm35.8-0.4c0-6.7-4.7-10.9-10.6-10.9-6 0-10.7 4.2-10.7 10.9 0 6.6 4.6 10.8 10.5 10.8 6 0 10.8-4.2 10.8-10.8zm-17.7 0c0-5.3 3.3-7.8 7-7.8 3.6 0 7.1 2.5 7.1 7.8 0 5.3-3.6 7.8-7.2 7.8-3.6 0-6.9-2.5-6.9-7.8zm40.9-10.5h-3.5v11.5c0 4.5-2.4 6.8-6 6.8-3.5 0-5.9-2.2-5.9-6.5v-11.8h-3.4v12.3c0 6 3.8 9 8.6 9 2.8 0 5.4-1.2 6.7-3.4v3.1h3.5zm9.4 9.6c0-4.9 2.5-6.4 5.8-6.4h1v-3.6c-3.4 0-5.6 1.5-6.8 3.8v-3.4h-3.5v21h3.5zm21 11.4h3.5v-12h9.4v-2.9h-9.4v-9h11.6v-2.8h-15.1zm38-21h-3.5v11.5c0 4.6-2.4 6.8-6 6.8-3.6 0-5.9-2.2-5.9-6.5v-11.8h-3.5v12.3c0 6 3.8 9 8.7 9 2.8 0 5.3-1.2 6.7-3.4v3.1h3.5zm6.6 15.3c0 4.2 2.1 5.7 5.9 5.7h3.1v-2.9h-2.6c-2.1 0-2.9-0.8-2.9-2.8v-12.4h5.5v-2.9h-5.5v-5.3h-3.5v5.3h-2.7v2.9h2.7zm31.8-15.3h-3.4v11.6c0 4.5-2.5 6.7-6.1 6.7-3.5 0-5.8-2.2-5.8-6.4v-11.9h-3.5v12.3c0 6 3.8 9 8.6 9 2.8 0 5.4-1.2 6.8-3.4v3.1h3.4zm9.4 9.6c0-4.9 2.6-6.4 5.9-6.4h0.9v-3.6c-3.3 0-5.6 1.5-6.8 3.8v-3.4h-3.5v21h3.5zm19.8-7c3.6 0 6.6 2.3 6.6 6.4h-13.3c0.4-4.1 3.3-6.4 6.7-6.4zm9.8 12h-3.8c-0.7 2.2-2.7 3.8-5.9 3.8-3.5 0-6.5-2.3-6.8-6.6h16.8c0.1-0.7 0.1-1.3 0.1-2.1 0-5.7-4-10-10.1-10-6.1 0-10.4 4.2-10.4 10.8 0 6.7 4.4 10.9 10.4 10.9 5.2 0 8.6-3 9.7-6.8z"/><path class="o" d="m274.2-11h2.2l-4.5-12.5h-2.4l-4.5 12.5h2.2l0.9-2.6h5.2zm-1.5-4.2h-4l2-5.8zm11.2-4.2v-4.9h-2v13.3h2v-1.4c0.7 0.9 1.9 1.6 3.5 1.6 2.6 0 4.7-2.1 4.7-5.2 0-3-2.1-5-4.7-5-1.6 0-2.8 0.7-3.5 1.6zm6.1 3.4c0 2.2-1.5 3.4-3.1 3.4-1.5 0-3-1.2-3-3.3 0-2.2 1.5-3.4 3-3.4 1.6 0 3.1 1.2 3.1 3.3zm17.1 0.1c0-3.2-2.2-5.1-5-5.1-2.8 0-5.1 1.9-5.1 5.1 0 3.1 2.2 5.1 5 5.1 2.8 0 5.1-2 5.1-5.1zm-8 0c0-2.3 1.4-3.4 2.9-3.4 1.6 0 3 1.1 3 3.4 0 2.2-1.5 3.3-3 3.3-1.6 0-2.9-1.1-2.9-3.3zm22.7-5h-2.1v5.5c0 1.9-1 2.8-2.5 2.8-1.5 0-2.5-0.9-2.5-2.8v-5.5h-2v5.8c0 2.8 1.7 4.3 4.1 4.3 1.1 0 2.3-0.5 2.9-1.4v1.2h2.1zm6.6 7.2c0 2 1.1 2.7 2.8 2.7h1.7v-1.7h-1.3c-0.9 0-1.1-0.3-1.1-1v-5.5h2.4v-1.7h-2.4v-2.4h-2.1v2.4h-1.2v1.7h1.2z"/><path class="o" d="m398.9-17.3c0 3.8 2.9 6.4 6.4 6.4 2.6 0 4.9-1.3 5.8-3.7h-2.4c-0.7 1.3-1.9 1.9-3.4 1.9-2.5 0-4.3-1.8-4.3-4.6 0-2.8 1.8-4.6 4.3-4.6 1.5 0 2.7 0.7 3.4 2h2.4c-0.9-2.5-3.2-3.8-5.8-3.8-3.5 0-6.4 2.7-6.4 6.4zm17.5 1.3c0 3.1 2.1 5.2 4.7 5.2 1.6 0 2.8-0.8 3.5-1.7v1.5h2v-9.9h-2v1.4c-0.7-0.8-1.8-1.6-3.5-1.6-2.6 0-4.7 2-4.7 5.1zm8.2 0c0 2.2-1.5 3.4-3.1 3.4-1.5 0-3-1.3-3-3.4 0-2.1 1.5-3.3 3-3.3 1.6 0 3.1 1.2 3.1 3.3zm8.6 2.2c0 2.1 1.1 2.8 2.9 2.8h1.6v-1.7h-1.2c-0.9 0-1.2-0.3-1.2-1.1v-5.4h2.4v-1.7h-2.4v-2.5h-2.1v2.5h-1.1v1.7h1.1zm14.2-5.6c1.5 0 2.7 0.9 2.8 2.5h-5.5c0.2-1.6 1.3-2.5 2.7-2.5zm4.6 5.4h-2.2c-0.4 0.7-1.1 1.3-2.3 1.3-1.5 0-2.7-0.9-2.8-2.6h7.5c0.1-0.3 0.1-0.6 0.1-1 0-2.9-2-4.9-4.8-4.9-2.9 0-5 2-5 5.1 0 3.2 2.1 5.2 5 5.2 2.4 0 4-1.4 4.5-3.1zm5.2-2.1c0 3.1 2.1 5.2 4.7 5.2 1.6 0 2.8-0.8 3.5-1.7v1.7c0 2-1.2 2.9-2.8 2.9-1.4 0-2.5-0.7-2.8-1.7h-2.1c0.3 2.2 2.2 3.5 4.9 3.5 3.1 0 4.8-2 4.8-4.7v-10.1h-2v1.4c-0.7-0.8-1.9-1.6-3.5-1.6-2.6 0-4.7 2-4.7 5.1zm8.2 0c0 2.2-1.5 3.4-3 3.4-1.6 0-3.1-1.3-3.1-3.4 0-2.1 1.5-3.3 3.1-3.3 1.5 0 3 1.2 3 3.3zm17.8 0c0-3.1-2.3-5.1-5.1-5.1-2.8 0-5 2-5 5.1 0 3.2 2.1 5.2 4.9 5.2 2.9 0 5.2-2 5.2-5.2zm-8 0c0-2.2 1.3-3.3 2.9-3.3 1.5 0 3 1.1 3 3.3 0 2.3-1.5 3.4-3.1 3.4-1.5 0-2.8-1.1-2.8-3.4zm15.7-0.2c0-2.1 0.9-2.7 2.4-2.7h0.5v-2.2c-1.4 0-2.4 0.6-2.9 1.6v-1.4h-2.1v9.9h2.1zm8.4 5.2h2.1v-9.9h-2.1zm1.1-11.2c0.7 0 1.3-0.6 1.3-1.3 0-0.8-0.6-1.3-1.3-1.3-0.8 0-1.3 0.5-1.3 1.3 0 0.7 0.5 1.3 1.3 1.3zm11.5 2.9c1.5 0 2.7 0.9 2.7 2.5h-5.5c0.3-1.6 1.4-2.5 2.8-2.5zm4.6 5.4h-2.2c-0.4 0.7-1.1 1.3-2.4 1.3-1.5 0-2.6-0.9-2.8-2.6h7.6c0.1-0.3 0.1-0.6 0.1-1 0-2.9-2-4.9-4.9-4.9-2.9 0-4.9 2-4.9 5.1 0 3.2 2.1 5.2 4.9 5.2 2.5 0 4-1.4 4.6-3.1zm13.3 0.1c-0.1-3.5-5.7-2.4-5.7-4.4 0-0.7 0.6-1.1 1.7-1.1 1.1 0 1.7 0.6 1.8 1.4h2.1c-0.2-2-1.6-3.2-3.9-3.2-2.3 0-3.8 1.3-3.8 2.9 0 3.6 5.8 2.5 5.8 4.5 0 0.6-0.7 1.1-1.9 1.1-1.1 0-1.9-0.6-1.9-1.4h-2.2c0.1 1.8 1.8 3.2 4.2 3.2 2.3 0 3.8-1.3 3.8-3z"/><path class="o" d="m597.8-17.8v-4h2.3c1.6 0 2.3 0.7 2.3 2 0 1.3-0.7 2.1-2.3 2.1zm6.7-2.1c0-2-1.5-3.7-4.5-3.7h-4.3v12.5h2.1v-5.1h2.2c3.3 0 4.5-1.9 4.5-3.7zm7.6 3.6c0-2.1 0.9-2.8 2.4-2.8h0.5v-2.1c-1.4 0-2.4 0.6-2.9 1.6v-1.4h-2.1v9.9h2.1zm17.9 0.3c0-3.2-2.3-5.2-5.1-5.2-2.8 0-5 2-5 5.2 0 3.1 2.1 5.1 4.9 5.1 2.9 0 5.2-2 5.2-5.1zm-8 0c0-2.3 1.3-3.4 2.9-3.4 1.5 0 3 1.1 3 3.4 0 2.2-1.5 3.3-3.1 3.3-1.5 0-2.8-1.1-2.8-3.3zm27.7 4.9h2v-5.8c0-2.8-1.8-4.3-4.1-4.3-1.4 0-2.8 0.8-3.4 2-0.7-1.3-2-2-3.6-2-1.2 0-2.3 0.5-2.9 1.3v-1.1h-2.1v9.9h2.1v-5.5c0-1.8 1-2.8 2.5-2.8 1.5 0 2.5 1 2.5 2.8v5.5h2v-5.5c0-1.8 1-2.8 2.5-2.8 1.5 0 2.5 1 2.5 2.8zm17.7-5c0-3.1-2.3-5.1-5.1-5.1-2.8 0-5 2-5 5.1 0 3.1 2.1 5.1 4.9 5.1 2.9 0 5.2-2 5.2-5.1zm-8.1 0c0-2.2 1.4-3.3 3-3.3 1.5 0 3 1.1 3 3.3 0 2.3-1.6 3.4-3.1 3.4-1.5 0-2.9-1.1-2.9-3.4z"/><path class="o" d="m742.8-14.5c0-4.6-6.6-2.9-6.6-5.7 0-1.2 0.9-1.8 2.1-1.7 1.3 0 2 0.8 2.1 1.6h2.2c-0.1-2.1-1.8-3.4-4.2-3.4-2.6 0-4.3 1.4-4.3 3.6 0 4.6 6.6 2.6 6.6 5.7 0 1-0.8 1.8-2.2 1.8-1.5 0-2.2-0.8-2.3-1.9h-2.2c0 2.3 2 3.6 4.5 3.6 2.8 0 4.3-1.8 4.3-3.6zm10.2-4.9c1.5 0 2.7 1 2.8 2.5h-5.5c0.2-1.5 1.3-2.5 2.7-2.5zm4.6 5.4h-2.2c-0.4 0.8-1.1 1.4-2.3 1.4-1.5 0-2.7-1-2.8-2.6h7.5c0.1-0.3 0.1-0.7 0.1-1 0-2.9-2-4.9-4.8-4.9-3 0-5 2-5 5.1 0 3.1 2.1 5.2 5 5.2 2.4 0 4-1.4 4.5-3.2zm5.2-2c0 3.1 2.1 5.2 4.7 5.2 1.6 0 2.8-0.8 3.5-1.7v1.5h2v-9.9h-2v1.4c-0.7-0.8-1.8-1.6-3.5-1.6-2.6 0-4.7 2-4.7 5.1zm8.2 0c0 2.2-1.5 3.4-3 3.4-1.6 0-3.1-1.3-3.1-3.4 0-2.1 1.5-3.3 3.1-3.3 1.5 0 3 1.2 3 3.3zm10.4-0.2c0-2.1 0.9-2.8 2.4-2.8h0.5v-2.1c-1.4 0-2.3 0.6-2.9 1.6v-1.4h-2.1v9.9h2.1zm7.8 0.3c0 3.1 2 5.1 4.8 5.1 2.4 0 4-1.4 4.6-3.3h-2.2c-0.4 1-1.2 1.6-2.4 1.6-1.6 0-2.7-1.3-2.7-3.4 0-2.2 1.1-3.4 2.7-3.4 1.2 0 2 0.6 2.4 1.5h2.2c-0.6-2.1-2.2-3.3-4.6-3.3-2.8 0-4.8 2.1-4.8 5.2zm15 4.9h2.1v-5.5c0-1.8 1-2.8 2.5-2.8 1.5 0 2.5 1 2.5 2.8v5.5h2v-5.8c0-2.8-1.7-4.3-3.9-4.3-1.3 0-2.4 0.5-3.1 1.4v-4.6h-2.1z"/><path class="o" d="m-550.9 230.1h-40.4v65.9h40.4v-12.9h-24.4v-14.4h21.6v-12.4h-21.6v-13.4h24.4zm41.4 66h18l-18-26.1 17.6-26.3h-17.4l-8.5 14.4-10-14.4h-18.1l17.8 25.6-17.3 26.8h17.4l8.4-14.6zm40.3-45v-7.4h-16v77.4h16v-32.3c3 4.4 8.5 8.1 16.2 8.1 12.9 0 23.1-10.6 23.1-27.1 0-16.5-10.2-26.9-23.1-26.9-7.7 0-13.2 3.6-16.2 8.2zm23 18.7c0 8.4-5.5 13.1-11.6 13.1-6 0-11.4-4.6-11.4-13 0-8.4 5.4-13 11.4-13 6.1 0 11.6 4.5 11.6 12.9zm24.8 26.3h16v-69.5h-16zm79-26.2c0-16.6-11.9-27-27.3-27-15.3 0-27.2 10.4-27.2 27 0 16.6 11.6 26.9 27 26.9 15.4 0 27.5-10.3 27.5-26.9zm-38.2 0c0-8.9 5.1-13.1 10.9-13.1 5.7 0 10.9 4.2 10.9 13.1 0 8.8-5.3 13-11.1 13-5.8 0-10.7-4.2-10.7-13zm62.8 1.9c0-9.1 4.4-11.7 12-11.7h4.4v-17c-7 0-12.8 3.8-16.4 9.3v-8.7h-16.1v52.4h16.1zm47.2-16c5.4 0 9.9 3.3 9.9 9h-20.1c0.9-5.8 5-9 10.2-9zm25.1 22.9h-17.1c-1.3 2.9-3.8 5.1-8.3 5.1-5.2 0-9.4-3.2-10-10h36.4c0.1-1.6 0.2-3.2 0.2-4.7 0-16-10.8-26.1-26.1-26.1-15.6 0-26.5 10.3-26.5 26.9 0 16.6 11.1 27 26.5 27 13.1 0 22.4-7.9 24.9-18.2z"/><path class="r" d="m-543.4 366.4c0-22.1-32.6-16.9-32.6-28.4 0-4.1 2.9-6.1 6.8-6 4.3 0.1 7.3 2.6 7.6 6.8h17.3c-0.6-12.5-10.3-19.7-24.7-19.7-13.8 0-24 7-24 19.5-0.2 23.4 32.8 16.8 32.8 29 0 3.8-3 6.2-7.7 6.2-4.5 0-7.7-2.5-8.2-7.5h-17.1c0.5 13.3 11.6 20.4 25.7 20.4 15.4 0 24.1-9.2 24.1-20.3zm61.1-6.6c0-16.6-11.8-27-27.2-27-15.3 0-27.2 10.4-27.2 27 0 16.6 11.6 27 27 27 15.4 0 27.4-10.4 27.4-27zm-38.1 0c0-8.9 5.1-13.1 10.9-13.1 5.6 0 10.9 4.2 10.9 13.1 0 8.8-5.4 13-11.1 13-5.8 0-10.7-4.2-10.7-13zm98.4-26.2h-16v28.4c0 7.2-4 11.1-10.2 11.1-6 0-10-3.9-10-11.1v-28.4h-16v30.6c0 14 8.2 22.4 20.3 22.4 7.1 0 12.7-3.2 15.9-7.7v7.1h16zm47.8 52.4h15.9v-30.6c0-14.1-8-22.4-20.2-22.4-7 0-12.6 3.1-15.8 7.6v-7h-16.1v52.4h16.1v-28.4c0-7.2 3.9-11.1 10-11.1 6.1 0 10.1 3.9 10.1 11.1zm23.9-26.3c0 16.5 10.3 27 23.1 27 7.7 0 13.3-3.5 16.2-8.3v7.6h16.1v-69.6h-16.1v24.4c-3.2-4.8-9.2-8-16.2-8-12.8 0-23.1 10.3-23.1 26.9zm39.3 0c0 8.4-5.4 13-11.5 13-6 0-11.4-4.7-11.4-13 0-8.4 5.4-12.9 11.4-12.9 6.1 0 11.5 4.6 11.5 12.9zm47.6 26.3h16.1v-26.7h20.1v-12.5h-20.1v-13.9h26.8v-12.9h-42.9zm51.4 0h16.1v-52.4h-16.1zm8.1-57.9c5.6 0 9.5-3.8 9.5-8.6 0-4.9-3.9-8.8-9.5-8.8-5.8 0-9.6 3.9-9.6 8.8 0 4.8 3.8 8.6 9.6 8.6zm55.8 57.9h15.9v-30.6c0-14.1-8-22.4-20.2-22.4-7 0-12.6 3.1-15.8 7.5v-6.9h-16.1v52.4h16.1v-28.5c0-7.1 3.9-11.1 10-11.1 6.1 0 10.1 4 10.1 11.1zm23.9-26.3c0 16.6 10.3 27.1 23 27.1 7.8 0 13.4-3.6 16.3-8.2v7.4h16.1v-52.4h-16.1v7.4c-2.8-4.6-8.4-8.1-16.2-8.1-12.8 0-23.1 10.3-23.1 26.8zm39.3 0.1c0 8.4-5.4 13-11.5 13-6 0-11.4-4.7-11.4-13.1 0-8.3 5.4-12.8 11.4-12.8 6.1 0 11.5 4.6 11.5 12.9zm63.9 26.2h15.9v-30.6c0-14.1-8-22.4-20.2-22.4-7 0-12.6 3.1-15.8 7.6v-7h-16.1v52.4h16.1v-28.4c0-7.2 3.9-11.1 10-11.1 6.1 0 10.1 3.9 10.1 11.1zm23.9-26.2c0 16.6 10.9 26.9 26.3 26.9 13.2 0 22.5-7.6 25.2-19.7h-17.1c-1.4 3.8-3.9 6-8.4 6-5.7 0-9.6-4.5-9.6-13.2 0-8.8 3.9-13.3 9.6-13.3 4.5 0 7.1 2.4 8.4 6h17.1c-2.7-12.5-12-19.7-25.2-19.7-15.4 0-26.3 10.4-26.3 27zm60.1 26.2h16v-52.5h-16zm8-57.8c5.7 0 9.5-3.9 9.5-8.7 0-4.8-3.8-8.7-9.5-8.7-5.7 0-9.5 3.9-9.5 8.7 0 4.8 3.8 8.7 9.5 8.7zm16.5 31.5c0 16.6 10.2 27.1 23 27.1 7.8 0 13.3-3.6 16.2-8.2v7.4h16.1v-52.4h-16.1v7.5c-2.8-4.7-8.3-8.2-16.1-8.2-12.9 0-23.1 10.3-23.1 26.8zm39.2 0.1c0 8.4-5.3 13-11.4 13-6 0-11.5-4.7-11.5-13.1 0-8.3 5.5-12.8 11.5-12.8 6.1 0 11.4 4.6 11.4 12.9zm27.8 26.2h16v-69.5h-16zm-697.9 69.4c0-22.1-32.6-16.9-32.6-28.4 0-4.1 2.9-6.1 6.8-6 4.3 0.1 7.3 2.6 7.6 6.9h17.3c-0.6-12.6-10.3-19.8-24.7-19.8-13.8 0-24 7-24 19.5-0.2 23.4 32.8 16.8 32.8 29 0 3.9-3 6.2-7.7 6.2-4.5 0-7.7-2.4-8.2-7.5h-17.1c0.5 13.3 11.6 20.4 25.7 20.4 15.4 0 24.1-9.2 24.1-20.3zm12.4 1.4c0 13.6 7.6 18.2 18.5 18.2h8.2v-13.6h-5.8c-3.5 0-4.9-1.3-4.9-4.4v-21h10.6v-13.4h-10.6v-12.8h-16v12.8h-6.4v13.4h6.4zm51.7-6.2c0-9 4.4-11.6 12-11.6h4.4v-17c-7.1 0-12.8 3.8-16.4 9.3v-8.7h-16.1v52.4h16.1zm20.9-2c0 16.5 10.2 27.1 23 27.1 7.8 0 13.4-3.6 16.3-8.2v7.4h16v-52.4h-16v7.4c-2.9-4.6-8.4-8.2-16.2-8.2-12.9 0-23.1 10.4-23.1 26.9zm39.3 0.1c0 8.4-5.4 13-11.5 13-6 0-11.5-4.7-11.5-13.1 0-8.4 5.5-12.9 11.5-12.9 6.1 0 11.5 4.6 11.5 13zm30.2 8c0 13.6 7.6 18.2 18.5 18.2h8.2v-13.6h-5.7c-3.6 0-4.9-1.3-4.9-4.4v-21.1h10.5v-13.3h-10.5v-12.8h-16.1v12.8h-6.4v13.3h6.4zm58.7-22c5.4 0 9.9 3.2 9.9 9h-20.1c0.9-5.9 5-9 10.2-9zm25.1 22.9h-17.1c-1.3 2.8-3.8 5-8.4 5-5.1 0-9.3-3.1-9.9-10h36.3c0.2-1.6 0.3-3.2 0.3-4.7 0-16-10.8-26.1-26.1-26.1-15.6 0-26.5 10.3-26.5 26.9 0 16.7 11.1 27 26.5 27 13.1 0 22.4-7.9 24.9-18.1zm6.5-8.9c0 16.5 10.2 27 23.1 27 7.7 0 13.2-3.7 16.2-8.3v7.5c0 8.8-4.8 12-10.9 12-5.6 0-9.5-2.6-10.6-6.5h-15.8c1.4 12.5 11.5 20.4 27.1 20.4 18.1 0 26.2-11.9 26.2-25.9v-52.4h-16v7.5c-2.9-4.7-8.5-8.2-16.2-8.2-12.9 0-23.1 10.3-23.1 26.9zm39.3 0c0 8.4-5.4 13-11.5 13-6 0-11.5-4.7-11.5-13 0-8.4 5.5-12.9 11.5-12.9 6.1 0 11.5 4.6 11.5 12.9zm27.7 26.3h16v-52.5h-16zm8-57.8c5.7 0 9.5-3.9 9.5-8.7 0-4.9-3.8-8.7-9.5-8.7-5.7 0-9.5 3.8-9.5 8.7 0 4.8 3.8 8.7 9.5 8.7zm42.8 17.5c5.3 0 9.8 3.3 9.8 9.1h-20.1c1-5.9 5-9.1 10.3-9.1zm25.1 23h-17.1c-1.3 2.8-3.9 5-8.4 5-5.2 0-9.4-3.2-9.9-10h36.3c0.2-1.6 0.3-3.2 0.3-4.7 0-16-10.8-26.1-26.1-26.1-15.6 0-26.5 10.3-26.5 26.9 0 16.7 11.1 27 26.5 27 13 0 22.3-7.9 24.9-18.1zm52.2 2.1c-0.3-19.5-28.7-13.6-28.7-22 0-2.5 2.1-4 5.9-4 4.5 0 7.2 2.3 7.7 5.9h14.8c-1-10.3-8.5-17.8-22.1-17.8-13.7 0-21.3 7.3-21.3 16.2 0 19.3 28.6 13.2 28.6 21.6 0 2.4-2.2 4.3-6.3 4.3-4.4 0-7.7-2.5-8.1-6.2h-15.9c0.8 10.2 10.2 18 24.2 18 13.1 0 21.2-6.9 21.2-16z"/></g></svg>